**ABCDEFGHIJKLMNOPQRSTUVWXYZabcdefghijklmnopqrstuvwxyz**************************
**PARASOLID !"#$%&'()*+,-./:;<=>?@[\]^_`{|}~0123456789**************************
**PART1;
MC=AMD64;
MC_MODEL=Intel64 Family 6 Model 158 Stepping 9, GenuineIntel;
MC_ID=unknown;
OS=Windows_NT;
OS_RELEASE=unknown;
FRU=Parasolid Version 34.1, build 225,  5-24-2022;
APPL=SOLIDWORKS 2023-2022300;
SITE=;
USER=unknown;
FORMAT=text;
GUISE=transmit;
KEY=6-12bearing;
FILE=6-12bearing.x_t;
DATE=Wed Feb 14 12:24:20 2024;
**PART2;
SCH=SCH_3401225_34101;
USFLD_SIZE=0;
**PART3;
**END_OF_HEADER*****************************************************************
T51 : TRANSMIT FILE created by modeller version 340122517 SCH_2100000_200000 12
 1 446 2 3 0 0 0 0 1e3 1e-8 0 4 0 1 0 1 1 5 6 7 0 8 9 0 0 0 0 0 81 2 2 432 10 1
 11 0 0 0 0 12 70 3 0 4 T1 0 0 9 20 1 13 13 13 5 89 0 1 0 14 0 0 15 0 51 6 178 0
 14 16 0 0 +0 0 0 0 -1 0 .0053 0 0 -1 31 7 192 0 9 17 0 0 +0 .004 0 0 -1 0 0 0 -
1 .0053 19 8 93 0 1 15 0 18 V16 9 157 0 ?19 0 20 7 0 0 1 17 19 0 21 19 19 0 22 9
 0 0 +16 20 152 0 ?23 9 24 17 0 0 1 17 23 0 25 23 23 0 26 20 0 0 +16 24 147 0 ?2
7 20 28 29 0 0 1 31 17 191 0 20 29 7 0 +0 .004 0 0 -1 0 0 0 -1 .006 31 29 190 0
 24 30 17 0 +0 8e-4 0 0 -1 0 0 0 -1 .006 31 30 189 0 28 31 29 0 +0 8e-4 0 0 -1 0
 0 0 -1 .006825 16 28 142 0 ?32 24 33 30 0 0 1 31 31 188 0 33 34 30 0 +0 -468427
400673863e-33 0 0 -1 0 0 0 -1 .006825 16 33 137 0 ?35 28 36 31 0 0 1 31 34 187 0
 36 37 31 0 +0 -281668763803892e-33 0 0 -1 0 0 0 -1 .0053 16 36 132 0 ?38 33 39
 34 0 0 1 31 37 186 0 39 40 34 0 +0 35e-5 0 0 -1 0 0 0 -1 .0053 16 39 127 0 ?41
 36 42 37 0 0 1 31 40 185 0 42 43 37 0 +0 35e-5 0 0 -1 0 0 0 -1 .0036 16 42 122
 0 ?44 39 45 40 0 0 1 31 43 184 0 45 46 40 0 +0 -813151629364128e-34 0 0 -1 0 0
 0 -1 .0036 16 45 117 0 ?47 42 48 43 0 0 1 31 46 183 0 48 49 43 0 +0 0 0 0 -1 0
 0 0 -1 .003 16 48 112 0 ?50 45 51 46 0 0 1 31 49 182 0 51 52 46 0 +0 .004 0 0 -
1 0 0 0 -1 .003 16 51 107 0 ?53 48 54 49 0 0 1 31 52 181 0 54 55 49 0 +0 .004 0
 0 -1 0 0 0 -1 .0036 16 54 102 0 ?56 51 57 52 0 0 1 31 55 180 0 57 58 52 0 +0 .0
0365 0 0 -1 0 0 0 -1 .0036 16 57 97 0 ?59 54 60 55 0 0 1 31 58 179 0 60 0 55 0 +
0 .00365 0 0 -1 0 0 0 -1 .0053 16 60 95 0 ?61 57 0 58 0 0 1 17 61 0 62 61 61 0 6
3 60 0 0 +15 62 162 0 61 14 0 17 63 0 64 63 63 0 61 60 0 0 -15 64 249 0 63 65 66
 14 65 100 67 ?0 68 64 5 69 -0 0 0 68 18 15 66 99 0 59 65 0 17 59 0 66 59 59 0 7
0 57 0 0 +17 70 0 71 70 70 0 59 57 0 0 -15 71 250 0 70 68 72 14 68 105 73 ?65 74
 71 5 75 -0 0 65 74 18 15 72 104 0 56 68 0 17 56 0 72 56 56 0 76 54 0 0 +17 76 0
 77 76 76 0 56 54 0 0 -15 77 251 0 76 74 78 14 74 110 79 ?68 80 77 5 81 -0 0 68
 80 18 15 78 109 0 53 74 0 17 53 0 78 53 53 0 82 51 0 0 +17 82 0 83 82 82 0 53 5
1 0 0 -15 83 252 0 82 80 84 14 80 115 85 ?74 86 83 5 87 -0 0 74 86 18 15 84 114
 0 50 80 0 17 50 0 84 50 50 0 88 48 0 0 +17 88 0 89 88 88 0 50 48 0 0 -15 89 253
 0 88 86 90 14 86 120 91 ?80 92 89 5 93 -0 0 80 92 18 15 90 119 0 47 86 0 17 47
 0 90 47 47 0 94 45 0 0 +17 94 0 95 94 94 0 47 45 0 0 -15 95 254 0 94 92 96 14 9
2 125 97 ?86 98 95 5 99 -0 0 86 98 18 15 96 124 0 44 92 0 17 44 0 96 44 44 0 100
 42 0 0 +17 100 0 101 100 100 0 44 42 0 0 -15 101 255 0 100 98 102 14 98 130 103
 ?92 104 101 5 105 -0 0 92 104 18 15 102 129 0 41 98 0 17 41 0 102 41 41 0 106 3
9 0 0 +17 106 0 107 106 106 0 41 39 0 0 -15 107 256 0 106 104 108 14 104 135 109
 ?98 110 107 5 111 -0 0 98 110 18 15 108 134 0 38 104 0 17 38 0 108 38 38 0 112
 36 0 0 +17 112 0 113 112 112 0 38 36 0 0 -15 113 257 0 112 110 114 14 110 140 1
15 ?104 116 113 5 117 -0 0 104 116 18 15 114 139 0 35 110 0 17 35 0 114 35 35 0
 118 33 0 0 +17 118 0 119 118 118 0 35 33 0 0 -15 119 258 0 118 116 120 14 116 1
45 121 ?110 122 119 5 123 -0 0 110 122 18 15 120 144 0 32 116 0 17 32 0 120 32 3
2 0 124 28 0 0 +17 124 0 125 124 124 0 32 28 0 0 -15 125 259 0 124 122 126 14 12
2 150 127 ?116 128 125 5 129 -0 0 116 128 18 15 126 149 0 27 122 0 17 27 0 126 2
7 27 0 130 24 0 0 +17 130 0 131 130 130 0 27 24 0 0 -15 131 260 0 130 128 25 14
 128 155 132 ?122 133 131 5 134 -0 0 122 133 18 15 25 154 0 23 128 0 81 1 132 44
4 135 128 136 0 127 137 138 14 133 160 137 ?128 14 139 5 16 -0 0 128 14 18 51 13
4 176 0 128 129 16 0 -0 0 0 0 -1 0 .006 0 0 -1 13 18 92 0 0 0 0 0 0 8 14 14 14 1
63 140 ?133 0 141 5 6 -0 0 133 0 18 81 1 140 446 135 14 142 0 137 0 143 15 141 2
62 0 22 14 62 17 22 0 141 22 22 0 19 9 0 0 -80 1 135 144 145 9000 1 1 1 1 1 1 1
 1 0 FFFFTFTFFFFFFF1 81 1 142 389 146 14 0 140 0 147 148 81 1 137 445 135 133 14
7 0 132 140 149 82 1 143 -545324729 81 1 147 390 146 133 0 137 142 136 150 82 1
 149 -545652409 80 1 146 0 151 8001 0 0 0 0 3 5 0 0 0 FFFFTFTFFFFFFF2 81 1 136 3
91 146 128 0 132 147 152 153 83 3 150 .792156862745098 .819607843137255 .9333333
33333333 81 1 152 392 146 122 0 127 136 154 155 83 3 153 .792156862745098 .81960
7843137255 .933333333333333 81 1 127 443 135 122 152 0 121 132 156 81 1 154 393
 146 116 0 121 152 157 158 83 3 155 .792156862745098 .819607843137255 .933333333
333333 81 1 121 442 135 116 154 0 115 127 159 81 1 157 394 146 110 0 115 154 160
 161 83 3 158 .792156862745098 .819607843137255 .933333333333333 81 1 115 441 13
5 110 157 0 109 121 162 81 1 160 395 146 104 0 109 157 163 164 83 3 161 .7921568
62745098 .819607843137255 .933333333333333 81 1 109 440 135 104 160 0 103 115 16
5 81 1 163 396 146 98 0 103 160 166 167 83 3 164 .792156862745098 .8196078431372
55 .933333333333333 81 1 103 439 135 98 163 0 97 109 168 81 1 166 397 146 92 0 9
7 163 169 170 83 3 167 .792156862745098 .819607843137255 .933333333333333 81 1 9
7 438 135 92 166 0 91 103 171 81 1 169 398 146 86 0 91 166 172 173 83 3 170 .792
156862745098 .819607843137255 .933333333333333 81 1 91 437 135 86 169 0 85 97 17
4 81 1 172 399 146 80 0 85 169 175 176 83 3 173 .792156862745098 .81960784313725
5 .933333333333333 81 1 85 436 135 80 172 0 79 91 177 81 1 175 400 146 74 0 79 1
72 178 179 83 3 176 .792156862745098 .819607843137255 .933333333333333 81 1 79 4
35 135 74 175 0 73 85 180 81 1 178 401 146 68 0 73 175 181 182 83 3 179 .7921568
62745098 .819607843137255 .933333333333333 81 1 73 434 135 68 178 0 67 79 183 81
 1 181 402 146 65 0 67 178 0 184 83 3 182 .792156862745098 .819607843137255 .933
333333333333 81 1 67 433 135 65 181 0 0 73 185 83 3 184 .792156862745098 .819607
843137255 .933333333333333 82 1 185 -552730297 82 1 183 -552140473 82 1 180 -551
550649 82 1 177 -550960825 82 1 174 -550371001 82 1 171 -549781177 82 1 168 -549
191353 82 1 165 -548601529 82 1 162 -548011705 82 1 159 -547421881 82 1 156 -546
832057 79 15 151 SDL/TYSA_COLOUR83 3 148 .792156862745098 .819607843137255 .9333
33333333333 79 14 145 SWEntUnchanged50 129 175 0 122 123 134 0 +-.006825 8e-4 0
 0 -1 0 0 0 -1 50 16 177 0 133 134 6 0 +-.006 .004 0 0 -1 0 0 0 -1 51 123 174 0
 116 117 129 0 -0 0 0 0 -1 0 .006825 0 0 -1 50 117 173 0 110 111 123 0 +-.0053 -
3750480822388775e-34 0 0 1 0 0 0 1 51 111 172 0 104 105 117 0 +0 0 0 0 -1 0 .005
3 0 0 -1 50 105 171 0 98 99 111 0 +-.0053 35e-5 0 0 1 0 0 0 1 51 99 170 0 92 93
 105 0 -0 0 0 0 -1 0 .0036 0 0 -1 50 93 169 0 86 87 99 0 +-.003 -406575814682064
e-34 0 0 1 0 0 0 1 51 87 168 0 80 81 93 0 +0 0 0 0 -1 0 .003 0 0 -1 50 81 167 0
 74 75 87 0 +-.0036 .004 0 0 -1 0 0 0 -1 51 75 166 0 68 69 81 0 -0 0 0 0 -1 0 .0
036 0 0 -1 50 69 165 0 65 0 75 0 +-.0053 .00365 0 0 -1 0 0 0 -1 15 139 261 0 26
 133 21 17 26 0 139 26 26 0 23 20 0 0 -15 21 159 0 19 133 0 82 1 138 -546242233
 19 15 88 0 1 0 8 5 S74 20 13 9 0 0 186 187 140 188 189 190 11 181 2 0 0 0 0 0 0
 0 0 0 0 0 81 2 186 277 191 1 0 187 0 0 0 192 81 2 187 281 193 1 186 188 0 0 0 1
94 81 1 188 296 195 1 187 189 0 0 196 81 2 189 312 197 1 188 190 0 0 0 198 81 2
 190 385 199 1 189 11 0 0 200 0 81 2 11 386 201 1 190 2 0 0 0 0 80 2 201 202 203
 9000 0 0 0 0 3 5 0 0 0 FFTFFFFFFFFFFF9 1 79 16 203 BODY_RECIPE_200180 2 199 204
 205 9000 0 0 0 0 3 5 0 0 0 FFTFTTTFFTFFFF3 3 84 3 200 ??179 21 205 SWIMPLICITBO
DYNAME_ID80 2 197 206 207 9000 0 0 0 0 3 5 0 0 0 FFTFFFFFFFFFFF9 1 82 1 198 1 79
 24 207 BODY_IN_LIGHTWEIGHT_PERM80 1 195 208 209 9000 1 1 1 1 1 1 1 1 0 FFTFFFFF
FFFFFF1 82 1 196 319125 79 10 209 BODY_MATCH80 2 193 210 211 9000 0 0 0 0 3 5 0
 0 0 FFTFFFFFFFFFFF9 1 82 1 194 47 79 30 211 LAST_BODY_MODIFYING_FEATURE_ID80 2
 191 212 213 9000 0 0 0 0 3 5 0 0 0 FFTFFFFFFFFFFT9 1 82 1 192 116 79 19 213 ENT
_TIME_STAMP_200180 2 10 214 215 9000 0 0 0 0 3 5 0 0 0 FFTFFFFFFFFFFF9 1 82 1 12
 101 79 12 215 ATOM_ID_20011 0 
