**ABCDEFGHIJKLMNOPQRSTUVWXYZabcdefghijklmnopqrstuvwxyz**************************
**PARASOLID !"#$%&'()*+,-./:;<=>?@[\]^_`{|}~0123456789**************************
**PART1;
MC=AMD64;
MC_MODEL=Intel64 Family 6 Model 158 Stepping 9, GenuineIntel;
MC_ID=unknown;
OS=Windows_NT;
OS_RELEASE=unknown;
FRU=Parasolid Version 34.1, build 225,  5-24-2022;
APPL=SOLIDWORKS 2023-2022300;
SITE=;
USER=unknown;
FORMAT=text;
GUISE=transmit;
KEY=IG42C;
FILE=IG42C.x_t;
DATE=Wed Feb 14 12:17:17 2024;
**PART2;
SCH=SCH_3401225_34101;
USFLD_SIZE=0;
**PART3;
**END_OF_HEADER*****************************************************************
T51 : TRANSMIT FILE created by modeller version 340122517 SCH_2100000_200000 10
 1 9 2 3 0 0 0 0 0 1e3 1e-8 0 0 0 1 0 1 4 81 2 2 9 5 1 0 0 0 0 0 0 70 3 0 4 T1 0
 0 1 20 1 6 6 11 4 7 0 1 7 8 1 9 0 0 0 12 7 619 10 11 0 0 0 0 1e3 1e-8 4 12 0 1
 0 1 1 13 14 15 0 16 17 0 0 0 0 0 100 8 8 4 0 0 1 0 0 0 1 0 0 0 1 0 0 0 1 0 ?11
 9 5 0 1 12 18 1 19 4 0 0 12 12 335 20 21 0 0 0 0 1e3 1e-8 9 22 7 1 0 1 1 23 24
 25 26 27 28 29 0 0 0 0 100 18 6 9 0 0 1 0 0 0 1 0 0 0 1 0 0 0 1 0 ?11 19 3 0 1
 22 30 1 31 9 0 0 12 22 1109 32 33 0 0 0 0 1e3 1e-8 19 34 12 1 0 1 1 35 36 37 38
 39 40 41 0 0 0 0 100 30 4 19 0 0 1 0 0 0 1 0 0 0 1 0 0 0 1 0 ?11 31 1 0 1 34 42
 1 0 19 0 0 12 34 181 43 44 0 0 0 0 1e3 1e-8 31 45 22 1 0 1 1 46 47 48 0 49 50 0
 0 0 0 0 100 42 2 31 0 0 1 0 0 0 1 0 0 0 1 0 0 0 1 0 ?81 1 43 181 51 34 52 0 0 0
 0 70 44 0 4 T34 0 0 5 20 1 53 53 13 46 29 0 34 0 54 0 0 55 0 51 47 28 0 56 57 0
 0 -.0332 0 0 -1 0 0 .021 0 0 1 31 48 23 0 58 59 0 0 +.005 0 0 1 0 0 0 0 -1 .021
 19 49 7 0 34 55 0 60 V16 50 4 0 ?61 0 58 59 0 0 34 17 61 0 62 61 61 0 63 50 0 0
 +16 58 18 0 ?64 50 65 48 0 0 34 31 59 5 0 50 66 48 0 +.0332 0 0 1 0 0 0 0 -1 .0
21 31 66 71 0 67 68 59 0 +.005 0 0 1 0 0 0 0 -1 .017725 16 67 49 0 ?69 65 0 66 0
 0 34 31 68 72 0 65 0 66 0 +.0332 0 0 1 0 0 0 0 -1 .017725 16 65 52 0 ?70 58 67
 68 0 0 34 17 70 0 71 70 70 0 72 65 0 0 +15 71 58 0 70 73 74 17 72 0 75 72 72 0
 70 65 0 0 -15 75 43 0 72 54 0 14 54 46 76 ?77 0 62 46 78 +0 0 77 0 60 81 1 76 1
77 79 54 80 0 0 81 82 14 77 40 81 ?56 54 83 46 57 -0 0 56 54 60 15 62 3 0 61 54
 75 50 78 2 0 54 84 57 0 +.0332 0 0 1 0 0 0 0 -1 13 60 8 0 0 0 0 0 0 49 54 51 84
 68 0 73 0 78 0 -.0332 0 0 -1 0 0 .017725 0 0 1 50 57 22 0 77 78 47 0 +.005 0 0
 1 0 0 0 0 -1 14 73 55 85 ?0 56 71 46 84 +0 0 0 56 60 81 1 85 179 79 73 86 0 81
 87 88 14 56 25 87 ?73 77 89 46 47 -0 0 73 77 60 81 1 87 180 79 56 90 0 85 0 91
 15 89 24 0 63 56 92 17 63 0 89 63 63 0 61 50 0 0 -15 92 26 0 64 56 0 17 64 0 92
 64 64 0 93 58 0 0 +17 93 0 83 93 93 0 64 58 0 0 -15 83 17 0 93 77 94 15 94 38 0
 69 77 0 17 69 0 94 69 69 0 95 67 0 0 +17 95 0 74 95 95 0 69 67 0 0 -15 74 59 0
 95 73 0 80 1 79 96 97 9000 1 1 1 1 1 1 1 1 0 FFFFTFTFFFFFFF1 81 1 90 165 98 56
 0 87 99 86 100 82 1 91 508625590 80 1 98 0 101 8001 0 0 0 0 3 5 0 0 0 FFFFTFTFF
FFFFF2 81 1 99 164 98 77 0 81 80 90 102 81 1 86 166 98 73 0 85 90 0 103 83 3 100
 0 0 0 83 3 103 0 0 0 81 1 81 178 79 77 99 0 76 85 104 81 1 80 163 98 54 0 76 0
 99 105 83 3 102 0 0 0 83 3 105 0 0 0 82 1 104 514458294 79 15 101 SDL/TYSA_COLO
UR79 14 97 SWEntUnchanged82 1 88 512754358 82 1 82 514982582 19 55 30 0 34 0 49
 46 S74 20 53 5 0 0 87 106 52 86 43 0 0 0 0 0 0 0 0 0 0 0 0 0 0 0 81 2 106 139 1
07 34 0 52 0 0 108 0 81 2 52 160 109 34 106 43 0 0 110 0 80 2 109 111 112 9000 0
 0 0 0 3 5 0 0 0 FFTFTTTFFTFFFF3 3 84 9 110 gear_case79 21 112 SWIMPLICITBODYNAM
E_ID80 2 107 113 114 8004 0 0 0 0 3 5 0 0 0 FFTFFFFFFFFFFF2 3 83 1 108 1 79 16 1
14 SDL/TYSA_DENSITY80 1 51 115 116 8017 0 0 0 0 0 0 0 0 0 TTTTTTTTTTTTTF3 79 13
 116 SDL/TYSA_NAME81 1 32 1109 51 22 117 0 0 0 0 70 33 0 4 T22 0 0 5 20 1 118 11
8 13 35 77 0 22 0 119 0 0 120 0 50 36 154 0 121 122 0 0 +.0271 .017725 0 -1 -118
7057853163512e-31 0 1187057853163512e-31 -1 0 31 37 548 0 40 123 0 0 +.0332 .012
3743686707646 .0123743686707646 -1 -1187057853163512e-31 0 1187057853163512e-31
 -1 0 .002 29 38 733 0 41 124 0 .0392 -.00489897948556637 -.0115 19 39 81 0 22 1
20 0 125 V16 40 546 0 ?126 0 127 37 0 0 22 18 41 731 0 128 0 129 38 ?22 17 128 0
 130 131 132 41 133 134 0 135 -18 129 658 0 136 41 137 124 ?22 17 136 0 138 139
 140 129 132 141 0 142 +18 137 543 0 143 129 144 145 ?22 29 124 659 0 129 145 38
 .0392 .00489897948556637 .0115 29 145 545 0 137 146 124 .0332 .0110416903167033
 .01386566622813416 29 146 451 0 144 147 145 .0332 .01386566622813416 -.01104169
03167033 18 144 449 0 148 137 149 146 ?22 29 147 360 0 149 150 146 .0332 -.01386
566622813418 -.0110416903167033 18 149 358 0 151 144 152 147 ?22 29 150 269 0 15
2 153 147 .0332 -.0110416903167033 .01386566622813418 18 152 268 0 154 149 155 1
50 ?22 29 153 346 0 155 156 150 .0332 -.01386566622813416 .0110416903167033 18 1
55 309 0 157 152 158 153 ?22 29 156 348 0 158 159 153 .0271 -.01386566622813418
 .0110416903167033 18 158 312 0 160 155 161 156 ?22 29 159 349 0 161 162 156 .02
71 -.0110416903167033 .01386566622813418 18 161 311 0 163 158 164 159 ?22 29 162
 440 0 164 165 159 .0332 -.0110416903167033 -.01386566622813416 18 164 403 0 166
 161 167 162 ?22 29 165 442 0 167 168 162 .0271 -.0110416903167033 -.01386566622
813418 18 167 406 0 169 164 170 165 ?22 29 168 443 0 170 171 165 .0271 -.0138656
6622813418 -.0110416903167033 18 170 405 0 172 167 173 168 ?22 29 171 534 0 173
 174 168 .0332 .0110416903167033 -.01386566622813416 18 173 498 0 175 170 176 17
1 ?22 29 174 536 0 176 177 171 .0271 .0110416903167033 -.01386566622813418 18 17
6 499 0 178 173 179 174 ?22 29 177 537 0 179 180 174 .0271 .01386566622813418 -.
0110416903167033 18 179 496 0 181 176 182 177 ?22 29 180 628 0 182 183 177 .0332
 .01386566622813416 .0110416903167033 18 182 592 0 126 179 184 180 ?22 29 183 63
0 0 184 185 180 .0271 .01386566622813418 .0110416903167033 18 184 593 0 186 182
 187 183 ?22 29 185 631 0 187 188 183 .0271 .0110416903167033 .01386566622813416
 18 187 590 0 189 184 190 185 ?22 29 188 724 0 190 191 185 .0392 -.0048989794855
6637 .0115 18 190 694 0 192 187 193 188 ?22 29 191 725 0 193 194 188 .0412 -.004
89897948556637 .0115 18 193 692 0 195 190 196 191 ?22 29 194 726 0 196 197 191 .
0412 .00489897948556637 .0115 18 196 691 0 198 193 199 194 ?22 29 197 801 0 199
 200 194 .0392 .00489897948556636 -.0115 18 199 772 0 133 196 201 197 ?22 29 200
 803 0 201 202 197 .0412 -.00489897948556636 -.0115 18 201 770 0 203 199 204 200
 ?22 29 202 804 0 204 0 200 .0412 .00489897948556636 -.0115 18 204 769 0 205 201
 0 202 ?22 17 205 0 206 203 133 204 140 207 0 208 +15 206 780 0 133 209 0 17 203
 0 206 135 205 201 208 210 0 211 +17 133 0 206 205 135 199 128 134 0 140 +17 140
 0 138 136 212 199 205 207 0 132 -16 207 759 0 ?205 213 210 214 0 0 22 17 208 0
 215 198 216 204 203 210 0 212 -15 215 754 0 208 217 218 17 198 0 215 219 208 19
6 212 220 0 221 +17 216 0 215 208 219 201 222 223 0 0 +16 210 764 0 ?203 207 0 2
24 0 0 22 17 212 0 138 140 139 204 198 220 0 0 -15 138 744 0 140 225 0 17 139 0
 138 212 136 196 142 226 0 0 +16 220 741 0 ?198 223 227 228 223 223 22 16 223 66
6 0 ?216 229 220 228 220 220 22 16 227 661 0 ?230 220 141 231 141 141 22 31 228
 160 0 223 231 232 0 +.0412 -1146921175822386e-33 0 1 1187057853163512e-31 0 -11
87057853163512e-31 1 0 .0125 31 231 159 0 227 233 228 0 +.0392 -138433274645509e
-32 0 1 1187057853163512e-31 0 -1187057853163512e-31 1 0 .0125 31 232 161 0 229
 228 234 0 +.0412 -1146921175822386e-33 0 1 1187057853163512e-31 0 -118705785316
3512e-31 1 0 .008 16 229 110 0 ?235 236 223 232 0 0 22 31 234 162 0 236 232 237
 0 +.0416 -1099438861695846e-33 0 1 1187057853163512e-31 0 -1187057853163512e-31
 1 0 .008 16 236 115 0 ?238 239 229 234 0 0 22 31 237 163 0 239 234 240 0 +.0416
 -1099438861695846e-33 0 1 1187057853163512e-31 0 -1187057853163512e-31 1 0 .007
075 16 239 120 0 ?241 242 236 237 0 0 22 31 240 164 0 242 237 243 0 +.0424 -1004
474233442764e-33 0 1 1187057853163512e-31 0 -1187057853163512e-31 1 0 .007075 16
 242 125 0 ?244 245 239 240 0 0 22 31 243 165 0 245 240 246 0 +.0424 -1004474233
442764e-33 0 1 1187057853163512e-31 0 -1187057853163512e-31 1 0 .004 16 245 130
 0 ?247 248 242 243 0 0 22 31 246 166 0 248 243 249 0 +.0271 -282067274878294e-3
2 0 1 1187057853163512e-31 0 -1187057853163512e-31 1 0 .004 16 248 135 0 ?250 25
1 245 246 0 0 22 30 249 274 0 251 246 252 0 +.03475 -.0110416903167033 .01386566
622813418 -1 -1187057853163512e-31 0 16 251 273 0 ?253 254 248 249 0 0 22 30 252
 277 0 254 249 255 0 -.03475 -.01386566622813418 .0110416903167033 -1 -118705785
3163512e-31 0 16 254 275 0 ?157 256 251 252 0 0 22 30 255 366 0 256 252 257 0 +.
03475 -.01386566622813418 -.0110416903167033 -1 -1187057853163512e-31 0 16 256 3
64 0 ?172 258 254 255 0 0 22 30 257 371 0 258 255 123 0 -.03475 -.01104169031670
33 -.01386566622813418 -1 -1187057853163512e-31 0 16 258 369 0 ?166 127 256 257
 0 0 22 31 123 454 0 127 257 37 0 +.0332 .0123743686707646 -.0123743686707646 -1
 -1187057853163512e-31 0 1187057853163512e-31 -1 0 .002 16 127 452 0 ?175 40 258
 123 0 0 22 17 175 0 259 178 148 173 260 127 0 261 +15 259 516 0 148 262 0 17 17
8 0 259 181 175 176 261 263 0 264 +17 148 0 259 175 181 144 265 266 0 260 +17 26
0 0 267 268 269 144 175 127 0 270 -17 261 0 271 272 273 173 178 263 0 269 -15 27
1 474 0 261 274 0 17 272 0 271 275 261 164 269 276 0 0 -17 273 0 271 261 275 176
 277 278 0 0 +16 263 492 0 ?178 266 279 280 0 0 22 17 269 0 267 260 281 173 272
 276 0 0 +15 267 547 0 282 283 284 17 281 0 267 269 285 164 151 286 0 272 -16 27
6 362 0 ?269 287 288 289 287 288 22 16 287 271 0 ?285 290 276 289 291 276 22 16
 288 450 0 ?268 276 291 289 276 291 22 31 289 156 0 287 292 293 0 +.0332 -209656
7458353195e-33 0 1 1187057853163512e-31 0 -1187057853163512e-31 1 0 .017725 31 2
92 155 0 294 295 289 0 +.0271 -282067274878294e-32 0 1 1187057853163512e-31 0 -1
187057853163512e-31 1 0 .017725 31 293 157 0 290 289 233 0 +.0332 -2096567458353
195e-33 0 1 1187057853163512e-31 0 -1187057853163512e-31 1 0 .021 16 290 90 0 ?2
96 297 287 293 0 0 22 31 233 158 0 297 293 231 0 +.0392 -138433274645509e-32 0 1
 1187057853163512e-31 0 -1187057853163512e-31 1 0 .021 16 297 95 0 ?298 141 290
 233 0 0 22 17 298 0 299 298 298 0 300 297 0 0 +16 141 735 0 ?136 227 297 231 22
7 227 22 15 299 218 0 298 301 130 17 300 0 302 300 300 0 298 297 0 0 -15 302 97
 0 300 303 0 14 303 98 304 ?283 301 305 35 306 +0 0 283 301 125 81 1 304 1087 79
 303 307 0 0 308 309 14 283 93 308 ?310 303 267 35 311 +0 0 310 303 125 14 301 1
03 312 ?303 313 314 35 315 +0 0 303 313 125 15 305 217 0 296 303 302 51 306 145
 0 303 311 315 0 +.0508618810344065 0 0 1 1187057853163512e-31 0 .021 -118705785
3163512e-31 1 0 13 125 80 0 0 0 0 0 0 39 119 14 119 746 316 ?217 0 317 35 318 +2
25 225 217 0 125 81 1 316 1090 79 119 319 0 312 320 321 14 217 678 320 ?225 119
 215 35 322 +0 0 225 119 125 15 317 749 0 211 119 0 51 318 147 0 225 315 322 0 +
.0508618810344065 0 0 1 1187057853163512e-31 0 .0125 -1187057853163512e-31 1 0 1
4 225 673 323 ?324 217 138 35 318 +119 119 324 217 125 81 1 323 1092 79 225 325
 0 320 326 327 14 324 569 326 ?328 225 329 35 330 +328 310 328 225 125 81 1 326
 1093 79 324 331 0 323 332 333 14 328 475 332 ?274 324 334 35 330 +274 324 274 3
24 125 15 329 572 0 335 324 0 51 330 143 0 310 336 311 0 +.0508618810344065 0 0
 1 1187057853163512e-31 0 .017725 -1187057853163512e-31 1 0 14 310 88 337 ?338 2
83 339 35 330 +324 274 338 283 125 81 1 337 1095 79 310 340 0 332 341 342 14 338
 325 341 ?343 310 344 35 336 -0 0 343 310 125 15 339 365 0 345 310 0 14 274 367
 346 ?121 328 271 35 330 +310 328 121 328 125 81 1 346 1097 79 274 347 0 341 348
 349 14 121 141 348 ?350 274 351 35 36 +0 0 350 274 125 81 1 348 1098 79 121 352
 0 346 353 354 14 350 138 353 ?355 121 356 35 122 +0 0 355 121 125 15 351 563 0
 357 121 358 17 357 0 351 359 360 184 189 361 0 362 -15 358 226 0 250 121 0 17 2
50 0 358 250 250 0 363 248 0 0 +17 363 0 364 363 363 0 250 248 0 0 -15 364 137 0
 363 350 0 17 359 0 351 264 357 179 362 365 0 0 -17 360 0 351 357 366 187 163 36
7 0 0 -17 189 0 368 143 186 187 357 361 0 335 +16 361 587 0 ?189 369 370 371 0 0
 22 17 362 0 334 372 265 184 359 365 0 0 +15 334 568 0 372 328 0 17 372 0 334 27
0 362 182 186 369 0 268 -17 265 0 334 362 270 179 148 266 0 359 -16 365 466 0 ?3
62 278 367 292 278 367 22 16 278 356 0 ?273 294 365 292 294 365 22 16 367 560 0
 ?163 365 373 292 365 294 22 17 163 0 329 374 335 161 360 367 0 253 +16 373 298
 0 ?375 367 376 295 0 0 22 16 294 266 0 ?377 291 278 292 367 278 22 17 377 0 339
 345 378 170 379 294 0 0 +16 291 544 0 ?154 288 294 289 288 287 22 17 154 0 267
 380 282 152 381 291 0 382 +17 380 0 267 285 154 155 382 376 0 383 -17 282 0 267
 154 268 137 126 40 0 381 -17 381 0 329 335 374 137 154 291 0 0 -17 382 0 384 25
3 157 152 380 376 0 374 +15 384 329 0 157 338 0 17 253 0 384 160 382 161 374 251
 0 366 +17 157 0 384 382 160 155 378 254 0 380 +16 376 300 0 ?382 373 385 386 0
 0 22 17 374 0 329 381 163 152 253 251 0 0 -16 385 306 0 ?160 376 387 388 0 0 22
 31 386 342 0 376 388 295 0 +.0332 -.01237436867076458 .0123743686707646 -1 -118
7057853163512e-31 0 1187057853163512e-31 -1 0 .002 31 388 344 0 385 389 386 0 +.
0271 -.01237436867076458 .0123743686707646 -1 -1187057853163512e-31 0 1187057853
163512e-31 -1 0 .002 31 295 341 0 373 386 292 0 +.0392 -.01237436867076458 .0123
743686707646 1 1187057853163512e-31 0 -1187057853163512e-31 1 0 .002 31 389 435
 0 387 390 388 0 +.0392 -.01237436867076458 -.0123743686707646 1 118705785316351
2e-31 0 -1187057853163512e-31 1 0 .002 16 387 392 0 ?391 385 286 389 0 0 22 31 3
90 436 0 286 392 389 0 +.0332 -.01237436867076458 -.0123743686707646 -1 -1187057
853163512e-31 0 1187057853163512e-31 -1 0 .002 16 286 394 0 ?151 387 393 390 0 0
 22 31 392 438 0 393 394 390 0 +.0271 -.01237436867076458 -.0123743686707646 -1
 -1187057853163512e-31 0 1187057853163512e-31 -1 0 .002 16 393 400 0 ?169 286 39
5 392 0 0 22 31 394 529 0 395 396 392 0 +.0392 .0123743686707646 -.0123743686707
646 1 1187057853163512e-31 0 -1187057853163512e-31 1 0 .002 16 395 489 0 ?397 39
3 266 394 0 0 22 30 396 530 0 266 280 394 0 -.03475 .01386566622813418 -.0110416
903167033 -1 -1187057853163512e-31 0 16 266 490 0 ?148 395 263 396 0 0 22 30 280
 531 0 263 398 396 0 +.03475 .0110416903167033 -.01386566622813418 -1 -118705785
3163512e-31 0 31 398 532 0 279 399 280 0 +.0271 .0123743686707646 -.012374368670
7646 -1 -1187057853163512e-31 0 1187057853163512e-31 -1 0 .002 16 279 493 0 ?181
 263 400 398 0 0 22 31 399 623 0 400 401 398 0 +.0392 .0123743686707646 .0123743
686707646 1 1187057853163512e-31 0 -1187057853163512e-31 1 0 .002 16 400 583 0 ?
402 279 403 399 0 0 22 30 401 624 0 403 404 399 0 -.03475 .0110416903167033 .013
86566622813418 -1 -1187057853163512e-31 0 16 403 584 0 ?143 400 369 401 0 0 22 3
0 404 625 0 369 371 401 0 +.03475 .01386566622813418 .0110416903167033 -1 -11870
57853163512e-31 0 16 369 586 0 ?186 403 361 404 0 0 22 31 371 626 0 361 405 404
 0 +.0271 .0123743686707646 .0123743686707646 -1 -1187057853163512e-31 0 1187057
853163512e-31 -1 0 .002 30 405 718 0 226 406 371 0 +.02935114219820385 .00489897
948556637 .0115 1 1187057853163512e-31 0 16 226 682 0 ?139 407 408 405 0 0 22 30
 406 719 0 407 409 405 0 +.02935114219820385 -.00489897948556637 .0115 1 1187057
853163512e-31 0 16 407 686 0 ?195 370 226 406 0 0 22 30 409 721 0 408 410 406 0
 +.0412 0 .0115 0 -1 0 16 408 683 0 ?219 226 134 409 0 0 22 30 410 722 0 370 411
 409 0 +.0392 -2374115706327025e-34 .0115 -1187057853163512e-31 1 0 16 370 681 0
 ?412 361 407 410 0 0 22 30 411 795 0 134 214 410 0 +.0392 -2374115706327025e-34
 -.0115 -1187057853163512e-31 1 0 16 134 768 0 ?133 408 213 411 0 0 22 30 214 79
6 0 207 413 411 0 +.02935114219820385 .00489897948556636 -.0115 1 11870578531635
12e-31 0 30 413 797 0 213 224 214 0 +.02935114219820385 -.00489897948556637 -.01
15 1 1187057853163512e-31 0 16 213 760 0 ?211 134 207 413 0 0 22 30 224 798 0 21
0 0 413 0 +.0412 0 -.0115 0 -1 0 17 211 0 317 222 230 201 135 213 0 216 +17 222
 0 317 414 211 193 216 223 0 0 -17 230 0 317 211 414 41 131 227 0 0 +17 135 0 20
6 133 203 41 211 213 0 230 -17 414 0 317 230 222 190 195 407 0 131 -17 131 0 130
 412 128 190 230 227 0 0 -15 130 102 0 131 301 0 17 412 0 130 132 131 129 192 37
0 0 0 +17 132 0 130 128 412 199 136 141 0 0 -17 192 0 415 195 142 190 412 370 0
 414 -15 415 698 0 195 416 0 17 195 0 415 221 192 193 414 407 0 219 +17 142 0 41
5 192 221 129 139 226 0 412 -17 221 0 415 142 195 196 219 408 0 139 -17 219 0 21
5 216 198 193 221 408 0 222 +14 416 695 417 ?209 418 415 35 419 +0 0 209 418 125
 81 1 417 1100 79 416 420 0 353 421 422 14 209 777 421 ?0 416 206 35 423 -0 0 0
 416 125 14 418 606 424 ?416 262 425 35 426 -0 0 416 262 125 50 419 713 0 416 42
3 426 0 +.02935114219820385 -1406527970463986e-33 .0115 0 0 1 1 0 0 50 423 792 0
 209 0 419 0 +.02935114219820385 -1406527970463986e-33 -.0115 0 0 1 1 0 0 51 426
 619 0 418 419 427 0 +.0424 .0123743686707646 .0123743686707646 -1 -118705785316
3512e-31 0 .002 1187057853163512e-31 -1 0 51 427 525 0 262 426 428 0 +.0424 .012
3743686707646 -.0123743686707646 -1 -1187057853163512e-31 0 .002 118705785316351
2e-31 -1 0 14 262 512 429 ?418 343 430 35 427 -0 0 418 343 125 51 428 432 0 343
 427 336 0 +.0424 -.01237436867076458 -.0123743686707646 -1 -1187057853163512e-3
1 0 .002 1187057853163512e-31 -1 0 14 343 419 431 ?262 338 432 35 428 -0 0 262 3
38 125 51 336 338 0 338 428 330 0 +.0424 -.01237436867076458 .0123743686707646 -
1 -1187057853163512e-31 0 .002 1187057853163512e-31 -1 0 81 1 431 1104 79 343 43
3 0 429 434 435 15 432 422 0 391 343 436 17 391 0 432 391 391 0 437 387 0 0 +15
 436 423 0 166 343 0 17 166 0 436 151 169 164 275 258 0 281 +17 151 0 436 172 16
6 149 281 286 0 345 +17 169 0 436 166 172 167 438 393 0 275 +17 275 0 271 273 27
2 167 166 258 0 277 -17 277 0 351 438 264 167 273 278 0 0 -17 438 0 351 379 277
 170 169 393 0 377 -17 264 0 351 277 359 176 181 279 0 273 -17 181 0 259 148 178
 179 264 279 0 265 +17 379 0 351 366 438 158 377 294 0 0 -17 366 0 351 360 379 1
61 160 385 0 0 -17 160 0 384 157 253 158 366 385 0 378 +17 378 0 339 377 383 158
 157 254 0 379 -17 383 0 339 378 345 155 285 287 0 0 -17 345 0 339 383 377 149 1
72 256 0 285 -17 285 0 267 281 380 149 383 287 0 0 +17 172 0 436 169 151 170 345
 256 0 438 +17 437 0 439 437 437 0 391 387 0 0 -15 439 380 0 437 301 440 15 440
 286 0 441 301 299 17 441 0 440 441 441 0 375 373 0 0 -17 375 0 344 375 375 0 44
1 373 0 0 +15 344 328 0 375 338 384 81 1 433 1035 98 343 0 431 442 443 444 81 1
 429 1103 79 262 443 0 424 431 445 81 1 434 1105 79 313 446 0 431 447 448 82 1 4
35 596837050 14 313 118 434 ?301 449 450 35 451 +0 0 301 449 125 81 1 446 1029 9
8 313 0 434 452 453 454 81 1 447 1106 79 449 452 0 434 455 456 82 1 448 56636280
8 14 449 123 447 ?313 457 458 35 459 +0 0 313 457 125 81 1 452 1028 98 449 0 447
 460 446 461 81 1 455 1107 79 457 460 0 447 462 463 82 1 456 566952632 14 457 12
8 455 ?449 355 464 35 465 +0 0 449 355 125 81 1 460 1027 98 457 0 455 466 452 46
7 81 1 462 1108 79 355 466 0 455 0 468 82 1 463 567542456 14 355 133 462 ?457 35
0 469 35 470 +0 0 457 350 125 81 1 466 1026 98 355 0 462 471 460 472 82 1 468 56
8132280 81 1 471 1025 98 350 0 353 352 466 473 83 3 472 0 0 0 81 1 353 1099 79 3
50 471 0 348 417 474 81 1 352 1024 98 121 0 348 347 471 475 83 3 473 .7529411764
70588 .752941176470588 .752941176470588 81 1 347 1023 98 274 0 346 476 352 477 8
3 3 475 .752941176470588 .752941176470588 .752941176470588 81 1 476 1022 98 328
 0 332 331 347 478 83 3 477 .752941176470588 .752941176470588 .752941176470588 8
1 1 332 1094 79 328 476 0 326 337 479 81 1 331 1021 98 324 0 326 325 476 480 83
 3 478 .752941176470588 .752941176470588 .752941176470588 81 1 325 1020 98 225 0
 323 481 331 482 83 3 480 .752941176470588 .752941176470588 .752941176470588 81
 1 481 1019 98 217 0 320 319 325 483 83 3 482 .752941176470588 .752941176470588
 .752941176470588 81 1 320 1091 79 217 481 0 316 323 484 81 1 319 1018 98 119 0
 316 0 481 485 83 3 483 .752941176470588 .752941176470588 .752941176470588 83 3
 485 .752941176470588 .752941176470588 .752941176470588 82 1 484 755434172 82 1
 479 625279674 82 1 474 568722104 15 469 224 0 244 355 486 50 470 152 0 355 465
 122 0 +.0424 .007075 0 1 1187057853163512e-31 0 -1187057853163512e-31 1 0 51 46
5 151 0 457 459 470 0 +.0508618810344065 0 0 1 1187057853163512e-31 0 .007075 -1
187057853163512e-31 1 0 51 122 153 0 350 470 36 0 -.0508618810344065 0 0 1 11870
57853163512e-31 0 .004 -1187057853163512e-31 1 0 50 459 150 0 449 451 465 0 +.04
16 .008 0 1 1187057853163512e-31 0 -1187057853163512e-31 1 0 51 451 149 0 313 32
2 459 0 +.0508618810344065 0 0 1 1187057853163512e-31 0 .008 -1187057853163512e-
31 1 0 50 322 148 0 217 318 451 0 +.0412 .0125 0 1 1187057853163512e-31 0 -11870
57853163512e-31 1 0 17 244 0 469 244 244 0 487 242 0 0 +15 486 132 0 488 355 0 1
7 488 0 486 488 488 0 247 245 0 0 -17 247 0 356 247 247 0 488 245 0 0 +15 356 22
5 0 247 350 364 17 487 0 489 487 487 0 244 242 0 0 -15 489 127 0 487 457 0 83 3
 467 0 0 0 15 464 223 0 241 457 489 17 241 0 464 241 241 0 490 239 0 0 +17 490 0
 491 490 490 0 241 239 0 0 -15 491 122 0 490 449 0 83 3 461 0 0 .278431372549019
5 15 458 222 0 238 449 491 17 238 0 458 238 238 0 492 236 0 0 +17 492 0 493 492
 492 0 238 236 0 0 -15 493 117 0 492 313 0 81 1 453 1030 98 301 0 312 446 307 49
4 83 3 454 0 0 .2784313725490195 81 1 312 1089 79 301 453 0 308 316 495 81 1 307
 1031 98 303 0 304 453 496 497 83 3 494 .752941176470588 .752941176470588 .75294
1176470588 81 1 496 1032 98 283 0 308 307 340 498 83 3 497 .752941176470588 .752
941176470588 .752941176470588 81 1 308 1088 79 283 496 0 304 312 499 81 1 340 10
33 98 310 0 337 496 442 500 83 3 498 .752941176470588 .752941176470588 .75294117
6470588 81 1 442 1034 98 338 0 341 340 433 501 83 3 500 .752941176470588 .752941
176470588 .752941176470588 81 1 341 1096 79 338 442 0 337 346 502 83 3 501 .7529
41176470588 .752941176470588 .752941176470588 82 1 502 592839354 82 1 499 563413
690 82 1 495 564593340 15 450 221 0 235 313 493 17 235 0 450 235 235 0 503 229 0
 0 +17 503 0 218 503 503 0 235 229 0 0 -15 218 112 0 503 217 0 81 1 443 1036 98
 262 0 429 433 504 505 81 1 424 1102 79 418 504 0 421 429 506 82 1 445 600769210
 81 1 504 1037 98 418 0 424 443 420 507 81 1 421 1101 79 209 508 0 417 424 509 8
2 1 506 604701370 81 1 508 1039 98 209 0 421 420 0 510 82 1 509 720896700 81 1 4
20 1038 98 416 0 417 504 508 511 83 3 510 .752941176470588 .752941176470588 .752
941176470588 83 3 511 .752941176470588 .752941176470588 .752941176470588 83 3 50
7 .752941176470588 .752941176470588 .752941176470588 83 3 505 .752941176470588 .
752941176470588 .752941176470588 83 3 444 .752941176470588 .752941176470588 .752
941176470588 15 430 515 0 397 262 259 17 397 0 430 397 397 0 512 395 0 0 +17 512
 0 513 512 512 0 397 395 0 0 -15 513 459 0 512 301 439 15 425 609 0 402 418 368
 17 402 0 425 402 402 0 514 400 0 0 +15 368 610 0 143 418 0 17 143 0 368 126 189
 137 335 403 0 282 +17 126 0 368 186 143 182 282 40 0 372 +17 335 0 329 163 381
 187 143 403 0 360 -17 186 0 368 189 126 184 372 369 0 357 +17 514 0 314 514 514
 0 402 400 0 0 -15 314 553 0 514 301 513 82 1 422 713228988 17 268 0 267 282 260
 182 270 288 0 0 +17 270 0 334 265 372 144 268 288 0 0 -82 1 354 569049786 82 1
 349 614859450 82 1 342 562823866 50 311 144 0 283 330 306 0 +.0332 .017725 0 -1
 -1187057853163512e-31 0 1187057853163512e-31 -1 0 82 1 333 631964346 82 1 327 7
54975420 50 315 146 0 301 306 318 0 +.0392 .021 0 1 1187057853163512e-31 0 -1187
057853163512e-31 1 0 82 1 321 757465788 17 296 0 305 296 296 0 515 290 0 0 +17 5
15 0 284 515 515 0 296 290 0 0 -15 284 92 0 515 283 0 82 1 309 564003512 19 120
 76 0 22 0 39 35 S74 20 118 5 0 0 462 516 117 508 32 0 0 0 0 0 0 0 0 0 0 0 0 0 0
 0 81 2 516 957 107 22 0 117 0 0 517 0 81 2 117 1014 109 22 516 32 0 0 518 0 84
 7 518 hub cut83 1 517 1 81 1 20 335 51 12 519 0 0 0 0 70 21 0 4 T12 0 0 5 20 1
 520 520 13 23 41 0 12 0 521 0 0 522 0 50 24 82 0 521 523 0 0 +.0241 0 0 1 0 0 0
 0 -1 31 25 86 0 28 524 0 0 +.0241 0 0 -1 0 0 0 0 1 .0165 29 26 131 0 29 525 0 .
0612 .003 .002645751311064585 19 27 45 0 12 522 0 526 V16 28 64 0 ?527 0 528 25
 0 0 12 18 29 130 0 529 0 530 26 ?12 17 529 0 531 532 533 29 534 535 0 536 +18 5
30 169 0 537 29 538 539 ?12 17 537 0 531 533 532 530 540 541 0 542 -18 538 171 0
 543 530 544 545 ?12 29 539 203 0 530 545 525 .0492 .003 -.002645751311064585 29
 545 204 0 538 0 539 .0492 .003 .002645751311064585 29 525 201 0 544 539 26 .061
2 .003 -.002645751311064585 18 544 172 0 532 538 0 525 ?12 17 532 0 531 537 529
 544 536 546 0 540 +15 531 180 0 532 547 0 17 536 0 548 549 549 29 532 546 0 550
 -16 546 166 0 ?532 551 0 552 0 0 12 17 540 0 553 550 554 544 537 541 0 549 +15
 553 141 0 550 555 556 17 550 0 553 534 540 29 549 557 0 0 +17 554 0 553 540 534
 530 543 551 0 0 -16 541 162 0 ?540 557 535 558 0 0 12 17 549 0 548 536 536 544
 550 557 0 0 -15 548 111 0 549 559 0 16 557 133 0 ?550 560 541 561 0 0 12 16 560
 54 0 ?562 528 557 563 0 0 12 31 561 83 0 557 564 563 0 +.0612 0 0 -1 0 0 0 0 1
 .004 30 564 195 0 535 558 561 0 +.0492 .003 .002645751311064585 1 0 0 31 563 84
 0 560 561 524 0 +.0271 0 0 -1 0 0 0 0 1 .004 31 524 85 0 528 563 25 0 +.0271 0
 0 -1 0 0 0 0 1 .0165 16 528 59 0 ?565 28 560 524 0 0 12 17 565 0 566 565 565 0
 567 528 0 0 +15 566 66 0 565 568 0 17 567 0 569 567 567 0 565 528 0 0 -15 569 1
09 0 567 570 571 14 570 62 572 ?555 568 569 23 573 -0 0 555 568 526 15 571 61 0
 562 570 0 17 562 0 571 562 562 0 574 560 0 0 +17 574 0 556 574 574 0 562 560 0
 0 -15 556 110 0 574 555 0 14 555 57 575 ?559 570 553 23 576 -0 0 559 570 526 81
 1 575 329 79 555 577 0 572 578 579 14 559 52 578 ?547 555 548 23 580 -0 0 547 5
55 526 51 576 79 0 555 580 573 0 -0 0 0 -1 0 0 .004 0 0 1 13 526 44 0 0 0 0 0 0
 27 521 14 521 72 581 ?568 0 582 23 24 -0 0 568 0 526 81 1 581 331 79 521 583 0
 578 584 585 14 568 67 584 ?570 521 586 23 523 -0 0 570 521 526 15 582 71 0 527
 521 0 17 527 0 582 527 527 0 587 28 0 0 +17 587 0 586 587 587 0 527 28 0 0 -15
 586 108 0 587 568 566 81 1 584 332 79 568 588 0 581 589 590 51 523 81 0 568 573
 24 0 -0 0 0 -1 0 0 .0165 0 0 1 50 573 80 0 570 576 523 0 +.0271 .0165 0 -1 0 0
 0 0 1 81 1 588 306 98 568 0 584 583 591 592 81 1 589 333 79 547 593 0 584 594 5
95 82 1 590 792199870 14 547 177 589 ?596 559 531 23 597 -0 0 596 559 526 81 1 5
93 310 98 547 0 589 598 599 600 81 1 594 334 79 596 599 0 589 0 601 82 1 595 858
653376 14 596 181 594 ?0 547 602 23 603 +0 0 0 547 526 81 1 599 311 98 596 0 594
 593 0 604 82 1 601 854196928 83 3 604 .792156862745098 .819607843137255 .933333
333333333 15 602 184 0 543 596 0 50 603 194 0 596 0 597 0 +.0492 0 0 1 0 0 0 0 -
1 50 597 192 0 547 603 580 0 +.0492 .003 0 0 -1 0 0 0 -1 50 580 78 0 559 597 576
 0 +.0612 .004 0 -1 0 0 0 0 1 17 543 0 602 542 542 538 554 551 0 533 +17 542 0 6
02 543 543 530 533 605 0 554 +16 551 155 0 ?543 605 546 606 0 0 12 17 533 0 531
 529 537 538 542 605 0 534 -16 605 159 0 ?542 535 551 607 0 0 12 17 534 0 553 55
4 550 538 529 535 0 0 -16 535 158 0 ?529 541 605 564 0 0 12 30 607 199 0 605 606
 552 0 +.0492 .003 0 0 0 -1 31 606 200 0 551 0 607 0 +.0492 0 0 1 0 0 0 0 -1 .00
4 30 552 197 0 546 607 558 0 +.0612 .003 0 0 0 -1 30 558 196 0 541 552 564 0 +.0
492 .003 -.002645751311064585 1 0 0 81 1 598 309 98 559 0 578 577 593 608 83 3 6
00 .792156862745098 .819607843137255 .933333333333333 81 1 578 330 79 559 598 0
 575 581 609 81 1 577 308 98 555 0 575 591 598 610 83 3 608 .792156862745098 .81
9607843137255 .933333333333333 81 1 591 307 98 570 0 572 588 577 611 83 3 610 .7
92156862745098 .819607843137255 .933333333333333 81 1 572 328 79 570 591 0 0 575
 612 83 3 611 .792156862745098 .819607843137255 .933333333333333 82 1 612 791610
046 82 1 609 790430400 81 1 583 305 98 521 0 581 0 588 613 83 3 592 .79215686274
5098 .819607843137255 .933333333333333 83 3 613 .792156862745098 .81960784313725
5 .933333333333333 82 1 585 792789694 82 1 579 791020224 19 522 40 0 12 0 27 23
 S74 20 520 5 0 0 594 614 519 599 20 0 0 0 0 0 0 0 0 0 0 0 0 0 0 0 81 2 614 275
 107 12 0 519 0 0 615 0 81 2 519 302 109 12 614 20 0 0 616 0 84 5 616 D-cut83 1
 615 1 81 1 10 619 51 7 617 0 0 0 0 70 11 0 4 T7 0 0 5 20 1 618 618 13 13 41 0 7
 0 619 0 0 620 0 51 14 82 0 619 621 0 0 +0 0 0 -1 0 0 .00875 0 0 1 31 15 407 0 6
22 623 0 0 -.003 -315773279078696e-32 .0125 -1 0 0 0 0 1 .0016 19 16 45 0 7 620
 0 624 V16 17 59 0 ?625 0 626 623 0 0 7 17 625 0 627 625 625 0 628 17 0 0 +16 62
6 54 0 ?629 17 630 631 0 0 7 31 623 86 0 17 631 15 0 +.005 0 0 -1 0 0 0 0 1 .021
 31 631 85 0 626 632 623 0 +.005 0 0 -1 0 0 0 0 1 .017725 31 632 84 0 630 633 63
1 0 +.0112 0 0 -1 0 0 0 0 1 .017725 16 630 49 0 ?634 626 635 632 0 0 7 31 633 83
 0 635 636 632 0 +.0112 0 0 -1 0 0 0 0 1 .00875 16 635 47 0 ?637 630 638 633 0 0
 7 31 636 175 0 638 639 633 0 +.0112 .0145 -336509551510296e-32 1 0 0 0 0 -1 .00
21 16 638 156 0 ?640 635 641 636 0 0 7 31 639 213 0 641 642 636 0 +.0112 -315773
279078696e-32 -.0125 1 0 0 0 0 -1 .0016 16 641 194 0 ?643 638 644 639 0 0 7 31 6
42 251 0 644 645 639 0 +.0112 -.0145 -336509551510296e-32 1 0 0 0 0 -1 .0021 16
 644 232 0 ?646 641 647 642 0 0 7 31 645 289 0 647 648 642 0 +.0112 -31577327907
8696e-32 .0125 1 0 0 0 0 -1 .0016 16 647 270 0 ?649 644 650 645 0 0 7 31 648 515
 0 650 651 645 0 -.003 0 0 -1 0 0 0 0 1 .00875 16 650 443 0 ?652 647 653 648 0 0
 7 31 651 516 0 653 654 648 0 -.003 .0145 -336509551510296e-32 -1 0 0 0 0 1 .002
1 16 653 444 0 ?655 650 656 651 0 0 7 31 654 517 0 656 657 651 0 -.003 -31577327
9078696e-32 -.0125 -1 0 0 0 0 1 .0016 16 656 445 0 ?658 653 659 654 0 0 7 31 657
 518 0 659 660 654 0 -.003 -.0145 -336509551510296e-32 -1 0 0 0 0 1 .0021 16 659
 446 0 ?661 656 622 657 0 0 7 31 660 525 0 662 0 657 0 +.003 0 0 -1 0 0 0 0 1 .0
21 16 662 455 0 ?663 622 0 660 0 0 7 17 663 0 664 663 663 0 665 662 0 0 +16 622
 458 0 ?666 659 662 15 0 0 7 17 666 0 667 666 666 0 668 622 0 0 +15 667 462 0 66
6 669 670 17 668 0 671 668 668 0 666 622 0 0 -15 671 406 0 668 672 0 14 672 408
 673 ?674 675 676 13 677 -0 0 674 675 624 81 1 673 609 79 672 678 0 0 679 680 14
 674 62 679 ?681 672 682 13 683 -0 0 681 672 624 14 675 414 684 ?672 685 686 13
 687 -0 0 672 685 624 15 676 277 0 649 672 671 51 677 286 0 672 688 687 0 +0 -31
5773279078696e-32 .0125 1 0 0 .0016 0 0 -1 13 624 44 0 0 0 0 0 0 16 619 14 619 4
39 689 ?690 0 691 13 14 -0 0 690 0 624 81 1 689 612 79 619 692 0 684 693 694 14
 690 433 693 ?695 619 627 13 621 -0 0 695 619 624 15 691 118 0 696 619 697 17 69
6 0 691 696 696 0 637 635 0 0 -15 697 438 0 698 619 0 17 698 0 697 698 698 0 652
 650 0 0 -17 652 0 699 652 652 0 698 650 0 0 +15 699 466 0 652 669 0 14 669 459
 700 ?0 701 664 13 688 +0 0 0 701 624 81 1 700 614 79 669 702 0 693 703 704 14 7
01 52 703 ?669 681 705 13 706 -0 0 669 681 624 15 664 461 0 663 669 667 50 688 5
14 0 669 0 677 0 +.003 0 0 -1 0 0 0 0 1 81 1 703 615 79 701 707 0 700 708 709 14
 681 57 708 ?701 674 710 13 711 -0 0 701 674 624 15 705 255 0 712 701 713 50 706
 77 0 701 714 711 0 +.0112 .017725 0 -1 0 0 0 0 1 51 714 172 0 695 715 706 0 +0
 .0145 -336509551510296e-32 1 0 0 .0021 0 0 -1 51 711 78 0 681 706 683 0 -0 0 0
 -1 0 0 .017725 0 0 1 50 683 79 0 674 711 621 0 +.005 .021 0 -1 0 0 0 0 1 51 621
 80 0 690 683 14 0 -0 0 0 -1 0 0 .021 0 0 1 14 695 426 716 ?685 690 717 13 714 -
0 0 685 690 624 51 715 210 0 685 687 714 0 +0 -315773279078696e-32 -.0125 1 0 0
 .0016 0 0 -1 14 685 420 718 ?675 695 719 13 715 -0 0 675 695 624 51 687 248 0 6
75 677 715 0 +0 -.0145 -336509551510296e-32 1 0 0 .0021 0 0 -1 81 1 718 618 79 6
85 720 0 716 0 721 15 719 201 0 643 685 722 17 643 0 719 643 643 0 723 641 0 0 +
15 722 419 0 724 685 0 17 724 0 722 724 724 0 658 656 0 0 -17 658 0 725 658 658
 0 724 656 0 0 +15 725 464 0 658 669 726 15 726 465 0 655 669 699 17 655 0 726 6
55 655 0 727 653 0 0 +17 727 0 728 727 727 0 655 653 0 0 -15 728 425 0 727 695 0
 17 723 0 729 723 723 0 643 641 0 0 -15 729 179 0 723 701 730 15 730 141 0 731 7
01 732 17 731 0 730 731 731 0 640 638 0 0 -15 732 117 0 733 701 734 17 733 0 732
 733 733 0 634 630 0 0 -15 734 51 0 637 701 0 17 637 0 734 637 637 0 696 635 0 0
 +17 634 0 735 634 634 0 733 630 0 0 +15 735 56 0 634 681 0 17 640 0 717 640 640
 0 731 638 0 0 +15 717 163 0 640 695 728 81 1 720 580 98 685 0 718 736 737 738 8
1 1 716 617 79 695 736 0 708 718 739 82 1 721 -947191095 81 1 736 579 98 695 0 7
16 740 720 741 81 1 708 616 79 681 742 0 703 716 743 82 1 739 -946666807 81 1 74
2 584 98 681 0 708 744 707 745 82 1 743 455344818 81 1 744 583 98 674 0 679 678
 742 746 81 1 707 585 98 701 0 703 742 702 747 83 3 745 .752941176470588 .752941
176470588 .752941176470588 81 1 702 586 98 669 0 700 707 0 748 83 3 747 .7529411
76470588 .752941176470588 .752941176470588 83 3 748 .792156862745098 .8196078431
37255 .933333333333333 81 1 679 610 79 674 744 0 673 684 749 81 1 678 582 98 672
 0 673 737 744 750 83 3 746 .752941176470588 .752941176470588 .752941176470588 8
1 1 737 581 98 675 0 684 720 678 751 83 3 750 .752941176470588 .752941176470588
 .752941176470588 81 1 684 611 79 675 737 0 679 689 752 83 3 751 .75294117647058
8 .752941176470588 .752941176470588 82 1 752 -947715383 82 1 749 455934642 81 1
 740 578 98 690 0 693 692 736 753 83 3 741 .752941176470588 .752941176470588 .75
2941176470588 81 1 693 613 79 690 740 0 689 700 754 81 1 692 577 98 619 0 689 0
 740 755 83 3 753 .752941176470588 .752941176470588 .752941176470588 83 3 755 .7
52941176470588 .752941176470588 .752941176470588 82 1 754 -946076983 83 3 738 .7
52941176470588 .752941176470588 .752941176470588 17 712 0 705 712 712 0 649 647
 0 0 -15 713 217 0 756 701 729 17 756 0 713 756 756 0 646 644 0 0 -17 646 0 686
 646 646 0 756 644 0 0 +15 686 239 0 646 675 757 15 757 413 0 758 675 0 17 758 0
 757 758 758 0 661 659 0 0 -17 661 0 670 661 661 0 758 659 0 0 +15 670 463 0 661
 669 725 17 649 0 676 649 649 0 712 647 0 0 +15 710 116 0 759 681 735 17 759 0 7
10 759 759 0 629 626 0 0 -17 629 0 760 629 629 0 759 626 0 0 +15 760 61 0 629 67
4 0 82 1 709 454754996 82 1 704 -948174135 15 627 66 0 625 690 761 15 761 431 0
 665 690 0 17 665 0 761 665 665 0 663 662 0 0 -82 1 694 -945552695 15 682 115 0
 628 674 760 17 628 0 682 628 628 0 625 17 0 0 -82 1 680 -953417015 19 620 40 0
 7 0 16 13 S74 20 618 5 0 0 718 762 617 702 10 0 0 0 0 0 0 0 0 0 0 0 0 0 0 0 81
 2 762 388 107 7 0 617 0 0 763 0 81 2 617 574 109 7 762 10 0 0 764 0 84 11 764 ?
?? - ????183 1 763 1 74 20 6 1 0 0 2 0 0 0 0 0 0 0 0 0 0 0 0 0 0 0 0 0 0 0 80 2
 5 765 766 9000 0 0 0 0 3 5 0 0 0 TFFFFFFFFFFFFF9 1 79 18 766 MULTI_BODY_ID_2001
1 0 
