**ABCDEFGHIJKLMNOPQRSTUVWXYZabcdefghijklmnopqrstuvwxyz**************************
**PARASOLID !"#$%&'()*+,-./:;<=>?@[\]^_`{|}~0123456789**************************
**PART1;
MC=AMD64;
MC_MODEL=Intel64 Family 6 Model 158 Stepping 9, GenuineIntel;
MC_ID=unknown;
OS=Windows_NT;
OS_RELEASE=unknown;
FRU=Parasolid Version 34.1, build 225,  5-24-2022;
APPL=SOLIDWORKS 2023-2022300;
SITE=;
USER=unknown;
FORMAT=text;
GUISE=transmit;
KEY=RZ735-VA;
FILE=RZ735-VA.x_t;
DATE=Wed Feb 14 12:17:34 2024;
**PART2;
SCH=SCH_3401225_34101;
USFLD_SIZE=0;
**PART3;
**END_OF_HEADER*****************************************************************
T51 : TRANSMIT FILE created by modeller version 340122517 SCH_2100000_200000 10
 1 7 2 3 0 0 0 0 0 1e3 1e-8 0 0 0 1 0 1 4 81 2 2 7 5 1 0 0 0 0 0 0 70 3 0 4 T1 0
 0 1 20 1 6 6 11 4 5 0 1 7 8 1 9 0 0 0 12 7 219 10 11 0 0 0 0 1e3 1e-8 4 12 0 1
 0 1 1 13 14 15 0 16 17 0 0 0 0 0 100 8 6 4 0 0 1 0 0 0 1 0 0 0 1 0 0 0 1 0 ?11
 9 3 0 1 12 18 1 19 4 0 0 12 12 219 20 21 0 0 0 0 1e3 1e-8 9 22 7 1 0 1 1 23 24
 25 0 26 27 0 0 0 0 0 100 18 4 9 0 0 1 0 0 0 1 0 0 0 1 0 0 0 1 0 ?11 19 1 0 1 22
 28 1 0 9 0 0 12 22 801 29 30 0 0 0 0 1e3 1e-8 19 31 12 1 0 1 1 32 33 34 0 35 36
 0 0 0 0 0 100 28 2 19 0 0 1 0 0 0 1 0 0 0 1 0 0 0 1 0 ?81 1 29 801 37 22 38 0 0
 0 0 70 30 0 4 T22 0 0 5 20 1 39 39 13 32 65 0 22 0 40 0 0 41 0 54 33 523 0 42 4
3 0 0 +-2e-4 0 0 1 0 0 .0073 2e-4 0 0 -1 31 34 465 0 36 44 0 0 +0 0 0 1 0 0 0 0
 -1 .0073 19 35 69 0 22 41 0 45 V16 36 462 0 ?46 0 47 34 0 0 22 17 46 0 48 46 46
 0 49 36 0 0 +16 47 456 0 ?50 36 51 44 0 0 22 17 50 0 52 50 50 0 53 47 0 0 +16 5
1 450 0 ?54 47 55 56 0 0 22 31 44 459 0 47 56 34 0 +-.0622 0 0 -1 0 0 0 0 1 .007
3 31 56 453 0 51 57 44 0 +-.0042 0 0 1 0 0 0 0 -1 .0075 31 57 447 0 55 58 56 0 -
-2e-4 0 0 1 0 0 0 0 -1 .0075 16 55 444 0 ?59 51 60 57 0 0 22 31 58 441 0 60 61 5
7 0 --.0044 0 0 1 0 0 0 0 -1 .0077 16 60 438 0 ?62 55 63 58 0 0 22 31 61 435 0 6
3 64 58 0 --.0572 0 0 -1 0 0 0 0 1 .0077 16 63 432 0 ?65 60 66 61 0 0 22 31 64 4
29 0 66 67 61 0 +-.0574 0 0 -1 0 0 0 0 1 .0075 16 66 426 0 ?68 63 69 64 0 0 22 3
1 67 423 0 69 70 64 0 --.062 0 0 -1 0 0 0 0 1 .0075 16 69 420 0 ?71 66 72 67 0 0
 22 31 70 281 0 72 73 67 0 --.0093 0 0 1 0 0 0 0 -1 .02105 16 72 278 0 ?74 69 75
 70 0 0 22 31 73 275 0 75 76 70 0 --.0363 0 0 -1 0 0 0 0 1 .02105 16 75 272 0 ?7
7 72 78 73 0 0 22 31 76 212 0 79 80 73 0 -0 0 0 1 0 0 0 0 -1 .0025 16 79 221 0 ?
81 82 83 76 0 0 22 31 80 136 0 78 84 76 0 +-.0572 0 0 -1 0 0 0 0 1 .02035 16 78
 103 0 ?85 75 86 80 0 0 22 31 84 135 0 86 87 80 0 +-.0579 0 0 -1 0 0 0 0 1 .0203
5 16 86 98 0 ?88 78 89 84 0 0 22 31 87 134 0 89 90 84 0 +-.0579 0 0 -1 0 0 0 0 1
 .02105 16 89 93 0 ?91 86 92 87 0 0 22 31 90 133 0 92 93 87 0 +-.0044 0 0 -1 0 0
 0 0 1 .02105 16 92 88 0 ?94 89 82 90 0 0 22 31 93 248 0 82 95 90 0 --.0622 0 0
 -1 0 0 0 0 1 .0025 16 82 222 0 ?96 92 79 93 0 0 22 31 95 249 0 83 97 93 0 +.013
5 0 0 -1 0 0 0 0 1 .0025 16 83 223 0 ?98 79 99 95 0 0 22 31 97 250 0 99 100 95 0
 +-.0625 0 0 -1 0 0 0 0 1 .0025 16 99 224 0 ?101 83 102 97 0 0 22 31 100 312 0 1
02 103 97 0 +-.0093 0 0 -1 0 0 0 0 1 .0225 16 102 287 0 ?104 99 105 100 0 0 22 3
1 103 313 0 105 106 100 0 +-.0363 0 0 -1 0 0 0 0 1 .0225 16 105 288 0 ?107 102 1
08 103 0 0 22 31 106 367 0 109 110 103 0 +-.0044 .0145 612457666443769e-32 1 0 0
 0 0 -1 .002 16 109 348 0 ?111 108 112 106 0 0 22 31 110 368 0 108 113 106 0 +-.
0094 .0145 612457666443769e-32 1 0 0 0 0 -1 .002 16 108 345 0 ?114 105 109 110 0
 0 22 31 113 398 0 115 116 110 0 +-.0044 -.0145 -275411262938062e-32 1 0 0 0 0 -
1 .002 16 115 379 0 ?117 112 0 113 0 0 22 31 116 399 0 112 0 113 0 +-.0094 -.014
5 -275411262938062e-32 1 0 0 0 0 -1 .002 16 112 376 0 ?118 109 115 116 0 0 22 17
 118 0 119 118 118 0 120 112 0 0 +15 119 389 0 118 121 0 17 120 0 122 120 120 0
 118 112 0 0 -15 122 385 0 120 123 124 14 123 382 125 ?121 126 122 32 127 -0 0 1
21 126 45 15 124 386 0 117 123 0 17 117 0 124 117 117 0 128 115 0 0 +17 128 0 12
9 128 128 0 117 115 0 0 -15 129 371 0 128 130 131 14 130 91 132 ?133 134 135 32
 136 +0 0 133 134 45 15 131 340 0 137 130 138 17 137 0 131 137 137 0 111 109 0 0
 -15 138 90 0 139 130 0 17 139 0 138 139 139 0 94 92 0 0 -17 94 0 140 94 94 0 13
9 92 0 0 +15 140 178 0 94 133 0 14 133 276 141 ?142 130 143 32 144 +145 145 142
 130 45 81 1 141 778 146 133 147 0 132 148 149 14 142 351 148 ?126 133 150 32 15
1 -0 0 126 133 45 15 143 280 0 152 133 140 51 144 125 0 145 136 153 0 +-.057 0 0
 -1 0 0 .02105 0 0 1 14 145 96 154 ?155 156 157 32 144 +133 133 155 156 45 13 45
 68 0 0 0 0 0 0 35 40 14 40 218 158 ?159 0 52 32 160 +0 0 159 0 45 81 1 158 781
 146 40 161 0 154 162 163 14 159 116 162 ?164 40 165 32 166 +0 0 164 40 45 15 52
 457 0 50 40 167 50 160 130 0 40 166 168 0 +-.0622 -.0075 0 -1 0 0 0 0 1 51 166
 129 0 159 169 160 0 +-.057 0 0 -1 0 0 .0075 0 0 1 54 168 484 0 170 160 171 0 +-
.0574 0 0 -1 0 0 .0077 2e-4 0 0 1 14 170 477 172 ?173 121 174 32 168 -0 0 173 12
1 45 54 171 497 0 173 168 43 0 +-.0042 0 0 1 0 0 .0077 2e-4 0 0 -1 14 173 490 17
5 ?176 170 177 32 171 -0 0 176 170 45 54 43 510 0 176 171 33 0 +-.062 0 0 -1 0 0
 .0073 2e-4 0 0 1 14 176 503 178 ?42 173 179 32 43 +0 0 42 173 45 81 1 178 785 1
46 176 180 0 175 181 182 14 42 516 181 ?0 176 183 32 33 +0 0 0 176 45 15 179 504
 0 184 176 185 17 184 0 179 184 184 0 71 69 0 0 -15 185 505 0 53 176 0 17 53 0 1
85 53 53 0 50 47 0 0 -17 71 0 186 71 71 0 184 69 0 0 +15 186 421 0 71 159 0 81 1
 181 786 146 42 187 0 178 188 189 15 183 517 0 49 42 190 17 49 0 183 49 49 0 46
 36 0 0 -15 190 518 0 191 42 0 17 191 0 190 191 191 0 59 55 0 0 -17 59 0 192 59
 59 0 191 55 0 0 +15 192 445 0 59 134 0 14 134 86 188 ?130 193 194 32 195 +0 0 1
30 193 45 81 1 188 787 146 134 196 0 181 197 198 14 193 213 197 ?134 199 48 32 2
00 +0 0 134 199 45 15 194 451 0 54 134 192 51 195 123 0 134 200 136 0 +-.057 0 0
 -1 0 0 .0075 0 0 1 50 200 122 0 193 201 195 0 +0 0 0 1 0 0 0 0 -1 50 136 124 0
 130 195 144 0 +-.0044 -.0075 0 1 0 0 0 0 -1 50 201 245 0 202 203 200 0 +.0135 0
 0 -1 0 0 0 0 1 14 202 233 204 ?199 205 206 32 201 -0 0 199 205 45 51 203 246 0
 199 207 201 0 -0 0 0 -1 0 0 .0025 0 0 1 14 199 236 208 ?193 202 209 32 203 -155
 155 193 202 45 50 207 247 0 210 211 203 0 +-.0625 .0025 0 1 0 0 0 0 -1 14 210 2
40 212 ?213 155 214 32 207 -0 0 213 155 45 50 211 308 0 213 215 207 0 +-.0093 0
 0 1 0 0 0 0 -1 14 213 290 216 ?217 210 218 32 211 +0 0 217 210 45 51 215 309 0
 217 219 211 0 +0 0 0 -1 0 0 .0225 0 0 1 14 217 294 220 ?205 213 221 32 215 +0 0
 205 213 45 50 219 310 0 205 151 215 0 +-.0363 0 0 -1 0 0 0 0 1 14 205 298 222 ?
202 217 223 32 219 +0 0 202 217 45 51 151 364 0 142 224 219 0 +-.0094 .0145 6124
57666443769e-32 1 0 0 .002 0 0 -1 50 224 366 0 126 127 151 0 +-.0094 .0145 61245
7666443769e-32 1 0 0 0 0 -1 14 126 356 225 ?123 142 226 32 224 +0 0 123 142 45 5
1 127 395 0 123 227 224 0 +-.0094 -.0145 -275411262938062e-32 1 0 0 .002 0 0 -1
 50 227 397 0 121 0 127 0 +-.0094 -.0145 -275411262938062e-32 1 0 0 0 0 -1 14 12
1 387 228 ?170 123 119 32 227 +0 0 170 123 45 81 1 228 796 146 121 229 0 225 230
 231 80 1 146 232 233 9000 1 1 1 1 1 1 1 1 0 FFFFTFTFFFFFFF1 81 1 229 717 234 12
1 0 228 235 236 237 81 1 225 795 146 126 238 0 222 228 239 81 1 230 797 146 155
 240 0 228 241 242 82 1 231 -898300311 14 155 229 230 ?210 145 243 32 203 -199 1
99 210 145 45 81 1 240 703 234 155 0 230 244 245 246 81 1 241 798 146 156 247 0
 230 248 249 82 1 242 -972421531 14 156 101 241 ?145 250 251 32 153 +0 0 145 250
 45 81 1 247 701 234 156 0 241 252 244 253 81 1 248 799 146 250 252 0 241 254 25
5 82 1 249 -1001585053 14 250 106 248 ?156 164 256 32 257 +0 0 156 164 45 81 1 2
52 700 234 250 0 248 258 247 259 81 1 254 800 146 164 258 0 248 0 260 82 1 255 -
1000995229 14 164 111 254 ?250 159 261 32 169 +0 0 250 159 45 81 1 258 699 234 1
64 0 254 262 252 263 82 1 260 -1000405398 80 1 234 0 264 8001 0 0 0 0 3 5 0 0 0
 FFFFTFTFFFFFFF2 81 1 262 698 234 159 0 162 161 258 265 83 3 263 .79215686274509
8 .819607843137255 .933333333333333 81 1 162 782 146 159 262 0 158 172 266 81 1
 161 697 234 40 0 158 0 262 267 83 3 265 .792156862745098 .819607843137255 .9333
33333333333 83 3 267 .792156862745098 .819607843137255 .933333333333333 81 1 172
 783 146 170 236 0 162 175 268 82 1 266 -999815574 81 1 236 718 234 170 0 172 22
9 269 270 81 1 175 784 146 173 269 0 172 178 271 82 1 268 -889715094 81 1 269 71
9 234 173 0 175 236 180 272 82 1 271 -888469910 81 1 180 720 234 176 0 178 269 1
87 273 83 3 272 .792156862745098 .819607843137255 .933333333333333 81 1 187 721
 234 42 0 181 180 0 274 83 3 273 .792156862745098 .819607843137255 .933333333333
333 83 3 274 .792156862745098 .819607843137255 .933333333333333 83 3 270 .792156
862745098 .819607843137255 .933333333333333 79 15 264 SDL/TYSA_COLOUR15 261 433
 0 65 164 275 50 169 128 0 164 257 166 0 +-.0572 -.0075 0 -1 0 0 0 0 1 51 257 12
7 0 250 153 169 0 --.057 0 0 -1 0 0 .02035 0 0 1 50 153 126 0 156 144 257 0 +-.0
579 -.02105 0 -1 0 0 0 0 1 17 65 0 261 65 65 0 276 63 0 0 +15 275 181 0 85 164 0
 17 85 0 275 85 85 0 277 78 0 0 +17 277 0 278 277 277 0 85 78 0 0 -15 278 105 0
 277 250 0 17 276 0 174 276 276 0 65 63 0 0 -15 174 478 0 276 170 279 15 279 479
 0 280 170 0 17 280 0 279 280 280 0 68 66 0 0 -17 68 0 165 68 68 0 280 66 0 0 +1
5 165 427 0 68 159 186 83 3 259 .792156862745098 .819607843137255 .9333333333333
33 15 256 180 0 88 250 278 17 88 0 256 88 88 0 281 86 0 0 +17 281 0 282 281 281
 0 88 86 0 0 -15 282 100 0 281 156 0 81 1 244 702 234 145 0 154 247 240 283 83 3
 253 .792156862745098 .819607843137255 .933333333333333 81 1 154 780 146 145 244
 0 148 158 284 83 3 283 .792156862745098 .819607843137255 .933333333333333 81 1
 148 779 146 142 285 0 141 154 286 82 1 284 -1002174873 81 1 285 714 234 142 0 1
48 147 238 287 82 1 286 -900331927 81 1 147 713 234 133 0 141 288 285 289 81 1 2
38 715 234 126 0 225 285 235 290 83 3 287 .792156862745098 .819607843137255 .933
333333333333 81 1 235 716 234 123 0 125 238 229 291 83 3 290 .792156862745098 .8
19607843137255 .933333333333333 81 1 125 776 146 123 235 0 0 132 292 83 3 291 .7
92156862745098 .819607843137255 .933333333333333 81 1 132 777 146 130 288 0 125
 141 293 82 1 292 -896334231 81 1 288 712 234 130 0 132 196 147 294 82 1 293 -10
02764694 81 1 196 711 234 134 0 188 295 288 296 83 3 294 .792156862745098 .81960
7843137255 .933333333333333 81 1 295 710 234 193 0 197 297 196 298 83 3 296 .792
156862745098 .819607843137255 .933333333333333 81 1 197 788 146 193 295 0 188 20
4 299 81 1 297 709 234 199 0 208 300 295 301 83 3 298 .792156862745098 .81960784
3137255 .933333333333333 81 1 208 790 146 199 297 0 204 212 302 81 1 300 708 234
 202 0 204 303 297 304 83 3 301 1 1 1 81 1 204 789 146 202 300 0 197 208 305 81
 1 303 707 234 205 0 222 306 300 307 83 3 304 1 1 1 81 1 222 794 146 205 303 0 2
20 225 308 81 1 306 706 234 217 0 220 309 303 310 83 3 307 .792156862745098 .819
607843137255 .933333333333333 81 1 220 793 146 217 306 0 216 222 311 81 1 309 70
5 234 213 0 216 245 306 312 83 3 310 .792156862745098 .819607843137255 .93333333
3333333 81 1 216 792 146 213 309 0 212 220 313 81 1 245 704 234 210 0 212 240 30
9 314 83 3 312 .792156862745098 .819607843137255 .933333333333333 81 1 212 791 1
46 210 245 0 208 216 315 83 3 314 1 1 1 82 1 315 -976353691 82 1 313 -916257177
 82 1 311 -916650393 82 1 308 -917305753 82 1 305 -975436187 82 1 302 -975763867
 82 1 299 -972880278 83 3 289 .792156862745098 .819607843137255 .933333333333333
 15 251 179 0 91 156 282 17 91 0 251 91 91 0 316 89 0 0 +17 316 0 317 316 316 0
 91 89 0 0 -15 317 95 0 316 145 0 83 3 246 1 1 1 15 243 231 0 318 155 319 17 318
 0 243 318 318 0 96 82 0 0 -15 319 232 0 320 155 0 17 320 0 319 320 320 0 101 99
 0 0 -17 101 0 214 101 101 0 320 99 0 0 +15 214 242 0 101 210 0 17 96 0 167 96 9
6 0 318 82 0 0 +15 167 216 0 96 40 0 82 1 239 -902298007 83 3 237 .7921568627450
98 .819607843137255 .933333333333333 79 14 233 SWEntUnchanged15 226 358 0 114 12
6 0 17 114 0 226 114 114 0 321 108 0 0 +17 321 0 150 321 321 0 114 108 0 0 -15 1
50 354 0 321 142 322 15 322 355 0 111 142 0 17 111 0 322 111 111 0 137 109 0 0 +
15 223 300 0 107 205 323 17 107 0 223 107 107 0 324 105 0 0 +15 323 301 0 77 205
 0 17 77 0 323 77 77 0 325 75 0 0 +17 325 0 157 325 325 0 77 75 0 0 -15 157 274
 0 325 145 317 17 324 0 326 324 324 0 107 105 0 0 -15 326 297 0 324 217 0 15 221
 296 0 104 217 326 17 104 0 221 104 104 0 327 102 0 0 +17 327 0 328 327 327 0 10
4 102 0 0 -15 328 293 0 327 213 0 15 218 292 0 74 213 328 17 74 0 218 74 74 0 15
2 72 0 0 +17 152 0 143 152 152 0 74 72 0 0 -15 209 238 0 329 199 330 17 329 0 20
9 329 329 0 81 79 0 0 -15 330 239 0 98 199 0 17 98 0 330 98 98 0 331 83 0 0 +17
 331 0 206 331 331 0 98 83 0 0 -15 206 235 0 331 202 0 17 81 0 332 81 81 0 329 7
9 0 0 +15 332 210 0 81 193 0 17 54 0 194 54 54 0 333 51 0 0 +17 333 0 177 333 33
3 0 54 51 0 0 -15 177 491 0 333 173 334 15 334 492 0 335 173 0 17 335 0 334 335
 335 0 62 60 0 0 -17 62 0 135 62 62 0 335 60 0 0 +15 135 439 0 62 130 129 15 48
 463 0 46 193 332 82 1 198 -1003354518 82 1 189 -885979542 82 1 182 -887224726 8
2 1 163 -971438486 82 1 149 -913176985 19 41 64 0 22 0 35 32 S74 20 39 5 0 0 254
 336 38 187 29 0 0 0 0 0 0 0 0 0 0 0 0 0 0 0 81 2 336 692 337 22 0 38 0 0 338 0
 81 2 38 695 339 22 336 29 0 0 340 0 80 2 339 341 342 8004 0 0 0 0 3 5 0 0 0 FFT
FFFFFFFFFFF2 3 83 1 340 1 79 16 342 SDL/TYSA_DENSITY80 2 337 343 344 9000 0 0 0
 0 3 5 0 0 0 FFTFTTTFFTFFFF3 3 84 8 338 fillet_279 21 344 SWIMPLICITBODYNAME_ID8
0 1 37 345 346 8017 0 0 0 0 0 0 0 0 0 TTTTTTTTTTTTTF3 79 13 346 SDL/TYSA_NAME81
 1 20 219 37 12 347 0 0 0 0 70 21 0 4 T12 0 0 5 20 1 348 348 13 23 90 0 12 0 349
 0 0 350 0 51 24 84 0 349 351 0 352 +-.057 0 0 -1 0 0 .02105 0 0 1 38 25 41 0 27
 353 0 0 +351 24 354 355 355 19 26 96 0 12 350 0 356 V16 27 115 0 ?357 0 358 25
 0 0 12 17 357 0 359 357 357 0 360 27 0 0 +16 358 127 0 ?361 27 0 353 0 0 12 17
 361 0 362 361 361 0 363 358 0 0 +31 353 147 0 358 0 25 0 +-.0494 .0025 .03105 0
 0 1 1 0 0 .0015 15 362 137 0 361 364 0 17 363 0 365 363 363 0 361 358 0 0 -15 3
65 133 0 363 366 0 14 366 31 367 ?364 349 368 23 351 +0 0 364 349 356 81 1 367 2
16 146 366 369 0 0 370 371 14 364 135 370 ?0 366 362 23 372 +0 0 0 366 356 14 34
9 74 373 ?366 0 359 23 24 -0 0 366 0 356 15 368 40 0 360 366 365 51 351 34 0 366
 372 24 374 +-.0494 .0025 -5e2 0 0 1 .0015 1 0 0 13 356 116 0 0 0 0 0 0 26 349 5
0 372 145 0 364 0 351 0 +-.0494 .0025 .03105 0 0 1 1 0 0 141 374 25 374 374 351
 17 360 0 368 360 360 0 357 27 0 0 -81 1 373 218 146 349 375 0 370 0 376 15 359
 78 0 357 349 0 81 1 375 205 234 349 0 373 0 369 377 81 1 370 217 146 364 378 0
 367 373 379 82 1 376 -859175315 81 1 378 207 234 364 0 370 369 0 380 82 1 379 -
837745043 81 1 369 206 234 366 0 367 375 378 381 83 3 380 .250980392156863 .2509
80392156863 .250980392156863 83 3 381 .250980392156863 .250980392156863 .2509803
92156863 83 3 377 .792156862745098 .819607843137255 .933333333333333 82 1 371 -8
60092819 19 350 36 0 12 0 26 23 S40 20 354 0 1 20 87256820299695e-18 .3427479903
4829 ??-.0479 .0025 .02090101672168125 -.04798455016663 .002003510554782145 .020
95443736913205 -.0482296437570298 .001561774939291975 .0209919832088109 -.048606
2652424528 .001227213633534092 .0210141963133894 -.0490716024727221 .00103638971
5778896 .0210244713692646 -.0495739000259272 .001010114507425976 .02102575013363
11 -.0500566829774197 .001151383128102248 .02101848750248985 -.0504653841052497
 .001444084895324756 .0210004075868802 -.0507540827135034 .001854662874931735 .0
209681359596019 -.0508910994465536 .002336836154471555 .02091988759021315 -.0508
613822316973 .00283817447106404 .02085778669158835 -.0506660716901015 .003304401
936548815 .02078902181060315 -.0503242570791361 .003681418152758305 .02072557985
641275 -.0498766315375279 .003922259602686445 .02068135342788605 -.0493803643010
724 .003999871474269585 .02066648320806725 -.0488928349733728 .00391165988671712
 .0206833608712571 -.048461917206376 .00367047027826709 .0207275215097309 -.0481
301006083234 .003298345498527715 .0207899835731619 -.0479370397362309 .002831281
25004692 .02085872351039565 -.0479 .0025 .02090101672168125 41 1 355 H-.0479 .00
25 .02090101672168125 141 352 25 352 352 24 74 20 348 5 0 0 373 382 347 378 20 0
 0 0 0 0 0 0 0 0 0 0 0 0 0 0 81 2 382 201 337 12 0 347 0 0 383 0 81 2 347 204 33
9 12 382 20 0 0 384 0 83 1 384 1 84 4 383 wire81 1 10 219 37 7 385 0 0 0 0 70 11
 0 4 T7 0 0 5 20 1 386 386 13 13 90 0 7 0 387 0 0 388 0 51 14 84 0 387 389 0 390
 +-.057 0 0 -1 0 0 .02105 0 0 1 38 15 41 0 17 391 0 0 +389 14 392 393 393 19 16
 96 0 7 388 0 394 V16 17 115 0 ?395 0 396 15 0 0 7 17 395 0 397 395 395 0 398 17
 0 0 +16 396 127 0 ?399 17 0 391 0 0 7 17 399 0 400 399 399 0 401 396 0 0 +31 39
1 147 0 396 0 15 0 +-.0494 -.0025 .03105 0 0 1 1 0 0 .0015 15 400 137 0 399 402
 0 17 401 0 403 401 401 0 399 396 0 0 -15 403 133 0 401 404 0 14 404 31 405 ?402
 387 406 13 389 +0 0 402 387 394 81 1 405 216 146 404 407 0 0 408 409 14 402 135
 408 ?0 404 400 13 410 +0 0 0 404 394 14 387 74 411 ?404 0 397 13 14 -0 0 404 0
 394 15 406 40 0 398 404 403 51 389 34 0 404 410 14 412 +-.0494 -.0025 -5e2 0 0
 1 .0015 1 0 0 13 394 116 0 0 0 0 0 0 16 387 50 410 145 0 402 0 389 0 +-.0494 -.
0025 .03105 0 0 1 1 0 0 141 412 15 412 412 389 17 398 0 406 398 398 0 395 17 0 0
 -81 1 411 218 146 387 413 0 408 0 414 15 397 78 0 395 387 0 81 1 413 205 234 38
7 0 411 0 407 415 81 1 408 217 146 402 416 0 405 411 417 82 1 414 -847444371 81
 1 416 207 234 402 0 408 407 0 418 82 1 417 -835058067 81 1 407 206 234 404 0 40
5 413 416 419 83 3 418 .752941176470588 0 0 83 3 419 .752941176470588 0 0 83 3 4
15 .792156862745098 .819607843137255 .933333333333333 82 1 409 -848361875 19 388
 36 0 7 0 16 13 S40 20 392 0 1 20 871195889124352e-19 .3431055100220985 ??-.0479
 -.0025 .02090101672168125 -.0479859238906942 -.00300038860607585 .0208350706313
305 -.0482335918291617 -.00344312882418135 .02076649618737095 -.0486164263507989
 -.003779066978808255 .0207079973143151 -.0490870785008461 -.00396699697864969 .
02067281874760635 -.0495863729235838 -.003988376677240965 .0206687046396343 -.05
00598615049782 -.003847064510054325 .02069547280579695 -.0504622539828249 -.0035
5906396217254 .0207469410688218 -.0507517309698604 -.003150248710202755 .0208129
390779838 -.0508911550202031 -.00266265517428915 .02088091873991255 -.0508596780
750882 -.002154543899884845 .02093944699803385 -.0506611883103589 -.001687963026
81839 .02098221343948475 -.0503207649359337 -.00131585814500334 .021008831889046
75 -.0498774834046627 -.00107802616118591 .02102237759140955 -.0493806102247676
 -.001000125326363422 .02102622765337535 -.0488858222190453 -.001090879277857126
 .0210217145447545 -.0484490102028258 -.001339992066548414 .0210073063780578 -.0
481194219228983 -.00171889834947913 .0209797018201918 -.0479335470584379 -.00218
453879765671 .0209363389885035 -.0479 -.0025 .02090101672168125 41 1 393 H-.0479
 -.0025 .02090101672168125 141 390 15 390 390 14 74 20 386 5 0 0 411 420 385 416
 10 0 0 0 0 0 0 0 0 0 0 0 0 0 0 0 81 2 420 201 337 7 0 385 0 0 421 0 81 2 385 20
4 339 7 420 10 0 0 422 0 83 1 422 1 84 4 421 wire74 20 6 1 0 0 2 0 0 0 0 0 0 0 0
 0 0 0 0 0 0 0 0 0 0 0 80 2 5 423 424 9000 0 0 0 0 3 5 0 0 0 TFFFFFFFFFFFFF9 1 7
9 18 424 MULTI_BODY_ID_20011 0 
