**ABCDEFGHIJKLMNOPQRSTUVWXYZabcdefghijklmnopqrstuvwxyz**************************
**PARASOLID !"#$%&'()*+,-./:;<=>?@[\]^_`{|}~0123456789**************************
**PART1;
MC=AMD64;
MC_MODEL=Intel64 Family 6 Model 158 Stepping 9, GenuineIntel;
MC_ID=unknown;
OS=Windows_NT;
OS_RELEASE=unknown;
FRU=Parasolid Version 34.1, build 225,  5-24-2022;
APPL=SOLIDWORKS 2023-2022300;
SITE=;
USER=unknown;
FORMAT=text;
GUISE=transmit;
KEY=servo 60 top;
FILE=servo 60 top.x_t;
DATE=Wed Feb 14 12:18:17 2024;
**PART2;
SCH=SCH_3401225_34101;
USFLD_SIZE=0;
**PART3;
**END_OF_HEADER*****************************************************************
T51 : TRANSMIT FILE created by modeller version 340122517 SCH_2100000_200000 12
 1 507 2 3 0 0 0 0 1e3 1e-8 0 4 0 1 0 1 1 5 6 7 0 8 9 0 0 0 0 0 81 2 2 495 10 1
 11 0 0 0 0 12 70 3 0 4 T1 0 0 9 20 1 13 13 13 5 31 0 1 0 14 0 0 15 0 51 6 30 0
 16 17 0 0 -0 0 .005 0 0 -1 .015 -1 0 0 31 7 25 0 18 19 0 0 +0 0 0 0 0 1 1 0 0 .
015 19 8 9 0 1 15 0 20 V16 9 5 0 ?21 0 18 19 0 0 1 17 21 0 22 21 21 0 23 9 0 0 +
16 18 20 0 ?24 9 25 7 0 0 1 31 19 7 0 9 26 7 0 +0 0 .005 0 0 1 1 0 0 .015 31 26
 73 0 27 28 19 0 +0 .012 0 0 0 1 1 0 0 .00125 16 27 51 0 ?29 25 30 26 0 0 1 31 2
8 74 0 25 31 26 0 +0 .012 .005 0 0 1 1 0 0 .00125 16 25 54 0 ?32 18 27 28 0 0 1
 31 31 111 0 33 34 28 0 +0 0 0 0 0 1 1 0 0 .002 16 33 89 0 ?35 30 36 31 0 0 1 31
 34 112 0 30 37 31 0 +0 0 .005 0 0 1 1 0 0 .002 16 30 92 0 ?38 27 33 34 0 0 1 31
 37 149 0 39 40 34 0 +.00848528137423859 .00848528137423856 0 0 0 1 1 0 0 .00125
 16 39 127 0 ?41 36 42 37 0 0 1 31 40 150 0 36 43 37 0 +.00848528137423859 .0084
8528137423856 .005 0 0 1 1 0 0 .00125 16 36 130 0 ?44 33 39 40 0 0 1 31 43 187 0
 45 46 40 0 +.01200000000000034 338856148926383e-30 0 0 0 1 1 0 0 .0012500000000
00266 16 45 165 0 ?47 42 48 43 0 0 1 31 46 188 0 42 49 43 0 +.01200000000000034
 338856148926383e-30 .005 0 0 1 1 0 0 .001250000000000266 16 42 168 0 ?50 39 45
 46 0 0 1 31 49 225 0 51 52 46 0 +.00848528137423915 -.00848528137423833 0 0 0 1
 1 0 0 .001250000000000544 16 51 203 0 ?53 48 54 49 0 0 1 31 52 226 0 48 55 49 0
 +.00848528137423915 -.00848528137423833 .005 0 0 1 1 0 0 .001250000000000544 16
 48 206 0 ?56 45 51 52 0 0 1 31 55 263 0 57 58 52 0 +677712297852766e-30 -.012 0
 0 0 1 1 0 0 .00125000000000073 16 57 241 0 ?59 54 60 55 0 0 1 31 58 264 0 54 61
 55 0 +677712297852766e-30 -.012 .005 0 0 1 1 0 0 .00125000000000073 16 54 244 0
 ?62 51 57 58 0 0 1 31 61 301 0 63 64 58 0 +-.00848528137423799 -.00848528137423
881 0 0 0 1 1 0 0 .001250000000000722 16 63 279 0 ?65 60 66 61 0 0 1 31 64 302 0
 60 67 61 0 +-.00848528137423799 -.00848528137423881 .005 0 0 1 1 0 0 .001250000
000000722 16 60 282 0 ?68 57 63 64 0 0 1 31 67 339 0 69 70 64 0 +-.0119999999999
9966 -34032572508536e-29 0 0 0 1 1 0 0 .001250000000000544 16 69 317 0 ?71 66 72
 67 0 0 1 31 70 340 0 66 73 67 0 +-.01199999999999966 -34032572508536e-29 .005 0
 0 1 1 0 0 .001250000000000544 16 66 320 0 ?74 63 69 70 0 0 1 31 73 377 0 75 76
 70 0 +-.00848528137423847 .00848528137423833 0 0 0 1 1 0 0 .00125000000000031 1
6 75 355 0 ?77 72 0 73 0 0 1 31 76 378 0 72 0 73 0 +-.00848528137423847 .0084852
8137423833 .005 0 0 1 1 0 0 .00125000000000031 16 72 358 0 ?78 69 75 76 0 0 1 17
 78 0 79 78 78 0 80 72 0 0 +15 79 364 0 78 81 82 17 80 0 83 80 80 0 78 72 0 0 -1
5 83 349 0 80 14 0 14 14 352 84 ?85 0 86 5 87 +0 0 85 0 20 81 1 84 496 88 14 89
 0 0 90 91 14 85 346 90 ?16 14 92 5 17 -0 0 16 14 20 15 86 311 0 93 14 94 50 87
 3 0 14 95 17 0 +0 0 .005 0 0 1 1 0 0 13 20 10 0 0 0 0 0 0 8 14 51 95 70 0 96 97
 87 0 -0 .012 .005 0 0 -1 .00125 -1 0 0 50 17 24 0 85 87 6 0 +0 0 0 0 0 1 1 0 0
 14 96 57 98 ?99 16 100 5 95 +0 0 99 16 20 51 97 108 0 99 101 95 0 -0 0 .005 0 0
 -1 .002 -1 0 0 14 99 95 102 ?103 96 104 5 97 +0 0 103 96 20 51 101 146 0 103 10
5 97 0 -.00848528137423859 .00848528137423856 .005 0 0 -1 .00125 -1 0 0 14 103 1
33 106 ?107 99 108 5 101 +0 0 107 99 20 51 105 184 0 107 109 101 0 -.01200000000
000034 338856148926383e-30 .005 0 0 -1 .001250000000000266 -1 0 0 14 107 171 110
 ?111 103 112 5 105 +0 0 111 103 20 51 109 222 0 111 113 105 0 -.008485281374239
15 -.00848528137423833 .005 0 0 -1 .001250000000000544 -1 0 0 14 111 209 114 ?11
5 107 116 5 109 +0 0 115 107 20 51 113 260 0 115 117 109 0 -677712297852766e-30
 -.012 .005 0 0 -1 .00125000000000073 -1 0 0 14 115 247 118 ?119 111 120 5 113 +
0 0 119 111 20 51 117 298 0 119 121 113 0 --.00848528137423799 -.008485281374238
81 .005 0 0 -1 .001250000000000722 -1 0 0 14 119 285 122 ?123 115 124 5 117 +0 0
 123 115 20 51 121 336 0 123 125 117 0 --.01199999999999966 -34032572508536e-29
 .005 0 0 -1 .001250000000000544 -1 0 0 14 123 323 126 ?81 119 127 5 121 +0 0 81
 119 20 51 125 374 0 81 0 121 0 --.00848528137423847 .00848528137423833 .005 0 0
 -1 .00125000000000031 -1 0 0 14 81 361 128 ?0 123 79 5 125 +0 0 0 123 20 81 1 1
28 506 88 81 129 0 126 130 131 80 1 88 132 133 9000 1 1 1 1 1 1 1 1 0 FFFFTFTFFF
FFFF1 81 1 129 469 134 81 0 128 135 0 136 81 1 126 505 88 123 135 0 122 128 137
 81 1 130 507 88 16 138 0 128 0 139 82 1 131 -731316113 14 16 27 130 ?96 85 140
 5 6 -0 0 96 85 20 81 1 138 460 134 16 0 130 141 142 143 82 1 139 -767950737 80
 1 134 0 144 8001 0 0 0 0 3 5 0 0 0 FFFFTFTFFFFFFF2 81 1 141 459 134 85 0 90 89
 138 145 81 1 142 461 134 96 0 98 138 146 147 83 3 143 .792156862745098 .8196078
43137255 .933333333333333 81 1 98 498 88 96 142 0 90 102 148 81 1 146 462 134 99
 0 102 142 149 150 83 3 147 .792156862745098 .819607843137255 .933333333333333 8
1 1 102 499 88 99 146 0 98 106 151 81 1 149 463 134 103 0 106 146 152 153 83 3 1
50 .792156862745098 .819607843137255 .933333333333333 81 1 106 500 88 103 149 0
 102 110 154 81 1 152 464 134 107 0 110 149 155 156 83 3 153 .792156862745098 .8
19607843137255 .933333333333333 81 1 110 501 88 107 152 0 106 114 157 81 1 155 4
65 134 111 0 114 152 158 159 83 3 156 .792156862745098 .819607843137255 .9333333
33333333 81 1 114 502 88 111 155 0 110 118 160 81 1 158 466 134 115 0 118 155 16
1 162 83 3 159 .792156862745098 .819607843137255 .933333333333333 81 1 118 503 8
8 115 158 0 114 122 163 81 1 161 467 134 119 0 122 158 135 164 83 3 162 .7921568
62745098 .819607843137255 .933333333333333 81 1 122 504 88 119 161 0 118 126 165
 81 1 135 468 134 123 0 126 161 129 166 83 3 164 .792156862745098 .8196078431372
55 .933333333333333 83 3 166 .792156862745098 .819607843137255 .933333333333333
 82 1 165 -739442577 82 1 163 -743505809 82 1 160 -747569041 82 1 157 -751632273
 82 1 154 -755695505 82 1 151 -759758737 81 1 90 497 88 85 141 0 84 98 167 82 1
 148 -763821969 82 1 167 -719126417 81 1 89 458 134 14 0 84 0 141 168 83 3 145 .
792156862745098 .819607843137255 .933333333333333 83 3 168 .792156862745098 .819
607843137255 .933333333333333 79 15 144 SDL/TYSA_COLOUR15 140 26 0 23 16 169 17
 23 0 140 23 23 0 21 9 0 0 -15 169 28 0 24 16 0 17 24 0 169 24 24 0 170 18 0 0 +
17 170 0 92 170 170 0 24 18 0 0 -15 92 19 0 170 85 171 15 171 40 0 29 85 172 17
 29 0 171 29 29 0 173 27 0 0 +15 172 78 0 35 85 174 17 35 0 172 35 35 0 175 33 0
 0 +15 174 116 0 41 85 176 17 41 0 174 41 41 0 177 39 0 0 +15 176 154 0 47 85 17
8 17 47 0 176 47 47 0 179 45 0 0 +15 178 192 0 53 85 180 17 53 0 178 53 53 0 181
 51 0 0 +15 180 230 0 59 85 182 17 59 0 180 59 59 0 183 57 0 0 +15 182 268 0 65
 85 184 17 65 0 182 65 65 0 185 63 0 0 +15 184 306 0 71 85 186 17 71 0 184 71 71
 0 187 69 0 0 +15 186 344 0 77 85 0 17 77 0 186 77 77 0 188 75 0 0 +17 188 0 82
 188 188 0 77 75 0 0 -15 82 365 0 188 81 0 17 187 0 189 187 187 0 71 69 0 0 -15
 189 327 0 187 123 0 17 185 0 190 185 185 0 65 63 0 0 -15 190 289 0 185 119 0 17
 183 0 191 183 183 0 59 57 0 0 -15 191 251 0 183 115 0 17 181 0 192 181 181 0 53
 51 0 0 -15 192 213 0 181 111 0 17 179 0 193 179 179 0 47 45 0 0 -15 193 175 0 1
79 107 0 17 177 0 194 177 177 0 41 39 0 0 -15 194 137 0 177 103 0 17 175 0 195 1
75 175 0 35 33 0 0 -15 195 99 0 175 99 0 17 173 0 196 173 173 0 29 27 0 0 -15 19
6 61 0 173 96 0 82 1 137 -735379345 83 3 136 .792156862745098 .819607843137255 .
933333333333333 79 14 133 SWEntUnchanged15 127 326 0 74 123 189 17 74 0 127 74 7
4 0 93 66 0 0 +17 93 0 86 93 93 0 74 66 0 0 -15 124 288 0 68 119 190 17 68 0 124
 68 68 0 197 60 0 0 +17 197 0 198 197 197 0 68 60 0 0 -15 198 273 0 197 14 83 15
 120 250 0 62 115 191 17 62 0 120 62 62 0 199 54 0 0 +17 199 0 94 199 199 0 62 5
4 0 0 -15 94 235 0 199 14 200 15 200 159 0 201 14 202 17 201 0 200 201 201 0 50
 42 0 0 -15 202 83 0 203 14 22 17 203 0 202 203 203 0 38 30 0 0 -15 22 4 0 21 14
 204 15 204 45 0 205 14 206 17 205 0 204 205 205 0 32 25 0 0 -15 206 121 0 207 1
4 208 17 207 0 206 207 207 0 44 36 0 0 -15 208 197 0 209 14 198 17 209 0 208 209
 209 0 56 48 0 0 -17 56 0 116 56 56 0 209 48 0 0 +15 116 212 0 56 111 192 17 44
 0 108 44 44 0 207 36 0 0 +15 108 136 0 44 103 194 17 32 0 100 32 32 0 205 25 0
 0 +15 100 60 0 32 96 196 17 38 0 104 38 38 0 203 30 0 0 +15 104 98 0 38 99 195
 17 50 0 112 50 50 0 201 42 0 0 +15 112 174 0 50 107 193 82 1 91 -718602129 19 1
5 32 0 1 0 8 5 S74 20 13 9 0 0 210 211 130 212 213 214 11 129 2 0 0 0 0 0 0 0 0
 0 0 0 81 2 210 37 215 1 0 211 0 0 0 216 81 2 211 408 217 1 210 212 0 0 0 218 81
 1 212 421 219 1 211 213 0 0 220 81 2 213 436 221 1 212 214 0 0 0 222 81 2 214 4
54 223 1 213 11 0 0 224 0 81 2 11 455 225 1 214 2 0 0 0 0 80 2 225 226 227 9000
 0 0 0 0 3 5 0 0 0 FFTFFFFFFFFFFF9 1 79 16 227 BODY_RECIPE_200180 2 223 228 229
 9000 0 0 0 0 3 5 0 0 0 FFTFTTTFFTFFFF3 3 84 11 224 ??? - ????179 21 229 SWIMPLI
CITBODYNAME_ID80 2 221 230 231 9000 0 0 0 0 3 5 0 0 0 FFTFFFFFFFFFFF9 1 82 1 222
 1 79 24 231 BODY_IN_LIGHTWEIGHT_PERM80 1 219 232 233 9000 1 1 1 1 1 1 1 1 0 FFT
FFFFFFFFFFF1 82 1 220 250394 79 10 233 BODY_MATCH80 2 217 234 235 9000 0 0 0 0 3
 5 0 0 0 FFTFFFFFFFFFFF9 1 82 1 218 42 79 30 235 LAST_BODY_MODIFYING_FEATURE_ID8
0 2 215 236 237 9000 0 0 0 0 3 5 0 0 0 FFTFFFFFFFFFFT9 1 82 1 216 109 79 19 237
 ENT_TIME_STAMP_200180 2 10 238 239 9000 0 0 0 0 3 5 0 0 0 FFTFFFFFFFFFFF9 1 82
 1 12 101 79 12 239 ATOM_ID_20011 0 
