**ABCDEFGHIJKLMNOPQRSTUVWXYZabcdefghijklmnopqrstuvwxyz**************************
**PARASOLID !"#$%&'()*+,-./:;<=>?@[\]^_`{|}~0123456789**************************
**PART1;
MC=AMD64;
MC_MODEL=Intel64 Family 6 Model 158 Stepping 9, GenuineIntel;
MC_ID=unknown;
OS=Windows_NT;
OS_RELEASE=unknown;
FRU=Parasolid Version 34.1, build 225,  5-24-2022;
APPL=SOLIDWORKS 2023-2022300;
SITE=;
USER=unknown;
FORMAT=text;
GUISE=transmit;
KEY=servo 60;
FILE=servo 60.x_t;
DATE=Wed Feb 14 12:17:52 2024;
**PART2;
SCH=SCH_3401225_34101;
USFLD_SIZE=0;
**PART3;
**END_OF_HEADER*****************************************************************
T51 : TRANSMIT FILE created by modeller version 340122517 SCH_2100000_200000 12
 1 642 2 3 0 0 0 0 1e3 1e-8 0 4 0 1 0 1 1 5 6 7 8 9 10 11 0 0 0 0 81 2 2 621 12
 1 13 0 0 0 0 14 70 3 0 4 T1 0 0 9 20 1 15 15 13 5 99 0 1 0 16 0 0 17 0 50 6 94
 0 16 18 0 0 +.048 0 0 0 462592926927149e-30 -1 0 1 462592926927149e-30 30 7 98
 0 10 19 0 0 +.048 0 0 -1 0 0 29 8 75 0 20 21 0 0 .03 1387778780781446e-32 19 9
 33 0 1 17 0 22 V16 10 82 0 ?23 0 24 7 0 0 1 18 11 30 0 25 0 26 27 ?1 17 25 0 28
 29 30 11 31 32 0 33 +18 26 27 0 30 11 34 35 ?1 29 27 32 0 11 35 36 .048 .03 138
7778780781446e-32 29 35 29 0 26 37 27 .048 .03 -.065 29 36 78 0 38 27 39 0 0 0 1
8 38 69 0 40 41 0 36 ?1 29 39 77 0 41 36 21 0 0 -.065 18 41 68 0 42 43 38 39 ?1
 29 21 76 0 43 39 8 0 .03 -.065 18 43 67 0 44 20 41 21 ?1 17 44 0 45 46 47 43 48
 49 0 50 +18 20 66 0 51 52 43 8 ?1 17 51 0 53 33 50 20 54 55 0 56 +18 52 21 0 57
 34 20 58 ?1 17 57 0 59 23 60 52 61 62 0 29 -18 34 24 0 61 26 52 37 ?1 29 58 23
 0 52 0 37 .048 0 0 29 37 26 0 34 58 35 .048 0 -.065 17 61 0 28 30 29 34 57 62 0
 60 +15 28 4 0 29 63 0 17 30 0 28 25 61 26 64 65 0 46 +17 29 0 28 61 25 52 66 67
 0 68 +16 62 9 0 ?61 65 67 69 0 0 1 17 60 0 59 57 42 34 47 24 0 64 -15 59 87 0 4
2 70 0 17 42 0 59 60 23 41 40 71 0 47 +17 47 0 45 44 64 41 60 24 0 48 +16 24 81
 0 ?47 10 72 19 0 0 1 17 64 0 45 47 46 34 30 65 0 0 -15 45 85 0 44 73 0 17 46 0
 45 64 44 26 50 72 0 31 -16 65 13 0 ?30 32 62 74 0 0 1 16 32 17 0 ?25 75 65 76 0
 0 1 30 74 15 0 65 69 76 0 +.048 0 -.065 0 1 462592926927149e-30 30 69 11 0 62 7
7 74 0 +.048 0 0 0 0 -1 30 76 19 0 32 74 78 0 +.048 .03 1387778780781446e-32 0 0
 1 30 78 74 0 79 76 80 0 +0 0 0 0 -1 -462592926927149e-30 16 79 62 0 ?81 71 82 7
8 0 0 1 30 80 73 0 71 78 83 0 +0 0 0 0 0 -1 16 71 58 0 ?42 49 79 80 0 0 1 30 83
 72 0 49 80 84 0 +0 0 -.065 0 1 462592926927149e-30 16 49 54 0 ?44 55 71 83 0 0
 1 30 84 71 0 55 83 85 0 +0 .03 1387778780781446e-32 0 0 1 16 55 50 0 ?51 67 49
 84 0 0 1 30 85 95 0 75 84 86 0 +.048 .03 1387778780781446e-32 -1 0 0 16 75 79 0
 ?56 72 32 85 0 0 1 30 86 96 0 72 85 19 0 +.048 .03 -.065 -1 0 0 16 72 80 0 ?50
 24 75 86 0 0 1 30 19 97 0 24 86 7 0 +.048 0 -.065 -1 0 0 17 50 0 53 51 31 43 46
 72 0 54 +15 53 83 0 51 87 0 17 31 0 53 50 33 26 25 32 0 0 -17 54 0 88 48 89 43
 51 55 0 0 -15 88 49 0 89 90 0 17 48 0 88 40 54 41 44 49 0 0 -17 89 0 88 54 40 2
0 81 79 0 0 -17 40 0 88 89 48 38 42 71 0 23 -17 81 0 91 68 56 38 89 79 0 0 +15 9
1 89 0 81 16 0 17 68 0 91 66 81 52 23 10 0 0 -17 56 0 91 81 66 20 33 75 0 89 +17
 66 0 91 56 68 11 29 67 0 0 -17 33 0 53 31 51 11 56 75 0 66 -16 67 5 0 ?29 62 55
 77 0 0 1 30 77 7 0 67 92 69 0 +.048 0 0 0 -1 -462592926927149e-30 31 92 227 0 9
3 94 77 0 +.048 .003 -.015 1 0 0 0 0 -1 .00125 16 93 198 0 ?95 96 97 92 0 0 1 31
 94 228 0 96 98 92 0 +.043 .003 -.015 1 0 0 0 0 -1 .00125 16 96 195 0 ?99 100 93
 94 0 0 1 31 98 229 0 100 101 94 0 +.048 .015 -.003 1 0 0 0 0 -1 .00125 16 100 1
80 0 ?102 103 96 98 0 0 1 31 101 230 0 103 104 98 0 +.043 .015 -.003 1 0 0 0 0 -
1 .00125 16 103 177 0 ?105 106 100 101 0 0 1 31 104 231 0 106 107 101 0 +.048 .0
27 -.015 1 0 0 0 0 -1 .00125 16 106 162 0 ?108 82 103 104 0 0 1 31 107 232 0 82
 109 104 0 +.043 .027 -.015 1 0 0 0 0 -1 .00125 16 82 159 0 ?110 79 106 107 0 0
 1 31 109 377 0 111 112 107 0 +0 .003 -.003 -1 0 0 0 0 1 .00125 16 111 343 0 ?11
3 97 114 109 0 0 1 31 112 378 0 97 115 109 0 +.005 .003 -.003 -1 0 0 0 0 1 .0012
5 16 97 340 0 ?116 93 111 112 0 0 1 31 115 379 0 117 118 112 0 +0 .027 -.0030000
0000000007 -1 0 0 0 0 1 .00125 16 117 289 0 ?119 120 121 115 0 0 1 31 118 380 0
 120 122 115 0 +.005 .027 -.00300000000000007 -1 0 0 0 0 1 .00125 16 120 286 0 ?
123 124 117 118 0 0 1 31 122 381 0 124 125 118 0 +0 .027 -.027 -1 0 0 0 0 1 .001
25 16 124 307 0 ?126 127 120 122 0 0 1 31 125 382 0 127 128 122 0 +.005 .027 -.0
27 -1 0 0 0 0 1 .00125 16 127 304 0 ?129 130 124 125 0 0 1 31 128 383 0 130 131
 125 0 +0 .00299999999999983 -.027 -1 0 0 0 0 1 .00125 16 130 325 0 ?132 114 127
 128 0 0 1 31 131 384 0 114 133 128 0 +.005 .00299999999999983 -.027 -1 0 0 0 0
 1 .00125 16 114 322 0 ?134 111 130 131 0 0 1 31 133 459 0 135 136 131 0 +0 .015
 -.0515 -1 0 0 0 0 1 .002 16 135 440 0 ?137 121 0 133 0 0 1 31 136 460 0 121 0 1
33 0 +.048 .015 -.0515 -1 0 0 0 0 1 .002 16 121 437 0 ?138 117 135 136 0 0 1 17
 138 0 139 138 138 0 140 121 0 0 +15 139 431 0 138 63 141 17 140 0 142 140 140 0
 138 121 0 0 -15 142 446 0 140 143 144 14 143 443 145 ?0 146 142 5 147 -0 0 0 14
6 22 15 144 447 0 137 143 0 17 137 0 144 137 137 0 148 135 0 0 +17 148 0 149 148
 148 0 137 135 0 0 -15 149 426 0 148 90 150 14 90 48 151 ?152 63 149 5 153 +0 0
 152 63 22 15 150 281 0 154 90 155 17 154 0 150 154 154 0 119 117 0 0 -15 155 27
5 0 156 90 157 17 156 0 155 156 156 0 126 124 0 0 -15 157 269 0 158 90 159 17 15
8 0 157 158 158 0 132 130 0 0 -15 159 263 0 160 90 88 17 160 0 159 160 160 0 113
 111 0 0 -17 113 0 161 113 113 0 160 111 0 0 +15 161 350 0 113 162 0 14 162 346
 163 ?164 165 166 5 167 -0 0 164 165 22 81 1 163 624 168 162 169 0 151 170 171 1
4 164 351 170 ?172 162 173 5 174 +0 0 172 162 22 14 165 170 175 ?162 176 177 5 1
78 +0 0 162 176 22 15 166 349 0 179 162 161 51 167 365 0 162 174 178 0 +.005 .00
3 -.003 -1 0 0 .00125 0 0 1 13 22 34 0 0 0 0 0 0 9 16 14 16 90 180 ?70 0 91 5 6
 -0 0 70 0 22 81 1 180 627 168 16 181 0 175 182 183 14 70 88 182 ?73 16 59 5 18
 -0 0 73 16 22 81 1 182 628 168 70 184 0 180 185 186 14 73 86 185 ?87 70 45 5 18
7 -0 0 87 70 22 50 18 93 0 70 187 6 0 +.048 0 0 0 1 0 0 0 1 50 187 92 0 73 188 1
8 0 +.048 0 -.065 0 -462592926927149e-30 1 0 -1 -462592926927149e-30 50 188 91 0
 87 153 187 0 +.048 .03 1387778780781446e-32 0 -1 0 0 0 -1 14 87 84 189 ?63 73 5
3 5 188 -0 0 63 73 22 50 153 70 0 90 190 188 0 +0 0 0 -1 0 0 0 0 1 50 190 3 0 63
 191 153 0 +.048 0 0 -1 0 0 0 0 1 14 63 1 192 ?90 87 139 5 190 -0 0 90 87 22 51
 191 218 0 152 193 190 0 +.043 .003 -.015 1 0 0 .00125 0 0 -1 14 152 201 194 ?19
5 90 196 5 191 -0 0 195 90 22 50 193 220 0 195 197 191 0 +.043 .003 -.015 1 0 0
 0 0 -1 14 195 206 198 ?199 152 200 5 193 +0 0 199 152 22 51 197 221 0 199 201 1
93 0 +.043 .015 -.003 1 0 0 .00125 0 0 -1 14 199 183 202 ?203 195 204 5 197 -0 0
 203 195 22 50 201 223 0 203 205 197 0 +.043 .015 -.003 1 0 0 0 0 -1 14 203 188
 206 ?176 199 207 5 201 +0 0 176 199 22 51 205 224 0 176 178 201 0 +.043 .027 -.
015 1 0 0 .00125 0 0 -1 14 176 165 208 ?165 203 209 5 205 -0 0 165 203 22 50 178
 226 0 165 167 205 0 +.043 .027 -.015 1 0 0 0 0 -1 81 1 208 636 168 176 210 0 20
6 211 212 15 209 168 0 213 176 214 17 213 0 209 213 213 0 110 82 0 0 -15 214 169
 0 108 176 0 17 108 0 214 108 108 0 215 106 0 0 +17 215 0 141 215 215 0 108 106
 0 0 -15 141 153 0 215 63 216 15 216 147 0 217 63 218 17 217 0 216 217 217 0 102
 100 0 0 -15 218 141 0 219 63 28 17 219 0 218 219 219 0 95 93 0 0 -17 95 0 220 9
5 95 0 219 93 0 0 +15 220 205 0 95 152 0 17 102 0 221 102 102 0 217 100 0 0 +15
 221 187 0 102 199 0 17 110 0 177 110 110 0 213 82 0 0 +15 177 172 0 110 165 0 8
0 1 168 222 223 9000 1 1 1 1 1 1 1 1 0 FFFFTFTFFFFFFF1 81 1 210 567 224 176 0 20
8 225 226 227 81 1 206 635 168 203 225 0 202 208 228 81 1 211 637 168 172 229 0
 208 230 231 82 1 212 425984143 14 172 328 211 ?232 164 233 5 234 -0 0 232 164 2
2 81 1 229 571 224 172 0 211 235 236 237 81 1 230 638 168 232 236 0 211 238 239
 82 1 231 460587153 14 232 333 230 ?240 172 241 5 242 +0 0 240 172 22 81 1 236 5
72 224 232 0 230 229 243 244 81 1 238 639 168 240 243 0 230 245 246 82 1 239 458
621073 14 240 310 238 ?247 232 248 5 249 -0 0 247 232 22 81 1 243 573 224 240 0
 238 236 250 251 81 1 245 640 168 247 250 0 238 252 253 82 1 246 464519313 14 24
7 315 245 ?254 240 255 5 256 +0 0 254 240 22 81 1 250 574 224 247 0 245 243 257
 258 81 1 252 641 168 254 257 0 245 259 260 82 1 253 462553233 14 254 292 252 ?1
46 247 261 5 262 -0 0 146 247 22 81 1 257 575 224 254 0 252 250 263 264 81 1 259
 642 168 146 263 0 252 0 265 82 1 260 468451473 14 146 297 259 ?143 254 266 5 26
7 +0 0 143 254 22 81 1 263 576 224 146 0 259 257 268 269 82 1 265 466485393 80 1
 224 0 270 8001 0 0 0 0 3 5 0 0 0 FFFFTFTFFFFFFF2 81 1 268 577 224 143 0 145 263
 0 271 83 3 269 0 0 0 81 1 145 622 168 143 268 0 0 151 272 83 3 271 0 0 0 81 1 1
51 623 168 90 273 0 145 163 274 82 1 272 488374419 81 1 273 562 224 90 0 151 275
 276 277 82 1 274 405995667 81 1 275 561 224 63 0 192 278 273 279 81 1 276 563 2
24 152 0 194 273 280 281 83 3 277 0 0 0 81 1 194 632 168 152 276 0 192 198 282 8
1 1 280 564 224 195 0 198 276 283 284 83 3 281 0 0 0 81 1 198 633 168 195 280 0
 194 202 285 81 1 283 565 224 199 0 202 280 225 286 83 3 284 0 0 0 81 1 202 634
 168 199 283 0 198 206 287 81 1 225 566 224 203 0 206 283 210 288 83 3 286 0 0 0
 83 3 288 0 0 0 82 1 287 429981839 82 1 285 431947919 81 1 192 631 168 63 275 0
 189 194 289 82 1 282 433913999 81 1 189 630 168 87 278 0 185 192 290 82 1 289 4
00359571 81 1 278 560 224 87 0 189 291 275 292 81 1 185 629 168 73 291 0 182 189
 293 82 1 290 406913165 81 1 291 559 224 73 0 185 184 278 294 82 1 293 407175309
 81 1 184 558 224 70 0 182 181 291 295 83 3 294 0 0 0 81 1 181 557 224 16 0 180
 0 184 296 83 3 295 0 0 0 83 3 296 0 0 0 83 3 292 0 0 0 83 3 279 0 0 0 79 15 270
 SDL/TYSA_COLOUR15 266 299 0 123 146 0 50 267 370 0 146 249 262 0 +.005 .027 -.0
0300000000000007 -1 0 0 0 0 1 51 249 371 0 240 256 267 0 +.005 .027 -.027 -1 0 0
 .00125 0 0 1 51 262 368 0 254 267 174 0 +.005 .027 -.00300000000000007 -1 0 0 .
00125 0 0 1 50 174 367 0 164 262 167 0 +.005 .003 -.003 -1 0 0 0 0 1 50 256 373
 0 247 234 249 0 +.005 .027 -.027 -1 0 0 0 0 1 51 234 374 0 172 242 256 0 +.005
 .00299999999999983 -.027 -1 0 0 .00125 0 0 1 50 242 376 0 232 147 234 0 +.005 .
00299999999999983 -.027 -1 0 0 0 0 1 51 147 456 0 143 0 242 0 +.048 .015 -.0515
 -1 0 0 .002 0 0 1 17 123 0 266 123 123 0 297 120 0 0 +17 297 0 261 297 297 0 12
3 120 0 0 -15 261 295 0 297 254 298 15 298 296 0 119 254 0 17 119 0 298 119 119
 0 154 117 0 0 +83 3 264 0 0 0 83 3 258 0 0 0 15 255 317 0 129 247 0 17 129 0 25
5 129 129 0 299 127 0 0 +17 299 0 248 299 299 0 129 127 0 0 -15 248 313 0 299 24
0 300 15 300 314 0 126 240 0 17 126 0 300 126 126 0 156 124 0 0 +83 3 251 0 0 0
 83 3 244 0 0 0 15 241 335 0 134 232 0 17 134 0 241 134 134 0 301 114 0 0 +17 30
1 0 233 301 301 0 134 114 0 0 -15 233 331 0 301 172 302 15 302 332 0 132 172 0 1
7 132 0 302 132 132 0 158 130 0 0 +81 1 235 570 224 164 0 170 169 229 303 83 3 2
37 0 0 0 81 1 170 625 168 164 235 0 163 175 304 81 1 169 569 224 162 0 163 226 2
35 305 83 3 303 0 0 0 81 1 226 568 224 165 0 175 210 169 306 83 3 305 0 0 0 81 1
 175 626 168 165 226 0 170 180 307 83 3 306 0 0 0 82 1 307 424018063 82 1 304 45
4623377 82 1 228 428015759 83 3 227 0 0 0 79 14 223 SWEntUnchanged15 207 190 0 1
05 203 0 17 105 0 207 105 105 0 308 103 0 0 +17 308 0 204 308 308 0 105 103 0 0
 -15 204 186 0 308 199 221 15 200 208 0 99 195 0 17 99 0 200 99 99 0 309 96 0 0
 +17 309 0 196 309 309 0 99 96 0 0 -15 196 204 0 309 152 220 82 1 186 407437453
 82 1 183 407699597 17 179 0 166 179 179 0 116 97 0 0 -17 116 0 173 116 116 0 17
9 97 0 0 +15 173 353 0 116 164 0 82 1 171 456589457 17 23 0 59 42 57 38 68 10 0
 81 +19 17 100 0 1 0 9 5 S74 20 15 9 0 0 310 311 259 312 313 314 13 268 2 0 0 0
 0 0 0 0 0 0 0 0 81 2 310 124 315 1 0 311 0 0 0 316 81 2 311 128 317 1 310 312 0
 0 0 318 81 1 312 469 319 1 311 313 0 0 320 81 2 313 494 321 1 312 314 0 0 0 322
 81 2 314 553 323 1 313 13 0 0 324 0 81 2 13 554 325 1 314 2 0 0 0 0 80 2 325 32
6 327 9000 0 0 0 0 3 5 0 0 0 FFTFFFFFFFFFFF9 1 79 16 327 BODY_RECIPE_200180 2 32
3 328 329 9000 0 0 0 0 3 5 0 0 0 FFTFTTTFFTFFFF3 3 84 11 324 ??? - ????379 21 32
9 SWIMPLICITBODYNAME_ID80 2 321 330 331 9000 0 0 0 0 3 5 0 0 0 FFTFFFFFFFFFFF9 1
 82 1 322 1 79 24 331 BODY_IN_LIGHTWEIGHT_PERM80 1 319 332 333 9000 1 1 1 1 1 1
 1 1 0 FFTFFFFFFFFFFF1 82 1 320 1382363 79 10 333 BODY_MATCH80 2 317 334 335 900
0 0 0 0 0 3 5 0 0 0 FFTFFFFFFFFFFF9 1 82 1 318 110 79 30 335 LAST_BODY_MODIFYING
_FEATURE_ID80 2 315 336 337 9000 0 0 0 0 3 5 0 0 0 FFTFFFFFFFFFFT9 1 82 1 316 13
2 79 19 337 ENT_TIME_STAMP_200180 2 12 338 339 9000 0 0 0 0 3 5 0 0 0 FFTFFFFFFF
FFFF9 1 82 1 14 104 79 12 339 ATOM_ID_20011 0 
