**ABCDEFGHIJKLMNOPQRSTUVWXYZabcdefghijklmnopqrstuvwxyz**************************
**PARASOLID !"#$%&'()*+,-./:;<=>?@[\]^_`{|}~0123456789**************************
**PART1;
MC=AMD64;
MC_MODEL=Intel64 Family 6 Model 158 Stepping 9, GenuineIntel;
MC_ID=unknown;
OS=Windows_NT;
OS_RELEASE=unknown;
FRU=Parasolid Version 34.1, build 225,  5-24-2022;
APPL=SOLIDWORKS 2023-2022300;
SITE=;
USER=unknown;
FORMAT=text;
GUISE=transmit;
KEY=motor_sp;
FILE=motor_sp.x_t;
DATE=Wed Feb 14 12:01:45 2024;
**PART2;
SCH=SCH_3401225_34101;
USFLD_SIZE=0;
**PART3;
**END_OF_HEADER*****************************************************************
T51 : TRANSMIT FILE created by modeller version 340122517 SCH_2100000_200000 12
 1 720 2 3 0 0 0 0 1e3 1e-8 0 4 0 1 0 1 1 5 6 7 0 8 9 0 0 0 0 0 81 2 2 708 10 1
 11 0 0 0 0 12 70 3 0 4 T1 0 0 10 20 1 13 13 13 5 31 0 1 0 14 0 0 15 0 51 6 30 0
 16 17 0 0 -0 0 .003 0 0 -1 .039 -1 0 0 31 7 25 0 18 19 0 0 +0 0 0 0 0 1 1 0 0 .
039 19 8 9 0 1 15 0 20 V16 9 5 0 ?21 0 18 19 0 0 1 17 21 0 22 21 21 0 23 9 0 0 +
16 18 20 0 ?24 9 25 7 0 0 1 31 19 7 0 9 26 7 0 +0 0 .003 0 0 1 1 0 0 .039 31 26
 187 0 27 28 19 0 +-.0259807621135332 -.015 0 0 0 1 1 0 0 .005975 16 27 165 0 ?2
9 25 30 26 0 0 1 31 28 188 0 25 31 26 0 +-.0259807621135332 -.015 .003 0 0 1 1 0
 0 .005975 16 25 168 0 ?32 18 27 28 0 0 1 31 31 225 0 33 34 28 0 +.0259807621135
332 -.015 0 0 0 1 1 0 0 .005975 16 33 203 0 ?35 30 36 31 0 0 1 31 34 226 0 30 37
 31 0 +.0259807621135332 -.015 .003 0 0 1 1 0 0 .005975 16 30 206 0 ?38 27 33 34
 0 0 1 31 37 263 0 39 40 34 0 +367394039744206e-32 .03 0 0 0 1 1 0 0 .005975 16
 39 241 0 ?41 36 42 37 0 0 1 31 40 264 0 36 43 37 0 +367394039744206e-32 .03 .00
3 0 0 1 1 0 0 .005975 16 36 244 0 ?44 33 39 40 0 0 1 31 43 301 0 45 46 40 0 +.02
59807621135332 .015 0 0 0 1 1 0 0 .0015 16 45 279 0 ?47 42 48 43 0 0 1 31 46 302
 0 42 49 43 0 +.0259807621135332 .015 .003 0 0 1 1 0 0 .0015 16 42 282 0 ?50 39
 45 46 0 0 1 31 49 339 0 51 52 46 0 +-.0259807621135332 .015 0 0 0 1 1 0 0 .0015
 16 51 317 0 ?53 48 54 49 0 0 1 31 52 340 0 48 55 49 0 +-.0259807621135332 .015
 .003 0 0 1 1 0 0 .0015 16 48 320 0 ?56 45 51 52 0 0 1 31 55 377 0 57 58 52 0 +3
67394039744206e-32 -.03 0 0 0 1 1 0 0 .0015 16 57 355 0 ?59 54 60 55 0 0 1 31 58
 378 0 54 61 55 0 +367394039744206e-32 -.03 .003 0 0 1 1 0 0 .0015 16 54 358 0 ?
62 51 57 58 0 0 1 31 61 415 0 63 64 58 0 +-.02 -.029 0 0 0 1 1 0 0 .00125 16 63
 393 0 ?65 60 66 61 0 0 1 31 64 416 0 60 67 61 0 +-.02 -.029 .003 0 0 1 1 0 0 .0
0125 16 60 396 0 ?68 57 63 64 0 0 1 31 67 453 0 69 70 64 0 +.02 -.029 0 0 0 1 1
 0 0 .00125 16 69 431 0 ?71 66 72 67 0 0 1 31 70 454 0 66 73 67 0 +.02 -.029 .00
3 0 0 1 1 0 0 .00125 16 66 434 0 ?74 63 69 70 0 0 1 31 73 588 0 75 76 70 0 +0 0
 0 0 0 -1 -1 0 0 .0215 16 75 539 0 ?77 72 0 73 0 0 1 31 76 589 0 72 0 73 0 +0 0
 .003 0 0 -1 -1 0 0 .0215 16 72 533 0 ?78 69 75 76 0 0 1 17 78 0 79 78 78 0 80 7
2 0 0 +15 79 525 0 78 14 81 17 80 0 82 80 80 0 78 72 0 0 -15 82 563 0 80 83 84 1
4 83 560 85 ?0 86 82 5 87 -0 0 0 86 20 15 84 564 0 77 83 0 17 77 0 84 77 77 0 88
 75 0 0 +17 88 0 89 88 88 0 77 75 0 0 -15 89 518 0 88 90 91 14 90 422 92 ?16 14
 89 5 17 -0 0 16 14 20 15 91 19 0 93 90 94 17 93 0 91 93 93 0 24 18 0 0 -15 94 1
54 0 29 90 95 17 29 0 94 29 29 0 96 27 0 0 +15 95 192 0 35 90 97 17 35 0 95 35 3
5 0 98 33 0 0 +15 97 230 0 41 90 99 17 41 0 97 41 41 0 100 39 0 0 +15 99 268 0 4
7 90 101 17 47 0 99 47 47 0 102 45 0 0 +15 101 306 0 53 90 103 17 53 0 101 53 53
 0 104 51 0 0 +15 103 344 0 59 90 105 17 59 0 103 59 59 0 106 57 0 0 +15 105 382
 0 65 90 107 17 65 0 105 65 65 0 108 63 0 0 +15 107 420 0 71 90 0 17 71 0 107 71
 71 0 109 69 0 0 +17 109 0 110 109 109 0 71 69 0 0 -15 110 441 0 109 86 0 14 86
 437 111 ?83 112 113 5 114 +0 0 83 112 20 81 1 111 711 115 86 116 0 92 117 118 1
4 112 399 117 ?86 119 120 5 121 +0 0 86 119 20 15 113 440 0 74 86 110 51 114 450
 0 86 87 121 0 -.02 -.029 .003 0 0 -1 .00125 -1 0 0 13 20 10 0 0 0 0 0 0 8 14 14
 14 428 122 ?90 0 79 5 123 +0 0 90 0 20 81 1 122 713 115 14 124 0 117 125 126 50
 123 3 0 14 127 17 0 +0 0 .003 0 0 1 1 0 0 51 127 184 0 128 129 123 0 --.0259807
621135332 -.015 .003 0 0 -1 .005975 -1 0 0 50 17 24 0 90 123 6 0 +0 0 0 0 0 1 1
 0 0 14 128 171 125 ?130 16 131 5 127 +0 0 130 16 20 51 129 222 0 130 132 127 0
 -.0259807621135332 -.015 .003 0 0 -1 .005975 -1 0 0 14 130 209 133 ?134 128 135
 5 129 +0 0 134 128 20 51 132 260 0 134 136 129 0 -367394039744206e-32 .03 .003
 0 0 -1 .005975 -1 0 0 14 134 247 137 ?138 130 139 5 132 +0 0 138 130 20 51 136
 298 0 138 140 132 0 -.0259807621135332 .015 .003 0 0 -1 .0015 -1 0 0 14 138 285
 141 ?142 134 143 5 136 +0 0 142 134 20 51 140 336 0 142 144 136 0 --.0259807621
135332 .015 .003 0 0 -1 .0015 -1 0 0 14 142 323 145 ?119 138 146 5 140 +0 0 119
 138 20 51 144 374 0 119 121 140 0 -367394039744206e-32 -.03 .003 0 0 -1 .0015 -
1 0 0 14 119 361 147 ?112 142 148 5 144 +0 0 112 142 20 51 121 412 0 112 114 144
 0 --.02 -.029 .003 0 0 -1 .00125 -1 0 0 81 1 147 719 115 119 149 0 145 150 151
 15 148 364 0 62 119 152 17 62 0 148 62 62 0 153 54 0 0 +15 152 365 0 106 119 0
 17 106 0 152 106 106 0 59 57 0 0 -17 153 0 154 153 153 0 62 54 0 0 -15 154 349
 0 153 14 155 15 155 425 0 156 14 0 17 156 0 155 156 156 0 74 66 0 0 -17 74 0 11
3 74 74 0 156 66 0 0 +80 1 115 157 158 9000 1 1 1 1 1 1 1 1 0 FFFFTFTFFFFFFF1 81
 1 149 678 159 119 0 147 160 161 162 81 1 145 718 115 142 160 0 141 147 163 81 1
 150 720 115 16 164 0 147 0 165 82 1 151 -1696595721 14 16 27 150 ?128 90 166 5
 6 -0 0 128 90 20 81 1 164 672 159 16 0 150 167 168 169 82 1 165 -1733230345 80
 1 159 0 170 8001 0 0 0 0 3 5 0 0 0 FFFFTFTFFFFFFF2 81 1 167 671 159 90 0 92 124
 164 171 81 1 168 673 159 128 0 125 164 172 173 83 3 169 .866666666666667 .90980
3921568627 1 81 1 125 714 115 128 168 0 122 133 174 81 1 172 674 159 130 0 133 1
68 175 176 83 3 173 .866666666666667 .909803921568627 1 81 1 133 715 115 130 172
 0 125 137 177 81 1 175 675 159 134 0 137 172 178 179 83 3 176 .866666666666667
 .909803921568627 1 81 1 137 716 115 134 175 0 133 141 180 81 1 178 676 159 138
 0 141 175 160 181 83 3 179 .866666666666667 .909803921568627 1 81 1 141 717 115
 138 178 0 137 145 182 81 1 160 677 159 142 0 145 178 149 183 83 3 181 .86666666
6666667 .909803921568627 1 83 3 183 .866666666666667 .909803921568627 1 82 1 182
 -1704722185 82 1 180 -1708785417 82 1 177 -1712848649 82 1 174 -1716911881 81 1
 92 710 115 90 167 0 85 111 184 81 1 124 670 159 14 0 122 0 167 185 83 3 171 .86
6666666666667 .909803921568627 1 83 3 185 .866666666666667 .909803921568627 1 81
 1 85 709 115 83 186 0 0 92 187 82 1 184 -1673658119 81 1 186 681 159 83 0 85 11
6 0 188 82 1 187 -1655766791 81 1 116 680 159 86 0 111 161 186 189 83 3 188 .866
666666666667 .909803921568627 1 81 1 161 679 159 112 0 117 149 116 190 83 3 189
 .866666666666667 .909803921568627 1 81 1 117 712 115 112 161 0 111 122 191 83 3
 190 .866666666666667 .909803921568627 1 82 1 191 -1692532489 79 15 170 SDL/TYSA
_COLOUR15 166 26 0 23 16 192 17 23 0 166 23 23 0 21 9 0 0 -15 192 28 0 24 16 0 1
7 24 0 192 24 24 0 93 18 0 0 +82 1 163 -1700658953 83 3 162 .866666666666667 .90
9803921568627 1 79 14 158 SWEntUnchanged15 146 326 0 56 142 193 17 56 0 146 56 5
6 0 194 48 0 0 +15 193 327 0 104 142 0 17 104 0 193 104 104 0 53 51 0 0 -17 194
 0 195 194 194 0 56 48 0 0 -15 195 311 0 194 14 196 15 196 235 0 197 14 198 17 1
97 0 196 197 197 0 44 36 0 0 -15 198 159 0 199 14 22 17 199 0 198 199 199 0 32 2
5 0 0 -15 22 4 0 21 14 200 15 200 197 0 201 14 202 17 201 0 200 201 201 0 38 30
 0 0 -15 202 273 0 203 14 154 17 203 0 202 203 203 0 50 42 0 0 -17 50 0 143 50 5
0 0 203 42 0 0 +15 143 288 0 50 138 204 15 204 289 0 102 138 0 17 102 0 204 102
 102 0 47 45 0 0 -17 38 0 135 38 38 0 201 30 0 0 +15 135 212 0 38 130 205 15 205
 213 0 98 130 0 17 98 0 205 98 98 0 35 33 0 0 -17 32 0 131 32 32 0 199 25 0 0 +1
5 131 174 0 32 128 206 15 206 175 0 96 128 0 17 96 0 206 96 96 0 29 27 0 0 -17 4
4 0 139 44 44 0 197 36 0 0 +15 139 250 0 44 134 207 15 207 251 0 100 134 0 17 10
0 0 207 100 100 0 41 39 0 0 -82 1 126 -1673133831 51 87 579 0 83 0 114 0 +0 0 .0
03 0 0 -1 .0215 -1 0 0 15 120 402 0 68 112 208 17 68 0 120 68 68 0 209 60 0 0 +1
5 208 403 0 108 112 0 17 108 0 208 108 108 0 65 63 0 0 -17 209 0 81 209 209 0 68
 60 0 0 -15 81 387 0 209 14 195 82 1 118 -1688469257 19 15 32 0 1 0 8 5 S74 20 1
3 10 0 0 210 211 150 212 213 214 215 186 11 2 0 0 0 0 0 0 0 0 0 0 81 2 210 37 21
6 1 0 211 0 0 0 217 81 2 211 488 218 1 210 212 0 0 0 219 81 1 212 631 220 1 211
 213 0 0 221 81 2 213 645 222 1 212 214 0 0 0 223 81 2 214 666 224 1 213 215 0 0
 225 0 81 2 215 667 226 1 214 11 0 0 0 0 81 2 11 707 227 1 215 2 0 0 228 0 80 2
 227 229 230 8004 0 0 0 0 3 5 0 0 0 FFTFFFFFFFFFFF2 3 83 1 228 28e2 79 16 230 SD
L/TYSA_DENSITY80 2 226 231 232 9000 0 0 0 0 3 5 0 0 0 FFTFFFFFFFFFFF9 1 79 16 23
2 BODY_RECIPE_200180 2 224 233 234 9000 0 0 0 0 3 5 0 0 0 FFTFTTTFFTFFFF3 3 84 1
1 225 ??? - ????379 21 234 SWIMPLICITBODYNAME_ID80 2 222 235 236 9000 0 0 0 0 3
 5 0 0 0 FFTFFFFFFFFFFF9 1 82 1 223 1 79 24 236 BODY_IN_LIGHTWEIGHT_PERM80 1 220
 237 238 9000 1 1 1 1 1 1 1 1 0 FFTFFFFFFFFFFF1 82 1 221 170129 79 10 238 BODY_M
ATCH80 2 218 239 240 9000 0 0 0 0 3 5 0 0 0 FFTFFFFFFFFFFF9 1 82 1 219 119 79 30
 240 LAST_BODY_MODIFYING_FEATURE_ID80 2 216 241 242 9000 0 0 0 0 3 5 0 0 0 FFTFF
FFFFFFFFT9 1 82 1 217 231 79 19 242 ENT_TIME_STAMP_200180 2 10 243 244 9000 0 0
 0 0 3 5 0 0 0 FFTFFFFFFFFFFF9 1 82 1 12 104 79 12 244 ATOM_ID_20011 0 
