**ABCDEFGHIJKLMNOPQRSTUVWXYZabcdefghijklmnopqrstuvwxyz**************************
**PARASOLID !"#$%&'()*+,-./:;<=>?@[\]^_`{|}~0123456789**************************
**PART1;
MC=AMD64;
MC_MODEL=Intel64 Family 6 Model 158 Stepping 9, GenuineIntel;
MC_ID=unknown;
OS=Windows_NT;
OS_RELEASE=unknown;
FRU=Parasolid Version 34.1, build 225,  5-24-2022;
APPL=SOLIDWORKS 2023-2022300;
SITE=;
USER=unknown;
FORMAT=text;
GUISE=transmit;
KEY=motor_sp2;
FILE=motor_sp2.x_t;
DATE=Wed Feb 14 12:02:09 2024;
**PART2;
SCH=SCH_3401225_34101;
USFLD_SIZE=0;
**PART3;
**END_OF_HEADER*****************************************************************
T51 : TRANSMIT FILE created by modeller version 340122517 SCH_2100000_200000 12
 1 431 2 3 0 0 0 0 1e3 1e-8 0 4 0 1 0 1 1 5 6 7 0 8 9 0 0 0 0 0 81 2 2 421 10 1
 11 0 0 0 0 12 70 3 0 4 T1 0 0 10 20 1 13 13 13 5 31 0 1 0 14 0 0 15 0 51 6 30 0
 16 17 0 0 -0 0 .003 0 0 -1 .037 -1 0 0 31 7 25 0 18 19 0 0 +0 0 0 0 0 1 1 0 0 .
037 19 8 9 0 1 15 0 20 V16 9 5 0 ?21 0 18 19 0 0 1 17 21 0 22 21 21 0 23 9 0 0 +
16 18 20 0 ?24 9 25 7 0 0 1 31 19 7 0 9 26 7 0 +0 0 .003 0 0 1 1 0 0 .037 31 26
 73 0 27 28 19 0 +0 0 0 0 0 1 1 0 0 .0225 16 27 51 0 ?29 25 30 26 0 0 1 31 28 74
 0 25 31 26 0 +0 0 .003 0 0 1 1 0 0 .0225 16 25 54 0 ?32 18 27 28 0 0 1 31 31 11
1 0 33 34 28 0 +710295143505465e-32 .03 0 0 0 1 1 0 0 .005975 16 33 89 0 ?35 30
 36 31 0 0 1 31 34 112 0 30 37 31 0 +710295143505465e-32 .03 .003 0 0 1 1 0 0 .0
05975 16 30 92 0 ?38 27 33 34 0 0 1 31 37 149 0 39 40 34 0 +-.0259807621135332 -
.015 0 0 0 1 1 0 0 .005975 16 39 127 0 ?41 36 42 37 0 0 1 31 40 150 0 36 43 37 0
 +-.0259807621135332 -.015 .003 0 0 1 1 0 0 .005975 16 36 130 0 ?44 33 39 40 0 0
 1 31 43 187 0 45 46 40 0 +.0259807621135332 -.015 0 0 0 1 1 0 0 .005975 16 45 1
65 0 ?47 42 48 43 0 0 1 31 46 188 0 42 49 43 0 +.0259807621135332 -.015 .003 0 0
 1 1 0 0 .005975 16 42 168 0 ?50 39 45 46 0 0 1 31 49 225 0 51 52 46 0 +.0259807
621135332 .015 0 0 0 1 1 0 0 .00125 16 51 203 0 ?53 48 54 49 0 0 1 31 52 226 0 4
8 55 49 0 +.0259807621135332 .015 .003 0 0 1 1 0 0 .00125 16 48 206 0 ?56 45 51
 52 0 0 1 31 55 263 0 57 58 52 0 +-.0259807621135332 .015 0 0 0 1 1 0 0 .00125 1
6 57 241 0 ?59 54 60 55 0 0 1 31 58 264 0 54 61 55 0 +-.0259807621135332 .015 .0
03 0 0 1 1 0 0 .00125 16 54 244 0 ?62 51 57 58 0 0 1 31 61 301 0 63 64 58 0 +710
295143505465e-32 -.03 0 0 0 1 1 0 0 .00125 16 63 279 0 ?65 60 0 61 0 0 1 31 64 3
02 0 60 0 61 0 +710295143505465e-32 -.03 .003 0 0 1 1 0 0 .00125 16 60 282 0 ?66
 57 63 64 0 0 1 17 66 0 67 66 66 0 68 60 0 0 +15 67 288 0 66 69 70 17 68 0 71 68
 68 0 66 60 0 0 -15 71 273 0 68 14 0 14 14 276 72 ?73 0 74 5 75 +0 0 73 0 20 81
 1 72 422 76 14 77 0 0 78 79 14 73 270 78 ?16 14 80 5 17 -0 0 16 14 20 15 74 235
 0 81 14 82 50 75 3 0 14 83 17 0 +0 0 .003 0 0 1 1 0 0 13 20 10 0 0 0 0 0 0 8 14
 51 83 70 0 84 85 75 0 -0 0 .003 0 0 -1 .0225 -1 0 0 50 17 24 0 73 75 6 0 +0 0 0
 0 0 1 1 0 0 14 84 57 86 ?87 16 88 5 83 +0 0 87 16 20 51 85 108 0 87 89 83 0 -71
0295143505465e-32 .03 .003 0 0 -1 .005975 -1 0 0 14 87 95 90 ?91 84 92 5 85 +0 0
 91 84 20 51 89 146 0 91 93 85 0 --.0259807621135332 -.015 .003 0 0 -1 .005975 -
1 0 0 14 91 133 94 ?95 87 96 5 89 +0 0 95 87 20 51 93 184 0 95 97 89 0 -.0259807
621135332 -.015 .003 0 0 -1 .005975 -1 0 0 14 95 171 98 ?99 91 100 5 93 +0 0 99
 91 20 51 97 222 0 99 101 93 0 -.0259807621135332 .015 .003 0 0 -1 .00125 -1 0 0
 14 99 209 102 ?103 95 104 5 97 +0 0 103 95 20 51 101 260 0 103 105 97 0 --.0259
807621135332 .015 .003 0 0 -1 .00125 -1 0 0 14 103 247 106 ?69 99 107 5 101 +0 0
 69 99 20 51 105 298 0 69 0 101 0 -710295143505465e-32 -.03 .003 0 0 -1 .00125 -
1 0 0 14 69 285 108 ?0 103 67 5 105 +0 0 0 103 20 81 1 108 430 76 69 109 0 106 1
10 111 80 1 76 112 113 9000 1 1 1 1 1 1 1 1 0 FFFFTFTFFFFFFF1 81 1 109 398 114 6
9 0 108 115 0 116 81 1 106 429 76 103 115 0 102 108 117 81 1 110 431 76 16 118 0
 108 0 119 82 1 111 63635591 14 16 27 110 ?84 73 120 5 6 -0 0 84 73 20 81 1 118
 391 114 16 0 110 121 122 123 82 1 119 35127431 80 1 114 0 124 8001 0 0 0 0 3 5
 0 0 0 FFFFTFTFFFFFFF2 81 1 121 390 114 73 0 78 77 118 125 81 1 122 392 114 84 0
 86 118 126 127 83 3 123 .866666666666667 .909803921568627 1 81 1 86 424 76 84 1
22 0 78 90 128 81 1 126 393 114 87 0 90 122 129 130 83 3 127 .866666666666667 .9
09803921568627 1 81 1 90 425 76 87 126 0 86 94 131 81 1 129 394 114 91 0 94 126
 132 133 83 3 130 .866666666666667 .909803921568627 1 81 1 94 426 76 91 129 0 90
 98 134 81 1 132 395 114 95 0 98 129 135 136 83 3 133 .866666666666667 .90980392
1568627 1 81 1 98 427 76 95 132 0 94 102 137 81 1 135 396 114 99 0 102 132 115 1
38 83 3 136 .866666666666667 .909803921568627 1 81 1 102 428 76 99 135 0 98 106
 139 81 1 115 397 114 103 0 106 135 109 140 83 3 138 .866666666666667 .909803921
568627 1 83 3 140 .866666666666667 .909803921568627 1 82 1 139 55509127 82 1 137
 51445895 82 1 134 47382663 82 1 131 43319431 81 1 78 423 76 73 121 0 72 86 141
 82 1 128 39256199 82 1 141 73203847 81 1 77 389 114 14 0 72 0 121 142 83 3 125
 .866666666666667 .909803921568627 1 83 3 142 .866666666666667 .909803921568627
 1 79 15 124 SDL/TYSA_COLOUR15 120 26 0 23 16 143 17 23 0 120 23 23 0 21 9 0 0 -
15 143 28 0 24 16 0 17 24 0 143 24 24 0 144 18 0 0 +17 144 0 80 144 144 0 24 18
 0 0 -15 80 19 0 144 73 145 15 145 40 0 29 73 146 17 29 0 145 29 29 0 147 27 0 0
 +15 146 78 0 35 73 148 17 35 0 146 35 35 0 149 33 0 0 +15 148 116 0 41 73 150 1
7 41 0 148 41 41 0 151 39 0 0 +15 150 154 0 47 73 152 17 47 0 150 47 47 0 153 45
 0 0 +15 152 192 0 53 73 154 17 53 0 152 53 53 0 155 51 0 0 +15 154 230 0 59 73
 156 17 59 0 154 59 59 0 157 57 0 0 +15 156 268 0 65 73 0 17 65 0 156 65 65 0 15
8 63 0 0 +17 158 0 70 158 158 0 65 63 0 0 -15 70 289 0 158 69 0 17 157 0 159 157
 157 0 59 57 0 0 -15 159 251 0 157 103 0 17 155 0 160 155 155 0 53 51 0 0 -15 16
0 213 0 155 99 0 17 153 0 161 153 153 0 47 45 0 0 -15 161 175 0 153 95 0 17 151
 0 162 151 151 0 41 39 0 0 -15 162 137 0 151 91 0 17 149 0 163 149 149 0 35 33 0
 0 -15 163 99 0 149 87 0 17 147 0 164 147 147 0 29 27 0 0 -15 164 61 0 147 84 0
 82 1 117 59572359 83 3 116 .866666666666667 .909803921568627 1 79 14 113 SWEntU
nchanged15 107 250 0 62 103 159 17 62 0 107 62 62 0 81 54 0 0 +17 81 0 74 81 81
 0 62 54 0 0 -15 104 212 0 56 99 160 17 56 0 104 56 56 0 165 48 0 0 +17 165 0 16
6 165 165 0 56 48 0 0 -15 166 197 0 165 14 71 15 100 174 0 50 95 161 17 50 0 100
 50 50 0 167 42 0 0 +17 167 0 82 167 167 0 50 42 0 0 -15 82 159 0 167 14 168 15
 168 83 0 169 14 22 17 169 0 168 169 169 0 38 30 0 0 -15 22 4 0 21 14 170 15 170
 45 0 171 14 172 17 171 0 170 171 171 0 32 25 0 0 -15 172 121 0 173 14 166 17 17
3 0 172 173 173 0 44 36 0 0 -17 44 0 96 44 44 0 173 36 0 0 +15 96 136 0 44 91 16
2 17 32 0 88 32 32 0 171 25 0 0 +15 88 60 0 32 84 164 17 38 0 92 38 38 0 169 30
 0 0 +15 92 98 0 38 87 163 82 1 79 73728135 19 15 32 0 1 0 8 5 S74 20 13 10 0 0
 174 175 110 176 177 178 179 109 11 2 0 0 0 0 0 0 0 0 0 0 81 2 174 37 180 1 0 17
5 0 0 0 181 81 2 175 328 182 1 174 176 0 0 0 183 81 1 176 339 184 1 175 177 0 0
 185 81 2 177 353 186 1 176 178 0 0 0 187 81 2 178 385 188 1 177 179 0 0 189 0 8
1 2 179 386 190 1 178 11 0 0 0 0 81 2 11 420 191 1 179 2 0 0 192 0 80 2 191 193
 194 8004 0 0 0 0 3 5 0 0 0 FFTFFFFFFFFFFF2 3 83 1 192 28e2 79 16 194 SDL/TYSA_D
ENSITY80 2 190 195 196 9000 0 0 0 0 3 5 0 0 0 FFTFFFFFFFFFFF9 1 79 16 196 BODY_R
ECIPE_200180 2 188 197 198 9000 0 0 0 0 3 5 0 0 0 FFTFTTTFFTFFFF3 3 84 11 189 ??
? - ????179 21 198 SWIMPLICITBODYNAME_ID80 2 186 199 200 9000 0 0 0 0 3 5 0 0 0
 FFTFFFFFFFFFFF9 1 82 1 187 1 79 24 200 BODY_IN_LIGHTWEIGHT_PERM80 1 184 201 202
 9000 1 1 1 1 1 1 1 1 0 FFTFFFFFFFFFFF1 82 1 185 393720 79 10 202 BODY_MATCH80 2
 182 203 204 9000 0 0 0 0 3 5 0 0 0 FFTFFFFFFFFFFF9 1 82 1 183 71 79 30 204 LAST
_BODY_MODIFYING_FEATURE_ID80 2 180 205 206 9000 0 0 0 0 3 5 0 0 0 FFTFFFFFFFFFFT
9 1 82 1 181 127 79 19 206 ENT_TIME_STAMP_200180 2 10 207 208 9000 0 0 0 0 3 5 0
 0 0 FFTFFFFFFFFFFF9 1 82 1 12 101 79 12 208 ATOM_ID_20011 0 
