**ABCDEFGHIJKLMNOPQRSTUVWXYZabcdefghijklmnopqrstuvwxyz**************************
**PARASOLID !"#$%&'()*+,-./:;<=>?@[\]^_`{|}~0123456789**************************
**PART1;
MC=AMD64;
MC_MODEL=Intel64 Family 6 Model 158 Stepping 9, GenuineIntel;
MC_ID=unknown;
OS=Windows_NT;
OS_RELEASE=unknown;
FRU=Parasolid Version 34.1, build 225,  5-24-2022;
APPL=SOLIDWORKS 2023-2022300;
SITE=;
USER=unknown;
FORMAT=text;
GUISE=transmit;
KEY=motor_sp5;
FILE=motor_sp5.x_t;
DATE=Wed Feb 14 12:02:48 2024;
**PART2;
SCH=SCH_3401225_34101;
USFLD_SIZE=0;
**PART3;
**END_OF_HEADER*****************************************************************
T51 : TRANSMIT FILE created by modeller version 340122517 SCH_2100000_200000 12
 1 902 2 3 0 0 0 0 1e3 1e-8 0 4 0 1 0 1 1 5 6 7 8 9 10 11 0 0 0 0 81 2 2 883 12
 1 13 0 0 0 0 14 70 3 0 4 T1 0 0 9 20 1 15 15 13 5 120 0 1 0 16 0 0 17 0 51 6 74
5 0 18 19 0 0 +.058 .002 .003 0 0 -1 .002 -1 0 0 30 7 628 0 10 20 0 0 -.06 .0187
639320225002 .003 0 0 -1 29 8 575 0 11 21 0 .001105572809000086 .020552786404500
05 .003 19 9 40 0 1 17 0 22 V16 10 626 0 ?23 0 24 7 0 0 1 18 11 573 0 25 0 26 8
 ?1 17 25 0 27 28 29 11 30 31 0 32 +18 26 570 0 33 11 34 21 ?1 17 33 0 35 32 36
 26 37 38 0 28 +18 34 567 0 39 26 40 41 ?1 29 21 572 0 26 41 8 .0291055728090001
 .03455278640450005 .003 29 41 569 0 34 42 21 .0308944271909999 .034552786404500
05 .003 29 42 566 0 40 43 41 .0588944271909999 .02055278640450005 .003 18 40 564
 0 44 34 45 42 ?1 29 43 563 0 45 46 42 .06 .0187639320225002 .003 18 45 561 0 23
 40 47 43 ?1 29 46 560 0 47 48 43 .06 .002 .003 18 47 558 0 49 45 50 46 ?1 29 48
 547 0 50 51 46 0 .002 .003 18 50 545 0 52 47 53 48 ?1 29 51 544 0 53 54 48 0 .0
187639320225002 .003 18 53 542 0 55 50 56 51 ?1 29 54 516 0 56 57 51 .06 .018763
9320225002 0 18 56 514 0 58 53 59 54 ?1 29 57 513 0 59 60 54 .06 .002 0 18 59 51
1 0 61 56 62 57 ?1 29 60 510 0 62 63 57 .0308944271909999 .03455278640450005 0 1
8 62 508 0 64 59 65 60 ?1 29 63 507 0 65 66 60 .0588944271909999 .02055278640450
005 0 18 65 505 0 67 62 68 63 ?1 29 66 504 0 68 69 63 .001105572809000086 .02055
278640450005 0 18 68 502 0 70 65 71 66 ?1 29 69 501 0 71 72 66 .0291055728090001
 .03455278640450005 0 18 71 499 0 73 68 74 69 ?1 29 72 498 0 74 75 69 0 .002 0 1
8 74 496 0 76 71 77 72 ?1 29 75 495 0 77 78 72 0 .0187639320225002 0 18 77 493 0
 79 74 80 75 ?1 29 78 482 0 80 81 75 .058 1183825239175774e-33 .003 18 80 480 0
 82 77 83 78 ?1 29 81 479 0 83 84 78 .002 408215599715785e-34 .003 18 83 477 0 8
5 80 86 81 ?1 29 84 476 0 86 87 81 .058 1183825239175774e-33 0 18 86 474 0 88 83
 89 84 ?1 29 87 473 0 89 0 84 .002 408215599715785e-34 0 18 89 471 0 90 86 0 87
 ?1 17 90 0 91 92 93 89 76 94 0 95 -15 91 650 0 96 97 0 17 92 0 91 96 90 83 95 9
8 0 0 -17 93 0 91 90 96 74 52 99 0 0 -17 76 0 100 101 102 74 90 94 0 103 +16 94
 537 0 ?76 104 105 106 0 0 1 17 95 0 107 108 109 89 92 98 0 102 +15 107 108 0 10
9 110 0 17 108 0 107 82 95 86 102 111 0 112 +17 109 0 107 95 82 83 113 114 0 92
 -16 98 488 0 ?95 115 116 117 0 0 1 17 102 0 100 76 88 89 108 111 0 0 -15 100 58
 0 102 118 119 17 88 0 100 102 120 86 61 115 0 108 +16 111 472 0 ?108 121 122 12
3 0 0 1 16 121 512 0 ?124 125 111 126 0 0 1 16 122 151 0 ?127 111 128 129 0 0 1
 30 123 89 0 111 130 126 0 +.06 1224646799147352e-33 0 1 204107799857892e-31 0 3
0 130 23 0 131 132 123 0 +0 0 .003 0 -1 0 30 126 88 0 121 123 133 0 +.06 .02 0 -
3469446951953615e-31 1 0 30 133 87 0 125 126 134 0 +.03 .035 0 -.894427190999916
 .447213595499958 0 16 125 506 0 ?135 136 121 133 0 0 1 30 134 86 0 136 133 137
 0 +0 .02 0 -.894427190999916 -.447213595499958 0 16 136 500 0 ?29 138 125 134 0
 0 1 30 137 85 0 138 134 139 0 +0 0 0 0 -1 0 16 138 494 0 ?103 114 136 137 0 0 1
 30 139 485 0 116 137 117 0 -.058 1183825239175774e-33 .003 0 0 -1 16 116 483 0
 ?82 98 131 139 0 0 1 30 117 490 0 98 139 140 0 +.002 408215599715785e-34 .003 0
 0 -1 31 140 519 0 115 117 141 0 +.058 .002 0 0 0 -1 -1 0 0 .002 16 115 517 0 ?8
8 142 98 140 0 0 1 31 141 524 0 142 140 143 0 +.058 .0187639320225002 0 0 0 -1 -
1 0 0 .002 16 142 522 0 ?58 144 115 141 0 0 1 31 143 529 0 144 141 145 0 +.03 .0
327639320225002 0 0 0 -1 -1 0 0 .002 16 144 527 0 ?64 105 142 143 0 0 1 31 145 5
34 0 105 143 106 0 +.002 .0187639320225002 0 0 0 -1 -1 0 0 .002 16 105 532 0 ?70
 94 144 145 0 0 1 31 106 539 0 94 145 146 0 +.002 .002 0 0 0 -1 -1 0 0 .002 30 1
46 550 0 104 106 147 0 +0 .0187639320225002 .003 0 0 -1 16 104 548 0 ?148 99 94
 146 0 0 1 30 147 555 0 99 146 149 0 -0 .002 .003 0 0 -1 16 99 553 0 ?52 150 104
 147 0 0 1 31 149 578 0 150 147 151 0 -.058 .002 .003 0 0 -1 -1 0 0 .002 16 150
 576 0 ?49 152 99 149 0 0 1 31 151 583 0 152 149 153 0 -.058 .0187639320225002 .
003 0 0 -1 -1 0 0 .002 16 152 581 0 ?44 38 150 151 0 0 1 31 153 588 0 38 151 154
 0 -.03 .0327639320225002 .003 0 0 -1 -1 0 0 .002 16 38 586 0 ?33 155 152 153 0
 0 1 31 154 593 0 155 153 156 0 -.002 .0187639320225002 .003 0 0 -1 -1 0 0 .002
 16 155 591 0 ?55 157 38 154 0 0 1 31 156 598 0 157 154 158 0 -.002 .002 .003 0
 0 -1 -1 0 0 .002 16 157 596 0 ?85 159 155 156 0 0 1 30 158 603 0 159 156 160 0
 +.0291055728090001 .03455278640450005 .003 0 0 -1 16 159 601 0 ?161 31 157 158
 0 0 1 30 160 608 0 31 158 162 0 -.001105572809000086 .02055278640450005 .003 0
 0 -1 16 31 606 0 ?25 163 159 160 0 0 1 30 162 613 0 163 160 164 0 +.05889442719
09999 .02055278640450005 .003 0 0 -1 16 163 611 0 ?165 166 31 162 0 0 1 30 164 6
18 0 166 162 20 0 -.0308944271909999 .03455278640450005 .003 0 0 -1 16 166 616 0
 ?39 24 163 164 0 0 1 30 20 623 0 24 164 7 0 +.06 .002 .003 0 0 -1 16 24 621 0 ?
167 10 166 20 0 0 1 17 167 0 168 124 169 59 170 24 0 120 +15 168 106 0 124 171 0
 17 124 0 168 23 167 56 120 121 0 172 +17 169 0 168 167 23 47 173 174 0 170 -17
 170 0 175 176 61 47 167 24 0 0 -17 120 0 100 88 58 59 124 121 0 0 -17 58 0 100
 120 177 56 67 142 0 124 +17 177 0 100 58 64 65 135 125 0 0 -17 67 0 178 179 172
 65 58 142 0 165 -15 178 713 0 180 181 0 17 179 0 178 180 67 40 165 163 0 0 -17
 172 0 178 67 180 56 23 10 0 0 -17 165 0 182 135 183 65 179 163 0 177 +15 182 10
4 0 135 184 0 17 135 0 182 39 165 62 177 125 0 185 +17 183 0 182 165 39 40 36 18
6 0 179 -17 39 0 182 183 135 34 185 166 0 36 +17 36 0 35 33 44 34 183 186 0 37 +
16 186 565 0 ?36 187 174 188 0 0 1 16 187 571 0 ?32 131 186 132 0 0 1 16 174 559
 0 ?173 186 114 189 0 0 1 30 188 15 0 186 189 132 0 +.03 .035 .003 -.89442719099
9916 .447213595499958 0 30 189 11 0 174 190 188 0 +.06 .02 .003 -346944695195361
5e-31 1 0 30 132 19 0 187 188 130 0 +0 .02 .003 -.894427190999916 -.447213595499
958 0 30 190 7 0 114 191 189 0 +.06 1224646799147352e-33 .003 1 204107799857892e
-31 0 16 114 478 0 ?113 174 138 190 0 0 1 31 191 170 0 128 129 190 0 +.03 .02 0
 0 0 1 1 0 0 .005975 16 128 148 0 ?192 122 193 191 0 0 1 31 129 171 0 122 194 19
1 0 +.03 .02 .003 0 0 1 1 0 0 .005975 31 194 208 0 195 196 129 0 +.02047 .02 0 0
 0 1 1 0 0 .00125 16 195 186 0 ?197 193 198 194 0 0 1 31 196 209 0 193 199 194 0
 +.02047 .02 .003 0 0 1 1 0 0 .00125 16 193 189 0 ?200 128 195 196 0 0 1 31 199
 246 0 201 202 196 0 +.03953 .02 0 0 0 1 1 0 0 .00125 16 201 224 0 ?203 198 204
 199 0 0 1 31 202 247 0 198 205 199 0 +.03953 .02 .003 0 0 1 1 0 0 .00125 16 198
 227 0 ?206 195 201 202 0 0 1 31 205 434 0 207 208 202 0 +.05 .015 .003 0 0 1 1
 0 0 .00125 16 207 400 0 ?209 204 210 205 0 0 1 31 208 435 0 204 211 205 0 +.05
 .015 0 0 0 1 1 0 0 .00125 16 204 397 0 ?212 201 207 208 0 0 1 31 211 436 0 213
 214 208 0 +.05 .005 .003 0 0 1 1 0 0 .00125 16 213 346 0 ?215 216 0 211 0 0 1 3
1 214 437 0 216 217 211 0 +.05 .005 0 0 0 1 1 0 0 .00125 16 216 343 0 ?218 219 2
13 214 0 0 1 31 217 438 0 219 220 214 0 +.01 .005 .003 0 0 1 1 0 0 .00125 16 219
 364 0 ?221 222 216 217 0 0 1 31 220 439 0 222 223 217 0 +.01 .005 0 0 0 1 1 0 0
 .00125 16 222 361 0 ?224 225 219 220 0 0 1 31 223 440 0 225 226 220 0 +.01 .015
 .003 0 0 1 1 0 0 .00125 16 225 382 0 ?227 210 222 223 0 0 1 31 226 441 0 210 0
 223 0 +.01 .015 0 0 0 1 1 0 0 .00125 16 210 379 0 ?228 207 225 226 0 0 1 17 228
 0 229 228 228 0 230 210 0 0 +15 229 302 0 228 118 231 17 230 0 232 230 230 0 22
8 210 0 0 -15 232 388 0 230 233 234 14 233 385 235 ?236 237 232 5 238 -0 0 236 2
37 22 15 234 389 0 227 233 0 17 227 0 234 227 227 0 239 225 0 0 +17 239 0 240 23
9 239 0 227 225 0 0 -15 240 325 0 239 16 241 14 16 221 242 ?118 0 243 5 244 -0 0
 118 0 22 15 241 319 0 245 16 35 17 245 0 241 245 245 0 209 207 0 0 -15 35 4 0 2
46 16 247 17 246 0 35 85 55 50 248 131 0 96 +15 247 143 0 249 16 250 17 249 0 24
7 249 249 0 127 122 0 0 -15 250 181 0 251 16 252 17 251 0 250 251 251 0 200 193
 0 0 -15 252 219 0 253 16 0 17 253 0 252 253 253 0 206 198 0 0 -17 206 0 254 206
 206 0 253 198 0 0 +15 254 233 0 206 255 256 14 255 230 257 ?237 258 254 5 259 +
0 0 237 258 22 15 256 234 0 260 255 0 17 260 0 256 260 260 0 203 201 0 0 -17 203
 0 261 203 203 0 260 201 0 0 +15 261 212 0 203 118 0 14 118 215 262 ?110 16 263
 5 264 +0 0 110 16 22 81 1 262 887 265 118 266 0 257 267 268 14 110 109 267 ?171
 118 107 5 269 -0 0 171 118 22 15 263 314 0 218 118 270 50 264 84 0 118 244 271
 0 +0 0 0 0 0 -1 -1 0 0 13 22 41 0 0 0 0 0 0 9 16 50 244 3 0 16 272 264 0 +0 0 .
003 0 0 -1 -1 0 0 50 271 110 0 273 264 274 0 +0 0 .003 1 0 0 0 0 -1 14 273 101 2
75 ?276 277 278 5 271 -0 0 276 277 22 50 274 111 0 277 271 279 0 +0 .02 .003 .44
7213595499958 -.894427190999916 0 .894427190999916 .447213595499958 0 14 277 103
 280 ?273 184 27 5 274 -0 0 273 184 22 50 279 112 0 184 274 281 0 +.03 .035 .003
 -.447213595499958 -.894427190999916 0 .894427190999916 -.447213595499958 0 14 1
84 105 282 ?277 171 182 5 279 -0 0 277 171 22 50 281 113 0 171 279 269 0 +.06 .0
2 .003 -1 -3469446951953615e-31 0 3469446951953615e-31 -1 0 14 171 107 283 ?184
 110 168 5 281 -0 0 184 110 22 50 269 114 0 110 281 284 0 +.06 1224646799147352e
-33 .003 -204107799857892e-31 1 0 -1 -204107799857892e-31 0 51 284 661 0 97 269
 285 0 +.002 .002 .003 0 0 -1 .002 -1 0 0 14 97 649 286 ?287 288 91 5 284 +0 0 2
87 288 22 51 285 682 0 287 284 289 0 +.002 .0187639320225002 .003 0 0 -1 .002 -1
 0 0 14 287 670 290 ?291 97 292 5 285 +0 0 291 97 22 51 289 703 0 291 285 19 0 +
.03 .0327639320225002 .003 0 0 -1 .002 -1 0 0 14 291 691 293 ?181 287 294 5 289
 +0 0 181 287 22 51 19 724 0 181 289 6 0 +.058 .0187639320225002 .003 0 0 -1 .00
2 -1 0 0 14 181 712 295 ?18 291 178 5 19 +0 0 18 291 22 81 1 295 896 265 181 296
 0 293 297 298 14 18 733 297 ?0 181 175 5 6 +0 0 0 181 22 81 1 297 897 265 18 29
9 0 295 300 301 15 175 734 0 176 18 0 17 176 0 175 112 170 80 49 150 0 0 -17 112
 0 175 61 176 86 82 116 0 0 -17 49 0 35 173 113 47 176 150 0 169 +17 173 0 35 44
 49 45 169 174 0 180 +17 113 0 35 49 85 80 109 114 0 176 +17 85 0 35 113 246 83
 96 157 0 109 +17 96 0 91 93 92 50 85 157 0 0 -17 44 0 35 36 173 40 180 152 0 18
3 +17 180 0 178 172 179 45 44 152 0 0 -17 61 0 175 170 112 59 88 115 0 167 -17 8
2 0 107 109 108 80 112 116 0 113 +80 1 265 302 303 9000 1 1 1 1 1 1 1 1 0 FFFFTF
TFFFFFFF1 81 1 299 843 304 18 0 297 296 0 305 81 1 300 898 265 288 306 0 297 307
 308 82 1 301 -1978400617 14 288 349 300 ?97 236 309 5 310 -0 0 97 236 22 81 1 3
06 838 304 288 0 300 311 312 313 81 1 307 899 265 236 311 0 300 314 315 82 1 308
 -1998847850 14 236 367 307 ?288 233 316 5 317 -0 0 288 233 22 81 1 311 837 304
 236 0 307 318 306 319 81 1 314 900 265 237 320 0 307 321 322 82 1 315 -20027800
10 14 237 403 314 ?233 255 323 5 324 -0 0 233 255 22 81 1 320 835 304 237 0 314
 325 318 326 81 1 321 901 265 258 327 0 314 328 329 82 1 322 -2010709866 14 258
 192 321 ?255 276 330 5 331 +0 0 255 276 22 81 1 327 833 304 258 0 321 332 325 3
33 81 1 328 902 265 276 332 0 321 0 334 82 1 329 12779641 14 276 154 328 ?258 27
3 335 5 272 +0 0 258 273 22 81 1 332 832 304 276 0 328 336 327 337 82 1 334 8716
409 80 1 304 0 338 8001 0 0 0 0 3 5 0 0 0 FFFFTFTFFFFFFF2 81 1 336 831 304 273 0
 275 339 332 340 83 3 337 .792156862745098 .819607843137255 .933333333333333 81
 1 275 889 265 273 336 0 267 280 341 81 1 339 830 304 277 0 280 342 336 343 83 3
 340 .792156862745098 .819607843137255 .933333333333333 81 1 280 890 265 277 339
 0 275 282 344 81 1 342 829 304 184 0 282 345 339 346 83 3 343 .792156862745098
 .819607843137255 .933333333333333 81 1 282 891 265 184 342 0 280 283 347 81 1 3
45 828 304 171 0 283 348 342 349 83 3 346 .792156862745098 .819607843137255 .933
333333333333 81 1 283 892 265 171 345 0 282 286 350 81 1 348 827 304 110 0 267 2
66 345 351 83 3 349 .792156862745098 .819607843137255 .933333333333333 81 1 267
 888 265 110 348 0 262 275 352 81 1 266 826 304 118 0 262 353 348 354 83 3 351 .
792156862745098 .819607843137255 .933333333333333 81 1 353 825 304 16 0 242 0 26
6 355 83 3 354 .792156862745098 .819607843137255 .933333333333333 81 1 242 885 2
65 16 353 0 235 257 356 83 3 355 .792156862745098 .819607843137255 .933333333333
333 81 1 235 884 265 233 318 0 0 242 357 81 1 257 886 265 255 325 0 242 262 358
 82 1 356 21692567 81 1 325 834 304 255 0 257 327 320 359 82 1 358 16842873 83 3
 359 .792156862745098 .819607843137255 .933333333333333 81 1 318 836 304 233 0 2
35 320 311 360 82 1 357 -2006712170 83 3 360 .792156862745098 .819607843137255 .
933333333333333 82 1 352 3604631 81 1 286 893 265 97 312 0 283 290 361 82 1 350
 3342487 81 1 312 839 304 97 0 286 306 362 363 81 1 290 894 265 287 362 0 286 29
3 364 82 1 361 -1986264937 81 1 362 840 304 287 0 290 312 365 366 81 1 293 895 2
65 291 365 0 290 295 367 82 1 364 -1984298857 81 1 365 841 304 291 0 293 362 296
 368 82 1 367 -1982332777 81 1 296 842 304 181 0 295 365 299 369 83 3 368 .79215
6862745098 .819607843137255 .933333333333333 83 3 369 .792156862745098 .81960784
3137255 .933333333333333 83 3 366 .792156862745098 .819607843137255 .93333333333
3333 83 3 363 .792156862745098 .819607843137255 .933333333333333 82 1 347 308034
3 82 1 344 2818199 82 1 341 2556055 79 15 338 SDL/TYSA_COLOUR15 335 157 0 127 27
6 370 51 272 167 0 276 331 244 0 -.03 .02 .003 0 0 -1 .005975 -1 0 0 51 331 205
 0 258 259 272 0 -.02047 .02 .003 0 0 -1 .00125 -1 0 0 51 259 243 0 255 324 331
 0 -.03953 .02 .003 0 0 -1 .00125 -1 0 0 51 324 422 0 237 310 259 0 +.05 .015 0
 0 0 1 .00125 1 0 0 51 310 425 0 288 317 324 0 +.05 .005 0 0 0 1 .00125 1 0 0 51
 317 428 0 236 238 310 0 +.01 .005 0 0 0 1 .00125 1 0 0 51 238 431 0 233 0 317 0
 +.01 .015 0 0 0 1 .00125 1 0 0 17 127 0 335 127 127 0 249 122 0 0 +15 370 158 0
 371 276 0 17 371 0 370 371 371 0 192 128 0 0 -17 192 0 119 192 192 0 371 128 0
 0 +15 119 136 0 192 118 261 83 3 333 .792156862745098 .819607843137255 .9333333
33333333 15 330 195 0 200 258 372 17 200 0 330 200 200 0 251 193 0 0 +15 372 196
 0 373 258 0 17 373 0 372 373 373 0 197 195 0 0 -17 197 0 374 197 197 0 373 195
 0 0 +15 374 174 0 197 118 100 83 3 326 .792156862745098 .819607843137255 .93333
3333333333 15 323 406 0 375 237 376 17 375 0 323 375 375 0 212 204 0 0 -15 376 4
07 0 209 237 0 17 209 0 376 209 209 0 245 207 0 0 +17 212 0 231 212 212 0 375 20
4 0 0 +15 231 296 0 212 118 374 83 3 319 .792156862745098 .819607843137255 .9333
33333333333 15 316 370 0 377 236 378 17 377 0 316 377 377 0 224 222 0 0 -15 378
 371 0 221 236 0 17 221 0 378 221 221 0 379 219 0 0 +17 379 0 380 379 379 0 221
 219 0 0 -15 380 331 0 379 16 240 17 224 0 270 224 224 0 377 222 0 0 +15 270 308
 0 224 118 229 83 3 313 .792156862745098 .819607843137255 .933333333333333 15 30
9 352 0 381 288 382 17 381 0 309 381 381 0 218 216 0 0 -15 382 353 0 215 288 0 1
7 215 0 382 215 215 0 383 213 0 0 +17 383 0 243 383 383 0 215 213 0 0 -15 243 33
7 0 383 16 380 17 218 0 263 218 218 0 381 216 0 0 +83 3 305 .792156862745098 .81
9607843137255 .933333333333333 79 14 303 SWEntUnchanged82 1 298 -1980366697 15 2
94 692 0 37 291 0 17 37 0 294 185 384 34 33 38 0 0 -17 185 0 294 73 37 62 39 166
 0 0 -17 384 0 294 37 73 26 161 159 0 0 -17 73 0 294 384 185 71 64 144 0 161 -17
 161 0 27 29 28 71 384 159 0 385 +15 27 102 0 29 277 0 17 29 0 27 25 161 68 385
 136 0 30 +17 28 0 27 161 25 26 32 187 0 384 -17 385 0 100 64 70 71 29 136 0 0 -
17 64 0 100 177 385 62 73 144 0 135 +17 70 0 100 385 101 68 79 105 0 29 +17 101
 0 100 70 76 77 103 138 0 0 -17 79 0 292 386 30 77 70 105 0 148 -15 292 671 0 38
7 287 0 17 386 0 292 387 79 53 148 104 0 0 -17 30 0 292 79 387 68 25 31 0 0 -17
 148 0 278 103 248 77 386 104 0 101 +15 278 100 0 103 273 0 17 103 0 278 52 148
 74 101 138 0 93 +17 248 0 278 148 52 53 246 131 0 386 -17 52 0 278 248 103 50 9
3 99 0 246 +16 131 543 0 ?246 116 187 130 0 0 1 17 387 0 292 30 386 11 55 155 0
 0 -17 55 0 35 246 32 53 387 155 0 248 +17 32 0 35 55 33 11 28 187 0 387 +82 1 2
68 21168279 17 23 0 168 169 124 45 172 10 0 173 +19 17 121 0 1 0 9 5 S74 20 15 9
 0 0 388 389 328 390 391 392 13 299 2 0 0 0 0 0 0 0 0 0 0 0 81 2 388 134 393 1 0
 389 0 0 0 394 81 2 389 273 395 1 388 390 0 0 0 396 81 1 390 773 397 1 389 391 0
 0 398 81 2 391 795 399 1 390 392 0 0 0 400 81 2 392 821 401 1 391 13 0 0 402 0
 81 2 13 822 403 1 392 2 0 0 0 0 80 2 403 404 405 9000 0 0 0 0 3 5 0 0 0 FFTFFFF
FFFFFFF9 1 79 16 405 BODY_RECIPE_200180 2 401 406 407 9000 0 0 0 0 3 5 0 0 0 FFT
FTTTFFTFFFF3 3 84 6 402 ?????179 21 407 SWIMPLICITBODYNAME_ID80 2 399 408 409 90
00 0 0 0 0 3 5 0 0 0 FFTFFFFFFFFFFF9 1 82 1 400 1 79 24 409 BODY_IN_LIGHTWEIGHT_
PERM80 1 397 410 411 9000 1 1 1 1 1 1 1 1 0 FFTFFFFFFFFFFF1 82 1 398 327596 79 1
0 411 BODY_MATCH80 2 395 412 413 9000 0 0 0 0 3 5 0 0 0 FFTFFFFFFFFFFF9 1 82 1 3
96 100 79 30 413 LAST_BODY_MODIFYING_FEATURE_ID80 2 393 414 415 9000 0 0 0 0 3 5
 0 0 0 FFTFFFFFFFFFFT9 1 82 1 394 142 79 19 415 ENT_TIME_STAMP_200180 2 12 416 4
17 9000 0 0 0 0 3 5 0 0 0 FFTFFFFFFFFFFF9 1 82 1 14 102 79 12 417 ATOM_ID_20011
 0 
