**ABCDEFGHIJKLMNOPQRSTUVWXYZabcdefghijklmnopqrstuvwxyz**************************
**PARASOLID !"#$%&'()*+,-./:;<=>?@[\]^_`{|}~0123456789**************************
**PART1;
MC=AMD64;
MC_MODEL=Intel64 Family 6 Model 158 Stepping 9, GenuineIntel;
MC_ID=unknown;
OS=Windows_NT;
OS_RELEASE=unknown;
FRU=Parasolid Version 34.1, build 225,  5-24-2022;
APPL=SOLIDWORKS 2023-2022300;
SITE=;
USER=unknown;
FORMAT=text;
GUISE=transmit;
KEY=motor_sp4;
FILE=motor_sp4.x_t;
DATE=Wed Feb 14 12:02:26 2024;
**PART2;
SCH=SCH_3401225_34101;
USFLD_SIZE=0;
**PART3;
**END_OF_HEADER*****************************************************************
T51 : TRANSMIT FILE created by modeller version 340122517 SCH_2100000_200000 12
 1 285 2 3 0 0 0 0 1e3 1e-8 0 4 0 1 0 1 1 5 6 7 0 8 9 0 0 0 0 0 81 2 2 278 10 1
 11 0 0 0 0 12 70 3 0 4 T1 0 0 10 20 1 13 13 13 5 31 0 1 0 14 0 0 15 0 51 6 30 0
 16 17 0 0 -0 0 .003 0 0 -1 .045 -1 0 0 31 7 25 0 18 19 0 0 +0 0 0 0 0 1 1 0 0 .
045 19 8 9 0 1 15 0 20 V16 9 5 0 ?21 0 18 19 0 0 1 17 21 0 22 21 21 0 23 9 0 0 +
16 18 20 0 ?24 9 25 7 0 0 1 31 19 7 0 9 26 7 0 +0 0 .003 0 0 1 1 0 0 .045 31 26
 73 0 27 28 19 0 +0 0 0 0 0 1 1 0 0 .03525 16 27 51 0 ?29 25 30 26 0 0 1 31 28 7
4 0 25 31 26 0 +0 0 .003 0 0 1 1 0 0 .03525 16 25 54 0 ?32 18 27 28 0 0 1 31 31
 111 0 33 34 28 0 +-3061616997868375e-35 .04025 0 0 0 1 1 0 0 .00125 16 33 89 0
 ?35 30 36 31 0 0 1 31 34 112 0 30 37 31 0 +-3061616997868375e-35 .04025 .003 0
 0 1 1 0 0 .00125 16 30 92 0 ?38 27 33 34 0 0 1 31 37 149 0 39 40 34 0 +.0348575
225023237 -.020125 0 0 0 1 1 0 0 .00125 16 39 127 0 ?41 36 42 37 0 0 1 31 40 150
 0 36 43 37 0 +.0348575225023237 -.020125 .003 0 0 1 1 0 0 .00125 16 36 130 0 ?4
4 33 39 40 0 0 1 31 43 187 0 45 46 40 0 +-.0348575225023237 -.020125 0 0 0 1 1 0
 0 .00125 16 45 165 0 ?47 42 0 43 0 0 1 31 46 188 0 42 0 43 0 +-.034857522502323
7 -.020125 .003 0 0 1 1 0 0 .00125 16 42 168 0 ?48 39 45 46 0 0 1 17 48 0 49 48
 48 0 50 42 0 0 +15 49 174 0 48 51 52 17 50 0 53 50 50 0 48 42 0 0 -15 53 159 0
 50 14 0 14 14 162 54 ?55 0 56 5 57 +0 0 55 0 20 81 1 54 279 58 14 59 0 0 60 61
 14 55 156 60 ?16 14 62 5 17 -0 0 16 14 20 15 56 121 0 63 14 64 50 57 3 0 14 65
 17 0 +0 0 .003 0 0 1 1 0 0 13 20 10 0 0 0 0 0 0 8 14 51 65 70 0 66 67 57 0 -0 0
 .003 0 0 -1 .03525 -1 0 0 50 17 24 0 55 57 6 0 +0 0 0 0 0 1 1 0 0 14 66 57 68 ?
69 16 70 5 65 +0 0 69 16 20 51 67 108 0 69 71 65 0 --3061616997868375e-35 .04025
 .003 0 0 -1 .00125 -1 0 0 14 69 95 72 ?73 66 74 5 67 +0 0 73 66 20 51 71 146 0
 73 75 67 0 -.0348575225023237 -.020125 .003 0 0 -1 .00125 -1 0 0 14 73 133 76 ?
51 69 77 5 71 +0 0 51 69 20 51 75 184 0 51 0 71 0 --.0348575225023237 -.020125 .
003 0 0 -1 .00125 -1 0 0 14 51 171 78 ?0 73 49 5 75 +0 0 0 73 20 81 1 78 284 58
 51 79 0 76 80 81 80 1 58 82 83 9000 1 1 1 1 1 1 1 1 0 FFFFTFTFFFFFFF1 81 1 79 2
61 84 51 0 78 85 0 86 81 1 76 283 58 73 85 0 72 78 87 81 1 80 285 58 16 88 0 78
 0 89 82 1 81 -1392967538 14 16 27 80 ?66 55 90 5 6 -0 0 66 55 20 81 1 88 257 84
 16 0 80 91 92 93 82 1 89 -1405157234 80 1 84 0 94 8001 0 0 0 0 3 5 0 0 0 FFFFTF
TFFFFFFF2 81 1 91 256 84 55 0 60 59 88 95 81 1 92 258 84 66 0 68 88 96 97 83 3 9
3 .866666666666667 .909803921568627 1 81 1 68 281 58 66 92 0 60 72 98 81 1 96 25
9 84 69 0 72 92 85 99 83 3 97 .866666666666667 .909803921568627 1 81 1 72 282 58
 69 96 0 68 76 100 81 1 85 260 84 73 0 76 96 79 101 83 3 99 .866666666666667 .90
9803921568627 1 83 3 101 .866666666666667 .909803921568627 1 82 1 100 -140109400
2 81 1 60 280 58 55 91 0 54 68 102 82 1 98 -1409286002 82 1 102 -1387331442 81 1
 59 255 84 14 0 54 0 91 103 83 3 95 .866666666666667 .909803921568627 1 83 3 103
 .866666666666667 .909803921568627 1 79 15 94 SDL/TYSA_COLOUR15 90 26 0 23 16 10
4 17 23 0 90 23 23 0 21 9 0 0 -15 104 28 0 24 16 0 17 24 0 104 24 24 0 105 18 0
 0 +17 105 0 62 105 105 0 24 18 0 0 -15 62 19 0 105 55 106 15 106 40 0 29 55 107
 17 29 0 106 29 29 0 108 27 0 0 +15 107 78 0 35 55 109 17 35 0 107 35 35 0 110 3
3 0 0 +15 109 116 0 41 55 111 17 41 0 109 41 41 0 112 39 0 0 +15 111 154 0 47 55
 0 17 47 0 111 47 47 0 113 45 0 0 +17 113 0 52 113 113 0 47 45 0 0 -15 52 175 0
 113 51 0 17 112 0 114 112 112 0 41 39 0 0 -15 114 137 0 112 73 0 17 110 0 115 1
10 110 0 35 33 0 0 -15 115 99 0 110 69 0 17 108 0 116 108 108 0 29 27 0 0 -15 11
6 61 0 108 66 0 82 1 87 -1397030770 83 3 86 .866666666666667 .909803921568627 1
 79 14 83 SWEntUnchanged15 77 136 0 44 73 114 17 44 0 77 44 44 0 63 36 0 0 +17 6
3 0 56 63 63 0 44 36 0 0 -15 74 98 0 38 69 115 17 38 0 74 38 38 0 117 30 0 0 +17
 117 0 118 117 117 0 38 30 0 0 -15 118 83 0 117 14 53 15 70 60 0 32 66 116 17 32
 0 70 32 32 0 119 25 0 0 +17 119 0 64 119 119 0 32 25 0 0 -15 64 45 0 119 14 22
 15 22 4 0 21 14 118 82 1 61 -1386807154 19 15 32 0 1 0 8 5 S74 20 13 10 0 0 120
 121 80 122 123 124 125 79 11 2 0 0 0 0 0 0 0 0 0 0 81 2 120 37 126 1 0 121 0 0
 0 127 81 2 121 208 128 1 120 122 0 0 0 129 81 1 122 216 130 1 121 123 0 0 131 8
1 2 123 226 132 1 122 124 0 0 0 133 81 2 124 251 134 1 123 125 0 0 135 0 81 2 12
5 252 136 1 124 11 0 0 0 0 81 2 11 277 137 1 125 2 0 0 138 0 80 2 137 139 140 80
04 0 0 0 0 3 5 0 0 0 FFTFFFFFFFFFFF2 3 83 1 138 28e2 79 16 140 SDL/TYSA_DENSITY8
0 2 136 141 142 9000 0 0 0 0 3 5 0 0 0 FFTFFFFFFFFFFF9 1 79 16 142 BODY_RECIPE_2
00180 2 134 143 144 9000 0 0 0 0 3 5 0 0 0 FFTFTTTFFTFFFF3 3 84 11 135 ??? - ???
?179 21 144 SWIMPLICITBODYNAME_ID80 2 132 145 146 9000 0 0 0 0 3 5 0 0 0 FFTFFFF
FFFFFFF9 1 82 1 133 1 79 24 146 BODY_IN_LIGHTWEIGHT_PERM80 1 130 147 148 9000 1
 1 1 1 1 1 1 1 0 FFTFFFFFFFFFFF1 82 1 131 306207 79 10 148 BODY_MATCH80 2 128 14
9 150 9000 0 0 0 0 3 5 0 0 0 FFTFFFFFFFFFFF9 1 82 1 129 56 79 30 150 LAST_BODY_M
ODIFYING_FEATURE_ID80 2 126 151 152 9000 0 0 0 0 3 5 0 0 0 FFTFFFFFFFFFFT9 1 82
 1 127 131 79 19 152 ENT_TIME_STAMP_200180 2 10 153 154 9000 0 0 0 0 3 5 0 0 0 F
FTFFFFFFFFFFF9 1 82 1 12 101 79 12 154 ATOM_ID_20011 0 
