**ABCDEFGHIJKLMNOPQRSTUVWXYZabcdefghijklmnopqrstuvwxyz**************************
**PARASOLID !"#$%&'()*+,-./:;<=>?@[\]^_`{|}~0123456789**************************
**PART1;
MC=AMD64;
MC_MODEL=Intel64 Family 6 Model 158 Stepping 9, GenuineIntel;
MC_ID=unknown;
OS=Windows_NT;
OS_RELEASE=unknown;
FRU=Parasolid Version 34.1, build 225,  5-24-2022;
APPL=SOLIDWORKS 2023-2022300;
SITE=;
USER=unknown;
FORMAT=text;
GUISE=transmit;
KEY=obj1;
FILE=obj1.x_t;
DATE=Wed Feb 14 12:18:43 2024;
**PART2;
SCH=SCH_3401225_34101;
USFLD_SIZE=0;
**PART3;
**END_OF_HEADER*****************************************************************
T51 : TRANSMIT FILE created by modeller version 340122517 SCH_2100000_200000 12
 1 246 2 3 0 0 0 0 1e3 1e-8 0 4 0 1 0 1 1 5 6 7 0 8 9 0 0 0 0 0 81 2 2 239 10 1
 11 0 0 0 0 12 70 3 0 4 T1 0 0 10 20 1 13 13 13 5 62 0 1 0 14 0 0 15 0 50 6 115
 0 14 16 0 0 +198329665698568e-33 -.003 0 -1 -1322197771323786e-31 0 13221977713
23786e-31 -1 0 31 7 121 0 9 17 0 0 +0 -.003 0 1 1322197771323786e-31 0 -13221977
71323786e-31 1 0 .003 19 8 66 0 1 15 0 18 V16 9 100 0 ?19 0 20 7 0 0 1 17 19 0 2
1 19 19 0 22 9 0 0 +16 20 95 0 ?23 9 24 17 0 0 1 17 23 0 25 23 23 0 26 20 0 0 +1
6 24 90 0 ?27 20 28 29 0 0 1 31 17 120 0 20 29 7 0 +.004 -.003 0 1 1322197771323
786e-31 0 -1322197771323786e-31 1 0 .003 31 29 119 0 24 30 17 0 +.004 -.003 0 1
 1322197771323786e-31 0 -1322197771323786e-31 1 0 .004 31 30 118 0 28 31 29 0 +.
0124 -.003 0 1 1322197771323786e-31 0 -1322197771323786e-31 1 0 .004 16 28 85 0
 ?32 24 33 30 0 0 1 31 31 117 0 33 34 30 0 +.0124 -.003 0 1 1322197771323786e-31
 0 -1322197771323786e-31 1 0 .003 16 33 80 0 ?35 28 36 31 0 0 1 31 34 116 0 36 0
 31 0 +.0164 -.003 0 1 1322197771323786e-31 0 -1322197771323786e-31 1 0 .003 16
 36 75 0 ?37 33 0 34 0 0 1 17 37 0 38 37 37 0 39 36 0 0 +15 38 155 0 37 40 0 17
 39 0 41 39 39 0 37 36 0 0 -15 41 82 0 39 42 0 14 42 83 43 ?40 44 45 5 46 +0 0 4
0 44 18 81 1 43 240 47 42 48 0 0 49 50 14 40 78 49 ?0 42 38 5 51 +0 0 0 42 18 14
 44 88 52 ?42 53 54 5 55 +0 0 42 53 18 15 45 154 0 35 42 41 51 46 110 0 42 51 55
 0 +.0164 -.003 0 1 1322197771323786e-31 0 .003 -1322197771323786e-31 1 0 13 18
 65 0 0 0 0 0 0 8 14 14 14 106 56 ?57 0 58 5 6 +0 0 57 0 18 81 1 56 243 47 14 59
 0 52 60 61 14 57 103 60 ?62 14 21 5 16 +0 0 62 14 18 15 58 105 0 22 14 0 17 22
 0 58 22 22 0 19 9 0 0 -81 1 60 244 47 57 63 0 56 64 65 14 62 98 64 ?53 57 25 5
 66 +0 0 53 57 18 15 21 150 0 19 57 67 51 16 114 0 57 66 6 0 +.0164 -.003 0 1 13
22197771323786e-31 0 .003 -1322197771323786e-31 1 0 50 66 113 0 62 68 16 0 +.004
 874103473246794e-50 0 -1 -1322197771323786e-31 0 1322197771323786e-31 -1 0 51 6
8 112 0 53 55 66 0 +.0164 -.003 0 1 1322197771323786e-31 0 .004 -132219777132378
6e-31 1 0 14 53 93 69 ?44 62 70 5 68 +0 0 44 62 18 50 55 111 0 44 46 68 0 +.0124
 .001 0 1 1322197771323786e-31 0 -1322197771323786e-31 1 0 81 1 69 246 47 53 71
 0 64 0 72 15 70 152 0 27 53 73 17 27 0 70 27 27 0 74 24 0 0 +15 73 92 0 75 53 0
 17 75 0 73 75 75 0 32 28 0 0 -17 32 0 54 32 32 0 75 28 0 0 +15 54 153 0 32 44 7
6 15 76 87 0 77 44 0 17 77 0 76 77 77 0 35 33 0 0 -17 35 0 45 35 35 0 77 33 0 0
 +17 74 0 78 74 74 0 27 24 0 0 -15 78 97 0 74 62 0 80 1 47 79 80 9000 1 1 1 1 1
 1 1 1 0 FFFFTFTFFFFFFF1 81 1 71 219 81 53 0 69 82 83 84 81 1 64 245 47 62 82 0
 60 69 85 82 1 72 1579679850 81 1 82 218 81 62 0 64 63 71 86 82 1 85 1580269674
 80 1 81 0 87 8001 0 0 0 0 3 5 0 0 0 FFFFTFTFFFFFFF2 81 1 63 217 81 57 0 60 59 8
2 88 83 3 86 .776470588235294 .756862745098039 .737254901960784 81 1 59 216 81 1
4 0 56 0 63 89 83 3 88 .776470588235294 .756862745098039 .737254901960784 83 3 8
9 .776470588235294 .756862745098039 .737254901960784 79 15 87 SDL/TYSA_COLOUR81
 1 83 220 81 44 0 52 71 48 90 83 3 84 .776470588235294 .756862745098039 .7372549
01960784 81 1 52 242 47 44 83 0 49 56 91 81 1 48 221 81 42 0 43 83 92 93 83 3 90
 .776470588235294 .756862745098039 .737254901960784 81 1 92 222 81 40 0 49 48 0
 94 83 3 93 .776470588235294 .756862745098039 .737254901960784 81 1 49 241 47 40
 92 0 43 52 95 83 3 94 .776470588235294 .756862745098039 .737254901960784 82 1 9
5 1577910378 82 1 91 1579090026 79 14 80 SWEntUnchanged15 67 102 0 26 57 0 17 26
 0 67 26 26 0 23 20 0 0 -15 25 151 0 23 62 78 82 1 65 1580859498 82 1 61 1581187
178 50 51 109 0 40 0 46 0 +.0164 -262231041974038e-49 0 1 1322197771323786e-31 0
 -1322197771323786e-31 1 0 82 1 50 1578500202 19 15 61 0 1 0 8 5 S74 20 13 10 0
 0 96 97 69 98 99 100 101 92 11 2 0 0 0 0 0 0 0 0 0 0 81 2 96 164 102 1 0 97 0 0
 0 103 81 2 97 168 104 1 96 98 0 0 0 105 81 1 98 176 106 1 97 99 0 0 107 81 2 99
 186 108 1 98 100 0 0 0 109 81 2 100 212 110 1 99 101 0 0 111 0 81 2 101 213 112
 1 100 11 0 0 0 0 81 2 11 238 113 1 101 2 0 0 114 0 80 2 113 115 116 8004 0 0 0
 0 3 5 0 0 0 FFTFFFFFFFFFFF2 3 83 1 114 78e2 79 16 116 SDL/TYSA_DENSITY80 2 112
 117 118 9000 0 0 0 0 3 5 0 0 0 FFTFFFFFFFFFFF9 1 79 16 118 BODY_RECIPE_200180 2
 110 119 120 9000 0 0 0 0 3 5 0 0 0 FFTFTTTFFTFFFF3 3 84 3 111 ??179 21 120 SWIM
PLICITBODYNAME_ID80 2 108 121 122 9000 0 0 0 0 3 5 0 0 0 FFTFFFFFFFFFFF9 1 82 1
 109 1 79 24 122 BODY_IN_LIGHTWEIGHT_PERM80 1 106 123 124 9000 1 1 1 1 1 1 1 1 0
 FFTFFFFFFFFFFF1 82 1 107 351670 79 10 124 BODY_MATCH80 2 104 125 126 9000 0 0 0
 0 3 5 0 0 0 FFTFFFFFFFFFFF9 1 82 1 105 44 79 30 126 LAST_BODY_MODIFYING_FEATURE
_ID80 2 102 127 128 9000 0 0 0 0 3 5 0 0 0 FFTFFFFFFFFFFT9 1 82 1 103 103 79 19
 128 ENT_TIME_STAMP_200180 2 10 129 130 9000 0 0 0 0 3 5 0 0 0 FFTFFFFFFFFFFF9 1
 82 1 12 101 79 12 130 ATOM_ID_20011 0 
