**ABCDEFGHIJKLMNOPQRSTUVWXYZabcdefghijklmnopqrstuvwxyz**************************
**PARASOLID !"#$%&'()*+,-./:;<=>?@[\]^_`{|}~0123456789**************************
**PART1;
MC=AMD64;
MC_MODEL=Intel64 Family 6 Model 158 Stepping 9, GenuineIntel;
MC_ID=unknown;
OS=Windows_NT;
OS_RELEASE=unknown;
FRU=Parasolid Version 34.1, build 225,  5-24-2022;
APPL=SOLIDWORKS 2023-2022300;
SITE=;
USER=unknown;
FORMAT=text;
GUISE=transmit;
KEY=obj2;
FILE=obj2.x_t;
DATE=Wed Feb 14 12:18:59 2024;
**PART2;
SCH=SCH_3401225_34101;
USFLD_SIZE=0;
**PART3;
**END_OF_HEADER*****************************************************************
T51 : TRANSMIT FILE created by modeller version 340122517 SCH_2100000_200000 12
 1 123 2 3 0 0 0 0 1e3 1e-8 0 4 0 1 0 1 1 5 6 7 0 8 9 0 0 0 0 0 81 2 2 119 10 1
 11 0 0 0 0 12 70 3 0 4 T1 0 0 9 20 1 13 13 13 5 31 0 1 0 14 0 0 15 0 51 6 30 0
 16 17 0 0 -0 0 .015 0 0 -1 .004 -1 0 0 31 7 25 0 18 19 0 0 +0 0 0 0 0 1 1 0 0 .
004 19 8 9 0 1 15 0 20 V16 9 5 0 ?21 0 18 19 0 0 1 17 21 0 22 21 21 0 23 9 0 0 +
16 18 20 0 ?24 9 25 7 0 0 1 31 19 7 0 9 26 7 0 +0 0 .015 0 0 1 1 0 0 .004 31 26
 73 0 27 28 19 0 +0 0 0 0 0 1 1 0 0 .00125 16 27 51 0 ?29 25 0 26 0 0 1 31 28 74
 0 25 0 26 0 +0 0 .015 0 0 1 1 0 0 .00125 16 25 54 0 ?30 18 27 28 0 0 1 17 30 0
 31 30 30 0 32 25 0 0 +15 31 60 0 30 33 34 17 32 0 35 32 32 0 30 25 0 0 -15 35 4
5 0 32 14 0 14 14 48 36 ?37 0 22 5 38 +0 0 37 0 20 81 1 36 120 39 14 40 0 0 41 4
2 14 37 42 41 ?16 14 43 5 17 -0 0 16 14 20 15 22 4 0 21 14 35 50 38 3 0 14 44 17
 0 +0 0 .015 0 0 1 1 0 0 13 20 10 0 0 0 0 0 0 8 14 51 44 70 0 33 0 38 0 -0 0 .01
5 0 0 -1 .00125 -1 0 0 50 17 24 0 37 38 6 0 +0 0 0 0 0 1 1 0 0 14 33 57 45 ?0 16
 31 5 44 +0 0 0 16 20 81 1 45 122 39 33 46 0 41 47 48 14 16 27 47 ?33 37 49 5 6
 -0 0 33 37 20 81 1 47 123 39 16 50 0 45 0 51 15 49 26 0 23 16 52 17 23 0 49 23
 23 0 21 9 0 0 -15 52 28 0 24 16 0 17 24 0 52 24 24 0 53 18 0 0 +17 53 0 43 53 5
3 0 24 18 0 0 -15 43 19 0 53 37 54 15 54 40 0 29 37 0 17 29 0 54 29 29 0 55 27 0
 0 +17 55 0 34 55 55 0 29 27 0 0 -15 34 61 0 55 33 0 80 1 39 56 57 9000 1 1 1 1
 1 1 1 1 0 FFFFTFTFFFFFFF1 81 1 50 108 58 16 0 47 59 46 60 82 1 51 198770792 80
 1 58 0 61 8001 0 0 0 0 3 5 0 0 0 FFFFTFTFFFFFFF2 81 1 59 107 58 37 0 41 40 50 6
2 81 1 46 109 58 33 0 45 50 0 63 83 3 60 .792156862745098 .819607843137255 .9333
33333333333 83 3 63 .792156862745098 .819607843137255 .933333333333333 81 1 41 1
21 39 37 59 0 36 45 64 81 1 40 106 58 14 0 36 0 59 65 83 3 62 .792156862745098 .
819607843137255 .933333333333333 83 3 65 .792156862745098 .819607843137255 .9333
33333333333 82 1 64 204603496 79 15 61 SDL/TYSA_COLOUR79 14 57 SWEntUnchanged82
 1 48 202899560 82 1 42 205127784 19 15 32 0 1 0 8 5 S74 20 13 9 0 0 66 67 47 68
 69 70 11 46 2 0 0 0 0 0 0 0 0 0 0 0 81 2 66 37 71 1 0 67 0 0 0 72 81 2 67 88 73
 1 66 68 0 0 0 74 81 1 68 93 75 1 67 69 0 0 76 81 2 69 99 77 1 68 70 0 0 0 78 81
 2 70 102 79 1 69 11 0 0 80 0 81 2 11 103 81 1 70 2 0 0 0 0 80 2 81 82 83 9000 0
 0 0 0 3 5 0 0 0 FFTFFFFFFFFFFF9 1 79 16 83 BODY_RECIPE_200180 2 79 84 85 9000 0
 0 0 0 3 5 0 0 0 FFTFTTTFFTFFFF3 3 84 11 80 ??? - ????179 21 85 SWIMPLICITBODYNA
ME_ID80 2 77 86 87 9000 0 0 0 0 3 5 0 0 0 FFTFFFFFFFFFFF9 1 82 1 78 1 79 24 87 B
ODY_IN_LIGHTWEIGHT_PERM80 1 75 88 89 9000 1 1 1 1 1 1 1 1 0 FFTFFFFFFFFFFF1 82 1
 76 68537 79 10 89 BODY_MATCH80 2 73 90 91 9000 0 0 0 0 3 5 0 0 0 FFTFFFFFFFFFFF
9 1 82 1 74 36 79 30 91 LAST_BODY_MODIFYING_FEATURE_ID80 2 71 92 93 9000 0 0 0 0
 3 5 0 0 0 FFTFFFFFFFFFFT9 1 82 1 72 103 79 19 93 ENT_TIME_STAMP_200180 2 10 94
 95 9000 0 0 0 0 3 5 0 0 0 FFTFFFFFFFFFFF9 1 82 1 12 101 79 12 95 ATOM_ID_20011
 0 
