**ABCDEFGHIJKLMNOPQRSTUVWXYZabcdefghijklmnopqrstuvwxyz**************************
**PARASOLID !"#$%&'()*+,-./:;<=>?@[\]^_`{|}~0123456789**************************
**PART1;
MC=AMD64;
MC_MODEL=Intel64 Family 6 Model 158 Stepping 9, GenuineIntel;
MC_ID=unknown;
OS=Windows_NT;
OS_RELEASE=unknown;
FRU=Parasolid Version 34.1, build 225,  5-24-2022;
APPL=SOLIDWORKS 2023-2022300;
SITE=;
USER=unknown;
FORMAT=text;
GUISE=transmit;
KEY=motor_sp3;
FILE=motor_sp3.x_t;
DATE=Wed Feb 14 12:06:31 2024;
**PART2;
SCH=SCH_3401225_34101;
USFLD_SIZE=0;
**PART3;
**END_OF_HEADER*****************************************************************
T51 : TRANSMIT FILE created by modeller version 340122517 SCH_2100000_200000 12
 1 517 2 3 0 0 0 0 1e3 1e-8 0 4 0 1 0 1 1 5 6 7 0 8 9 0 0 0 0 0 81 2 2 502 10 1
 11 0 0 0 0 12 70 3 0 4 T1 0 0 11 20 1 13 13 13 5 313 0 1 0 14 0 0 15 0 51 6 312
 0 16 17 0 0 --.02771281292110135 .0159999999999988 .003 0 0 -1 .001500000000001
37 -1 0 0 31 7 235 0 18 19 0 0 +0 0 0 0 0 1 1 0 0 .045 19 8 85 0 1 15 0 20 V16 9
 78 0 ?21 0 22 23 0 0 1 17 21 0 24 21 21 0 25 9 0 0 +16 22 73 0 ?26 9 27 28 0 0
 1 31 23 80 0 9 28 29 0 +0 0 .003 0 0 1 1 0 0 .045 31 28 75 0 22 30 23 0 +0 0 .0
03 0 0 1 1 0 0 .004 31 29 247 0 31 23 32 0 +-.02771281292110135 .015999999999998
8 0 0 0 1 1 0 0 .00150000000000137 16 31 229 0 ?33 34 0 29 0 0 1 31 32 246 0 34
 29 35 0 +-.0277128129211 -.0160000000000012 0 0 0 1 1 0 0 .00150000000000258 16
 34 224 0 ?36 37 31 32 0 0 1 31 35 245 0 37 32 38 0 +271440066712859e-29 -.032 0
 0 0 1 1 0 0 .00150000000000281 16 37 219 0 ?39 40 34 35 0 0 1 31 38 244 0 40 35
 41 0 +.0277128129211041 -.0159999999999988 0 0 0 1 1 0 0 .00150000000000175 16
 40 214 0 ?42 43 37 38 0 0 1 31 41 243 0 43 38 44 0 +.0277128129211027 .01600000
00000012 0 0 0 1 1 0 0 .001500000000000385 16 43 209 0 ?45 46 40 41 0 0 1 31 44
 242 0 46 41 47 0 +.0348575225023288 -.02012499999999705 0 0 0 1 1 0 0 .00150000
0000003665 16 46 204 0 ?48 49 43 44 0 0 1 31 47 241 0 49 44 50 0 +-.034857522502
31855 -.02012500000000295 0 0 0 1 1 0 0 .00150000000000558 16 49 199 0 ?51 52 46
 47 0 0 1 31 50 240 0 52 47 53 0 +-1216655401430572e-33 .04025 0 0 0 1 1 0 0 .00
15 16 52 194 0 ?54 55 49 50 0 0 1 31 53 239 0 55 50 56 0 +-1163414459189984e-33
 .032 0 0 0 1 1 0 0 .0015 16 55 189 0 ?57 58 52 53 0 0 1 31 56 238 0 58 53 59 0
 +-.009 0 0 0 0 1 1 0 0 .00125 16 58 184 0 ?60 61 55 56 0 0 1 31 59 237 0 61 56
 19 0 +.009 0 0 0 0 1 1 0 0 .00125 16 61 179 0 ?62 63 58 59 0 0 1 31 19 236 0 63
 59 7 0 +0 0 0 0 0 1 1 0 0 .004 16 63 174 0 ?64 18 61 19 0 0 1 17 64 0 65 64 64
 0 66 63 0 0 +16 18 169 0 ?67 68 63 7 0 0 1 17 67 0 69 67 67 0 70 18 0 0 +16 68
 18 0 ?71 72 18 73 0 0 1 17 71 0 74 71 71 0 75 68 0 0 +16 72 23 0 ?76 77 68 78 0
 0 1 31 73 20 0 68 0 78 0 +-.02771281292110135 .0159999999999988 .003 0 0 1 1 0
 0 .00150000000000137 31 78 25 0 72 73 79 0 +-.0277128129211 -.0160000000000012
 .003 0 0 1 1 0 0 .00150000000000258 31 79 30 0 77 78 80 0 +271440066712859e-29
 -.032 .003 0 0 1 1 0 0 .00150000000000281 16 77 28 0 ?81 82 72 79 0 0 1 31 80 3
5 0 82 79 83 0 +.0277128129211041 -.0159999999999988 .003 0 0 1 1 0 0 .001500000
00000175 16 82 33 0 ?84 85 77 80 0 0 1 31 83 40 0 85 80 86 0 +.0277128129211027
 .0160000000000012 .003 0 0 1 1 0 0 .001500000000000385 16 85 38 0 ?87 88 82 83
 0 0 1 31 86 45 0 88 83 89 0 +.0348575225023288 -.02012499999999705 .003 0 0 1 1
 0 0 .001500000000003665 16 88 43 0 ?90 91 85 86 0 0 1 31 89 50 0 91 86 92 0 +-.
03485752250231855 -.02012500000000295 .003 0 0 1 1 0 0 .00150000000000558 16 91
 48 0 ?93 94 88 89 0 0 1 31 92 55 0 94 89 95 0 +-1216655401430572e-33 .04025 .00
3 0 0 1 1 0 0 .0015 16 94 53 0 ?96 97 91 92 0 0 1 31 95 60 0 97 92 98 0 +-116341
4459189984e-33 .032 .003 0 0 1 1 0 0 .0015 16 97 58 0 ?99 100 94 95 0 0 1 31 98
 65 0 100 95 30 0 +-.009 0 .003 0 0 1 1 0 0 .00125 16 100 63 0 ?101 27 97 98 0 0
 1 31 30 70 0 27 98 28 0 +.009 0 .003 0 0 1 1 0 0 .00125 16 27 68 0 ?102 22 100
 30 0 0 1 17 102 0 103 102 102 0 104 27 0 0 +15 103 256 0 102 105 106 17 104 0 1
07 104 104 0 102 27 0 0 -15 107 15 0 104 108 109 14 108 1 110 ?111 112 113 5 114
 +0 0 111 112 20 15 109 16 0 115 108 24 17 115 0 109 115 115 0 26 22 0 0 -15 24
 17 0 21 108 0 17 26 0 116 26 26 0 115 22 0 0 +15 116 252 0 26 14 117 14 14 253
 118 ?105 0 116 5 119 +0 0 105 0 20 15 117 254 0 66 14 0 17 66 0 117 66 66 0 64
 63 0 0 -81 1 118 504 120 14 121 0 110 122 123 14 105 257 122 ?124 14 103 5 125
 +0 0 124 14 20 51 119 301 0 14 126 125 0 -0 0 .003 0 0 -1 .004 -1 0 0 13 20 86
 0 0 0 0 0 0 8 14 51 126 300 0 112 127 119 0 -0 0 .003 0 0 -1 .045 -1 0 0 51 125
 302 0 105 119 128 0 -.009 0 .003 0 0 -1 .00125 -1 0 0 51 128 303 0 124 125 129
 0 --.009 0 .003 0 0 -1 .00125 -1 0 0 14 124 261 130 ?131 105 132 5 128 +0 0 131
 105 20 51 129 304 0 131 128 133 0 --1163414459189984e-33 .032 .003 0 0 -1 .0015
 -1 0 0 14 131 265 134 ?135 124 136 5 129 +0 0 135 124 20 51 133 305 0 135 129 1
37 0 --1216655401430572e-33 .04025 .003 0 0 -1 .0015 -1 0 0 14 135 269 138 ?139
 131 140 5 133 +0 0 139 131 20 51 137 306 0 139 133 141 0 --.03485752250231855 -
.02012500000000295 .003 0 0 -1 .00150000000000558 -1 0 0 14 139 273 142 ?143 135
 144 5 137 +0 0 143 135 20 51 141 307 0 143 137 145 0 -.0348575225023288 -.02012
499999999705 .003 0 0 -1 .001500000000003665 -1 0 0 14 143 277 146 ?147 139 148
 5 141 +0 0 147 139 20 51 145 308 0 147 141 149 0 -.0277128129211027 .0160000000
000012 .003 0 0 -1 .001500000000000385 -1 0 0 14 147 281 150 ?151 143 152 5 145
 +0 0 151 143 20 51 149 309 0 151 145 153 0 -.0277128129211041 -.015999999999998
8 .003 0 0 -1 .00150000000000175 -1 0 0 14 151 285 154 ?155 147 156 5 149 +0 0 1
55 147 20 51 153 310 0 155 149 17 0 -271440066712859e-29 -.032 .003 0 0 -1 .0015
0000000000281 -1 0 0 14 155 289 157 ?158 151 159 5 153 +0 0 158 151 20 51 17 311
 0 158 153 6 0 --.0277128129211 -.0160000000000012 .003 0 0 -1 .0015000000000025
8 -1 0 0 14 158 293 160 ?16 155 161 5 17 +0 0 16 155 20 81 1 160 514 120 158 162
 0 157 163 164 14 16 297 163 ?112 158 74 5 6 +0 0 112 158 20 15 161 292 0 76 158
 165 17 76 0 161 76 76 0 166 72 0 0 +15 165 294 0 167 158 0 17 167 0 165 167 167
 0 36 34 0 0 -17 36 0 168 36 36 0 167 34 0 0 +15 168 157 0 36 111 169 14 111 154
 170 ?0 108 171 5 127 -0 0 0 108 20 15 169 158 0 39 111 172 17 39 0 169 39 39 0
 173 37 0 0 +15 172 159 0 42 111 174 17 42 0 172 42 42 0 175 40 0 0 +15 174 160
 0 45 111 176 17 45 0 174 45 45 0 177 43 0 0 +15 176 161 0 48 111 178 17 48 0 17
6 48 48 0 179 46 0 0 +15 178 162 0 51 111 180 17 51 0 178 51 51 0 181 49 0 0 +15
 180 163 0 54 111 182 17 54 0 180 54 54 0 183 52 0 0 +15 182 164 0 57 111 184 17
 57 0 182 57 57 0 185 55 0 0 +15 184 165 0 60 111 186 17 60 0 184 60 60 0 187 58
 0 0 +15 186 166 0 62 111 65 17 62 0 186 62 62 0 188 61 0 0 +15 65 167 0 64 111
 189 15 189 168 0 70 111 0 17 70 0 189 70 70 0 67 18 0 0 -17 188 0 106 188 188 0
 62 61 0 0 -15 106 258 0 188 105 0 17 187 0 190 187 187 0 60 58 0 0 -15 190 262
 0 187 124 0 17 185 0 191 185 185 0 57 55 0 0 -15 191 266 0 185 131 0 17 183 0 1
92 183 183 0 54 52 0 0 -15 192 270 0 183 135 0 17 181 0 193 181 181 0 51 49 0 0
 -15 193 274 0 181 139 0 17 179 0 194 179 179 0 48 46 0 0 -15 194 278 0 179 143
 0 17 177 0 195 177 177 0 45 43 0 0 -15 195 282 0 177 147 0 17 175 0 196 175 175
 0 42 40 0 0 -15 196 286 0 175 151 0 17 173 0 197 173 173 0 39 37 0 0 -15 197 29
0 0 173 155 0 81 1 170 516 120 111 198 0 163 199 200 15 171 156 0 33 111 168 50
 127 234 0 111 114 126 0 +0 0 0 0 0 1 1 0 0 50 114 3 0 108 0 127 0 +0 0 .003 0 0
 1 1 0 0 17 33 0 171 33 33 0 201 31 0 0 +17 201 0 202 201 201 0 33 31 0 0 -15 20
2 298 0 201 16 0 80 1 120 203 204 9000 1 1 1 1 1 1 1 1 0 FFFFTFTFFFFFFF1 81 1 19
8 469 205 111 0 170 206 0 207 81 1 163 515 120 16 208 0 160 170 209 81 1 199 517
 120 112 210 0 170 0 211 82 1 200 -1352138593 14 112 249 199 ?108 16 212 5 126 -
0 0 108 16 20 81 1 210 467 205 112 0 199 208 206 213 82 1 211 -1346436961 80 1 2
05 0 214 8001 0 0 0 0 3 5 0 0 0 FFFFTFTFFFFFFF2 81 1 208 466 205 16 0 163 162 21
0 215 81 1 206 468 205 108 0 110 210 198 216 83 3 213 1 1 1 81 1 110 503 120 108
 206 0 0 118 217 83 3 216 1 1 1 82 1 217 -1365442401 81 1 162 465 205 158 0 160
 218 208 219 83 3 215 1 1 1 81 1 218 464 205 155 0 157 220 162 221 83 3 219 1 1
 1 81 1 157 513 120 155 218 0 154 160 222 81 1 220 463 205 151 0 154 223 218 224
 83 3 221 1 1 1 81 1 154 512 120 151 220 0 150 157 225 81 1 223 462 205 147 0 15
0 226 220 227 83 3 224 1 1 1 81 1 150 511 120 147 223 0 146 154 228 81 1 226 461
 205 143 0 146 229 223 230 83 3 227 1 1 1 81 1 146 510 120 143 226 0 142 150 231
 81 1 229 460 205 139 0 142 232 226 233 83 3 230 1 1 1 81 1 142 509 120 139 229
 0 138 146 234 81 1 232 459 205 135 0 138 235 229 236 83 3 233 1 1 1 81 1 138 50
8 120 135 232 0 134 142 237 81 1 235 458 205 131 0 134 238 232 239 83 3 236 1 1
 1 81 1 134 507 120 131 235 0 130 138 240 81 1 238 457 205 124 0 130 241 235 242
 83 3 239 1 1 1 81 1 130 506 120 124 238 0 122 134 243 81 1 241 456 205 105 0 12
2 121 238 244 83 3 242 1 1 1 81 1 122 505 120 105 241 0 118 130 245 81 1 121 455
 205 14 0 118 0 241 246 83 3 244 1 1 1 83 3 246 1 1 1 82 1 245 -1345781601 82 1
 243 -1345519457 82 1 240 -1345257313 82 1 237 -1344995169 82 1 234 -1344733025
 82 1 231 -1344470881 82 1 228 -1344208737 82 1 225 -1343946593 82 1 222 -134368
4449 79 15 214 SDL/TYSA_COLOUR15 212 248 0 25 112 69 17 25 0 212 25 25 0 21 9 0
 0 -15 69 250 0 67 112 0 82 1 209 -1343160161 83 3 207 1 1 1 79 14 204 SWEntUnch
anged17 166 0 247 166 166 0 76 72 0 0 -15 247 6 0 166 108 248 15 248 7 0 249 108
 250 17 249 0 248 249 249 0 81 77 0 0 -15 250 8 0 251 108 252 17 251 0 250 251 2
51 0 84 82 0 0 -15 252 9 0 253 108 254 17 253 0 252 253 253 0 87 85 0 0 -15 254
 10 0 255 108 256 17 255 0 254 255 255 0 90 88 0 0 -15 256 11 0 257 108 258 17 2
57 0 256 257 257 0 93 91 0 0 -15 258 12 0 259 108 260 17 259 0 258 259 259 0 96
 94 0 0 -15 260 13 0 261 108 262 17 261 0 260 261 261 0 99 97 0 0 -15 262 14 0 2
63 108 107 17 263 0 262 263 263 0 101 100 0 0 -17 101 0 132 101 101 0 263 100 0
 0 +15 132 260 0 101 124 190 17 99 0 136 99 99 0 261 97 0 0 +15 136 264 0 99 131
 191 17 96 0 140 96 96 0 259 94 0 0 +15 140 268 0 96 135 192 17 93 0 144 93 93 0
 257 91 0 0 +15 144 272 0 93 139 193 17 90 0 148 90 90 0 255 88 0 0 +15 148 276
 0 90 143 194 17 87 0 152 87 87 0 253 85 0 0 +15 152 280 0 87 147 195 17 84 0 15
6 84 84 0 251 82 0 0 +15 156 284 0 84 151 196 17 81 0 159 81 81 0 249 77 0 0 +15
 159 288 0 81 155 197 15 74 296 0 71 16 202 82 1 164 -1343422305 82 1 123 -13460
43745 15 113 5 0 75 108 247 17 75 0 113 75 75 0 71 68 0 0 -19 15 314 0 1 0 8 5 S
74 20 13 11 0 0 264 265 266 199 267 268 269 270 198 11 2 0 0 0 0 0 0 0 0 0 81 2
 264 83 271 1 0 265 0 0 0 272 81 5 265 84 273 1 264 266 0 0 274 0 0 0 0 81 2 266
 377 275 1 265 267 0 0 0 276 81 1 267 393 277 1 266 268 0 0 278 81 2 268 410 279
 1 267 269 0 0 0 280 81 2 269 451 281 1 268 270 0 0 282 0 81 2 270 452 283 1 269
 11 0 0 0 0 81 2 11 501 284 1 270 2 0 0 285 0 80 2 284 286 287 8004 0 0 0 0 3 5
 0 0 0 FFTFFFFFFFFFFF2 3 83 1 285 1190 79 16 287 SDL/TYSA_DENSITY80 2 283 288 28
9 9000 0 0 0 0 3 5 0 0 0 FFTFFFFFFFFFFF9 1 79 16 289 BODY_RECIPE_200180 2 281 29
0 291 9000 0 0 0 0 3 5 0 0 0 FFTFTTTFFTFFFF3 3 84 11 282 ??? - ????179 21 291 SW
IMPLICITBODYNAME_ID80 2 279 292 293 9000 0 0 0 0 3 5 0 0 0 FFTFFFFFFFFFFF9 1 82
 1 280 1 79 24 293 BODY_IN_LIGHTWEIGHT_PERM80 1 277 294 295 9000 1 1 1 1 1 1 1 1
 0 FFTFFFFFFFFFFF1 82 1 278 175771 79 10 295 BODY_MATCH80 2 275 296 297 9000 0 0
 0 0 3 5 0 0 0 FFTFFFFFFFFFFF9 1 82 1 276 37 79 30 297 LAST_BODY_MODIFYING_FEATU
RE_ID80 5 273 298 299 9000 0 0 0 0 3 6 0 0 0 FFTTTTTTFTTFTT2 2 2 2 2 83 1 274 1
 79 19 299 BODY_SCALING_FACTOR80 2 271 300 301 9000 0 0 0 0 3 5 0 0 0 FFTFFFFFFF
FFFT9 1 82 1 272 160 79 19 301 ENT_TIME_STAMP_200180 2 10 302 303 9000 0 0 0 0 3
 5 0 0 0 FFTFFFFFFFFFFF9 1 82 1 12 101 79 12 303 ATOM_ID_20011 0 
