**ABCDEFGHIJKLMNOPQRSTUVWXYZabcdefghijklmnopqrstuvwxyz**************************
**PARASOLID !"#$%&'()*+,-./:;<=>?@[\]^_`{|}~0123456789**************************
**PART1;
MC=AMD64;
MC_MODEL=Intel64 Family 6 Model 158 Stepping 9, GenuineIntel;
MC_ID=unknown;
OS=Windows_NT;
OS_RELEASE=unknown;
FRU=Parasolid Version 34.1, build 225,  5-24-2022;
APPL=SOLIDWORKS 2023-2022300;
SITE=;
USER=unknown;
FORMAT=text;
GUISE=transmit;
KEY=PC obj7;
FILE=PC obj7.x_t;
DATE=Wed Feb 14 12:07:03 2024;
**PART2;
SCH=SCH_3401225_34101;
USFLD_SIZE=0;
**PART3;
**END_OF_HEADER*****************************************************************
T51 : TRANSMIT FILE created by modeller version 340122517 SCH_2100000_200000 12
 1 1493 2 3 0 0 0 0 1e3 1e-8 0 4 0 1 0 1 1 5 6 7 8 9 10 11 0 0 0 0 81 2 2 1474 1
2 1 13 0 0 0 0 14 70 3 0 4 T1 0 0 10 20 1 15 15 13 5 99 0 1 0 16 0 0 17 0 51 6 1
236 0 18 19 0 0 +.027 .027 .005 0 0 -1 .003 -1 0 0 30 7 1191 0 10 20 0 0 +.027 .
03 .005 0 0 -1 29 8 1178 0 11 21 0 .027 .03 .005 19 9 33 0 1 17 0 22 V16 10 1189
 0 ?23 0 24 7 0 0 1 18 11 1176 0 25 0 26 8 ?1 17 25 0 27 28 29 11 30 31 0 32 +18
 26 1168 0 33 11 34 21 ?1 17 33 0 35 36 37 26 38 39 0 40 +18 34 1155 0 41 26 42
 43 ?1 29 21 1170 0 26 43 8 .027 0 .005 29 43 1157 0 34 44 21 .027 .03 0 29 44 1
154 0 42 45 43 .027 0 0 18 42 1152 0 46 34 47 44 ?1 29 45 1141 0 47 48 44 .03 .0
27 .005 18 47 1139 0 49 42 50 45 ?1 29 48 1138 0 50 51 45 .03 .003 .005 18 50 11
36 0 52 47 53 48 ?1 29 51 1135 0 53 54 48 .03 .027 0 18 53 1133 0 55 50 56 51 ?1
 29 54 1132 0 56 57 51 .03 .003 0 18 56 1130 0 58 53 59 54 ?1 29 57 473 0 59 60
 54 .003 .03 .005 18 59 471 0 28 56 61 57 ?1 29 60 467 0 61 62 57 0 .003 .005 18
 61 465 0 63 59 64 60 ?1 29 62 464 0 64 65 60 0 .027 .005 18 64 462 0 66 61 67 6
2 ?1 29 65 448 0 67 68 62 .003 0 .005 18 67 446 0 69 64 70 65 ?1 29 68 422 0 70
 71 65 .003 0 0 18 70 420 0 72 67 73 68 ?1 29 71 419 0 73 74 68 .003 .03 0 18 73
 417 0 75 70 76 71 ?1 29 74 413 0 76 77 71 0 .003 0 18 76 411 0 78 73 79 74 ?1 2
9 77 410 0 79 0 74 0 .027 0 18 79 408 0 80 76 0 77 ?1 17 80 0 81 82 83 79 84 85
 0 86 -15 81 572 0 87 88 0 17 82 0 81 87 80 64 86 89 0 0 -17 83 0 81 80 87 73 90
 91 0 0 -17 84 0 92 93 94 73 80 85 0 83 +16 85 431 0 ?84 95 96 97 0 0 1 17 86 0
 98 99 100 79 82 89 0 94 +15 98 89 0 99 101 0 17 99 0 98 63 86 76 94 102 0 103 +
17 100 0 98 86 63 64 104 105 0 82 -16 89 494 0 ?86 106 107 108 0 0 1 17 94 0 92
 84 78 79 99 102 0 0 -15 92 861 0 109 110 111 17 78 0 92 94 112 76 72 95 0 99 +1
6 102 409 0 ?99 113 114 115 0 0 1 16 113 421 0 ?37 116 102 117 0 0 1 16 114 128
 0 ?118 102 119 120 0 0 1 30 115 74 0 102 121 117 0 +0 0 0 0 -1 0 30 121 19 0 96
 122 115 0 +0 .03 .005 -1 0 0 30 117 73 0 113 115 123 0 +0 0 0 1 0 0 30 123 71 0
 116 117 97 0 +0 .03 0 -1 0 0 16 116 1156 0 ?75 105 113 123 0 0 1 31 97 433 0 85
 123 124 0 +.003 .027 0 0 0 -1 -1 0 0 .003 31 124 438 0 95 97 125 0 +.003 .003 0
 0 0 -1 -1 0 0 .003 16 95 436 0 ?78 126 85 124 0 0 1 30 125 454 0 126 124 127 0
 +.003 0 .005 0 0 -1 16 126 452 0 ?128 129 95 125 0 0 1 31 127 481 0 129 125 130
 0 -.003 .027 .005 0 0 -1 -1 0 0 .003 16 129 479 0 ?66 107 126 127 0 0 1 31 130
 486 0 107 127 108 0 -.003 .003 .005 0 0 -1 -1 0 0 .003 16 107 484 0 ?69 89 129
 130 0 0 1 30 108 496 0 89 130 131 0 +0 .027 .005 0 0 -1 30 131 501 0 106 108 13
2 0 -0 .003 .005 0 0 -1 16 106 499 0 ?63 91 89 131 0 0 1 30 132 511 0 91 131 133
 0 -.003 .03 .005 0 0 -1 16 91 509 0 ?90 134 106 132 0 0 1 30 133 1144 0 134 132
 135 0 -.03 .027 .005 0 0 -1 16 134 1142 0 ?49 136 91 133 0 0 1 30 135 1149 0 13
6 133 137 0 +.03 .003 .005 0 0 -1 16 136 1147 0 ?138 139 134 135 0 0 1 31 137 11
60 0 139 135 140 0 +.027 .027 0 0 0 -1 -1 0 0 .003 16 139 1158 0 ?55 141 136 137
 0 0 1 31 140 1165 0 141 137 142 0 +.027 .003 0 0 0 -1 -1 0 0 .003 16 141 1163 0
 ?46 39 139 140 0 0 1 30 142 1173 0 39 140 143 0 -.027 0 .005 0 0 -1 16 39 1171
 0 ?33 31 141 142 0 0 1 31 143 1181 0 31 142 20 0 -.027 .027 .005 0 0 -1 -1 0 0
 .003 16 31 1179 0 ?25 24 39 143 0 0 1 31 20 1186 0 24 143 7 0 -.027 .003 .005 0
 0 -1 -1 0 0 .003 16 24 1184 0 ?52 10 31 20 0 0 1 17 52 0 27 29 40 50 144 24 0 1
45 +15 27 4 0 40 16 146 17 29 0 27 25 52 47 145 147 0 30 +17 40 0 27 52 69 26 36
 148 0 144 +17 144 0 149 38 150 26 52 24 0 0 -17 145 0 151 138 49 50 29 147 0 15
0 -15 151 1000 0 145 152 0 17 138 0 151 153 145 56 150 136 0 109 +17 49 0 151 14
5 153 47 154 134 0 29 +16 147 1137 0 ?29 155 156 157 0 0 1 17 150 0 149 144 58 5
0 138 136 0 0 -15 149 1204 0 144 158 0 17 58 0 149 150 38 56 46 141 0 138 -17 38
 0 149 58 144 42 33 39 0 0 -17 46 0 92 112 109 42 58 141 0 37 +17 112 0 92 78 46
 70 37 113 0 0 -17 109 0 92 46 55 56 153 156 0 0 -17 37 0 35 33 128 42 112 113 0
 38 +15 35 87 0 37 159 0 17 128 0 35 37 36 70 160 126 0 112 +17 36 0 35 128 33 6
7 40 148 0 160 -17 160 0 161 162 72 67 128 126 0 0 -15 161 551 0 162 163 0 17 16
2 0 161 103 160 61 69 107 0 0 -17 72 0 161 160 103 70 78 95 0 128 -17 103 0 161
 72 162 76 63 106 0 0 -17 63 0 98 100 99 61 103 106 0 104 +17 104 0 27 69 66 61
 100 105 0 162 +17 69 0 27 40 104 67 162 107 0 36 +17 66 0 27 104 28 64 87 129 0
 100 +16 105 463 0 ?104 148 116 164 0 0 1 16 148 447 0 ?40 96 105 122 0 0 1 30 1
64 7 0 105 165 122 0 +0 0 .005 0 -1 0 31 165 147 0 119 120 164 0 +.003 .027 0 0
 0 1 1 0 0 .00125 30 122 11 0 148 164 121 0 +0 0 .005 1 0 0 16 119 125 0 ?166 11
4 167 165 0 0 1 31 120 148 0 114 168 165 0 +.003 .027 .005 0 0 1 1 0 0 .00125 31
 168 185 0 169 170 120 0 +.003 .003 0 0 0 1 1 0 0 .00125 16 169 163 0 ?171 167 1
72 168 0 0 1 31 170 186 0 167 173 168 0 +.003 .003 .005 0 0 1 1 0 0 .00125 16 16
7 166 0 ?174 119 169 170 0 0 1 31 173 223 0 175 176 170 0 +.027 .027 0 0 0 1 1 0
 0 .00125 16 175 201 0 ?177 172 178 173 0 0 1 31 176 224 0 172 179 173 0 +.027 .
027 .005 0 0 1 1 0 0 .00125 16 172 204 0 ?180 169 175 176 0 0 1 31 179 261 0 181
 182 176 0 +.027 .003 0 0 0 1 1 0 0 .00125 16 181 239 0 ?183 178 184 179 0 0 1 3
1 182 262 0 178 185 179 0 +.027 .003 .005 0 0 1 1 0 0 .00125 16 178 242 0 ?186 1
75 181 182 0 0 1 31 185 672 0 187 188 182 0 +.015 .015 0 0 0 -1 -1 0 0 .003 16 1
87 653 0 ?189 184 190 185 0 0 1 31 188 673 0 184 191 185 0 +.015 .015 .001 0 0 -
1 -1 0 0 .003 16 184 650 0 ?192 181 187 188 0 0 1 31 191 719 0 155 193 188 0 +.0
15 .015 .001 0 0 -1 -1 0 0 .0015 16 155 700 0 ?194 190 147 191 0 0 1 31 193 720
 0 190 195 191 0 +.015 .015 .005 0 0 -1 -1 0 0 .0015 16 190 697 0 ?196 187 155 1
93 0 0 1 30 195 1044 0 156 157 193 0 +.03 .03 0 2312964634635745e-31 1 0 16 156
 1131 0 ?153 147 197 195 0 0 1 30 157 1048 0 147 198 195 0 +.03 .03 .005 2312964
634635745e-31 1 0 31 198 1325 0 199 200 157 0 +.009 0 .0025 0 -1 0 0 0 -1 .00125
 16 199 1301 0 ?201 202 0 198 0 0 1 31 200 1326 0 202 203 198 0 +.009 .03 .0025
 0 -1 0 0 0 -1 .00125 16 202 1298 0 ?204 205 199 200 0 0 1 31 203 1327 0 205 206
 200 0 +.021 0 .0025 0 -1 0 0 0 -1 .00125 16 205 1283 0 ?207 197 202 203 0 0 1 3
1 206 1328 0 197 0 203 0 +.021 .03 .0025 0 -1 0 0 0 -1 .00125 16 197 1280 0 ?208
 156 205 206 0 0 1 17 208 0 209 208 208 0 210 197 0 0 +15 209 1262 0 208 211 212
 17 210 0 213 210 210 0 208 197 0 0 -15 213 1289 0 210 214 215 14 214 1286 216 ?
0 217 213 5 218 -0 0 0 217 22 15 215 1290 0 207 214 0 17 207 0 215 207 207 0 219
 205 0 0 +17 219 0 220 219 219 0 207 205 0 0 -15 220 1274 0 219 159 221 14 159 8
8 222 ?211 101 220 5 223 -0 0 211 101 22 15 221 1268 0 224 159 35 17 224 0 221 2
24 224 0 201 199 0 0 -17 201 0 225 201 201 0 224 199 0 0 +15 225 1308 0 201 217
 0 14 217 1304 226 ?214 18 227 5 228 -0 0 214 18 22 81 1 226 1477 229 217 230 0
 222 231 232 14 18 1224 231 ?217 158 233 5 6 +0 0 217 158 22 15 227 1307 0 234 2
17 225 51 228 1319 0 217 218 235 0 +.009 .03 .0025 0 -1 0 .00125 0 0 -1 13 22 34
 0 0 0 0 0 0 9 16 14 16 312 236 ?110 0 237 5 238 -0 0 110 0 22 81 1 236 1479 229
 16 239 0 231 240 241 14 110 306 240 ?101 16 92 5 242 +0 0 101 16 22 15 237 686
 0 196 16 27 50 238 3 0 16 243 242 0 +0 0 .005 0 0 -1 -1 0 0 51 243 144 0 244 24
5 238 0 -.003 .027 .005 0 0 -1 .00125 -1 0 0 50 242 70 0 110 238 246 0 +0 0 0 0
 0 -1 -1 0 0 50 246 91 0 211 242 223 0 +0 .03 .005 0 -1 0 0 0 -1 14 211 84 247 ?
244 159 209 5 246 -0 0 244 159 22 50 223 93 0 159 246 248 0 +0 0 .005 0 1 0 0 0
 1 50 248 94 0 101 223 249 0 +0 0 .005 1 0 0 0 0 -1 14 101 90 250 ?159 110 98 5
 248 -0 0 159 110 22 51 249 562 0 163 248 251 0 +.003 .003 .005 0 0 -1 .003 -1 0
 0 14 163 550 252 ?88 253 161 5 249 +0 0 88 253 22 51 251 583 0 88 249 19 0 +.00
3 .027 .005 0 0 -1 .003 -1 0 0 14 88 571 254 ?255 163 81 5 251 +0 0 255 163 22 5
1 19 1215 0 158 251 6 0 +.027 .003 .005 0 0 -1 .003 -1 0 0 14 158 1203 256 ?18 1
52 149 5 19 +0 0 18 152 22 81 1 256 1485 229 158 257 0 254 258 259 14 152 997 25
8 ?158 260 151 5 235 -0 0 158 260 22 81 1 258 1486 229 152 261 0 256 262 263 14
 260 703 262 ?152 264 265 5 266 -0 0 152 264 22 50 235 1019 0 152 228 266 0 +.03
 .03 .005 -1 2312964634635745e-31 0 -2312964634635745e-31 -1 0 51 266 716 0 260
 235 267 0 +.015 .015 .005 0 0 -1 .0015 -1 0 0 50 267 671 0 264 266 268 0 +.015
 .015 .001 0 0 -1 -1 0 0 14 264 661 269 ?260 255 270 5 267 +0 0 260 255 22 51 26
8 669 0 255 267 271 0 +.015 .015 .001 0 0 -1 .003 -1 0 0 14 255 656 272 ?264 88
 273 5 268 -0 0 264 88 22 51 271 258 0 253 268 274 0 -.027 .003 .005 0 0 -1 .001
25 -1 0 0 14 253 245 275 ?163 276 277 5 271 +0 0 163 276 22 51 274 220 0 276 271
 245 0 -.027 .027 .005 0 0 -1 .00125 -1 0 0 14 276 207 278 ?253 279 280 5 274 +0
 0 253 279 22 51 245 182 0 279 274 243 0 -.003 .003 .005 0 0 -1 .00125 -1 0 0 14
 279 169 281 ?276 244 282 5 245 +0 0 276 244 22 81 1 281 1492 229 279 283 0 278
 284 285 14 244 131 284 ?279 211 286 5 243 +0 0 279 211 22 15 282 172 0 174 279
 287 17 174 0 282 174 174 0 288 167 0 0 +15 287 173 0 289 279 0 17 289 0 287 289
 289 0 171 169 0 0 -17 171 0 290 171 171 0 289 169 0 0 +15 290 151 0 171 110 291
 15 291 227 0 183 110 0 17 183 0 291 183 183 0 292 181 0 0 +17 292 0 293 292 292
 0 183 181 0 0 -15 293 249 0 292 253 0 17 288 0 294 288 288 0 174 167 0 0 -15 29
4 158 0 288 16 295 15 295 196 0 296 16 297 17 296 0 295 296 296 0 180 172 0 0 -1
5 297 234 0 298 16 0 17 298 0 297 298 298 0 186 178 0 0 -17 186 0 277 186 186 0
 298 178 0 0 +15 277 248 0 186 253 293 17 180 0 280 180 180 0 296 172 0 0 +15 28
0 210 0 180 276 299 15 299 211 0 300 276 0 17 300 0 299 300 300 0 177 175 0 0 -1
7 177 0 301 177 177 0 300 175 0 0 +15 301 189 0 177 110 302 15 302 113 0 166 110
 290 17 166 0 302 166 166 0 303 119 0 0 +17 303 0 304 303 303 0 166 119 0 0 -15
 304 135 0 303 244 0 81 1 284 1493 229 244 305 0 281 0 306 15 286 134 0 118 244
 304 17 118 0 286 118 118 0 307 114 0 0 +17 307 0 146 307 307 0 118 114 0 0 -15
 146 120 0 307 16 294 80 1 229 308 309 9000 1 1 1 1 1 1 1 1 0 FFFFTFTFFFFFFF1 81
 1 305 1420 310 244 0 284 311 283 312 82 1 306 -960167803 80 1 310 0 313 8001 0
 0 0 0 3 5 0 0 0 FFFFTFTFFFFFFF2 81 1 311 1419 310 211 0 247 314 305 315 81 1 28
3 1421 310 279 0 281 305 316 317 83 3 312 1 1 1 81 1 316 1422 310 276 0 278 283
 318 319 83 3 317 1 1 1 81 1 278 1491 229 276 316 0 275 281 320 81 1 318 1423 31
0 253 0 275 316 321 322 83 3 319 1 1 1 81 1 275 1490 229 253 318 0 272 278 323 8
1 1 321 1424 310 163 0 252 318 324 325 83 3 322 1 1 1 81 1 252 1483 229 163 321
 0 250 254 326 81 1 324 1425 310 88 0 254 321 327 328 83 3 325 1 1 1 81 1 254 14
84 229 88 324 0 252 256 329 81 1 327 1426 310 255 0 272 324 330 331 83 3 328 1 1
 1 81 1 272 1489 229 255 327 0 269 275 332 81 1 330 1427 310 264 0 269 327 333 3
34 83 3 331 1 1 1 81 1 269 1488 229 264 330 0 262 272 335 81 1 333 1428 310 260
 0 262 330 261 336 83 3 334 1 1 1 81 1 262 1487 229 260 333 0 258 269 337 81 1 2
61 1429 310 152 0 258 333 257 338 83 3 336 1 1 1 81 1 257 1430 310 158 0 256 261
 339 340 83 3 338 1 1 1 81 1 339 1431 310 18 0 231 257 230 341 83 3 340 1 1 1 81
 1 231 1478 229 18 339 0 226 236 342 81 1 230 1432 310 217 0 226 339 343 344 83
 3 341 1 1 1 81 1 343 1433 310 214 0 216 230 0 345 83 3 344 1 1 1 81 1 216 1475
 229 214 343 0 0 222 346 83 3 345 1 1 1 81 1 222 1476 229 159 314 0 216 226 347
 82 1 346 1410269341 81 1 314 1418 310 159 0 222 348 311 349 82 1 347 -965279587
 81 1 348 1417 310 101 0 250 350 314 351 83 3 349 1 1 1 81 1 250 1482 229 101 34
8 0 247 252 352 81 1 350 1416 310 110 0 240 239 348 353 83 3 351 1 1 1 81 1 240
 1480 229 110 350 0 236 247 354 81 1 239 1415 310 16 0 236 0 350 355 83 3 353 1
 1 1 83 3 355 1 1 1 81 1 247 1481 229 211 311 0 240 250 356 82 1 354 -931594087
 82 1 356 -965803875 82 1 352 -965017466 82 1 342 -405536615 82 1 337 -874970998
 82 1 335 -887488374 82 1 332 -885522296 82 1 329 -920780666 82 1 326 -922746746
 82 1 323 -947978107 82 1 320 -952041339 83 3 315 1 1 1 79 15 313 SDL/TYSA_COLOU
R79 14 309 SWEntUnchanged82 1 285 -956104571 15 273 659 0 357 255 358 17 357 0 2
73 357 357 0 192 184 0 0 -15 358 660 0 189 255 0 17 189 0 358 189 189 0 359 187
 0 0 +17 359 0 111 359 359 0 189 187 0 0 -15 111 645 0 359 110 301 17 192 0 360
 192 192 0 357 184 0 0 +15 360 663 0 192 264 0 15 270 693 0 361 264 360 17 361 0
 270 361 361 0 194 155 0 0 -17 194 0 362 194 194 0 361 155 0 0 +15 362 707 0 194
 260 0 15 265 706 0 363 260 362 17 363 0 265 363 363 0 196 190 0 0 -17 196 0 237
 196 196 0 363 190 0 0 +82 1 263 -497221479 82 1 259 -407502695 82 1 241 -931069
799 51 218 1322 0 214 0 228 0 +.021 .03 .0025 0 -1 0 .00125 0 0 -1 17 234 0 227
 234 234 0 204 202 0 0 -17 204 0 212 204 204 0 234 202 0 0 +15 212 1256 0 204 21
1 364 15 364 83 0 32 211 0 17 32 0 364 23 90 11 28 96 0 365 -17 23 0 364 75 32 3
4 365 10 0 93 +17 90 0 364 32 75 59 83 91 0 87 +17 28 0 27 66 25 59 32 96 0 90 +
16 96 1177 0 ?28 85 148 121 0 0 1 17 365 0 233 30 41 11 23 10 0 0 -15 233 1225 0
 30 18 0 17 30 0 233 154 365 47 25 31 0 0 -17 41 0 233 365 154 34 55 139 0 23 -1
7 154 0 233 41 30 53 49 134 0 0 -17 55 0 92 109 93 53 41 139 0 153 +17 93 0 92 5
5 84 34 75 116 0 0 -17 153 0 151 49 138 53 109 156 0 154 +17 75 0 364 90 23 73 9
3 116 0 84 +17 87 0 81 83 82 59 66 129 0 0 -82 1 232 1414267037 19 17 100 0 1 0
 9 5 S74 20 15 10 0 0 366 367 284 368 369 370 371 343 13 2 0 0 0 0 0 0 0 0 0 0 8
1 2 366 111 372 1 0 367 0 0 0 373 81 2 367 368 374 1 366 368 0 0 0 375 81 1 368
 1341 376 1 367 369 0 0 377 81 2 369 1362 378 1 368 370 0 0 0 379 81 2 370 1411
 380 1 369 371 0 0 381 0 81 2 371 1412 382 1 370 13 0 0 0 0 81 2 13 1473 383 1 3
71 2 0 0 384 0 80 2 383 385 386 8004 0 0 0 0 3 5 0 0 0 FFTFFFFFFFFFFF2 3 83 1 38
4 1190 79 16 386 SDL/TYSA_DENSITY80 2 382 387 388 9000 0 0 0 0 3 5 0 0 0 FFTFFFF
FFFFFFF9 1 79 16 388 BODY_RECIPE_200180 2 380 389 390 9000 0 0 0 0 3 5 0 0 0 FFT
FTTTFFTFFFF3 3 84 11 381 ??? - ????579 21 390 SWIMPLICITBODYNAME_ID80 2 378 391
 392 9000 0 0 0 0 3 5 0 0 0 FFTFFFFFFFFFFF9 1 82 1 379 1 79 24 392 BODY_IN_LIGHT
WEIGHT_PERM80 1 376 393 394 9000 1 1 1 1 1 1 1 1 0 FFTFFFFFFFFFFF1 82 1 377 2473
05 79 10 394 BODY_MATCH80 2 374 395 396 9000 0 0 0 0 3 5 0 0 0 FFTFFFFFFFFFFF9 1
 82 1 375 149 79 30 396 LAST_BODY_MODIFYING_FEATURE_ID80 2 372 397 398 9000 0 0
 0 0 3 5 0 0 0 FFTFFFFFFFFFFT9 1 82 1 373 153 79 19 398 ENT_TIME_STAMP_200180 2
 12 399 400 9000 0 0 0 0 3 5 0 0 0 FFTFFFFFFFFFFF9 1 82 1 14 107 79 12 400 ATOM_
ID_20011 0 
