**ABCDEFGHIJKLMNOPQRSTUVWXYZabcdefghijklmnopqrstuvwxyz**************************
**PARASOLID !"#$%&'()*+,-./:;<=>?@[\]^_`{|}~0123456789**************************
**PART1;
MC=AMD64;
MC_MODEL=Intel64 Family 6 Model 158 Stepping 9, GenuineIntel;
MC_ID=unknown;
OS=Windows_NT;
OS_RELEASE=unknown;
FRU=Parasolid Version 34.1, build 225,  5-24-2022;
APPL=SOLIDWORKS 2023-2022300;
SITE=;
USER=unknown;
FORMAT=text;
GUISE=transmit;
KEY=PC obj11sv;
FILE=PC obj11sv.x_t;
DATE=Wed Feb 14 12:08:02 2024;
**PART2;
SCH=SCH_3401225_34101;
USFLD_SIZE=0;
**PART3;
**END_OF_HEADER*****************************************************************
T51 : TRANSMIT FILE created by modeller version 340122517 SCH_2100000_200000 12
 1 2812 2 3 0 0 0 0 1e3 1e-8 0 4 0 1 0 1 1 5 6 7 8 9 10 11 0 0 0 0 81 2 2 2767 1
2 1 13 0 0 0 0 14 70 3 0 4 T1 0 0 10 20 1 15 15 13 5 435 0 1 0 16 0 0 17 0 51 6
 2506 0 18 19 0 0 +.033 .001 0 0 0 1 .001 1 0 0 30 7 2461 0 10 20 0 0 -.033 -173
4723475976805e-33 .005 0 0 1 29 8 2443 0 11 21 0 .033 -1734723475976805e-33 0 19
 9 145 0 1 17 0 22 V16 10 2459 0 ?23 0 24 7 0 0 1 18 11 2441 0 23 0 25 8 ?1 17 2
3 0 26 27 28 11 29 10 0 30 +18 25 2438 0 31 11 32 21 ?1 17 31 0 33 34 30 25 35 3
6 0 37 +18 32 2430 0 38 25 39 40 ?1 29 21 2440 0 25 40 8 .032 .001 0 29 40 2432
 0 32 41 21 .02 .001 0 29 41 2419 0 39 42 40 .033 -1734723475976805e-33 .005 18
 39 2417 0 43 32 44 41 ?1 29 42 2416 0 44 45 41 .032 .001 .005 18 44 2414 0 46 3
9 47 42 ?1 29 45 2413 0 47 48 42 .02 .001 .005 18 47 2411 0 49 44 50 45 ?1 29 48
 2405 0 50 51 45 .019 -1734723475976805e-33 .005 18 50 2403 0 52 47 53 48 ?1 29
 51 2402 0 53 54 48 .019 -1734723475976805e-33 0 18 53 2400 0 55 50 56 51 ?1 29
 54 2311 0 56 57 51 .02 .026 0 18 56 2309 0 58 53 59 54 ?1 29 57 2308 0 59 60 54
 .02 .026 .005 18 59 2306 0 61 56 62 57 ?1 29 60 2300 0 62 63 57 .032 .026 0 18
 62 2298 0 34 59 64 60 ?1 29 63 2297 0 64 65 60 .032 .026 .005 18 64 2295 0 66 6
2 67 63 ?1 29 65 2284 0 67 68 63 .021 .027 0 18 67 2282 0 69 64 70 65 ?1 29 68 2
281 0 70 71 65 .031 .027 0 18 70 2279 0 72 67 73 68 ?1 29 71 2278 0 73 74 68 .02
1 .027 .005 18 73 2276 0 75 70 76 71 ?1 29 74 2275 0 76 77 71 .031 .027 .005 18
 76 2273 0 78 73 79 74 ?1 29 77 2073 0 79 80 74 .0719 .052 .005 18 79 2070 0 81
 76 82 77 ?1 29 80 2064 0 82 83 77 .0719 .052 0 18 82 2062 0 84 79 85 80 ?1 29 8
3 2055 0 85 86 80 .0709 .053 0 18 85 2053 0 87 82 88 83 ?1 29 86 2052 0 88 89 83
 .0709 .053 .005 18 88 2050 0 90 85 91 86 ?1 29 89 1168 0 91 92 86 .032 .062 .00
5 18 91 1166 0 93 88 94 89 ?1 29 92 1165 0 94 95 89 .032 .049 .005 18 94 1163 0
 96 91 97 92 ?1 29 95 1162 0 97 98 92 .033 .048 .005 18 97 1160 0 99 94 100 95 ?
1 29 98 1159 0 100 101 95 .0449 .048 .005 18 100 1157 0 102 97 103 98 ?1 29 101
 1156 0 103 104 98 .0459 .049 .005 18 103 1154 0 105 100 106 101 ?1 29 104 1153
 0 106 107 101 .0459 .052 .005 18 106 1151 0 108 103 109 104 ?1 29 107 1150 0 10
9 110 104 .0469 .053 .005 18 109 1148 0 111 106 112 107 ?1 29 110 1129 0 112 113
 107 .0719 .001 .005 18 112 1127 0 114 109 115 110 ?1 29 113 1126 0 115 116 110
 .0709 -1734723475976805e-33 .005 18 115 1124 0 117 112 118 113 ?1 29 116 1123 0
 118 119 113 .0689 -.004 .005 18 118 1121 0 120 115 121 116 ?1 29 119 1120 0 121
 122 116 .0679 -.005 .005 18 121 1118 0 123 118 124 119 ?1 29 122 1117 0 124 125
 119 .0639 -.005 .005 18 124 1115 0 126 121 127 122 ?1 29 125 1114 0 127 128 122
 .0629 -.004 .005 18 127 1112 0 129 124 130 125 ?1 29 128 1111 0 130 131 125 .00
6 -.004 .005 18 130 1109 0 132 127 133 128 ?1 29 131 1108 0 133 134 128 .005 -.0
05 .005 18 133 1106 0 135 130 136 131 ?1 29 134 1105 0 136 137 131 .001 -.005 .0
05 18 136 1103 0 138 133 139 134 ?1 29 137 1102 0 139 140 134 489858719658941e-3
3 -.004 .005 18 139 1100 0 141 136 142 137 ?1 29 140 1099 0 142 143 137 -5755839
95599256e-32 .047 .005 18 142 1097 0 144 139 145 140 ?1 29 143 1086 0 145 146 14
0 .021 .063 .005 18 145 1084 0 147 142 148 143 ?1 29 146 1083 0 148 149 143 .031
 .063 .005 18 148 1081 0 150 145 151 146 ?1 29 149 1025 0 151 152 146 .006 -.004
 0 18 151 1023 0 153 148 154 149 ?1 29 152 1022 0 154 155 149 .0629 -.004 0 18 1
54 1020 0 156 151 157 152 ?1 29 155 1019 0 157 158 152 .0679 -.005 0 18 157 1017
 0 159 154 160 155 ?1 29 158 1016 0 160 161 155 .0639 -.005 0 18 160 1014 0 162
 157 163 158 ?1 29 161 1013 0 163 164 158 .0689 -.004 0 18 163 1011 0 165 160 16
6 161 ?1 29 164 1010 0 166 167 161 .0709 -1734723475976805e-33 0 18 166 1008 0 1
68 163 169 164 ?1 29 167 1004 0 169 170 164 .0719 .001 0 18 169 1002 0 171 166 1
72 167 ?1 29 170 989 0 172 173 167 .0469 .053 0 18 172 987 0 174 169 175 170 ?1
 29 173 983 0 175 176 170 .0459 .049 0 18 175 981 0 177 172 178 173 ?1 29 176 98
0 0 178 179 173 .0459 .052 0 18 178 978 0 180 175 181 176 ?1 29 179 977 0 181 18
2 176 .033 .048 0 18 181 975 0 183 178 184 179 ?1 29 182 974 0 184 185 179 .0449
 .048 0 18 184 972 0 186 181 187 182 ?1 29 185 971 0 187 188 182 .032 .062 0 18
 187 969 0 189 184 190 185 ?1 29 188 968 0 190 191 185 .032 .049 0 18 190 966 0
 192 187 193 188 ?1 29 191 965 0 193 194 188 .021 .063 0 18 193 963 0 195 190 19
6 191 ?1 29 194 962 0 196 197 191 .031 .063 0 18 196 960 0 198 193 199 194 ?1 29
 197 959 0 199 200 194 0 -.004 0 18 199 957 0 201 196 202 197 ?1 29 200 956 0 20
2 203 197 0 .047 0 18 202 954 0 204 199 205 200 ?1 29 203 953 0 205 206 200 .005
 -.005 0 18 205 951 0 207 202 208 203 ?1 29 206 950 0 208 209 203 .001 -.005 0 1
8 208 948 0 210 205 211 206 ?1 29 209 937 0 211 212 206 .02 .049 .005 18 211 935
 0 213 208 214 209 ?1 29 212 934 0 214 215 209 .02 .062 .005 18 214 932 0 216 21
1 217 212 ?1 29 215 931 0 217 218 212 .02 .049 0 18 217 929 0 219 214 220 215 ?1
 29 218 928 0 220 221 215 .02 .062 0 18 220 926 0 222 217 223 218 ?1 29 221 915
 0 223 224 218 .001 .048 .005 18 223 913 0 225 220 226 221 ?1 29 224 912 0 226 2
27 221 .019 .048 .005 18 226 910 0 228 223 229 224 ?1 29 227 909 0 229 230 224 .
001 .048 0 18 229 907 0 231 226 232 227 ?1 29 230 906 0 232 233 227 .019 .048 0
 18 232 904 0 234 229 235 230 ?1 29 233 328 0 236 237 230 .0689 -173472347597680
5e-33 0 18 236 287 0 238 239 240 233 ?1 29 237 331 0 240 241 233 .0629 -17347234
75976805e-33 0 18 240 290 0 27 236 242 237 ?1 29 241 332 0 242 243 237 .006 -173
4723475976805e-33 0 18 242 291 0 244 240 0 241 ?1 29 243 105 0 235 245 241 .0689
 -1734723475976805e-33 .005 18 235 103 0 246 232 247 243 ?1 29 245 96 0 247 248
 243 .0629 -1734723475976805e-33 .005 18 247 94 0 249 235 239 245 ?1 29 248 93 0
 239 0 245 .006 -1734723475976805e-33 .005 18 239 91 0 250 247 236 248 ?1 17 250
 0 251 252 132 239 253 254 0 255 +15 251 2163 0 252 256 257 17 252 0 251 49 250
 50 258 259 0 0 +17 132 0 251 250 260 130 261 262 0 253 +17 253 0 263 264 255 13
0 250 254 0 265 -16 254 1110 0 ?250 266 267 268 0 0 1 17 255 0 263 253 244 239 2
69 270 0 258 -15 263 389 0 253 271 0 17 244 0 263 255 264 242 272 273 0 269 +17
 269 0 274 275 258 242 255 270 0 276 +16 270 352 0 ?269 277 278 279 0 0 1 17 258
 0 274 269 280 239 252 259 0 0 -15 274 2132 0 275 16 0 17 280 0 274 258 275 50 2
81 282 0 252 +16 259 17 0 ?252 283 266 284 266 266 1 16 283 21 0 ?285 286 259 28
7 0 0 1 16 266 2418 0 ?249 259 254 284 259 259 1 30 284 19 0 259 268 287 0 +.006
 -1734723475976805e-33 .005 1 0 0 30 268 15 0 254 288 284 0 +.006 -1734723475976
805e-33 .005 -173472347597681e-30 1 0 30 287 23 0 283 284 289 0 +.0629 -17347234
75976805e-33 .005 0 -1 0 30 289 27 0 286 287 290 0 +.0629 -.005 .005 1 -14456028
96647338e-31 0 16 286 1116 0 ?291 292 283 289 0 0 1 30 290 31 0 292 289 293 0 +.
0689 -1734723475976805e-33 .005 0 1 0 16 292 1122 0 ?246 294 286 290 0 0 1 30 29
3 35 0 294 290 295 0 +.0689 -1734723475976805e-33 .005 1 0 0 16 294 33 0 ?296 29
7 292 293 0 0 1 30 295 51 0 298 293 299 0 +.0719 .053 .005 -1 0 0 16 298 2051 0
 ?111 300 297 295 0 0 1 30 299 59 0 300 295 301 0 +.0459 .048 .005 0 -1 0 16 300
 1152 0 ?302 303 298 299 0 0 1 30 301 63 0 303 299 304 0 +.032 .048 .005 -1 0 0
 16 303 1158 0 ?305 306 300 301 0 0 1 30 304 67 0 306 301 307 0 +.032 .048 .005
 0 1 0 16 306 1164 0 ?308 309 303 304 0 0 1 30 307 71 0 309 304 310 0 +.02 .063
 .005 -1 0 0 16 309 1082 0 ?311 312 306 307 0 0 1 30 310 75 0 312 307 313 0 +.02
 .048 .005 0 -1 0 16 312 933 0 ?314 315 309 310 0 0 1 30 313 79 0 315 310 316 0
 +0 .048 .005 -1 0 0 16 315 911 0 ?317 318 312 313 0 0 1 30 316 313 0 319 313 32
0 0 +612323399573677e-33 -.005 0 1 0 0 16 319 949 0 ?321 273 322 316 0 0 1 30 32
0 312 0 273 316 323 0 +.006 -1734723475976805e-33 0 -173472347597681e-30 1 0 16
 273 1024 0 ?244 324 319 320 0 0 1 30 323 311 0 325 320 326 0 +.006 -17347234759
76805e-33 0 1 0 0 16 325 258 0 ?275 327 324 323 324 324 1 30 326 310 0 327 323 3
28 0 +.0629 -1734723475976805e-33 0 0 -1 0 16 327 254 0 ?329 330 325 326 0 0 1 3
0 328 309 0 330 326 331 0 +.0629 -.005 0 1 -1445602896647338e-31 0 16 330 1015 0
 ?332 333 327 328 0 0 1 30 331 308 0 333 328 334 0 +.0689 -1734723475976805e-33
 0 0 1 0 16 333 1012 0 ?238 335 330 331 0 0 1 30 334 307 0 335 331 336 0 +.0689
 -1734723475976805e-33 0 1 0 0 16 335 242 0 ?337 338 333 334 0 0 1 30 336 306 0
 338 334 339 0 +.0719 -1734723475976805e-33 0 0 1 0 16 338 1003 0 ?340 341 335 3
36 0 0 1 30 339 302 0 341 336 342 0 +.0459 .053 0 -1 0 0 16 341 2054 0 ?174 343
 338 339 0 0 1 30 342 301 0 343 339 344 0 +.0459 .048 0 0 -1 0 16 343 979 0 ?345
 346 341 342 0 0 1 30 344 300 0 346 342 347 0 +.032 .048 0 -1 0 0 16 346 973 0 ?
348 349 343 344 0 0 1 30 347 299 0 349 344 350 0 +.032 .048 0 0 1 0 16 349 967 0
 ?351 352 346 347 0 0 1 30 350 298 0 352 347 353 0 +.02 .063 0 -1 0 0 16 352 961
 0 ?354 355 349 350 0 0 1 30 353 297 0 355 350 356 0 +.02 .048 0 0 -1 0 16 355 9
27 0 ?357 358 352 353 0 0 1 30 356 296 0 358 353 359 0 +0 .048 0 -1 0 0 16 358 9
05 0 ?360 361 355 356 0 0 1 30 359 295 0 361 356 362 0 +0 0 0 0 -1 0 16 361 955
 0 ?363 364 358 359 0 0 1 30 362 428 0 318 359 365 0 +.0689 -1734723475976805e-3
3 .005 0 0 -1 16 318 348 0 ?366 278 315 362 0 0 1 30 365 431 0 278 362 279 0 +.0
629 -1734723475976805e-33 .005 0 0 -1 16 278 351 0 ?367 270 318 365 0 0 1 30 279
 432 0 270 365 368 0 +.006 -1734723475976805e-33 .005 0 0 -1 30 368 918 0 277 27
9 369 0 -.001 .048 .005 0 0 -1 16 277 916 0 ?225 370 270 368 0 0 1 30 369 923 0
 370 368 371 0 +.019 .048 0 0 0 -1 16 370 921 0 ?372 373 277 369 0 0 1 30 371 94
0 0 373 369 374 0 +.02 .062 .005 0 0 -1 16 373 938 0 ?375 376 370 371 0 0 1 30 3
74 945 0 376 371 377 0 -.02 .049 .005 0 0 -1 16 376 943 0 ?213 378 373 374 0 0 1
 31 377 1038 0 378 374 379 0 -.0709 .001 0 0 0 1 1 0 0 .001 16 378 1036 0 ?168 3
80 376 377 0 0 1 31 379 1043 0 380 377 381 0 -.0679 -.004 0 0 0 1 1 0 0 .001 16
 380 1041 0 ?159 382 378 379 0 0 1 31 381 1048 0 382 379 383 0 -.0639 -.004 0 0
 0 1 1 0 0 .001 16 382 1046 0 ?156 384 380 381 0 0 1 31 383 1053 0 384 381 385 0
 -.005 -.004 0 0 0 1 1 0 0 .001 16 384 1051 0 ?207 386 382 383 0 0 1 31 385 1058
 0 386 383 387 0 -.001 -.004 0 0 0 1 1 0 0 .001 16 386 1056 0 ?201 388 384 385 0
 0 1 31 387 1063 0 388 385 389 0 -.001 .047 0 0 0 1 1 0 0 .001 16 388 1061 0 ?23
1 390 386 387 0 0 1 31 389 1068 0 390 387 391 0 -.0469 .052 0 0 0 1 1 0 0 .001 1
6 390 1066 0 ?392 393 388 389 0 0 1 31 391 1073 0 393 389 394 0 -.031 .062 0 0 0
 1 1 0 0 .001 16 393 1071 0 ?189 395 390 391 0 0 1 31 394 1078 0 395 391 396 0 -
.021 .062 0 0 0 1 1 0 0 .001 16 395 1076 0 ?195 397 393 394 0 0 1 30 396 1089 0
 397 394 398 0 +.031 .063 .005 0 0 -1 16 397 1087 0 ?399 400 395 396 0 0 1 30 39
8 1094 0 400 396 401 0 -.021 .063 .005 0 0 -1 16 400 1092 0 ?147 402 397 398 0 0
 1 31 401 1181 0 402 398 403 0 +.0709 .001 .005 0 0 1 1 0 0 .001 16 402 1179 0 ?
114 404 400 401 0 0 1 31 403 1186 0 404 401 405 0 +.0679 -.004 .005 0 0 1 1 0 0
 .001 16 404 1184 0 ?120 406 402 403 0 0 1 31 405 1191 0 406 403 407 0 +.0639 -.
004 .005 0 0 1 1 0 0 .001 16 406 1189 0 ?126 262 404 405 0 0 1 31 407 1196 0 262
 405 408 0 +.005 -.004 .005 0 0 1 1 0 0 .001 16 262 1194 0 ?132 409 406 407 0 0
 1 31 408 1201 0 409 407 410 0 +.001 -.004 .005 0 0 1 1 0 0 .001 16 409 1199 0 ?
138 411 262 408 0 0 1 31 410 1206 0 411 408 412 0 +.001 .047 .005 0 0 1 1 0 0 .0
01 16 411 1204 0 ?144 413 409 410 0 0 1 31 412 1211 0 413 410 414 0 +.0469 .052
 .005 0 0 1 1 0 0 .001 16 413 1209 0 ?108 415 411 412 0 0 1 31 414 1216 0 415 41
2 416 0 +.031 .062 .005 0 0 1 1 0 0 .001 16 415 1214 0 ?150 417 413 414 0 0 1 31
 416 1221 0 417 414 418 0 +.021 .062 .005 0 0 1 1 0 0 .001 16 417 1219 0 ?216 41
9 415 416 0 0 1 30 418 1226 0 419 416 420 0 +.032 .049 0 0 0 -1 16 419 1224 0 ?4
21 422 417 418 0 0 1 30 420 1231 0 422 418 423 0 -.032 .062 .005 0 0 -1 16 422 1
229 0 ?93 424 419 420 0 0 1 30 423 1236 0 424 420 425 0 +.0449 .048 0 0 0 -1 16
 424 1234 0 ?426 427 422 423 0 0 1 30 425 1241 0 427 423 428 0 -.033 .048 .005 0
 0 -1 16 427 1239 0 ?99 429 424 425 0 0 1 30 428 1246 0 429 425 430 0 +.0459 .05
2 .005 0 0 -1 16 429 1244 0 ?431 432 427 428 0 0 1 30 430 1251 0 432 428 433 0 -
.0459 .049 .005 0 0 -1 16 432 1249 0 ?105 434 429 430 0 0 1 30 433 1262 0 434 43
0 435 0 -.0469 .053 .005 0 0 -1 16 434 1260 0 ?436 437 432 433 0 0 1 30 435 1268
 0 437 433 438 0 -0 -.004 .005 0 0 -1 16 437 1266 0 ?141 439 434 435 0 0 1 30 43
8 1274 0 439 435 440 0 +0 .047 .005 0 0 -1 16 439 1272 0 ?441 442 437 438 0 0 1
 30 440 1280 0 442 438 443 0 -.005 -.005 .005 0 0 -1 16 442 1278 0 ?135 444 439
 440 0 0 1 30 443 1285 0 444 440 445 0 +.001 -.005 .005 0 0 -1 16 444 1283 0 ?44
6 447 442 443 0 0 1 30 445 1290 0 447 443 448 0 +.006 -.004 .005 0 0 -1 16 447 1
288 0 ?264 449 444 445 0 0 1 30 448 1295 0 449 445 450 0 -.0679 -.005 .005 0 0 -
1 16 449 1293 0 ?123 451 447 448 0 0 1 30 450 1300 0 451 448 452 0 +.0639 -.005
 .005 0 0 -1 16 451 1298 0 ?453 454 449 450 0 0 1 30 452 1305 0 454 450 455 0 -.
0629 -.004 .005 0 0 -1 16 454 1303 0 ?129 456 451 452 0 0 1 30 455 1310 0 456 45
2 457 0 +.0689 -.004 .005 0 0 -1 16 456 1308 0 ?458 459 454 455 0 0 1 30 457 132
0 0 459 455 460 0 +.0719 .001 .005 0 0 -1 16 459 1318 0 ?461 462 456 457 0 0 1 3
0 460 1325 0 462 457 463 0 -.0709 -1734723475976805e-33 .005 0 0 -1 16 462 1323
 0 ?117 464 459 460 0 0 1 31 463 1380 0 464 460 465 0 +.019 .049 0 0 0 1 1 0 0 .
001 16 464 1348 0 ?219 466 462 463 0 0 1 31 465 1381 0 466 463 467 0 -.019 .049
 .005 0 0 1 1 0 0 .001 16 466 1352 0 ?228 468 464 465 0 0 1 31 467 1382 0 468 46
5 469 0 +.033 .049 0 0 0 1 1 0 0 .001 16 468 1356 0 ?183 470 466 467 0 0 1 31 46
9 1383 0 470 467 471 0 -.033 .049 .005 0 0 1 1 0 0 .001 16 470 1360 0 ?96 472 46
8 469 0 0 1 31 471 1384 0 472 469 473 0 +.0449 .049 0 0 0 1 1 0 0 .001 16 472 13
64 0 ?177 474 470 471 0 0 1 31 473 1385 0 474 471 475 0 -.0449 .049 .005 0 0 1 1
 0 0 .001 16 474 1368 0 ?102 476 472 473 0 0 1 133 475 2035 0 297 473 477 0 +477
 .0719 .001 .005 .0719 .052 .005 .001 .052 16 297 1128 0 ?478 298 294 475 0 0 1
 30 477 2036 0 1 475 479 480 +.0719 -1734723475976805e-33 .005 0 1 0 30 479 2058
 0 476 477 481 0 +.0709 .053 .005 0 0 -1 141 480 475 480 480 477 16 476 2056 0 ?
482 483 474 479 0 0 1 31 481 2067 0 483 479 484 0 -.0709 .052 0 0 0 1 1 0 0 .001
 16 483 2065 0 ?84 485 476 481 0 0 1 30 484 2076 0 485 481 486 0 -.0719 .052 .00
5 0 0 -1 16 485 2074 0 ?81 487 483 484 0 0 1 31 486 2082 0 487 484 488 0 +.0709
 .052 .005 0 0 1 1 0 0 .001 16 487 2080 0 ?90 489 485 486 0 0 1 30 488 2287 0 48
9 486 490 0 -.021 .027 0 0 0 1 16 489 2285 0 ?69 491 487 488 0 0 1 30 490 2292 0
 491 488 492 0 +.031 .027 .005 0 0 1 16 491 2290 0 ?493 494 489 490 0 0 1 30 492
 2303 0 494 490 495 0 -.032 .026 0 0 0 1 16 494 2301 0 ?496 497 491 492 0 0 1 30
 495 2314 0 497 492 498 0 +.02 .026 .005 0 0 1 16 497 2312 0 ?499 500 494 495 0
 0 1 31 498 2333 0 500 495 501 0 -.031 .026 .005 0 0 1 1 0 0 .001 16 500 2317 0
 ?502 503 497 498 0 0 1 31 501 2334 0 503 498 504 0 +.031 .026 0 0 0 1 1 0 0 .00
1 16 503 2321 0 ?72 505 500 501 0 0 1 31 504 2335 0 505 501 506 0 -.021 .026 .00
5 0 0 1 1 0 0 .001 16 505 2325 0 ?75 507 503 504 0 0 1 31 506 2336 0 507 504 508
 0 +.021 .026 0 0 0 1 1 0 0 .001 16 507 2329 0 ?58 282 505 506 0 0 1 30 508 2408
 0 282 506 509 0 +.019 -1734723475976805e-33 .005 0 0 1 16 282 2406 0 ?280 510 5
07 508 0 0 1 31 509 2422 0 510 508 511 0 +.033 .001 .005 0 0 1 1 0 0 .001 16 510
 2420 0 ?43 512 282 509 0 0 1 31 511 2427 0 512 509 513 0 +.019 .001 .005 0 0 1
 1 0 0 .001 16 512 2425 0 ?49 514 510 511 0 0 1 30 513 2435 0 514 511 515 0 -.02
 .001 0 0 0 1 16 514 2433 0 ?38 36 512 513 0 0 1 31 515 2446 0 36 513 516 0 -.03
3 .001 0 0 0 1 1 0 0 .001 16 36 2444 0 ?31 517 514 515 0 0 1 31 516 2451 0 517 5
15 20 0 -.019 .001 0 0 0 1 1 0 0 .001 16 517 2449 0 ?55 24 36 516 0 0 1 30 20 24
56 0 24 516 7 0 +.032 .001 0 0 0 1 16 24 2454 0 ?518 10 517 20 0 0 1 17 518 0 51
9 66 37 44 520 24 0 521 +15 519 2215 0 37 522 0 17 66 0 519 496 518 64 521 523 0
 502 +17 37 0 519 518 496 25 34 524 0 520 -17 520 0 525 35 46 25 518 24 0 0 -17
 521 0 251 43 502 44 66 523 0 0 -17 43 0 251 249 521 39 46 510 0 28 +17 502 0 25
1 521 526 64 78 500 0 527 +16 523 2415 0 ?66 528 529 530 0 0 1 16 528 2274 0 ?53
1 532 523 533 0 0 1 16 529 2307 0 ?534 523 0 535 0 0 1 30 530 2239 0 523 535 533
 0 +.032 .027 .005 -2569960705150825e-31 1 0 30 535 2241 0 529 536 530 0 +.02 .0
27 .005 1284980352575412e-31 -1 0 30 533 2238 0 528 530 537 0 +.02 .027 .005 -1
 0 0 31 537 792 0 538 533 539 0 +.026 .032 .005 0 0 1 1 0 0 .00125 16 538 772 0
 ?540 541 542 537 0 0 1 31 539 791 0 542 537 543 0 +.026 .032 0 0 0 1 1 0 0 .001
25 16 542 769 0 ?544 538 545 539 0 0 1 31 543 754 0 546 539 547 0 +.026 .058 .00
5 0 0 1 1 0 0 .0013 16 546 734 0 ?548 549 541 543 0 0 1 31 547 753 0 541 543 550
 0 +.026 .058 0 0 0 1 1 0 0 .0013 16 541 731 0 ?551 546 538 547 0 0 1 31 550 640
 0 552 547 553 0 +.0509 .0505 .005 0 0 1 1 0 0 .00125 16 552 620 0 ?554 555 549
 550 0 0 1 31 553 639 0 549 550 556 0 +.0509 .0505 0 0 0 1 1 0 0 .00125 16 549 6
17 0 ?557 552 546 553 0 0 1 31 556 602 0 558 553 559 0 +.0629 .0505 .005 0 0 1 1
 0 0 .00125 16 558 582 0 ?560 561 555 556 0 0 1 31 559 601 0 555 556 562 0 +.062
9 .0505 0 0 0 1 1 0 0 .00125 16 555 579 0 ?563 558 552 559 0 0 1 31 562 564 0 56
4 559 565 0 +.0659 -.0025 .005 0 0 1 1 0 0 .00125 16 564 544 0 ?566 567 561 562
 0 0 1 31 565 563 0 561 562 568 0 +.0659 -.0025 0 0 0 1 1 0 0 .00125 16 561 541
 0 ?569 564 558 565 0 0 1 31 568 526 0 322 565 570 0 +.003 -.0025 .005 0 0 1 1 0
 0 .00125 16 322 506 0 ?571 319 567 568 0 0 1 31 570 525 0 567 568 572 0 +.003 -
.0025 0 0 0 1 1 0 0 .00125 16 567 503 0 ?573 322 564 570 0 0 1 30 572 7 0 364 57
0 288 0 +0 0 .005 1224646799147352e-31 -1 0 16 364 1098 0 ?574 267 361 572 0 0 1
 30 288 11 0 267 572 268 0 +612323399573677e-33 -.005 .005 1 0 0 16 267 1104 0 ?
260 254 364 288 0 0 1 17 260 0 251 132 138 133 575 267 0 261 +17 138 0 251 260 5
74 136 576 409 0 575 +17 575 0 577 446 135 136 260 267 0 578 -17 261 0 579 580 2
65 133 132 262 0 0 -15 579 1607 0 261 581 0 17 580 0 579 153 261 205 135 442 0 0
 -17 265 0 579 261 153 130 264 447 0 0 -17 153 0 579 265 580 151 207 384 0 264 -
17 264 0 263 244 253 151 265 447 0 272 +17 272 0 33 207 276 151 244 273 0 0 -15
 33 193 0 582 583 584 17 207 0 33 585 272 205 153 384 0 321 +17 276 0 33 272 55
 242 275 325 0 0 -17 55 0 33 276 582 53 586 517 0 275 +17 275 0 274 280 269 53 2
76 325 0 281 +17 281 0 587 586 52 53 280 282 0 0 -15 587 2474 0 586 588 0 17 586
 0 587 589 281 32 55 517 0 0 -17 52 0 587 281 589 50 49 512 0 280 -17 589 0 587
 52 586 47 38 514 0 0 -17 49 0 251 590 252 47 52 512 0 534 +17 590 0 251 75 49 5
9 534 529 0 0 -17 534 0 591 38 499 47 590 529 0 589 +15 591 2207 0 534 592 0 17
 38 0 591 593 534 32 589 514 0 582 +17 499 0 591 534 593 59 594 497 0 590 +17 59
3 0 591 499 38 56 582 532 0 594 -17 594 0 595 596 61 56 499 497 0 0 -15 595 2368
 0 596 597 0 17 596 0 595 598 594 67 58 507 0 0 -17 61 0 595 594 598 59 75 505 0
 499 -17 598 0 595 61 596 73 69 489 0 0 -17 75 0 251 526 590 73 61 505 0 531 +17
 526 0 251 502 75 76 531 528 0 0 -17 531 0 599 69 493 73 526 528 0 598 +15 599 2
211 0 600 601 0 17 69 0 599 600 531 67 598 489 0 602 +17 493 0 599 531 600 76 60
3 491 0 526 +17 600 0 599 493 69 70 602 545 0 603 -17 603 0 604 605 78 70 493 49
1 0 0 -15 604 2347 0 605 606 0 17 605 0 604 527 603 62 72 503 0 0 -17 78 0 604 6
03 527 76 502 500 0 493 -17 527 0 604 78 605 64 496 494 0 0 -17 496 0 519 37 66
 62 527 494 0 605 +17 72 0 33 602 34 70 605 503 0 600 +17 602 0 33 58 72 67 600
 545 0 596 +17 34 0 33 72 31 62 37 524 0 496 +16 524 2439 0 ?34 545 532 607 0 0
 1 16 545 2280 0 ?602 542 524 536 0 0 1 16 532 2310 0 ?582 524 528 608 0 0 1 30
 607 2243 0 524 608 536 0 +.032 .027 0 -2569960705150825e-31 1 0 30 608 2245 0 5
32 0 607 0 +.02 .027 0 1284980352575412e-31 -1 0 30 536 2242 0 545 607 535 0 +.0
2 .027 0 -1 0 0 17 582 0 33 55 58 32 593 532 0 586 +17 58 0 33 582 602 56 596 50
7 0 593 +14 606 2346 609 ?597 522 604 5 610 -0 0 597 522 22 81 1 609 2768 611 60
6 612 0 0 613 614 14 597 2367 613 ?588 606 595 5 615 -0 0 588 606 22 14 522 2212
 616 ?606 601 519 5 617 -0 0 606 601 22 51 610 2358 0 606 618 615 0 +.031 .026 0
 0 0 -1 .001 -1 0 0 13 22 146 0 0 0 0 0 0 9 16 14 16 2134 619 ?256 0 274 5 620 -
621 621 256 0 22 81 1 619 2771 611 16 622 0 616 623 624 14 256 766 623 ?583 16 2
51 5 625 +0 0 583 16 22 50 620 411 0 621 626 627 0 +.006 -1734723475976805e-33 .
005 0 1 0 0 0 1 14 621 388 628 ?629 271 26 5 620 -16 16 629 271 22 81 1 628 2773
 611 621 630 0 623 631 632 14 629 386 631 ?633 621 634 5 626 -0 0 633 621 22 14
 271 390 635 ?621 636 263 5 627 -0 0 621 636 22 15 26 387 0 28 621 0 17 28 0 26
 23 637 39 249 266 0 29 -17 637 0 26 28 27 247 367 278 0 638 -17 249 0 251 285 4
3 247 28 266 0 637 +17 29 0 525 46 35 39 23 10 0 0 -15 525 2495 0 35 18 0 17 46
 0 525 520 29 44 43 510 0 518 -17 35 0 525 29 520 11 31 36 0 0 -14 18 2494 639 ?
0 588 525 5 6 +0 0 0 588 22 81 1 639 2776 611 18 640 0 635 641 642 14 588 2473 6
41 ?18 597 587 5 19 +0 0 18 597 22 81 1 641 2777 611 588 643 0 639 644 645 51 19
 2485 0 588 615 6 0 +.019 .001 .005 0 0 1 .001 1 0 0 51 615 2379 0 597 610 19 0
 +.021 .026 0 0 0 -1 .001 -1 0 0 80 1 611 646 647 9000 1 1 1 1 1 1 1 1 0 FFFFTFT
FFFFFFF1 81 1 643 2670 648 588 0 641 649 640 650 81 1 644 2778 611 583 651 0 641
 652 653 82 1 645 -1393033086 14 583 760 644 ?636 256 33 5 654 -0 0 636 256 22 8
1 1 651 2629 648 583 0 644 655 656 657 81 1 652 2779 611 592 658 0 644 659 660 8
2 1 653 -2068709246 14 592 2204 652 ?601 661 591 5 662 -0 0 601 661 22 81 1 658
 2665 648 592 0 652 663 664 665 81 1 659 2780 611 601 664 0 652 666 667 82 1 660
 -1621884798 14 601 2208 659 ?522 592 599 5 668 -0 0 522 592 22 81 1 664 2666 64
8 601 0 659 658 669 670 81 1 666 2781 611 661 663 0 659 671 672 82 1 667 -162227
8016 14 661 2092 666 ?592 673 674 5 618 +0 0 592 673 22 81 1 663 2664 648 661 0
 666 675 658 676 81 1 671 2782 611 677 678 0 666 679 680 82 1 672 1584463994 14
 677 370 671 ?681 682 683 5 684 -0 0 681 682 22 81 1 678 2638 648 677 0 671 685
 686 687 81 1 679 2783 611 682 685 0 671 688 689 82 1 680 -2120220550 14 682 378
 679 ?677 690 691 5 692 -0 0 677 690 22 81 1 685 2637 648 682 0 679 693 678 694
 81 1 688 2784 611 673 675 0 679 695 696 82 1 689 -2119171974 14 673 1669 688 ?6
61 697 698 5 699 +0 0 661 697 22 81 1 675 2663 648 673 0 688 700 663 701 81 1 69
5 2785 611 697 700 0 688 702 703 82 1 696 449511540 14 697 1648 695 ?673 704 705
 5 706 +0 0 673 704 22 81 1 700 2662 648 697 0 695 707 675 708 81 1 702 2786 611
 704 707 0 695 709 710 82 1 703 447545460 14 704 1627 702 ?697 581 711 5 712 +0
 0 697 581 22 81 1 707 2661 648 704 0 702 713 700 714 81 1 709 2787 611 581 713
 0 702 715 716 82 1 710 445579380 14 581 1606 709 ?704 717 579 5 718 +0 0 704 71
7 22 81 1 713 2660 648 581 0 709 719 707 720 81 1 715 2788 611 717 719 0 709 721
 722 82 1 716 443613300 14 717 1585 715 ?581 723 724 5 725 +0 0 581 723 22 81 1
 719 2659 648 717 0 715 726 713 727 81 1 721 2789 611 723 726 0 715 728 729 82 1
 722 441647220 14 723 1564 721 ?717 730 731 5 732 +0 0 717 730 22 81 1 726 2658
 648 723 0 721 733 719 734 81 1 728 2790 611 730 733 0 721 735 736 82 1 729 4396
81140 14 730 1543 728 ?723 737 738 5 739 +0 0 723 737 22 81 1 733 2657 648 730 0
 728 740 726 741 81 1 735 2791 611 737 740 0 728 742 743 82 1 736 437715060 14 7
37 1522 735 ?730 744 745 5 746 -0 0 730 744 22 81 1 740 2656 648 737 0 735 747 7
33 748 81 1 742 2792 611 744 747 0 735 749 750 82 1 743 435748980 14 744 1501 74
2 ?737 751 752 5 753 -0 0 737 751 22 81 1 747 2655 648 744 0 742 754 740 755 81
 1 749 2793 611 751 754 0 742 756 757 82 1 750 433782900 14 751 1480 749 ?744 75
8 759 5 760 +0 0 744 758 22 81 1 754 2654 648 751 0 749 761 747 762 81 1 756 279
4 611 758 761 0 749 763 764 82 1 757 431816820 14 758 1459 756 ?751 765 766 5 76
7 +0 0 751 765 22 81 1 761 2653 648 758 0 756 768 754 769 81 1 763 2795 611 765
 768 0 756 770 771 82 1 764 429850740 14 765 1438 763 ?758 772 773 5 774 -0 0 75
8 772 22 81 1 768 2652 648 765 0 763 775 761 776 81 1 770 2796 611 777 778 0 763
 779 780 82 1 771 427884660 14 777 356 770 ?781 782 783 5 784 -0 0 781 782 22 81
 1 778 2645 648 777 0 770 785 786 787 81 1 779 2797 611 782 785 0 770 788 789 82
 1 780 -2122055564 14 782 358 779 ?777 790 791 5 792 -0 0 777 790 22 81 1 785 26
44 648 782 0 779 793 778 794 81 1 788 2798 611 790 793 0 779 795 796 82 1 789 -2
121793420 14 790 360 788 ?782 797 798 5 799 -0 0 782 797 22 81 1 793 2643 648 79
0 0 788 800 785 801 81 1 795 2799 611 797 800 0 788 802 803 82 1 796 -2121531276
 14 797 362 795 ?790 804 805 5 806 -0 0 790 804 22 81 1 800 2642 648 797 0 795 8
07 793 808 81 1 802 2800 611 804 807 0 795 809 810 82 1 803 -2121269132 14 804 3
64 802 ?797 811 812 5 813 -0 0 797 811 22 81 1 807 2641 648 804 0 802 814 800 81
5 81 1 809 2801 611 811 814 0 802 816 817 82 1 810 -2121006988 14 811 366 809 ?8
04 681 818 5 819 -0 0 804 681 22 81 1 814 2640 648 811 0 809 686 807 820 81 1 81
6 2802 611 681 686 0 809 821 822 82 1 817 -2120744844 14 681 368 816 ?811 677 82
3 5 824 -0 0 811 677 22 81 1 686 2639 648 681 0 816 678 814 825 81 1 821 2803 61
1 690 693 0 816 826 827 82 1 822 -2120482700 14 690 380 821 ?682 828 829 5 830 -
0 0 682 828 22 81 1 693 2636 648 690 0 821 831 685 832 81 1 826 2804 611 828 831
 0 821 833 834 82 1 827 -2118909836 14 828 382 826 ?690 633 835 5 836 -0 0 690 6
33 22 81 1 831 2635 648 828 0 826 837 693 838 81 1 833 2805 611 633 837 0 826 83
9 840 82 1 834 -2118647692 14 633 384 833 ?828 629 841 5 842 -0 0 828 629 22 81
 1 837 2634 648 633 0 833 843 831 844 81 1 839 2806 611 636 656 0 833 845 846 82
 1 840 -2118385548 14 636 392 839 ?271 583 577 5 847 -0 0 271 583 22 81 1 656 26
30 648 636 0 839 651 848 849 81 1 845 2807 611 772 775 0 839 850 851 82 1 846 -2
117336972 14 772 775 845 ?765 852 853 5 854 +0 0 765 852 22 81 1 775 2651 648 77
2 0 845 855 768 856 81 1 850 2808 611 852 855 0 845 857 858 82 1 851 -2079588240
 14 852 737 850 ?772 859 860 5 861 +0 0 772 859 22 81 1 855 2650 648 852 0 850 8
62 775 863 81 1 857 2809 611 859 862 0 850 864 865 82 1 858 -2083651472 14 859 6
23 857 ?852 866 867 5 868 +0 0 852 866 22 81 1 862 2649 648 859 0 857 869 855 87
0 81 1 864 2810 611 866 869 0 857 871 872 82 1 865 -2095841168 14 866 585 864 ?8
59 873 874 5 875 +0 0 859 873 22 81 1 869 2648 648 866 0 864 876 862 877 81 1 87
1 2811 611 873 876 0 864 878 879 82 1 872 -2099904400 14 873 547 871 ?866 781 88
0 5 881 +0 0 866 781 22 81 1 876 2647 648 873 0 871 786 869 882 81 1 878 2812 61
1 781 786 0 871 0 883 82 1 879 -2103967632 14 781 509 878 ?873 777 884 5 885 +0
 0 873 777 22 81 1 786 2646 648 781 0 878 778 876 886 82 1 883 -2108030864 80 1
 648 0 887 8001 0 0 0 0 3 5 0 0 0 FFFFTFTFFFFFFF2 83 3 886 1 1 1 79 15 887 SDL/T
YSA_COLOUR15 884 512 0 571 781 888 51 885 522 0 781 881 625 0 -.003 -.0025 .005
 0 0 -1 .00125 -1 0 0 51 881 560 0 873 875 885 0 -.0659 -.0025 .005 0 0 -1 .0012
5 -1 0 0 50 625 3 0 256 885 654 0 +0 0 .005 0 0 1 1 0 0 50 654 294 0 583 625 784
 0 +0 0 0 0 0 1 1 0 0 50 784 395 0 777 654 792 0 +0 0 .005 1 0 0 0 0 -1 50 792 3
96 0 782 784 799 0 +0 .048 .005 0 -1 0 0 0 -1 50 799 397 0 790 792 806 0 +.02 .0
48 .005 1 0 0 0 0 -1 50 806 398 0 797 799 813 0 +.02 .063 .005 0 -1 0 0 0 -1 50
 813 399 0 804 806 819 0 +.032 .048 .005 -1 0 0 0 0 1 50 819 400 0 811 813 824 0
 +.032 .048 .005 0 -1 0 0 0 -1 50 824 401 0 681 819 684 0 +.0459 .048 .005 1 0 0
 0 0 -1 50 684 402 0 677 824 692 0 +.0459 .053 .005 0 -1 0 0 0 -1 50 692 406 0 6
82 684 830 0 +.0719 -1734723475976805e-33 .005 -1 0 0 0 0 1 50 830 407 0 690 692
 836 0 +.0689 -1734723475976805e-33 .005 0 1 0 0 0 1 50 836 408 0 828 830 842 0
 +.0689 -1734723475976805e-33 .005 -1 0 0 0 0 1 50 842 409 0 633 836 626 0 +.062
9 -.005 .005 1445602896647338e-31 1 0 -1 1445602896647338e-31 0 50 626 410 0 629
 842 620 0 +.0629 -1734723475976805e-33 .005 1 0 0 0 0 -1 51 875 598 0 866 868 8
81 0 -.0629 .0505 .005 0 0 -1 .00125 -1 0 0 51 868 636 0 859 861 875 0 -.0509 .0
505 .005 0 0 -1 .00125 -1 0 0 51 861 750 0 852 854 868 0 -.026 .058 .005 0 0 -1
 .0013 -1 0 0 51 854 788 0 772 662 861 0 -.026 .032 .005 0 0 -1 .00125 -1 0 0 50
 662 2228 0 592 617 854 0 +.02 .027 0 -1 -1284980352575412e-31 0 128498035257541
2e-31 -1 0 50 617 2230 0 522 668 662 0 +.032 .027 0 1 2569960705150825e-31 0 -25
69960705150825e-31 1 0 50 668 2231 0 601 0 617 0 +.02 .027 0 0 1 0 0 0 1 17 571
 0 884 571 571 0 889 322 0 0 +15 888 513 0 890 781 0 17 890 0 888 890 890 0 573
 567 0 0 -17 573 0 584 573 573 0 890 567 0 0 +15 584 492 0 573 583 891 15 891 53
0 0 569 583 892 17 569 0 891 569 569 0 893 561 0 0 +15 892 568 0 563 583 894 17
 563 0 892 563 563 0 895 555 0 0 +15 894 606 0 557 583 896 17 557 0 894 557 557
 0 897 549 0 0 +15 896 720 0 551 583 898 17 551 0 896 551 551 0 899 541 0 0 +15
 898 758 0 544 583 0 17 544 0 898 544 544 0 900 542 0 0 +17 900 0 901 900 900 0
 544 542 0 0 -15 901 779 0 900 772 0 17 899 0 902 899 899 0 551 541 0 0 -15 902
 741 0 899 852 0 17 897 0 903 897 897 0 557 549 0 0 -15 903 627 0 897 859 0 17 8
95 0 904 895 895 0 563 555 0 0 -15 904 589 0 895 866 0 17 893 0 905 893 893 0 56
9 561 0 0 -15 905 551 0 893 873 0 17 889 0 906 889 889 0 571 322 0 0 -15 906 497
 0 889 256 907 15 907 535 0 908 256 909 17 908 0 907 908 908 0 566 564 0 0 -15 9
09 611 0 910 256 911 17 910 0 909 910 910 0 554 552 0 0 -15 911 763 0 912 256 0
 17 912 0 911 912 912 0 540 538 0 0 -17 540 0 853 540 540 0 912 538 0 0 +15 853
 778 0 540 772 901 17 554 0 867 554 554 0 910 552 0 0 +15 867 626 0 554 859 903
 17 566 0 880 566 566 0 908 564 0 0 +15 880 550 0 566 873 905 83 3 882 1 1 1 83
 3 877 1 1 1 15 874 588 0 560 866 904 17 560 0 874 560 560 0 913 558 0 0 +17 913
 0 914 913 913 0 560 558 0 0 -15 914 573 0 913 256 906 83 3 870 1 1 1 83 3 863 1
 1 1 15 860 740 0 548 852 902 17 548 0 860 548 548 0 915 546 0 0 +17 915 0 257 9
15 915 0 548 546 0 0 -15 257 725 0 915 256 914 83 3 856 1 1 1 81 1 848 2631 648
 271 0 635 656 630 916 83 3 849 1 1 1 81 1 635 2775 611 271 848 0 631 639 917 81
 1 630 2632 648 621 0 628 848 843 918 83 3 916 1 1 1 81 1 843 2633 648 629 0 631
 630 837 919 83 3 918 1 1 1 81 1 631 2774 611 629 843 0 628 635 920 83 3 919 1 1
 1 82 1 920 -2118123404 82 1 917 -2117599116 15 577 391 0 575 636 0 50 847 413 0
 636 627 774 0 +612323399573677e-33 -.005 .005 0 1 0 0 0 1 50 627 412 0 271 620
 847 0 +.006 -1734723475976805e-33 .005 -1 -173472347597681e-30 0 17347234759768
1e-30 -1 0 51 774 1450 0 765 847 767 0 +.019 .049 .005 0 0 1 .001 1 0 0 51 767 1
471 0 758 774 760 0 +.021 .062 .005 0 0 -1 .001 -1 0 0 51 760 1492 0 751 767 753
 0 +.031 .062 .005 0 0 -1 .001 -1 0 0 51 753 1513 0 744 760 746 0 +.033 .049 .00
5 0 0 1 .001 1 0 0 51 746 1534 0 737 753 739 0 +.0449 .049 .005 0 0 1 .001 1 0 0
 51 739 1555 0 730 746 732 0 +.0469 .052 .005 0 0 -1 .001 -1 0 0 51 732 1576 0 7
23 739 725 0 +.001 .047 .005 0 0 -1 .001 -1 0 0 51 725 1597 0 717 732 718 0 +.00
1 -.004 .005 0 0 -1 .001 -1 0 0 51 718 1618 0 581 725 712 0 +.005 -.004 .005 0 0
 -1 .001 -1 0 0 51 712 1639 0 704 718 706 0 +.0639 -.004 .005 0 0 -1 .001 -1 0 0
 51 706 1660 0 697 712 699 0 +.0679 -.004 .005 0 0 -1 .001 -1 0 0 51 699 1681 0
 673 706 618 0 +.0709 .001 .005 0 0 -1 .001 -1 0 0 51 618 2104 0 661 699 610 0 +
.0709 .052 .005 0 0 -1 .001 -1 0 0 83 3 844 1 1 1 15 841 383 0 921 633 0 17 921
 0 841 453 123 124 291 286 0 922 -17 453 0 841 332 921 160 922 451 0 923 +17 123
 0 841 921 332 121 924 449 0 291 +17 291 0 251 120 126 121 921 286 0 925 +17 922
 0 711 926 162 124 453 451 0 0 -15 711 1628 0 926 704 0 17 926 0 711 927 922 127
 126 406 0 0 -17 162 0 711 922 927 160 156 382 0 453 -17 927 0 711 162 926 154 1
29 454 0 0 -17 156 0 33 928 923 154 162 382 0 329 +17 928 0 33 30 156 240 329 32
7 0 0 -17 923 0 33 156 159 160 332 330 0 0 -17 329 0 634 129 367 154 928 327 0 9
27 +15 634 385 0 329 629 0 17 129 0 634 638 329 127 927 454 0 285 +17 367 0 634
 329 638 240 637 278 0 928 +17 638 0 634 367 129 247 285 283 0 0 -17 285 0 251 1
26 249 127 638 283 0 926 +17 126 0 251 291 285 124 926 406 0 921 +17 159 0 33 92
3 929 157 165 380 0 332 +17 332 0 841 123 453 157 923 330 0 924 +17 924 0 705 16
5 925 157 123 449 0 0 -15 705 1649 0 925 697 0 17 165 0 705 930 924 163 159 380
 0 458 -17 925 0 705 924 930 121 120 404 0 0 -17 930 0 705 925 165 118 458 456 0
 0 -17 120 0 251 246 291 118 925 404 0 931 +17 246 0 251 296 120 235 931 292 0 9
32 +17 931 0 835 458 932 118 246 292 0 930 -15 835 381 0 931 828 0 17 458 0 835
 238 931 163 930 456 0 929 +17 932 0 835 931 238 235 366 318 0 933 -17 238 0 835
 932 458 236 929 333 0 366 +17 366 0 829 337 933 236 932 318 0 934 +17 933 0 829
 366 117 235 296 294 0 0 -15 829 379 0 337 690 0 17 117 0 829 933 337 115 935 46
2 0 296 +17 296 0 251 114 246 115 933 294 0 936 +17 114 0 251 478 296 112 936 40
2 0 937 +17 936 0 698 935 938 115 114 402 0 0 -15 698 1670 0 936 673 0 17 935 0
 698 171 936 166 117 462 0 0 -17 938 0 698 936 171 112 461 459 0 0 -17 171 0 698
 938 935 169 168 378 0 461 -17 461 0 691 340 937 169 938 459 0 939 +15 691 377 0
 340 682 0 17 340 0 691 81 461 82 939 338 0 940 +17 937 0 691 461 81 112 478 297
 0 938 -17 939 0 33 168 84 169 340 338 0 0 -17 168 0 33 934 939 166 171 378 0 33
7 +17 84 0 33 939 941 82 87 483 0 340 +17 941 0 33 84 392 85 174 341 0 0 -17 87
 0 674 942 940 85 84 483 0 482 -15 674 2093 0 943 661 0 17 942 0 674 943 87 88 4
82 476 0 0 -17 940 0 674 87 943 82 81 485 0 0 -17 482 0 683 174 944 85 942 476 0
 941 +15 683 369 0 944 677 0 17 174 0 683 436 482 172 941 341 0 392 +17 944 0 68
3 482 436 88 111 298 0 942 -17 436 0 683 944 174 109 945 434 0 946 +17 111 0 251
 108 90 109 944 298 0 436 +17 108 0 251 302 111 106 946 413 0 947 +17 90 0 251 1
11 478 88 943 487 0 944 +17 478 0 251 90 114 79 937 297 0 943 +17 943 0 674 940
 942 79 90 487 0 0 -17 302 0 251 102 108 103 947 300 0 948 +17 946 0 738 945 949
 109 108 413 0 0 -17 947 0 823 431 105 106 302 300 0 949 -15 823 367 0 345 681 0
 17 431 0 823 345 947 178 949 429 0 950 +17 105 0 823 947 345 103 951 432 0 302
 +17 949 0 738 946 180 106 431 429 0 0 -15 738 1544 0 946 730 0 17 180 0 738 949
 945 178 392 390 0 431 -17 945 0 738 180 946 172 436 434 0 0 -17 392 0 33 941 95
0 172 180 390 0 945 +17 950 0 33 392 177 178 345 343 0 0 -17 177 0 33 950 952 17
5 186 472 0 345 +17 345 0 823 105 431 175 950 343 0 951 +17 951 0 745 186 948 17
5 105 432 0 0 -15 745 1523 0 948 737 0 17 186 0 745 953 951 184 177 472 0 426 -1
7 948 0 745 951 953 103 102 474 0 0 -17 953 0 745 948 186 100 426 424 0 0 -17 10
2 0 251 305 302 100 948 474 0 954 +17 305 0 251 96 102 97 954 303 0 955 +17 954
 0 818 426 99 100 305 303 0 953 -15 818 365 0 348 811 0 17 426 0 818 348 954 184
 953 424 0 952 +17 99 0 818 954 348 97 956 427 0 305 +17 348 0 818 99 426 181 95
2 346 0 956 +17 956 0 752 192 955 181 99 427 0 0 -15 752 1502 0 955 744 0 17 192
 0 752 957 956 190 183 468 0 421 -17 955 0 752 956 957 97 96 470 0 0 -17 957 0 7
52 955 192 94 421 419 0 0 -17 96 0 251 308 305 94 955 470 0 958 +17 308 0 251 15
0 96 91 958 306 0 959 +17 958 0 812 421 93 94 308 306 0 957 -15 812 363 0 351 80
4 0 17 421 0 812 351 958 190 957 419 0 960 +17 93 0 812 958 351 91 961 422 0 308
 +17 351 0 812 93 421 187 960 349 0 961 +17 961 0 759 198 959 187 93 422 0 0 -15
 759 1481 0 959 751 0 17 198 0 759 962 961 196 189 393 0 399 -17 959 0 759 961 9
62 91 150 415 0 0 -17 962 0 759 959 198 148 399 397 0 0 -17 150 0 251 311 308 14
8 959 415 0 963 +17 311 0 251 216 150 145 963 309 0 964 +17 963 0 805 399 147 14
8 311 309 0 962 -15 805 361 0 354 797 0 17 399 0 805 354 963 196 962 397 0 965 +
17 147 0 805 963 354 145 966 400 0 311 +17 354 0 805 147 399 193 965 352 0 966 +
17 966 0 766 222 964 193 147 400 0 0 -15 766 1460 0 964 758 0 17 222 0 766 967 9
66 220 195 395 0 375 -17 964 0 766 966 967 145 216 417 0 0 -17 967 0 766 964 222
 214 375 373 0 0 -17 216 0 251 314 311 214 964 417 0 968 +17 314 0 251 228 216 2
11 968 312 0 969 +17 968 0 798 375 213 214 314 312 0 967 -15 798 359 0 357 790 0
 17 375 0 798 357 968 220 967 373 0 970 +17 213 0 798 968 357 211 971 376 0 314
 +17 357 0 798 213 375 217 970 355 0 971 +17 971 0 773 234 969 217 213 376 0 0 -
15 773 1439 0 969 765 0 17 234 0 773 972 971 232 219 464 0 372 -17 969 0 773 971
 972 211 228 466 0 0 -17 972 0 773 969 234 226 372 370 0 0 -17 228 0 251 317 314
 226 969 466 0 973 +17 317 0 251 144 228 223 973 315 0 974 +17 973 0 791 372 225
 226 317 315 0 972 -15 791 357 0 973 782 0 17 372 0 791 360 973 232 972 370 0 97
5 +17 225 0 791 973 360 223 976 277 0 317 +17 360 0 791 225 372 229 975 358 0 97
6 +17 976 0 731 204 974 229 225 277 0 0 -15 731 1565 0 974 723 0 17 204 0 731 97
7 976 202 231 388 0 441 -17 974 0 731 976 977 223 144 411 0 0 -17 977 0 731 974
 204 142 441 439 0 0 -17 144 0 251 574 317 142 974 411 0 978 +17 574 0 251 138 1
44 139 978 364 0 576 +17 978 0 783 441 141 142 574 364 0 977 -15 783 355 0 978 7
77 0 17 441 0 783 363 978 202 977 439 0 979 +17 141 0 783 978 363 139 980 437 0
 574 +17 363 0 783 141 441 199 979 361 0 980 +17 980 0 724 210 576 199 141 437 0
 0 -15 724 1586 0 576 717 0 17 210 0 724 578 980 208 201 386 0 446 -17 576 0 724
 980 578 139 138 409 0 0 -17 578 0 724 576 210 136 446 444 0 0 -17 446 0 577 321
 575 208 578 444 0 585 +17 321 0 577 135 446 205 585 319 0 580 +17 585 0 33 201
 207 208 321 319 0 0 -17 201 0 33 979 585 199 210 386 0 363 +17 979 0 33 231 201
 202 363 361 0 0 -17 231 0 33 975 979 229 204 388 0 360 +17 975 0 33 219 231 232
 360 358 0 0 -17 219 0 33 970 975 217 234 464 0 357 +17 970 0 33 195 219 220 357
 355 0 0 -17 195 0 33 965 970 193 222 395 0 354 +17 965 0 33 189 195 196 354 352
 0 0 -17 189 0 33 960 965 187 198 393 0 351 +17 960 0 33 183 189 190 351 349 0 0
 -17 183 0 33 952 960 181 192 468 0 348 +17 952 0 33 177 183 184 348 346 0 0 -17
 135 0 577 575 321 133 580 442 0 260 +17 81 0 691 937 340 79 940 485 0 478 +17 9
34 0 33 929 168 236 337 335 0 0 -17 337 0 829 117 366 166 934 335 0 935 +17 929
 0 33 159 934 163 238 333 0 0 -17 30 0 33 31 928 11 27 324 0 35 -17 27 0 26 637
 23 240 30 324 0 367 +16 324 2442 0 ?27 325 273 323 325 325 1 83 3 838 1 1 1 83
 3 832 1 1 1 83 3 825 1 1 1 83 3 820 1 1 1 83 3 815 1 1 1 83 3 808 1 1 1 83 3 80
1 1 1 1 83 3 794 1 1 1 83 3 787 1 1 1 83 3 776 1 1 1 83 3 769 1 1 1 83 3 762 1 1
 1 83 3 755 1 1 1 83 3 748 1 1 1 83 3 741 1 1 1 83 3 734 1 1 1 83 3 727 1 1 1 83
 3 720 1 1 1 83 3 714 1 1 1 83 3 708 1 1 1 83 3 701 1 1 1 83 3 694 1 1 1 83 3 68
7 1 1 1 83 3 676 1 1 1 81 1 669 2667 648 522 0 616 664 612 981 83 3 670 1 1 1 81
 1 616 2770 611 522 669 0 613 619 982 81 1 612 2668 648 606 0 609 669 649 983 83
 3 981 1 1 1 81 1 649 2669 648 597 0 613 612 643 984 83 3 983 1 1 1 81 1 613 276
9 611 597 649 0 609 616 985 83 3 984 1 1 1 82 1 985 -1505361792 82 1 982 -162214
6942 83 3 665 1 1 1 81 1 655 2628 648 256 0 623 622 651 986 83 3 657 1 1 1 81 1
 623 2772 611 256 655 0 619 628 987 81 1 622 2627 648 16 0 619 0 655 988 83 3 98
6 1 1 1 83 3 988 1 1 1 82 1 987 -2068184958 81 1 640 2671 648 18 0 639 643 0 989
 83 3 650 1 1 1 83 3 989 1 1 1 79 14 647 SWEntUnchanged82 1 642 -1391067006 82 1
 632 -2117861246 82 1 624 -1617690494 82 1 614 -1507327872 19 17 436 0 1 0 9 5 S
74 20 15 10 0 0 990 991 878 992 993 994 995 640 13 2 0 0 0 0 0 0 0 0 0 0 81 2 99
0 489 996 1 0 991 0 0 0 997 81 2 991 858 998 1 990 992 0 0 0 999 81 1 992 2524 1
000 1 991 993 0 0 1001 81 2 993 2570 1002 1 992 994 0 0 0 1003 81 2 994 2623 100
4 1 993 995 0 0 1005 0 81 2 995 2624 1006 1 994 13 0 0 0 0 81 2 13 2766 1007 1 9
95 2 0 0 1008 0 80 2 1007 1009 1010 8004 0 0 0 0 3 5 0 0 0 FFTFFFFFFFFFFF2 3 83
 1 1008 1190 79 16 1010 SDL/TYSA_DENSITY80 2 1006 1011 1012 9000 0 0 0 0 3 5 0 0
 0 FFTFFFFFFFFFFF9 1 79 16 1012 BODY_RECIPE_200180 2 1004 1013 1014 9000 0 0 0 0
 3 5 0 0 0 FFTFTTTFFTFFFF3 3 84 6 1005 ?????479 21 1014 SWIMPLICITBODYNAME_ID80
 2 1002 1015 1016 9000 0 0 0 0 3 5 0 0 0 FFTFFFFFFFFFFF9 1 82 1 1003 1 79 24 101
6 BODY_IN_LIGHTWEIGHT_PERM80 1 1000 1017 1018 9000 1 1 1 1 1 1 1 1 0 FFTFFFFFFFF
FFF1 82 1 1001 688078 79 10 1018 BODY_MATCH80 2 998 1019 1020 9000 0 0 0 0 3 5 0
 0 0 FFTFFFFFFFFFFF9 1 82 1 999 149 79 30 1020 LAST_BODY_MODIFYING_FEATURE_ID80
 2 996 1021 1022 9000 0 0 0 0 3 5 0 0 0 FFTFFFFFFFFFFT9 1 82 1 997 124 79 19 102
2 ENT_TIME_STAMP_200180 2 12 1023 1024 9000 0 0 0 0 3 5 0 0 0 FFTFFFFFFFFFFF9 1
 82 1 14 103 79 12 1024 ATOM_ID_20011 0 
