**ABCDEFGHIJKLMNOPQRSTUVWXYZabcdefghijklmnopqrstuvwxyz**************************
**PARASOLID !"#$%&'()*+,-./:;<=>?@[\]^_`{|}~0123456789**************************
**PART1;
MC=AMD64;
MC_MODEL=Intel64 Family 6 Model 158 Stepping 9, GenuineIntel;
MC_ID=unknown;
OS=Windows_NT;
OS_RELEASE=unknown;
FRU=Parasolid Version 34.1, build 225,  5-24-2022;
APPL=SOLIDWORKS 2023-2022300;
SITE=;
USER=unknown;
FORMAT=text;
GUISE=transmit;
KEY=Al_5mm_obj2;
FILE=Al_5mm_obj2.x_t;
DATE=Wed Feb 14 12:03:14 2024;
**PART2;
SCH=SCH_3401225_34101;
USFLD_SIZE=0;
**PART3;
**END_OF_HEADER*****************************************************************
T51 : TRANSMIT FILE created by modeller version 340122517 SCH_2100000_200000 12
 1 464 2 3 0 0 0 0 1e3 1e-8 0 4 0 1 0 1 1 5 6 7 8 9 10 11 0 0 0 0 81 2 2 451 12
 1 13 0 0 0 0 14 70 3 0 4 T1 0 0 11 20 1 15 15 13 5 162 0 1 0 16 0 0 17 0 51 6 1
57 0 18 19 0 0 -0 0 .005 0 0 -1 .004 -1 0 0 31 7 291 0 20 21 0 0 +.009 0 .003 0
 0 1 1 0 0 .0015 29 8 128 0 22 23 0 .003923698766888335 .01186821755727114 0 19
 9 53 0 1 17 0 24 V16 10 133 0 ?25 0 26 27 0 0 1 18 11 48 0 28 0 29 30 ?1 17 28
 0 31 32 32 11 33 34 0 35 +18 29 45 0 36 11 37 38 ?1 29 30 50 0 11 38 39 .003923
698766888335 .01186821755727114 .005 29 38 47 0 29 40 30 -.0035 .012 .005 29 39
 131 0 41 30 42 -.00264575131106459 .003 0 18 41 120 0 43 44 0 39 ?1 29 42 130 0
 44 39 23 .00264575131106459 .003 0 18 44 119 0 45 46 41 42 ?1 29 23 129 0 46 42
 8 -.0035 .012 0 18 46 118 0 25 22 44 23 ?1 17 25 0 47 48 33 46 36 10 0 49 +18 2
2 117 0 50 51 46 8 ?1 17 50 0 52 53 54 22 35 26 0 48 +18 51 39 0 55 37 22 56 ?1
 17 55 0 57 58 59 51 43 60 0 61 -18 37 42 0 62 29 51 40 ?1 29 56 41 0 51 0 40 -.
00264575131106459 .003 .005 29 40 44 0 37 56 38 .00264575131106459 .003 .005 17
 62 0 63 64 64 37 61 65 0 66 +15 63 5 0 64 67 68 17 64 0 63 62 62 51 58 69 0 0 -
17 61 0 70 43 66 51 62 65 0 64 -16 65 14 0 ?62 71 69 72 0 0 1 17 66 0 70 61 73 3
7 45 74 0 58 -15 70 148 0 73 75 0 17 73 0 70 66 43 44 76 77 0 78 +17 45 0 57 59
 58 44 66 74 0 73 +16 74 134 0 ?45 60 34 79 0 0 1 17 58 0 57 45 55 37 64 69 0 0
 +15 57 150 0 59 18 0 16 69 9 0 ?58 65 80 81 0 0 1 16 80 87 0 ?48 69 82 83 0 0 1
 31 81 11 0 69 84 72 0 +0 0 .005 0 0 1 1 0 0 .004 31 84 253 0 85 86 81 0 +.00021
1849383444166 .01193410877863556 .0025 .01774879183603345 .999842477787557 0 -.9
99842477787557 .01774879183603345 0 .00125 30 72 16 0 65 81 87 0 +0 .003 .005 1
 0 0 31 87 21 0 71 72 88 0 +-.009 0 .005 0 0 1 1 0 0 .0015 16 71 19 0 ?89 90 65
 87 0 0 1 31 88 26 0 90 87 91 0 +.009 0 .005 0 0 1 1 0 0 .0015 16 90 24 0 ?92 93
 71 88 0 0 1 30 91 31 0 93 88 94 0 +.000211849383444167 .01193410877863556 .005
 .999842477787557 -.01774879183603345 0 16 93 29 0 ?54 34 90 91 0 0 1 31 94 36 0
 34 91 95 0 +0 0 .005 0 0 1 1 0 0 .0125 16 34 34 0 ?28 74 93 94 0 0 1 31 95 127
 0 96 94 97 0 +0 0 0 0 0 1 1 0 0 .004 16 96 112 0 ?78 77 98 95 0 0 1 30 97 126 0
 77 95 99 0 +0 .003 0 1 0 0 16 77 107 0 ?73 82 96 97 0 0 1 30 99 123 0 82 97 83
 0 +.000211849383444167 .01193410877863556 0 .999842477787557 -.0177487918360334
5 0 16 82 92 0 ?100 80 77 99 0 0 1 31 83 122 0 80 99 101 0 +0 0 0 0 0 1 1 0 0 .0
125 30 101 158 0 26 83 27 0 +.003923698766888335 .01186821755727114 .005 0 0 -1
 16 26 132 0 ?50 10 60 101 0 0 1 30 27 159 0 10 101 79 0 +-.0035 .012 .005 0 0 -
1 30 79 160 0 74 27 102 0 +.00264575131106459 .003 .005 0 0 -1 30 102 161 0 60 7
9 103 0 +-.00264575131106459 .003 .005 0 0 -1 16 60 135 0 ?43 26 74 102 0 0 1 32
 103 215 0 98 102 21 0 +532547643163977e-19 .003 .0025 0 1 0 1 0 0 .001250196933
787 .00125 16 98 225 0 ?104 96 85 103 0 0 1 31 21 285 0 105 103 7 0 +-.009 0 .00
3 0 0 1 1 0 0 .0015 16 105 295 0 ?106 20 107 21 0 0 1 17 106 0 108 106 106 0 109
 105 0 0 +16 20 323 0 ?110 85 105 7 0 0 1 16 107 299 0 ?111 105 112 113 0 0 1 17
 111 0 114 111 111 0 115 107 0 0 +16 112 296 0 ?116 107 117 118 0 0 1 31 113 365
 0 107 0 118 0 +-.009 0 .003 0 0 1 1 0 0 .003 31 118 364 0 112 113 119 0 +-.009
 0 0 0 0 1 1 0 0 .003 31 119 363 0 117 118 86 0 +.009 0 .003 0 0 1 1 0 0 .003 16
 117 327 0 ?120 112 121 119 0 0 1 31 86 362 0 121 119 84 0 +.009 0 0 0 0 1 1 0 0
 .003 16 121 324 0 ?122 117 0 86 0 0 1 17 122 0 123 122 122 0 124 121 0 0 +15 12
3 272 0 122 125 126 17 124 0 127 124 124 0 122 121 0 0 -15 127 341 0 124 128 0 1
4 128 337 129 ?130 131 132 5 133 +0 0 130 131 24 81 1 129 452 134 128 135 0 0 13
6 137 14 130 342 136 ?138 128 139 5 140 -0 0 138 128 24 14 131 232 141 ?128 125
 142 5 143 -0 0 128 125 24 15 132 340 0 120 128 127 51 133 354 0 128 140 143 0 -
.009 0 .003 0 0 -1 .003 -1 0 0 13 24 54 0 0 0 0 0 0 9 16 14 16 139 144 ?18 0 145
 5 146 +0 0 18 0 24 81 1 144 455 134 16 147 0 141 148 149 14 18 151 148 ?150 16
 57 5 6 +0 0 150 16 24 15 145 220 0 151 16 52 50 146 153 0 16 152 153 0 +.000211
849383444167 .01193410877863556 .005 .01774879183603345 .999842477787557 0 -.999
842477787557 .01774879183603345 0 51 152 152 0 154 155 146 0 -0 0 .005 0 0 -1 .0
125 -1 0 0 51 153 154 0 150 146 156 0 -.009 0 .005 0 0 -1 .0015 -1 0 0 14 150 14
1 157 ?158 18 159 5 153 +0 0 158 18 24 51 156 155 0 158 153 19 0 --.009 0 .005 0
 0 -1 .0015 -1 0 0 14 158 145 160 ?75 150 161 5 156 +0 0 75 150 24 50 19 156 0 7
5 156 6 0 +0 .003 .005 0 1 0 0 0 1 14 75 149 162 ?154 158 163 5 19 -0 0 154 158
 24 81 1 162 459 134 75 164 0 160 165 166 14 154 137 165 ?67 75 47 5 152 -0 0 67
 75 24 15 163 213 0 104 75 70 17 104 0 163 104 104 0 167 98 0 0 +17 167 0 168 16
7 167 0 104 98 0 0 -15 168 236 0 167 131 0 81 1 165 460 134 154 169 0 162 170 17
1 14 67 1 170 ?125 154 63 5 172 +0 0 125 154 24 15 47 136 0 48 154 0 17 48 0 47
 35 25 22 49 80 0 100 +17 35 0 47 33 48 11 50 26 0 54 -17 49 0 173 100 100 46 48
 80 0 53 -17 100 0 173 49 49 22 53 82 0 0 +15 173 86 0 100 125 0 17 53 0 52 36 5
0 46 100 82 0 0 -15 52 138 0 53 16 0 17 36 0 52 54 53 29 25 10 0 33 -17 54 0 52
 50 36 11 32 93 0 0 +17 33 0 47 25 35 29 28 34 0 32 -17 32 0 31 28 28 29 54 93 0
 0 -15 31 8 0 32 67 0 14 125 81 174 ?131 67 175 5 155 -0 0 131 67 24 81 1 174 46
2 134 125 176 0 170 177 178 15 175 278 0 116 125 123 50 155 121 0 125 172 152 0
 +0 0 0 0 0 1 1 0 0 50 172 3 0 67 143 155 0 +0 0 .005 0 0 1 1 0 0 51 143 250 0 1
31 133 172 0 +343614650838316e-19 .001935684000760005 .0025 .01774879183603345 .
999842477787557 0 .00125 -.999842477787557 .01774879183603345 0 17 116 0 175 116
 116 0 179 112 0 0 +17 179 0 180 179 179 0 116 112 0 0 -15 180 313 0 179 138 0 1
4 138 309 177 ?181 130 114 5 182 +0 0 181 130 24 81 1 177 463 134 138 183 0 174
 184 185 14 181 314 184 ?0 138 108 5 186 -0 0 0 138 24 15 114 312 0 111 138 180
 51 182 357 0 138 186 140 0 --.009 0 .003 0 0 -1 .003 -1 0 0 50 186 359 0 181 0
 182 0 +-.009 0 .003 0 0 1 1 0 0 50 140 356 0 130 182 133 0 +.009 0 .003 0 0 1 1
 0 0 81 1 184 464 134 181 187 0 177 0 188 15 108 316 0 106 181 189 15 189 317 0
 115 181 0 17 115 0 189 115 115 0 111 107 0 0 -80 1 134 190 191 9000 1 1 1 1 1 1
 1 1 0 FFFFTFTFFFFFFF1 81 1 187 422 192 181 0 184 183 0 193 82 1 188 795607191 8
0 1 192 0 194 8001 0 0 0 0 3 5 0 0 0 FFFFTFTFFFFFFF2 81 1 183 421 192 138 0 177
 195 187 196 83 3 193 .866666666666667 .909803921568627 1 81 1 195 420 192 130 0
 136 135 183 197 83 3 196 .866666666666667 .909803921568627 1 81 1 136 453 134 1
30 195 0 129 141 198 81 1 135 419 192 128 0 129 199 195 200 83 3 197 .8666666666
66667 .909803921568627 1 81 1 199 418 192 131 0 141 176 135 201 83 3 200 .866666
666666667 .909803921568627 1 81 1 141 454 134 131 199 0 136 144 202 81 1 176 417
 192 125 0 174 203 199 204 83 3 201 .866666666666667 .909803921568627 1 81 1 203
 416 192 67 0 170 169 176 205 83 3 204 .866666666666667 .909803921568627 1 81 1
 170 461 134 67 203 0 165 174 206 81 1 169 415 192 154 0 165 164 203 207 83 3 20
5 .866666666666667 .909803921568627 1 81 1 164 414 192 75 0 162 208 169 209 83 3
 207 .866666666666667 .909803921568627 1 81 1 208 413 192 158 0 160 210 164 211
 83 3 209 .866666666666667 .909803921568627 1 81 1 160 458 134 158 208 0 157 162
 212 81 1 210 412 192 150 0 157 213 208 214 83 3 211 .866666666666667 .909803921
568627 1 81 1 157 457 134 150 210 0 148 160 215 81 1 213 411 192 18 0 148 147 21
0 216 83 3 214 .866666666666667 .909803921568627 1 81 1 148 456 134 18 213 0 144
 157 217 81 1 147 410 192 16 0 144 0 213 218 83 3 216 .866666666666667 .90980392
1568627 1 83 3 218 .866666666666667 .909803921568627 1 82 1 217 729874579 82 1 2
15 729088151 82 1 212 729350295 82 1 206 718012563 82 1 202 747110549 82 1 198 7
99735959 79 15 194 SDL/TYSA_COLOUR79 14 191 SWEntUnchanged82 1 185 797573271 82
 1 178 727122071 82 1 171 728563859 82 1 166 729612437 15 161 284 0 109 158 219
 17 109 0 161 109 109 0 106 105 0 0 -15 219 144 0 89 158 0 17 89 0 219 89 89 0 2
20 71 0 0 +17 220 0 68 220 220 0 89 71 0 0 -15 68 6 0 220 67 221 15 221 7 0 222
 67 31 17 222 0 221 222 222 0 92 90 0 0 -17 92 0 223 92 92 0 222 90 0 0 +15 223
 140 0 92 150 0 15 159 290 0 224 150 223 17 224 0 159 224 224 0 110 20 0 0 -17 1
10 0 139 110 110 0 224 20 0 0 +15 139 344 0 110 130 225 15 225 345 0 226 130 0 1
7 226 0 225 226 226 0 120 117 0 0 -17 120 0 132 120 120 0 226 117 0 0 +17 151 0
 145 151 151 0 227 85 0 0 -17 227 0 142 227 227 0 151 85 0 0 +16 85 229 0 ?227 9
8 20 84 0 0 1 15 142 235 0 227 131 168 82 1 149 728826005 82 1 137 801702039 15
 126 83 0 78 125 173 17 78 0 126 76 76 44 59 96 0 0 +17 76 0 126 78 78 41 73 77
 0 59 -17 59 0 57 55 45 41 78 96 0 0 -17 43 0 70 73 61 41 55 60 0 76 +19 17 163
 0 1 0 9 5 S74 20 15 11 0 0 228 229 230 184 231 232 233 234 187 13 2 0 0 0 0 0 0
 0 0 0 81 2 228 51 235 1 0 229 0 0 0 236 81 5 229 52 237 1 228 230 0 0 238 0 0 0
 0 81 2 230 198 239 1 229 231 0 0 0 240 81 1 231 388 241 1 230 232 0 0 242 81 2
 232 403 243 1 231 233 0 0 0 244 81 2 233 406 245 1 232 234 0 0 246 0 81 2 234 4
07 247 1 233 13 0 0 0 0 81 2 13 450 248 1 234 2 0 0 249 0 80 2 248 250 251 8004
 0 0 0 0 3 5 0 0 0 FFTFFFFFFFFFFF2 3 83 1 249 28e2 79 16 251 SDL/TYSA_DENSITY80
 2 247 252 253 9000 0 0 0 0 3 5 0 0 0 FFTFFFFFFFFFFF9 1 79 16 253 BODY_RECIPE_20
0180 2 245 254 255 9000 0 0 0 0 3 5 0 0 0 FFTFTTTFFTFFFF3 3 84 11 246 ??? - ????
379 21 255 SWIMPLICITBODYNAME_ID80 2 243 256 257 9000 0 0 0 0 3 5 0 0 0 FFTFFFFF
FFFFFF9 1 82 1 244 1 79 24 257 BODY_IN_LIGHTWEIGHT_PERM80 1 241 258 259 9000 1 1
 1 1 1 1 1 1 0 FFTFFFFFFFFFFF1 82 1 242 207562 79 10 259 BODY_MATCH80 2 239 260
 261 9000 0 0 0 0 3 5 0 0 0 FFTFFFFFFFFFFF9 1 82 1 240 86 79 30 261 LAST_BODY_MO
DIFYING_FEATURE_ID80 5 237 262 263 9000 0 0 0 0 3 6 0 0 0 FFTTTTTTFTTFTT2 2 2 2
 2 83 1 238 1 79 19 263 BODY_SCALING_FACTOR80 2 235 264 265 9000 0 0 0 0 3 5 0 0
 0 FFTFFFFFFFFFFT9 1 82 1 236 135 79 19 265 ENT_TIME_STAMP_200180 2 12 266 267 9
000 0 0 0 0 3 5 0 0 0 FFTFFFFFFFFFFF9 1 82 1 14 105 79 12 267 ATOM_ID_20011 0 
