**ABCDEFGHIJKLMNOPQRSTUVWXYZabcdefghijklmnopqrstuvwxyz**************************
**PARASOLID !"#$%&'()*+,-./:;<=>?@[\]^_`{|}~0123456789**************************
**PART1;
MC=AMD64;
MC_MODEL=Intel64 Family 6 Model 158 Stepping 9, GenuineIntel;
MC_ID=unknown;
OS=Windows_NT;
OS_RELEASE=unknown;
FRU=Parasolid Version 34.1, build 225,  5-24-2022;
APPL=SOLIDWORKS 2023-2022300;
SITE=;
USER=unknown;
FORMAT=text;
GUISE=transmit;
KEY=rool;
FILE=rool.x_t;
DATE=Wed Feb 14 12:10:11 2024;
**PART2;
SCH=SCH_3401225_34101;
USFLD_SIZE=0;
**PART3;
**END_OF_HEADER*****************************************************************
T51 : TRANSMIT FILE created by modeller version 340122517 SCH_2100000_200000 12
 1 496 2 3 0 0 0 0 1e3 1e-8 0 4 0 1 0 1 1 5 6 7 0 8 9 0 0 0 0 0 81 2 2 484 10 1
 11 0 0 0 0 12 70 3 0 4 T1 0 0 12 20 1 13 13 13 5 31 0 1 0 14 0 0 15 0 51 6 30 0
 16 17 0 0 -0 0 .0031 0 0 -1 .005 -1 0 0 31 7 325 0 9 18 0 0 +0 0 .0031 0 0 1 1
 0 0 .005 19 8 9 0 1 15 0 19 V16 9 273 20 ?21 0 22 7 0 0 1 81 3 20 485 23 9 0 0
 0 24 25 0 0 17 21 0 26 21 21 0 27 9 0 0 +16 22 272 24 ?28 9 29 18 0 0 1 81 3 24
 486 23 22 0 0 20 30 31 0 0 17 28 0 32 28 28 0 33 22 0 0 +16 29 359 30 ?34 22 35
 36 0 0 1 31 18 326 0 22 36 7 0 +0 0 .0031 0 0 1 1 0 0 .004 31 36 412 0 29 37 18
 0 +0 0 0 0 0 -1 -1 0 0 .004 31 37 413 0 35 0 36 0 +0 0 0 0 0 -1 -1 0 0 .005 16
 35 360 38 ?39 29 0 37 0 0 1 81 3 38 488 23 35 0 0 30 0 40 0 0 17 39 0 41 39 39
 0 42 35 0 0 +15 41 383 0 39 43 0 17 42 0 44 42 42 0 39 35 0 0 -15 44 28 0 42 16
 0 14 16 27 45 ?46 14 47 5 6 -0 0 46 14 19 81 3 45 490 48 16 49 0 0 50 51 0 0 14
 46 286 50 ?43 16 52 5 53 +0 0 43 16 19 14 14 352 54 ?16 0 32 5 17 +0 0 16 0 19
 15 47 26 0 27 16 44 13 19 10 0 0 0 0 0 0 8 14 17 27 0 47 27 27 0 21 9 0 0 -81 3
 54 494 48 14 55 0 50 56 57 0 0 15 32 263 0 28 14 58 51 17 70 0 14 53 6 0 -0 0 .
0031 0 0 -1 .004 -1 0 0 50 53 322 0 46 59 17 0 +0 0 .0031 0 0 1 1 0 0 50 59 409
 0 43 0 53 0 +0 0 0 0 0 -1 -1 0 0 14 43 378 56 ?0 46 60 5 59 +0 0 0 46 19 81 3 5
6 496 48 43 61 0 54 0 62 0 0 15 60 382 0 63 43 41 17 63 0 60 63 63 0 34 29 0 0 -
17 34 0 58 34 34 0 63 29 0 0 +15 58 350 0 34 14 0 80 3 48 64 65 9000 0 0 0 0 3 5
 0 0 0 FFFFTFFFFFFFFF1 1 1 81 1 61 495 66 43 67 56 55 0 68 82 6 62 4 933144471 3
1014787 0 561815736 534048927 80 1 66 69 70 9000 1 1 1 1 1 1 1 1 0 FFFFTFTFFFFFF
F1 81 1 67 463 71 43 0 61 72 0 73 81 1 55 493 66 14 74 54 75 61 76 82 1 68 20989
21709 81 1 74 460 71 14 0 55 0 77 78 81 1 75 491 66 46 72 50 49 55 79 82 1 76 21
01215469 81 1 72 462 71 46 0 75 77 67 80 81 3 50 492 48 46 75 0 45 54 81 0 0 81
 1 49 489 66 16 77 45 0 75 82 82 1 79 2072445163 81 1 77 461 71 16 0 49 74 72 83
 82 1 82 1618215148 80 1 71 0 84 8001 0 0 0 0 3 5 0 0 0 FFFFTFTFFFFFFF2 83 3 83
 1 1 1 79 15 84 SDL/TYSA_COLOUR82 6 81 3 933144471 31014787 0 561815736 53404892
7 83 3 80 1 1 1 83 3 78 1 1 1 83 3 73 1 1 1 79 14 70 SWEntUnchanged79 18 65 DOWN
STREAM_FACE_ID82 6 57 1 933144471 31014787 0 561815736 534048927 15 52 290 0 33
 46 26 17 33 0 52 33 33 0 28 22 0 0 -15 26 291 0 21 46 0 82 6 51 2 933144471 310
14787 0 561815736 534048927 80 3 23 48 85 9000 0 0 0 0 3 5 0 0 0 FFFFFFTFFFFFFF1
 1 1 81 3 30 487 23 29 0 0 24 38 86 0 0 82 6 40 8 933144471 31014787 0 561815736
 534048927 82 6 86 7 933144471 31014787 0 561815736 534048927 79 18 85 DOWNSTREA
M_EDGE_ID82 6 31 6 933144471 31014787 0 561815736 534048927 82 6 25 5 933144471
 31014787 0 561815736 534048927 19 15 32 0 1 0 8 5 S74 20 13 12 0 0 61 87 88 89
 90 56 38 91 92 67 11 2 0 0 0 0 0 0 0 0 81 2 87 214 93 1 0 88 0 0 0 94 81 2 88 2
20 95 1 87 89 0 0 0 96 81 2 89 237 97 1 88 90 0 0 0 98 81 1 90 433 99 1 89 91 0
 0 100 81 2 91 456 101 1 90 92 0 0 102 0 81 2 92 457 103 1 91 11 0 0 0 0 81 2 11
 483 104 1 92 2 0 0 105 0 80 2 104 106 107 8004 0 0 0 0 3 5 0 0 0 FFTFFFFFFFFFFF
2 3 83 1 105 1e3 79 16 107 SDL/TYSA_DENSITY80 2 103 108 109 9000 0 0 0 0 3 5 0 0
 0 FFTFFFFFFFFFFF9 1 79 16 109 BODY_RECIPE_200180 2 101 110 111 9000 0 0 0 0 3 5
 0 0 0 FFTFTTTFFTFFFF3 3 84 11 102 ??? - ????279 21 111 SWIMPLICITBODYNAME_ID80
 1 99 112 113 9000 1 1 1 1 1 1 1 1 0 FFTFFFFFFFFFFF1 82 1 100 96581 79 10 113 BO
DY_MATCH80 2 97 114 115 9000 0 0 0 0 3 5 0 0 0 FFTFFFFFFFFFFF9 1 82 1 98 1 79 24
 115 BODY_IN_LIGHTWEIGHT_PERM80 2 95 116 117 9000 0 0 0 0 3 5 0 0 0 FFTFFFFFFFFF
FF9 1 82 1 96 87 79 30 117 LAST_BODY_MODIFYING_FEATURE_ID80 2 93 118 119 9000 0
 0 0 0 3 5 0 0 0 FFTFFFFFFFFFFT9 1 82 1 94 219 79 19 119 ENT_TIME_STAMP_200180 2
 10 120 121 9000 0 0 0 0 3 5 0 0 0 FFTFFFFFFFFFFF9 1 82 1 12 105 79 12 121 ATOM_
ID_20011 0 
