**ABCDEFGHIJKLMNOPQRSTUVWXYZabcdefghijklmnopqrstuvwxyz**************************
**PARASOLID !"#$%&'()*+,-./:;<=>?@[\]^_`{|}~0123456789**************************
**PART1;
MC=AMD64;
MC_MODEL=Intel64 Family 6 Model 158 Stepping 9, GenuineIntel;
MC_ID=unknown;
OS=Windows_NT;
OS_RELEASE=unknown;
FRU=Parasolid Version 34.1, build 225,  5-24-2022;
APPL=SOLIDWORKS 2023-2022300;
SITE=;
USER=unknown;
FORMAT=text;
GUISE=transmit;
KEY=PC obj5;
FILE=PC obj5.x_t;
DATE=Wed Feb 14 12:09:50 2024;
**PART2;
SCH=SCH_3401225_34101;
USFLD_SIZE=0;
**PART3;
**END_OF_HEADER*****************************************************************
T51 : TRANSMIT FILE created by modeller version 340122517 SCH_2100000_200000 12
 1 1996 2 3 0 0 0 0 1e3 1e-8 0 4 0 1 0 1 1 5 6 7 8 9 10 11 0 0 0 0 81 2 2 1951 1
2 1 13 0 0 0 0 14 70 3 0 4 T1 0 0 10 20 1 15 15 13 5 99 0 1 0 16 0 0 17 0 51 6 1
477 0 18 19 0 0 +.005 .005 .01 0 0 -1 .005 -1 0 0 31 7 1534 0 20 21 0 0 +.048485
2814140176 .0514843042885991 .00721 0 0 1 1 0 0 .0015 29 8 1346 0 11 22 0 .005 .
088 .01 19 9 33 0 1 17 0 23 V16 10 1382 0 ?24 0 25 21 0 0 1 18 11 1344 0 26 0 27
 8 ?1 17 26 0 28 29 30 11 31 32 0 33 +18 27 1341 0 34 11 35 22 ?1 17 34 0 36 33
 37 27 38 39 0 29 +18 35 1338 0 40 27 41 42 ?1 29 22 1343 0 27 42 8 .075 .088 .0
1 29 42 1340 0 35 43 22 0 .005 .01 29 43 1337 0 41 44 42 0 .083 .01 18 41 1335 0
 45 35 46 43 ?1 29 44 1324 0 46 47 43 .075 0 .01 18 46 1322 0 48 41 49 44 ?1 29
 47 1321 0 49 50 44 .005 0 .01 18 49 1319 0 51 46 52 47 ?1 29 50 1298 0 52 53 47
 .075 0 0 18 52 1296 0 54 49 55 50 ?1 29 53 1295 0 55 56 50 .005 0 0 18 55 1293
 0 57 52 58 53 ?1 29 56 1292 0 58 59 53 .005 .088 0 18 58 1290 0 60 55 61 56 ?1
 29 59 1289 0 61 62 56 .075 .088 0 18 61 1287 0 63 58 64 59 ?1 29 62 1286 0 64 6
5 59 0 .005 0 18 64 1284 0 66 61 67 62 ?1 29 65 1283 0 67 68 62 0 .083 0 18 67 1
281 0 69 64 70 65 ?1 29 68 1270 0 70 71 65 .08 .083 .01 18 70 1268 0 72 67 73 68
 ?1 29 71 1267 0 73 74 68 .08 .005 .01 18 73 1265 0 75 70 76 71 ?1 29 74 1264 0
 76 77 71 .08 .083 0 18 76 1262 0 78 73 79 74 ?1 29 77 1261 0 79 80 74 .08 .005
 0 18 79 1259 0 81 76 82 77 ?1 29 80 606 0 82 83 77 .02525 .005 .01 18 82 604 0
 84 79 85 80 ?1 29 83 589 0 85 86 80 .05475 .005 0 18 85 587 0 87 82 88 83 ?1 29
 86 210 0 88 89 83 .05475 .083 .01 18 88 208 0 90 85 91 86 ?1 29 89 193 0 91 92
 86 .02525 .083 0 18 91 191 0 93 88 94 89 ?1 29 92 308 0 95 96 89 .05475 .083 0
 18 95 259 0 97 98 99 92 ?1 29 96 309 0 99 100 92 .05475 .07305 0 18 99 257 0 10
1 95 102 96 ?1 29 100 310 0 102 103 96 .02525 .07305 0 18 102 264 0 104 99 105 1
00 ?1 29 103 311 0 94 106 100 .02525 .083 .01 18 94 263 0 107 91 108 103 ?1 29 1
06 313 0 108 109 103 .05475 .07305 .01 18 108 261 0 110 94 98 106 ?1 29 109 314
 0 98 111 106 .02525 .07305 .01 18 98 258 0 112 108 95 109 ?1 29 111 704 0 113 1
14 109 .02525 .005 0 18 113 655 0 115 116 117 111 ?1 29 114 705 0 117 118 111 .0
2525 .01495 0 18 117 653 0 119 113 120 114 ?1 29 118 706 0 120 121 114 .05475 .0
1495 0 18 120 660 0 122 117 0 118 ?1 29 121 707 0 105 123 118 .05475 .005 .01 18
 105 659 0 124 102 125 121 ?1 29 123 709 0 125 126 121 .02525 .01495 .01 18 125
 657 0 127 105 116 123 ?1 29 126 710 0 116 0 123 .05475 .01495 .01 18 116 654 0
 128 125 113 126 ?1 17 128 0 129 130 131 116 132 133 0 134 +15 129 664 0 87 135
 0 17 130 0 129 87 128 120 134 136 0 137 +17 131 0 129 128 87 105 138 139 0 132
 -17 132 0 140 141 142 105 128 133 0 0 -16 133 641 0 ?128 143 144 145 0 0 1 17 1
34 0 146 127 122 116 130 136 0 142 -15 146 668 0 122 147 0 17 127 0 146 119 134
 125 142 143 0 148 +17 122 0 146 134 119 120 149 150 0 130 -16 136 632 0 ?130 15
1 152 153 0 0 1 17 142 0 140 132 154 116 127 143 0 0 -15 140 620 0 132 155 156 1
7 154 0 140 142 141 125 157 158 0 0 -16 143 644 0 ?127 158 133 159 0 0 1 16 158
 647 0 ?157 160 143 161 0 0 1 30 159 701 0 143 145 161 0 +.02525 .01495 .01 -1 0
 0 30 145 702 0 133 162 159 0 +.05475 .005 .01 0 1 0 30 161 700 0 158 159 163 0
 +.02525 .005 .01 0 -1 0 30 163 699 0 160 161 164 0 +.02525 .005 .01 1 0 0 16 16
0 650 0 ?124 139 158 163 0 0 1 30 164 698 0 165 163 166 0 +.05475 .005 0 0 1 0 1
6 165 625 0 ?137 150 167 164 0 0 1 30 166 697 0 150 164 168 0 +.02525 .01495 0 -
1 0 0 16 150 629 0 ?149 169 165 166 0 0 1 30 168 696 0 169 166 170 0 +.02525 .00
5 0 0 -1 0 16 169 633 0 ?171 144 150 168 0 0 1 30 170 695 0 144 168 172 0 +.0252
5 .005 0 1 0 0 16 144 637 0 ?173 133 169 170 0 0 1 30 172 694 0 139 170 174 0 +.
05475 .005 .01 0 0 -1 16 139 628 0 ?138 175 160 172 0 0 1 30 174 693 0 175 172 1
76 0 +.02525 .005 .01 0 0 -1 16 175 640 0 ?115 152 139 174 0 0 1 30 176 692 0 15
2 174 153 0 +.02525 .01495 .01 0 0 -1 16 152 636 0 ?119 136 175 176 0 0 1 30 153
 691 0 136 176 177 0 +.05475 .01495 .01 0 0 -1 31 177 581 0 151 153 178 0 +.0484
852814140176 .0514843042885991 0 0 0 1 1 0 0 .0015 16 151 559 0 ?179 180 136 177
 0 0 1 31 178 543 0 180 177 181 0 +.0400006909717885 .0549983320386071 0 0 0 1 1
 0 0 .0015 16 180 521 0 ?182 183 151 178 0 0 1 31 181 505 0 183 178 184 0 +.0315
163866831894 .0514836134526246 0 0 0 1 1 0 0 .0015 16 183 483 0 ?185 186 180 181
 0 0 1 31 184 467 0 186 181 187 0 +.02800235893318145 .04299902301039555 0 0 0 1
 1 0 0 .0015 16 186 445 0 ?188 189 183 184 0 0 1 31 187 429 0 189 184 190 0 +.03
151707751916385 .03451471872179645 0 0 0 1 1 0 0 .0015 16 189 407 0 ?191 192 186
 187 0 0 1 31 190 391 0 192 187 193 0 +.04000166796139295 .0310006909717885 0 0
 0 1 1 0 0 .0015 16 192 369 0 ?194 195 189 190 0 0 1 31 193 353 0 195 190 196 0
 +.048485972249992 .0345154095577709 0 0 0 1 1 0 0 .0015 16 195 331 0 ?197 198 1
92 193 0 0 1 30 196 306 0 199 193 200 0 +.02525 .083 .01 0 -1 0 16 199 245 0 ?11
2 201 202 196 0 0 1 30 200 305 0 201 196 203 0 +.05475 .07305 .01 1 -47043348501
066e-29 0 16 201 248 0 ?110 204 199 200 0 0 1 30 203 304 0 204 200 205 0 +.05475
 .083 .01 0 1 0 16 204 251 0 ?206 207 201 203 0 0 1 30 205 303 0 207 203 208 0 +
.05475 .083 .01 -1 47043348501066e-29 0 16 207 254 0 ?107 209 204 205 0 0 1 30 2
08 302 0 198 205 210 0 +.02525 .083 0 0 -1 0 16 198 229 0 ?211 212 195 208 0 0 1
 30 210 301 0 212 208 213 0 +.05475 .07305 0 1 -47043348501066e-29 0 16 212 233
 0 ?214 215 198 210 0 0 1 30 213 300 0 215 210 216 0 +.05475 .083 0 0 1 0 16 215
 237 0 ?217 202 212 213 0 0 1 30 216 299 0 202 213 218 0 +.05475 .083 0 -1 47043
348501066e-29 0 16 202 241 0 ?219 199 215 216 0 0 1 30 218 298 0 209 216 220 0 +
.02525 .083 .01 0 0 -1 16 209 232 0 ?221 222 207 218 0 0 1 30 220 297 0 222 218
 223 0 +.05475 .083 .01 0 0 -1 16 222 244 0 ?97 224 209 220 0 0 1 30 223 296 0 2
24 220 225 0 +.05475 .07305 .01 0 0 -1 16 224 240 0 ?101 226 222 223 0 0 1 30 22
5 295 0 226 223 227 0 +.02525 .07305 .01 0 0 -1 16 226 236 0 ?228 229 224 225 0
 0 1 31 227 185 0 229 225 230 0 +.052 .043 0 0 0 1 1 0 0 .0015 16 229 163 0 ?231
 232 226 227 0 0 1 31 230 147 0 232 227 233 0 +.04 .043 0 0 0 1 1 0 0 .002 16 23
2 125 0 ?234 235 229 230 0 0 1 30 233 7 0 236 230 237 0 +0 0 .01 0 -1 0 16 236 1
336 0 ?238 239 240 233 0 0 1 30 237 11 0 239 233 241 0 +0 0 .01 1 0 0 16 239 132
0 0 ?242 243 236 237 0 0 1 30 241 15 0 243 237 244 0 +.08 0 .01 0 1 0 16 243 126
6 0 ?37 245 239 241 0 0 1 30 244 19 0 245 241 246 0 +0 .088 .01 -1 0 0 16 245 13
42 0 ?33 247 243 244 0 0 1 30 246 74 0 235 244 248 0 +0 0 0 0 -1 0 16 235 1282 0
 ?249 250 232 246 0 0 1 30 248 73 0 250 246 251 0 +0 0 0 1 0 0 16 250 1294 0 ?25
2 253 235 248 0 0 1 30 251 72 0 253 248 254 0 +.08 0 0 0 1 0 16 253 1260 0 ?255
 240 250 251 0 0 1 30 254 71 0 240 251 256 0 +0 .088 0 -1 0 0 16 240 1288 0 ?30
 236 253 254 0 0 1 31 256 960 0 257 254 258 0 +.03 .083 .005 -47043348501066e-29
 -1 0 1 -47043348501066e-29 0 .0015 16 257 1022 0 ?259 260 261 256 0 0 1 31 258
 966 0 262 256 263 0 +.05 .083 .005 -47043348501066e-29 -1 0 1 -47043348501066e-
29 0 .0015 16 262 992 0 ?264 265 260 258 0 0 1 31 263 1111 0 266 258 267 0 +.05
 .005 .005 0 1 0 0 0 1 .0015 16 266 1173 0 ?268 269 270 263 0 0 1 31 267 1117 0
 271 263 272 0 +.03 .005 .005 0 1 0 0 0 1 .0015 16 271 1143 0 ?273 274 269 267 0
 0 1 30 272 1273 0 247 267 275 0 -.08 .083 .01 0 0 -1 16 247 1271 0 ?72 276 245
 272 0 0 1 30 275 1278 0 276 272 277 0 +.08 .005 .01 0 0 -1 16 276 1276 0 ?278 2
79 247 275 0 0 1 31 277 1301 0 279 275 280 0 +.005 .005 0 0 0 -1 -1 0 0 .005 16
 279 1299 0 ?66 281 276 277 0 0 1 31 280 1306 0 281 277 282 0 +.005 .083 0 0 0 -
1 -1 0 0 .005 16 281 1304 0 ?60 283 279 280 0 0 1 31 282 1311 0 283 280 284 0 +.
075 .083 0 0 0 -1 -1 0 0 .005 16 283 1309 0 ?78 285 281 282 0 0 1 31 284 1316 0
 285 282 286 0 +.075 .005 0 0 0 -1 -1 0 0 .005 16 285 1314 0 ?54 287 283 284 0 0
 1 30 286 1327 0 287 284 288 0 +.005 0 .01 0 0 -1 16 287 1325 0 ?289 290 285 286
 0 0 1 30 288 1332 0 290 286 291 0 -.075 0 .01 0 0 -1 16 290 1330 0 ?48 292 287
 288 0 0 1 31 291 1349 0 292 288 293 0 -.005 .005 .01 0 0 -1 -1 0 0 .005 16 292
 1347 0 ?51 294 290 291 0 0 1 31 293 1354 0 294 291 295 0 -.005 .083 .01 0 0 -1
 -1 0 0 .005 16 294 1352 0 ?45 39 292 293 0 0 1 31 295 1359 0 39 293 296 0 -.075
 .083 .01 0 0 -1 -1 0 0 .005 16 39 1357 0 ?34 297 294 295 0 0 1 31 296 1364 0 29
7 295 298 0 -.075 .005 .01 0 0 -1 -1 0 0 .005 16 297 1362 0 ?75 32 39 296 0 0 1
 30 298 1369 0 32 296 299 0 -.005 .088 .01 0 0 -1 16 32 1367 0 ?26 300 297 298 0
 0 1 30 299 1374 0 300 298 301 0 +.075 .088 .01 0 0 -1 16 300 1372 0 ?302 25 32
 299 0 0 1 30 301 1379 0 25 299 21 0 -0 .005 .01 0 0 -1 16 25 1377 0 ?40 10 300
 301 0 0 1 30 21 1384 0 10 301 7 0 +0 .083 .01 0 0 -1 17 40 0 303 304 249 35 305
 25 0 238 +15 303 89 0 304 306 0 17 304 0 303 24 40 41 238 236 0 307 -17 249 0 3
03 40 24 64 308 235 0 305 +17 305 0 309 57 310 64 40 25 0 0 -17 238 0 36 51 45 3
5 304 236 0 310 +15 36 4 0 242 155 140 17 51 0 36 242 238 49 310 292 0 311 +17 4
5 0 36 238 33 41 312 294 0 304 +17 310 0 309 305 313 35 51 292 0 0 -15 309 1466
 0 310 18 0 17 313 0 309 310 57 49 289 287 0 0 -17 57 0 309 313 305 55 66 279 0
 289 -17 289 0 314 252 311 55 313 287 0 315 +15 314 87 0 252 316 0 17 252 0 314
 48 289 52 315 250 0 317 +17 311 0 314 289 48 49 242 239 0 313 -17 315 0 318 66
 54 55 252 250 0 0 -15 318 49 0 319 320 321 17 66 0 318 308 315 64 57 279 0 249
 +17 54 0 318 315 319 52 81 285 0 252 +17 319 0 318 54 78 79 255 253 0 0 -17 81
 0 322 323 317 79 54 285 0 278 -15 322 1403 0 324 325 0 17 323 0 322 324 81 73 2
78 276 0 0 -17 317 0 322 81 324 52 48 290 0 0 -17 278 0 326 255 327 79 323 276 0
 319 +15 326 85 0 327 328 0 17 255 0 326 72 278 76 319 253 0 329 +17 327 0 326 2
78 72 73 37 243 0 323 -17 72 0 326 327 255 70 329 247 0 37 +17 37 0 36 34 75 70
 327 243 0 38 +17 75 0 36 37 242 73 324 297 0 327 +17 38 0 330 329 331 70 34 39
 0 0 -15 330 1424 0 38 332 0 17 329 0 330 63 38 76 72 247 0 0 -17 331 0 330 38 6
3 27 302 300 0 0 -17 63 0 330 331 329 61 78 283 0 302 -17 302 0 28 30 29 61 331
 300 0 333 +15 28 83 0 29 334 0 17 30 0 28 26 302 58 333 240 0 31 +17 29 0 28 30
2 26 27 33 245 0 331 -17 333 0 318 78 60 61 30 240 0 0 -17 78 0 318 319 333 76 6
3 283 0 255 +17 60 0 318 333 308 58 69 281 0 30 +17 308 0 318 60 66 67 249 235 0
 0 -17 69 0 335 307 31 67 60 281 0 24 -15 335 1445 0 312 336 0 17 307 0 335 312
 69 41 24 10 0 0 -17 31 0 335 69 312 58 26 32 0 0 -17 24 0 303 249 304 67 307 10
 0 308 +17 312 0 335 31 307 11 45 294 0 0 -14 336 1444 337 ?18 332 335 5 19 +0 0
 18 332 23 81 1 337 1952 338 336 339 0 0 340 341 14 18 1465 340 ?342 336 309 5 6
 +0 0 342 336 23 14 332 1423 343 ?336 325 330 5 344 +0 0 336 325 23 51 19 1456 0
 336 344 6 0 +.005 .083 .01 0 0 -1 .005 -1 0 0 13 23 34 0 0 0 0 0 0 9 16 14 16 1
575 345 ?346 0 347 5 348 +0 0 346 0 23 81 1 345 1955 338 16 349 0 343 350 351 14
 346 1570 350 ?352 16 353 5 354 +0 0 352 16 23 15 347 135 0 355 16 356 51 348 14
4 0 16 354 357 0 -.04 .043 .01 0 0 -1 .002 -1 0 0 51 354 182 0 346 358 348 0 -.0
52 .043 .01 0 0 -1 .0015 -1 0 0 50 357 3 0 155 348 359 0 +0 0 .01 0 0 -1 -1 0 0
 14 155 838 360 ?320 361 362 5 357 -0 0 320 361 23 50 359 70 0 320 357 363 0 +0
 0 0 0 0 -1 -1 0 0 14 320 832 364 ?306 155 365 5 359 +0 0 306 155 23 50 363 91 0
 334 359 366 0 +0 .088 .01 0 -1 0 0 0 -1 14 334 84 367 ?368 328 369 5 363 -0 0 3
68 328 23 50 366 92 0 328 363 370 0 +.08 0 .01 -1 0 0 0 0 1 14 328 86 371 ?334 3
16 326 5 366 -0 0 334 316 23 50 370 93 0 316 366 372 0 +0 0 .01 0 1 0 0 0 1 14 3
16 88 373 ?328 306 374 5 370 -0 0 328 306 23 50 372 94 0 306 370 375 0 +0 0 .01
 1 0 0 0 0 -1 14 306 90 376 ?316 320 303 5 372 -0 0 316 320 23 51 375 1414 0 325
 372 344 0 +.075 .005 .01 0 0 -1 .005 -1 0 0 14 325 1402 377 ?332 378 322 5 375
 +0 0 332 378 23 51 344 1435 0 332 375 19 0 +.075 .083 .01 0 0 -1 .005 -1 0 0 81
 1 377 1963 338 325 379 0 376 380 381 14 378 1166 380 ?325 382 383 5 384 +0 0 32
5 382 23 81 1 380 1964 338 378 385 0 377 386 387 14 382 1156 386 ?378 388 389 5
 390 -391 391 378 388 23 15 383 1168 0 392 378 0 50 384 1211 0 378 393 390 0 +.0
3 .02 .005 0 -1 0 0 0 -1 51 393 1693 0 342 394 384 0 +.04 .043 .00721 0 0 1 .016
 1 0 0 51 390 1209 0 391 384 395 0 +.03 .02 .005 0 -1 0 .0015 0 0 -1 14 391 1161
 396 ?397 398 399 5 390 -382 382 397 398 23 50 395 1208 0 388 390 400 0 +.05 .02
 .005 0 -1 0 0 0 -1 14 388 1196 401 ?382 397 402 5 395 +0 0 382 397 23 51 400 12
06 0 398 395 403 0 +.05 .02 .005 0 -1 0 .0015 0 0 -1 14 398 1191 404 ?391 405 40
6 5 400 -397 397 391 405 23 50 403 1060 0 405 400 407 0 +.05 .068 .005 0 1 0 0 0
 1 14 405 1015 408 ?398 409 410 5 403 +0 0 398 409 23 51 407 1058 0 411 403 412
 0 +.05 .068 .005 0 1 0 .0015 0 0 1 14 411 1010 413 ?414 415 416 5 407 -409 409
 414 415 23 50 412 1057 0 417 407 418 0 +.03 .068 .005 0 1 0 0 0 1 14 417 1045 4
19 ?409 414 420 5 412 +0 0 409 414 23 51 418 1055 0 415 412 421 0 +.03 .068 .005
 0 1 0 .0015 0 0 1 14 415 1040 422 ?411 423 424 5 418 -414 414 411 423 23 51 421
 860 0 423 418 425 0 -.00900000000000065 .013 .01 0 0 -1 .00175 -1 0 0 14 423 84
7 426 ?415 427 428 5 421 +0 0 415 427 23 51 425 822 0 427 421 429 0 -.071 .01300
000000000086 .01 0 0 -1 .00175 -1 0 0 14 427 809 430 ?423 431 432 5 425 +0 0 423
 431 23 51 429 784 0 431 425 433 0 -.071 .0750000000000009 .01 0 0 -1 .00175 -1
 0 0 14 431 771 434 ?427 435 436 5 429 +0 0 427 435 23 51 433 746 0 435 429 437
 0 -.009 .075 .01 0 0 -1 .00175 -1 0 0 14 435 733 438 ?431 439 440 5 433 +0 0 43
1 439 23 50 437 688 0 439 433 441 0 +.02525 .005 .01 0 1 0 0 0 1 14 439 673 442
 ?435 443 444 5 437 +0 0 435 443 23 50 441 687 0 443 437 445 0 +.02525 .005 .01
 1 0 0 0 0 -1 14 443 669 446 ?439 147 447 5 441 +0 0 439 147 23 50 445 686 0 147
 441 448 0 +.02525 .01495 .01 0 -1 0 0 0 -1 14 147 665 449 ?443 135 450 5 445 +0
 0 443 135 23 50 448 685 0 135 445 451 0 +.05475 .005 .01 -1 0 0 0 0 1 14 135 66
1 452 ?147 453 129 5 448 +0 0 147 453 23 51 451 578 0 361 448 454 0 -.0484852814
140176 .0514843042885991 .01 0 0 -1 .0015 -1 0 0 14 361 1535 455 ?155 456 457 5
 451 +0 0 155 456 23 51 454 540 0 456 451 458 0 -.0400006909717885 .054998332038
6071 .01 0 0 -1 .0015 -1 0 0 14 456 1540 459 ?361 460 461 5 454 +0 0 361 460 23
 51 458 502 0 460 454 462 0 -.0315163866831894 .0514836134526246 .01 0 0 -1 .001
5 -1 0 0 14 460 1545 463 ?456 464 465 5 458 +0 0 456 464 23 51 462 464 0 464 458
 466 0 -.02800235893318145 .04299902301039555 .01 0 0 -1 .0015 -1 0 0 14 464 155
0 467 ?460 468 469 5 462 +0 0 460 468 23 51 466 426 0 468 462 470 0 -.0315170775
1916385 .03451471872179645 .01 0 0 -1 .0015 -1 0 0 14 468 1555 471 ?464 472 473
 5 466 +0 0 464 472 23 51 470 388 0 472 466 474 0 -.04000166796139295 .031000690
9717885 .01 0 0 -1 .0015 -1 0 0 14 472 1560 475 ?468 352 476 5 470 +0 0 468 352
 23 51 474 350 0 352 470 477 0 -.048485972249992 .0345154095577709 .01 0 0 -1 .0
015 -1 0 0 14 352 1565 478 ?472 346 479 5 474 +0 0 472 346 23 50 477 292 0 453 4
74 480 0 +.05475 .083 .01 -47043348501066e-29 -1 0 1 -47043348501066e-29 0 14 45
3 277 481 ?135 482 483 5 477 +0 0 135 482 23 50 480 291 0 482 477 484 0 +.05475
 .083 .01 -1 0 0 0 0 1 14 482 273 485 ?453 486 487 5 480 +0 0 453 486 23 50 484
 290 0 486 480 358 0 +.05475 .07305 .01 47043348501066e-29 1 0 -1 47043348501066
e-29 0 14 486 269 488 ?482 368 489 5 484 +0 0 482 368 23 50 358 289 0 368 484 35
4 0 +.02525 .083 .01 1 0 0 0 0 -1 14 368 265 490 ?486 334 491 5 358 +0 0 486 334
 23 81 1 490 1991 338 368 492 0 488 493 494 15 491 268 0 93 368 0 17 93 0 491 49
5 228 91 211 198 0 221 -17 495 0 491 112 93 94 221 209 0 496 -17 228 0 491 93 11
2 102 497 226 0 211 +17 211 0 498 214 219 102 93 198 0 0 +17 221 0 499 500 107 9
1 495 209 0 219 +15 499 280 0 500 453 0 17 500 0 499 90 221 95 219 202 0 217 -17
 107 0 499 221 90 94 501 207 0 495 +17 219 0 498 211 217 91 500 202 0 0 +15 498
 189 0 219 320 502 17 217 0 498 219 214 95 503 215 0 0 +17 214 0 498 217 211 99
 104 212 0 0 +17 503 0 487 504 97 99 217 215 0 214 -15 487 276 0 503 482 0 17 50
4 0 487 206 503 108 101 224 0 505 -17 97 0 487 503 206 95 90 222 0 500 +17 206 0
 487 97 504 88 505 204 0 501 +17 90 0 499 107 500 88 97 222 0 206 -17 505 0 506
 507 501 108 206 204 0 0 -17 501 0 506 505 496 88 107 207 0 0 -15 506 224 0 496
 155 36 17 496 0 506 501 507 94 112 199 0 0 -17 507 0 506 496 505 98 110 201 0 0
 -17 112 0 491 228 495 98 496 199 0 497 +17 497 0 508 110 104 98 228 226 0 507 -
15 508 272 0 104 486 0 17 110 0 508 101 497 108 507 201 0 504 +17 104 0 508 497
 101 102 214 212 0 228 -17 101 0 508 104 110 99 504 224 0 503 +15 502 151 0 231
 320 318 17 231 0 502 231 231 0 509 229 0 0 +17 509 0 353 509 509 0 231 229 0 0
 -15 353 173 0 509 346 510 15 510 1568 0 511 346 0 17 511 0 510 511 511 0 512 51
3 0 0 +17 512 0 514 512 512 0 511 513 0 0 -16 513 1597 0 ?511 515 516 517 0 0 1
 16 515 1596 0 ?518 519 513 520 0 0 1 16 516 1598 0 ?521 513 522 523 0 0 1 31 51
7 1697 0 513 523 520 0 +.052 .043 .00721 0 0 1 1 0 0 .0015 31 523 1698 0 516 524
 517 0 +.048485972249992 .0345154095577709 .00721 0 0 1 1 0 0 .0015 31 520 1696
 0 515 517 525 0 +.04 .043 .00721 0 0 1 1 0 0 .002 31 525 1217 0 270 520 526 0 +
.03 .02 .005 0 -1 0 0 0 -1 .0015 16 270 1145 0 ?392 266 527 525 0 0 1 31 526 121
6 0 527 525 528 0 +.03 0 .005 0 -1 0 0 0 -1 .0015 16 527 1148 0 ?529 270 530 526
 0 0 1 31 528 1215 0 530 526 531 0 +.05 .02 .005 0 -1 0 0 0 -1 .0015 16 530 1175
 0 ?532 527 519 528 0 0 1 31 531 1214 0 519 528 533 0 +.05 0 .005 0 -1 0 0 0 -1
 .0015 16 519 1178 0 ?534 530 515 531 0 0 1 31 533 1213 0 269 531 535 0 +.05 .01
495 .005 0 -1 0 0 0 -1 .0015 16 269 1174 0 ?536 271 266 533 0 0 1 31 535 1212 0
 274 533 537 0 +.03 .01495 .005 0 -1 0 0 0 -1 .0015 16 274 1144 0 ?538 539 271 5
35 0 0 1 31 537 1066 0 261 535 540 0 +.05 .068 .005 0 1 0 0 0 1 .0015 16 261 994
 0 ?541 257 542 537 0 0 1 31 540 1065 0 542 537 543 0 +.05 .088 .005 0 1 0 0 0 1
 .0015 16 542 997 0 ?544 261 545 540 0 0 1 31 543 1064 0 545 540 546 0 +.03 .068
 .005 0 1 0 0 0 1 .0015 16 545 1024 0 ?547 542 539 543 0 0 1 31 546 1063 0 539 5
43 548 0 +.03 .088 .005 0 1 0 0 0 1 .0015 16 539 1027 0 ?549 545 274 546 0 0 1 3
1 548 1062 0 260 546 550 0 +.03 .07305 .005 47043348501066e-29 1 0 -1 4704334850
1066e-29 0 .0015 16 260 1023 0 ?551 262 257 548 0 0 1 31 550 1061 0 265 548 552
 0 +.05 .07305 .005 47043348501066e-29 1 0 -1 47043348501066e-29 0 .0015 16 265
 993 0 ?553 554 262 550 0 0 1 31 552 864 0 555 550 556 0 +.00900000000000065 .01
3 .01 0 0 1 1 0 0 .00175 16 555 844 0 ?557 558 554 552 0 0 1 31 556 863 0 554 55
2 559 0 +.00900000000000065 .013 0 0 0 1 1 0 0 .00175 16 554 841 0 ?560 555 265
 556 0 0 1 31 559 826 0 561 556 562 0 +.071 .01300000000000086 .01 0 0 1 1 0 0 .
00175 16 561 806 0 ?563 564 558 559 0 0 1 31 562 825 0 558 559 565 0 +.071 .0130
0000000000086 0 0 0 1 1 0 0 .00175 16 558 803 0 ?566 561 555 562 0 0 1 31 565 78
8 0 567 562 568 0 +.071 .0750000000000009 .01 0 0 1 1 0 0 .00175 16 567 768 0 ?5
69 570 564 565 0 0 1 31 568 787 0 564 565 571 0 +.071 .0750000000000009 0 0 0 1
 1 0 0 .00175 16 564 765 0 ?572 567 561 568 0 0 1 31 571 750 0 167 568 162 0 +.0
09 .075 .01 0 0 1 1 0 0 .00175 16 167 730 0 ?573 165 570 571 0 0 1 31 162 749 0
 570 571 145 0 +.009 .075 0 0 0 1 1 0 0 .00175 16 570 727 0 ?574 167 567 162 0 0
 1 17 574 0 575 574 574 0 576 570 0 0 +15 575 715 0 574 320 577 17 576 0 578 576
 576 0 574 570 0 0 -15 578 737 0 576 435 0 15 577 509 0 182 320 579 17 182 0 577
 182 182 0 580 180 0 0 +15 579 433 0 188 320 581 17 188 0 579 188 188 0 582 186
 0 0 +15 581 357 0 194 320 498 17 194 0 581 194 194 0 583 192 0 0 +17 583 0 476
 583 583 0 194 192 0 0 -15 476 379 0 583 472 584 15 584 1558 0 585 472 0 17 585
 0 584 585 585 0 586 522 0 0 +17 586 0 587 586 586 0 585 522 0 0 -16 522 1599 0
 ?585 516 588 524 0 0 1 16 588 1600 0 ?589 522 590 591 0 0 1 31 524 1699 0 522 5
91 523 0 +.04000166796139295 .0310006909717885 .00721 0 0 1 1 0 0 .0015 31 591 1
700 0 588 592 524 0 +.03151707751916385 .03451471872179645 .00721 0 0 1 1 0 0 .0
015 31 592 1701 0 590 593 591 0 +.02800235893318145 .04299902301039555 .00721 0
 0 1 1 0 0 .0015 16 590 1601 0 ?594 588 595 592 0 0 1 31 593 1702 0 595 596 592
 0 +.0315163866831894 .0514836134526246 .00721 0 0 1 1 0 0 .0015 16 595 1602 0 ?
597 590 598 593 0 0 1 31 596 1703 0 598 599 593 0 +.0400006909717885 .0549983320
386071 .00721 0 0 1 1 0 0 .0015 16 598 1603 0 ?600 595 20 596 0 0 1 31 599 1713
 0 601 602 596 0 +.04 .043 .01 0 0 1 1 0 0 .016 16 601 1605 0 ?603 604 0 599 0 0
 1 31 602 1714 0 604 0 599 0 +.04 .043 .00721 0 0 1 1 0 0 .016 16 604 1593 0 ?60
5 20 601 602 0 0 1 17 605 0 606 605 605 0 607 604 0 0 +16 20 1604 0 ?608 598 604
 7 0 0 1 17 608 0 609 608 608 0 610 20 0 0 +15 609 1532 0 608 361 0 17 610 0 611
 610 610 0 608 20 0 0 -15 611 1677 0 610 612 606 14 612 1667 493 ?0 342 613 5 39
4 +0 0 0 342 23 15 606 1678 0 605 612 0 81 1 493 1992 338 612 614 0 490 615 616
 14 342 1662 615 ?612 18 617 5 393 -0 0 612 18 23 15 613 1669 0 618 612 514 50 3
94 1695 0 612 0 393 0 +.04 .043 .00721 0 0 1 1 0 0 17 618 0 613 618 618 0 518 51
5 0 0 -15 514 1670 0 512 612 619 15 619 1671 0 620 612 587 17 620 0 619 620 620
 0 521 516 0 0 -15 587 1672 0 586 612 621 15 621 1673 0 622 612 623 17 622 0 621
 622 622 0 589 588 0 0 -15 623 1674 0 624 612 625 17 624 0 623 624 624 0 594 590
 0 0 -15 625 1675 0 626 612 627 17 626 0 625 626 626 0 597 595 0 0 -15 627 1676
 0 628 612 611 17 628 0 627 628 628 0 600 598 0 0 -17 600 0 629 600 600 0 628 59
8 0 0 +15 629 1538 0 600 456 0 17 597 0 630 597 597 0 626 595 0 0 +15 630 1543 0
 597 460 0 17 594 0 631 594 594 0 624 590 0 0 +15 631 1548 0 594 464 0 17 589 0
 632 589 589 0 622 588 0 0 +15 632 1553 0 589 468 0 17 521 0 633 521 521 0 620 5
16 0 0 +15 633 1563 0 521 352 0 17 518 0 356 518 518 0 618 515 0 0 +15 356 1573
 0 518 16 0 81 1 615 1993 338 342 634 0 493 635 636 15 617 1665 0 607 342 637 17
 607 0 617 607 607 0 605 604 0 0 -15 637 1666 0 603 342 0 17 603 0 637 603 603 0
 638 601 0 0 +17 638 0 362 638 638 0 603 601 0 0 -15 362 1578 0 638 155 506 80 1
 338 639 640 9000 1 1 1 1 1 1 1 1 0 FFFFTFTFFFFFFF1 81 1 634 1857 641 342 0 615
 642 614 643 81 1 635 1994 338 397 644 0 615 645 646 82 1 636 -670301886 14 397
 1186 635 ?388 391 647 5 400 -398 398 388 391 23 81 1 644 1849 641 397 0 635 648
 649 650 81 1 645 1995 338 409 651 0 635 652 653 82 1 646 -728760001 14 409 1005
 645 ?405 417 654 5 407 -411 411 405 417 23 81 1 651 1845 641 409 0 645 655 656
 657 81 1 652 1996 338 414 658 0 645 0 659 82 1 653 -753401539 14 414 1035 652 ?
417 411 660 5 418 -415 415 417 411 23 81 1 658 1843 641 414 0 652 661 655 662 82
 1 659 -754515651 80 1 641 0 663 8001 0 0 0 0 3 5 0 0 0 FFFFTFTFFFFFFF2 81 1 661
 1842 641 411 0 413 664 658 665 81 1 655 1844 641 417 0 419 658 651 666 83 3 662
 1 1 1 81 1 419 1971 338 417 655 0 413 422 667 83 3 666 1 1 1 81 1 413 1970 338
 411 661 0 408 419 668 81 1 422 1972 338 415 664 0 419 426 669 82 1 667 -7596274
59 81 1 664 1841 641 415 0 422 670 661 671 81 1 426 1973 338 423 670 0 422 430 6
72 82 1 669 -757661379 81 1 670 1840 641 423 0 426 673 664 674 81 1 430 1974 338
 427 673 0 426 434 675 82 1 672 -806813381 81 1 673 1839 641 427 0 430 676 670 6
77 81 1 434 1975 338 431 676 0 430 438 678 82 1 675 -810876613 81 1 676 1838 641
 431 0 434 679 673 680 81 1 438 1976 338 435 679 0 434 442 681 82 1 678 -8149398
45 81 1 679 1837 641 435 0 438 682 676 683 81 1 442 1977 338 439 682 0 438 446 6
84 82 1 681 -819003077 81 1 682 1836 641 439 0 442 685 679 686 81 1 446 1978 338
 443 685 0 442 449 687 82 1 684 -824573633 81 1 685 1835 641 443 0 446 688 682 6
89 81 1 449 1979 338 147 688 0 446 452 690 82 1 687 -824311493 81 1 688 1834 641
 147 0 449 691 685 692 81 1 452 1980 338 135 691 0 449 455 693 82 1 690 -8240493
45 81 1 691 1833 641 135 0 452 694 688 695 81 1 455 1981 338 361 696 0 452 459 6
97 82 1 693 -823787205 81 1 696 1822 641 361 0 455 698 699 700 81 1 459 1982 338
 456 698 0 455 463 701 82 1 697 -668335806 81 1 698 1821 641 456 0 459 702 696 7
03 81 1 463 1983 338 460 702 0 459 467 704 82 1 701 -658505406 81 1 702 1820 641
 460 0 463 705 698 706 81 1 467 1984 338 464 705 0 463 471 707 82 1 704 -6580466
54 81 1 705 1819 641 464 0 467 708 702 709 81 1 471 1985 338 468 708 0 467 475 7
10 82 1 707 -657587902 81 1 708 1818 641 468 0 471 711 705 712 81 1 475 1986 338
 472 711 0 471 478 713 82 1 710 -657129150 81 1 711 1817 641 472 0 475 714 708 7
15 81 1 478 1987 338 352 714 0 475 481 716 82 1 713 -656670398 81 1 714 1816 641
 352 0 478 717 711 718 81 1 481 1988 338 453 694 0 478 485 719 82 1 716 -6562116
46 81 1 694 1832 641 453 0 481 720 691 721 81 1 485 1989 338 482 720 0 481 488 7
22 82 1 719 -864681667 81 1 720 1831 641 482 0 485 723 694 724 81 1 488 1990 338
 486 723 0 485 490 725 82 1 722 -864419525 81 1 723 1830 641 486 0 488 492 720 7
26 82 1 725 -864157379 81 1 492 1829 641 368 0 490 727 723 728 83 3 726 1 1 1 81
 1 727 1828 641 334 0 367 729 492 730 83 3 728 1 1 1 81 1 367 1959 338 334 727 0
 364 371 731 81 1 729 1827 641 328 0 371 732 727 733 83 3 730 1 1 1 81 1 371 196
0 338 328 729 0 367 373 734 81 1 732 1826 641 316 0 373 735 729 736 83 3 733 1 1
 1 81 1 373 1961 338 316 732 0 371 376 737 81 1 735 1825 641 306 0 376 738 732 7
39 83 3 736 1 1 1 81 1 376 1962 338 306 735 0 373 377 740 81 1 738 1824 641 320
 0 364 699 735 741 83 3 739 1 1 1 81 1 364 1958 338 320 738 0 360 367 742 81 1 6
99 1823 641 155 0 360 696 738 743 83 3 741 1 1 1 81 1 360 1957 338 155 699 0 350
 364 744 83 3 743 1 1 1 81 1 350 1956 338 346 717 0 345 360 745 82 1 744 -780205
758 81 1 717 1815 641 346 0 350 349 714 746 82 1 745 -655752894 81 1 349 1814 64
1 16 0 345 0 717 747 83 3 746 1 1 1 83 3 747 1 1 1 82 1 742 -780730048 82 1 740
 -883752640 82 1 737 -884014784 82 1 734 -884276928 82 1 731 -884539072 83 3 724
 1 1 1 83 3 721 1 1 1 83 3 718 1 1 1 83 3 715 1 1 1 83 3 712 1 1 1 83 3 709 1 1
 1 83 3 706 1 1 1 83 3 703 1 1 1 83 3 700 1 1 1 83 3 695 1 1 1 83 3 692 1 1 1 83
 3 689 1 1 1 83 3 686 1 1 1 83 3 683 1 1 1 83 3 680 1 1 1 83 3 677 1 1 1 83 3 67
4 1 1 1 83 3 671 1 1 1 81 1 408 1969 338 405 656 0 404 413 748 82 1 668 -7616590
75 81 1 656 1846 641 405 0 408 651 749 750 81 1 404 1968 338 398 749 0 401 408 7
51 82 1 748 -763625155 81 1 749 1847 641 398 0 404 656 648 752 81 1 401 1967 338
 388 649 0 396 404 753 82 1 751 -731905729 81 1 649 1850 641 388 0 401 644 754 7
55 81 1 396 1966 338 391 648 0 386 401 756 82 1 753 -733871809 81 1 648 1848 641
 391 0 396 749 644 757 81 1 386 1965 338 382 754 0 380 396 758 82 1 756 -7359034
25 81 1 754 1851 641 382 0 386 649 385 759 82 1 758 -727645889 81 1 385 1852 641
 378 0 380 754 379 760 83 3 759 1 1 1 81 1 379 1853 641 325 0 377 385 761 762 83
 3 760 1 1 1 81 1 761 1854 641 332 0 343 379 339 763 83 3 762 1 1 1 81 1 343 195
4 338 332 761 0 340 345 764 81 1 339 1855 641 336 0 337 761 642 765 83 3 763 1 1
 1 81 1 642 1856 641 18 0 340 339 634 766 83 3 765 1 1 1 81 1 340 1953 338 18 64
2 0 337 343 767 83 3 766 1 1 1 82 1 767 -713227968 82 1 764 -717160128 83 3 757
 1 1 1 83 3 755 1 1 1 83 3 752 1 1 1 83 3 750 1 1 1 83 3 665 1 1 1 79 15 663 SDL
/TYSA_COLOUR15 660 1038 0 551 414 768 17 551 0 660 551 551 0 769 260 0 0 +15 768
 1039 0 770 414 0 17 770 0 768 770 770 0 547 545 0 0 -17 547 0 420 547 547 0 770
 545 0 0 +15 420 1047 0 547 417 0 17 769 0 771 769 769 0 551 260 0 0 -15 771 971
 0 769 486 508 83 3 657 1 1 1 15 654 1008 0 553 409 772 17 553 0 654 553 553 0 7
73 265 0 0 +15 772 1009 0 774 409 0 17 774 0 772 774 774 0 541 261 0 0 -17 541 0
 410 541 541 0 774 261 0 0 +15 410 1017 0 541 405 0 17 773 0 489 773 773 0 553 2
65 0 0 -15 489 976 0 773 486 771 83 3 650 1 1 1 15 647 1189 0 536 397 775 17 536
 0 647 536 536 0 776 269 0 0 +15 775 1190 0 777 397 0 17 777 0 775 777 777 0 532
 530 0 0 -17 532 0 402 532 532 0 777 530 0 0 +15 402 1198 0 532 388 0 17 776 0 7
78 776 776 0 536 269 0 0 -15 778 1122 0 776 147 146 81 1 614 1858 641 612 0 493
 634 0 779 83 3 643 1 1 1 83 3 779 1 1 1 79 14 640 SWEntUnchanged82 1 616 -67226
7966 17 582 0 469 582 582 0 188 186 0 0 -15 469 455 0 582 464 631 17 580 0 461 5
80 580 0 182 180 0 0 -15 461 531 0 580 456 629 17 573 0 440 573 573 0 780 167 0
 0 +15 440 736 0 573 435 578 17 780 0 156 780 780 0 573 167 0 0 -15 156 722 0 78
0 155 781 15 781 760 0 782 155 783 17 782 0 781 782 782 0 569 567 0 0 -15 783 79
8 0 784 155 785 17 784 0 783 784 784 0 563 561 0 0 -15 785 836 0 786 155 0 17 78
6 0 785 786 786 0 557 555 0 0 -17 557 0 428 557 557 0 786 555 0 0 +15 428 850 0
 557 423 787 15 787 851 0 788 423 0 17 788 0 787 788 788 0 560 554 0 0 -17 560 0
 789 560 560 0 788 554 0 0 +15 789 829 0 560 320 0 17 563 0 432 563 563 0 784 56
1 0 0 +15 432 812 0 563 427 790 15 790 813 0 791 427 0 17 791 0 790 791 791 0 56
6 558 0 0 -17 566 0 365 566 566 0 791 558 0 0 +15 365 791 0 566 320 575 17 569 0
 436 569 569 0 782 567 0 0 +15 436 774 0 569 431 792 15 792 775 0 793 431 0 17 7
93 0 792 793 793 0 572 564 0 0 -17 572 0 794 572 572 0 793 564 0 0 +15 794 753 0
 572 320 789 17 549 0 795 549 549 0 796 539 0 0 +15 795 1044 0 549 415 0 17 796
 0 797 796 796 0 549 539 0 0 -15 797 980 0 796 334 28 17 544 0 798 544 544 0 799
 542 0 0 +15 798 1014 0 544 411 0 17 799 0 369 799 799 0 544 542 0 0 -15 369 986
 0 799 334 797 17 538 0 389 538 538 0 800 274 0 0 +15 389 1159 0 538 382 801 17
 800 0 450 800 800 0 538 274 0 0 -15 450 1127 0 800 147 778 15 801 1160 0 802 38
2 0 17 802 0 801 802 802 0 392 270 0 0 -17 392 0 383 392 392 0 802 270 0 0 +17 5
34 0 803 534 534 0 804 519 0 0 +15 803 1195 0 534 398 0 17 804 0 805 804 804 0 5
34 519 0 0 -15 805 1131 0 804 316 314 17 529 0 806 529 529 0 807 527 0 0 +15 806
 1165 0 529 391 0 17 807 0 374 807 807 0 529 527 0 0 -15 374 1137 0 807 316 805
 82 1 494 -863895237 15 483 965 0 808 453 809 17 808 0 483 808 808 0 264 262 0 0
 -15 809 959 0 810 453 499 17 810 0 809 810 810 0 259 257 0 0 -17 259 0 424 259
 259 0 810 257 0 0 +15 424 1043 0 259 415 795 17 264 0 416 264 264 0 808 262 0 0
 +15 416 1013 0 264 411 798 15 479 341 0 811 352 633 17 811 0 479 811 811 0 197
 195 0 0 -17 197 0 812 197 197 0 811 195 0 0 +15 812 319 0 197 320 813 15 813 39
5 0 191 320 814 17 191 0 813 191 191 0 815 189 0 0 +15 814 471 0 185 320 816 17
 185 0 814 185 185 0 817 183 0 0 +15 816 547 0 179 320 818 17 179 0 816 179 179
 0 819 151 0 0 +15 818 585 0 173 320 794 17 173 0 818 137 171 85 820 144 0 0 +17
 137 0 818 149 173 120 87 165 0 0 +17 171 0 818 173 149 113 821 169 0 0 +17 820
 0 822 84 138 113 173 144 0 171 -15 822 676 0 820 439 0 17 84 0 822 124 820 82 1
15 175 0 157 -17 138 0 822 820 124 85 131 139 0 173 +17 124 0 822 138 84 105 141
 160 0 131 +17 141 0 140 154 132 82 124 160 0 0 -17 115 0 447 821 157 113 84 175
 0 820 +17 157 0 447 115 148 82 154 158 0 141 +15 447 672 0 821 443 0 17 148 0 4
47 157 821 125 119 152 0 154 -17 821 0 447 148 115 117 171 169 0 149 -17 119 0 1
46 122 127 117 148 152 0 821 +17 149 0 818 171 137 117 122 150 0 0 +17 87 0 129
 131 130 85 137 165 0 138 -17 819 0 457 819 819 0 179 151 0 0 -15 457 569 0 819
 361 609 17 817 0 465 817 817 0 185 183 0 0 -15 465 493 0 817 460 630 17 815 0 4
73 815 815 0 191 189 0 0 -15 473 417 0 815 468 632 15 444 1116 0 823 439 824 17
 823 0 444 823 823 0 273 271 0 0 -15 824 1110 0 825 439 822 17 825 0 824 825 825
 0 268 266 0 0 -17 268 0 406 268 268 0 825 266 0 0 +15 406 1194 0 268 398 803 17
 273 0 399 273 273 0 823 271 0 0 +15 399 1164 0 273 391 806 82 1 387 -737869505
 82 1 381 -719126208 17 355 0 347 355 355 0 234 232 0 0 -17 234 0 321 234 234 0
 355 232 0 0 +15 321 113 0 234 320 812 82 1 351 -655294142 82 1 341 -715194048 1
7 33 0 36 45 34 11 29 245 0 312 +17 242 0 36 75 51 46 311 239 0 324 +17 324 0 32
2 317 323 46 75 297 0 0 -17 48 0 314 311 252 46 317 290 0 242 +19 17 100 0 1 0 9
 5 S74 20 15 10 0 0 826 827 652 828 829 830 831 614 13 2 0 0 0 0 0 0 0 0 0 0 81
 2 826 111 832 1 0 827 0 0 0 833 81 2 827 924 834 1 826 828 0 0 0 835 81 1 828 1
759 836 1 827 829 0 0 837 81 2 829 1807 838 1 828 830 0 0 0 839 81 2 830 1810 84
0 1 829 831 0 0 841 0 81 2 831 1811 842 1 830 13 0 0 0 0 81 2 13 1950 843 1 831
 2 0 0 844 0 80 2 843 845 846 8004 0 0 0 0 3 5 0 0 0 FFTFFFFFFFFFFF2 3 83 1 844
 1190 79 16 846 SDL/TYSA_DENSITY80 2 842 847 848 9000 0 0 0 0 3 5 0 0 0 FFTFFFFF
FFFFFF9 1 79 16 848 BODY_RECIPE_200180 2 840 849 850 9000 0 0 0 0 3 5 0 0 0 FFTF
TTTFFTFFFF3 3 84 11 841 ??? - ????379 21 850 SWIMPLICITBODYNAME_ID80 2 838 851 8
52 9000 0 0 0 0 3 5 0 0 0 FFTFFFFFFFFFFF9 1 82 1 839 1 79 24 852 BODY_IN_LIGHTWE
IGHT_PERM80 1 836 853 854 9000 1 1 1 1 1 1 1 1 0 FFTFFFFFFFFFFF1 82 1 837 129712
1 79 10 854 BODY_MATCH80 2 834 855 856 9000 0 0 0 0 3 5 0 0 0 FFTFFFFFFFFFFF9 1
 82 1 835 285 79 30 856 LAST_BODY_MODIFYING_FEATURE_ID80 2 832 857 858 9000 0 0
 0 0 3 5 0 0 0 FFTFFFFFFFFFFT9 1 82 1 833 290 79 19 858 ENT_TIME_STAMP_200180 2
 12 859 860 9000 0 0 0 0 3 5 0 0 0 FFTFFFFFFFFFFF9 1 82 1 14 113 79 12 860 ATOM_
ID_20011 0 
