**ABCDEFGHIJKLMNOPQRSTUVWXYZabcdefghijklmnopqrstuvwxyz**************************
**PARASOLID !"#$%&'()*+,-./:;<=>?@[\]^_`{|}~0123456789**************************
**PART1;
MC=AMD64;
MC_MODEL=Intel64 Family 6 Model 158 Stepping 9, GenuineIntel;
MC_ID=unknown;
OS=Windows_NT;
OS_RELEASE=unknown;
FRU=Parasolid Version 34.1, build 225,  5-24-2022;
APPL=SOLIDWORKS 2023-2022300;
SITE=;
USER=unknown;
FORMAT=text;
GUISE=transmit;
KEY=PC obj3;
FILE=PC obj3.x_t;
DATE=Wed Feb 14 12:08:35 2024;
**PART2;
SCH=SCH_3401225_34101;
USFLD_SIZE=0;
**PART3;
**END_OF_HEADER*****************************************************************
T51 : TRANSMIT FILE created by modeller version 340122517 SCH_2100000_200000 12
 1 1233 2 3 0 0 0 0 1e3 1e-8 0 4 0 1 0 1 1 5 6 7 8 9 10 11 0 0 0 0 81 2 2 1205 1
2 1 13 0 0 0 0 14 70 3 0 4 T1 0 0 10 20 1 15 15 13 5 267 0 1 0 16 0 0 17 0 51 6
 1040 0 18 19 0 0 +.013 .032 .01 0 0 1 .003 1 0 0 31 7 853 0 10 20 0 0 +.013 .03
2 .01 0 0 -1 -1 0 0 .003 29 8 738 0 11 21 0 .047 .06 .01 19 9 89 0 1 17 0 22 V16
 10 846 0 ?23 0 24 7 0 0 1 18 11 736 0 25 0 26 8 ?1 17 25 0 27 28 29 11 30 31 0
 32 +18 26 733 0 33 11 34 21 ?1 17 33 0 35 36 37 26 38 39 0 29 +18 34 730 0 40 2
6 41 42 ?1 29 21 735 0 26 42 8 .05 .057 .01 29 42 732 0 34 43 21 .05 .003 .01 29
 43 729 0 41 44 42 .047 500065440991581e-34 .01 18 41 727 0 45 34 46 43 ?1 29 44
 726 0 46 47 43 .043 -439852175559783e-33 .01 18 46 724 0 48 41 49 44 ?1 29 47 7
23 0 49 50 44 .04 .003 .01 18 49 721 0 51 46 52 47 ?1 29 50 720 0 52 53 47 .04 .
032 .01 18 52 718 0 54 49 55 50 ?1 29 53 717 0 55 56 50 .037 .035 .01 18 55 715
 0 57 52 58 53 ?1 29 56 714 0 58 59 53 .013 .035 .01 18 58 712 0 23 55 60 56 ?1
 29 59 711 0 60 61 56 .01 .032 .01 18 60 709 0 62 58 63 59 ?1 29 61 708 0 63 64
 59 .01 .003 .01 18 63 706 0 65 60 66 61 ?1 29 64 705 0 66 67 61 .007 0 .01 18 6
6 703 0 68 63 69 64 ?1 29 67 702 0 69 70 64 .003 0 .01 18 69 700 0 71 66 72 67 ?
1 29 70 694 0 72 73 67 .003 .06 .01 18 72 692 0 74 69 75 70 ?1 29 73 661 0 75 76
 70 .007 0 0 18 75 659 0 77 72 78 73 ?1 29 76 658 0 78 79 73 .003 0 0 18 78 656
 0 80 75 81 76 ?1 29 79 655 0 81 82 76 .01 .032 0 18 81 653 0 83 78 84 79 ?1 29
 82 652 0 84 85 79 .01 .003 0 18 84 650 0 86 81 87 82 ?1 29 85 649 0 87 88 82 .0
37 .035 0 18 87 647 0 89 84 90 85 ?1 29 88 646 0 90 91 85 .013 .035 0 18 90 644
 0 92 87 93 88 ?1 29 91 643 0 93 94 88 .04 .003 0 18 93 641 0 95 90 96 91 ?1 29
 94 640 0 96 97 91 .04 .032 0 18 96 638 0 98 93 99 94 ?1 29 97 637 0 99 100 94 .
047 500065440991581e-34 0 18 99 635 0 101 96 102 97 ?1 29 100 634 0 102 103 97 .
043 -439852175559783e-33 0 18 102 632 0 104 99 105 100 ?1 29 103 631 0 105 106 1
00 .05 .057 0 18 105 629 0 107 102 108 103 ?1 29 106 628 0 108 109 103 .05 .003
 0 18 108 626 0 110 105 111 106 ?1 29 109 625 0 111 112 106 .047 .06 0 18 111 62
3 0 113 108 114 109 ?1 29 112 622 0 114 115 109 .003 .06 0 18 114 620 0 116 111
 117 112 ?1 29 115 609 0 117 118 112 0 .003 .01 18 117 607 0 119 114 120 115 ?1
 29 118 606 0 120 121 115 0 .057 .01 18 120 604 0 122 117 123 118 ?1 29 121 603
 0 123 124 118 0 .003 0 18 123 601 0 125 120 126 121 ?1 29 124 600 0 126 127 121
 0 .057 0 18 126 598 0 128 123 129 124 ?1 29 127 196 0 130 131 124 .01 .06 0 18
 130 171 0 132 133 134 127 ?1 29 131 197 0 134 135 127 .01 .07 0 18 134 172 0 13
6 130 137 131 ?1 29 135 198 0 137 138 131 .04 .07 0 18 137 173 0 139 134 140 135
 ?1 29 138 199 0 140 141 135 .04 .06 0 18 140 174 0 142 137 0 138 ?1 29 141 85 0
 129 143 138 .01 .06 .01 18 129 83 0 144 126 145 141 ?1 29 143 82 0 145 146 141
 .01 .07 .01 18 145 80 0 147 129 148 143 ?1 29 146 79 0 148 149 143 .04 .07 .01
 18 148 77 0 150 145 133 146 ?1 29 149 76 0 133 0 146 .04 .06 .01 18 133 74 0 28
 148 130 149 ?1 17 28 0 27 150 25 133 32 151 0 152 +15 27 4 0 153 16 154 17 150
 0 27 147 28 148 155 156 0 157 +17 32 0 158 159 152 11 28 151 0 160 -16 151 737
 0 ?28 156 161 162 0 0 1 17 152 0 158 32 142 133 163 164 0 155 -15 158 227 0 32
 165 0 17 142 0 158 152 159 140 166 167 0 163 +17 163 0 168 139 155 140 152 164
 0 169 +16 164 211 0 ?163 170 171 172 0 0 1 17 155 0 168 163 157 133 150 156 0 0
 -15 168 225 0 139 173 0 17 157 0 168 155 139 148 174 171 0 175 -16 156 37 0 ?15
0 176 151 177 0 0 1 16 176 41 0 ?147 178 156 179 0 0 1 30 177 39 0 156 162 179 0
 +.04 .07 .01 -1387778780781446e-30 1 0 30 162 35 0 151 180 177 0 +.04 .06 .01 -
1 0 0 30 179 43 0 176 177 181 0 +.01 .07 .01 -1 0 0 30 181 47 0 178 179 182 0 +.
01 .06 .01 0 -1 0 16 178 45 0 ?144 183 176 181 0 0 1 30 182 51 0 183 181 184 0 +
0 .06 .01 -1 0 0 16 183 49 0 ?153 185 178 182 0 0 1 30 184 194 0 186 182 187 0 +
0 0 0 0 -1 0 16 186 599 0 ?188 189 190 184 0 0 1 30 187 193 0 189 184 191 0 +0 0
 0 1 0 0 16 189 657 0 ?192 193 186 187 0 0 1 30 191 192 0 193 187 194 0 +.01 0 0
 -495635278850516e-31 1 0 16 193 651 0 ?195 196 189 191 0 0 1 30 194 191 0 196 1
91 197 0 +.04 .035 0 1 2312964634635745e-31 0 16 196 645 0 ?198 199 193 194 0 0
 1 30 197 190 0 199 194 200 0 +.04 -807246215303989e-33 0 0 -1 0 16 199 639 0 ?2
01 202 196 197 0 0 1 30 200 189 0 202 197 203 0 +.05 4174005838433645e-34 0 1 12
24646799147354e-31 0 16 202 633 0 ?204 205 199 200 0 0 1 30 203 188 0 205 200 20
6 0 +.05 .06 0 0 1 0 16 205 627 0 ?37 167 202 203 0 0 1 30 206 187 0 167 203 207
 0 +.04 .06 0 -1 0 0 16 167 624 0 ?142 208 205 206 0 0 1 30 207 186 0 208 206 20
9 0 +.04 .07 0 -1387778780781446e-30 1 0 16 208 134 0 ?139 210 167 207 0 0 1 30
 209 185 0 210 207 211 0 +.01 .07 0 -1 0 0 16 210 130 0 ?136 212 208 209 0 0 1 3
0 211 184 0 212 209 213 0 +.01 .06 0 0 -1 0 16 212 126 0 ?132 214 210 211 0 0 1
 30 213 183 0 214 211 215 0 +0 .06 0 -1 0 0 16 214 122 0 ?216 217 212 213 0 0 1
 30 215 256 0 185 213 218 0 +.01 .06 .01 0 0 -1 16 185 208 0 ?219 220 183 215 0
 0 1 30 218 257 0 220 215 221 0 +.01 .07 .01 0 0 -1 16 220 209 0 ?222 171 185 21
8 0 0 1 30 221 258 0 171 218 172 0 +.04 .07 .01 0 0 -1 16 171 210 0 ?174 164 220
 221 0 0 1 30 172 259 0 164 221 223 0 +.04 .06 .01 0 0 -1 30 223 612 0 170 172 2
24 0 -0 .003 .01 0 0 -1 16 170 610 0 ?119 225 164 223 0 0 1 30 224 617 0 225 223
 226 0 +0 .057 .01 0 0 -1 16 225 615 0 ?227 228 170 224 0 0 1 31 226 664 0 228 2
24 229 0 +.043 .003 0 0 0 -1 -1 0 0 .003 16 228 662 0 ?95 230 225 226 0 0 1 31 2
29 669 0 230 226 231 0 +.007 .003 0 0 0 -1 -1 0 0 .003 16 230 667 0 ?77 232 228
 229 0 0 1 31 231 674 0 232 229 233 0 +.003 .003 0 0 0 -1 -1 0 0 .003 16 232 672
 0 ?125 234 230 231 0 0 1 31 233 679 0 234 231 235 0 +.047 .003 0 0 0 -1 -1 0 0
 .003 16 234 677 0 ?101 236 232 233 0 0 1 31 235 684 0 236 233 237 0 +.047 .057
 0 0 0 -1 -1 0 0 .003 16 236 682 0 ?107 238 234 235 0 0 1 31 237 689 0 238 235 2
39 0 +.003 .057 0 0 0 -1 -1 0 0 .003 16 238 687 0 ?116 240 236 237 0 0 1 30 239
 697 0 240 237 241 0 -.003 .06 .01 0 0 -1 16 240 695 0 ?74 242 238 239 0 0 1 31
 241 741 0 242 239 243 0 -.043 .003 .01 0 0 -1 -1 0 0 .003 16 242 739 0 ?48 244
 240 241 0 0 1 31 243 746 0 244 241 245 0 -.007 .003 .01 0 0 -1 -1 0 0 .003 16 2
44 744 0 ?65 246 242 243 0 0 1 31 245 751 0 246 243 247 0 -.003 .003 .01 0 0 -1
 -1 0 0 .003 16 246 749 0 ?71 248 244 245 0 0 1 31 247 756 0 248 245 249 0 -.047
 .003 .01 0 0 -1 -1 0 0 .003 16 248 754 0 ?40 31 246 247 0 0 1 31 249 761 0 31 2
47 250 0 -.047 .057 .01 0 0 -1 -1 0 0 .003 16 31 759 0 ?25 251 248 249 0 0 1 31
 250 766 0 251 249 252 0 -.003 .057 .01 0 0 -1 -1 0 0 .003 16 251 764 0 ?122 253
 31 250 0 0 1 30 252 771 0 253 250 254 0 +.047 .06 .01 0 0 -1 16 253 769 0 ?159
 255 251 252 0 0 1 30 254 776 0 255 252 256 0 +.05 .003 .01 0 0 -1 16 255 774 0
 ?257 39 253 254 0 0 1 30 256 781 0 39 254 258 0 -.05 .057 .01 0 0 -1 16 39 779
 0 ?33 259 255 256 0 0 1 30 258 786 0 259 256 260 0 +.043 -439852175559783e-33 .
01 0 0 -1 16 259 784 0 ?261 262 39 258 0 0 1 30 260 791 0 262 258 263 0 -.047 50
0065440991581e-34 .01 0 0 -1 16 262 789 0 ?45 264 259 260 0 0 1 30 263 796 0 264
 260 265 0 -.007 0 .01 0 0 -1 16 264 794 0 ?68 266 262 263 0 0 1 30 265 801 0 26
6 263 267 0 +.003 0 .01 0 0 -1 16 266 799 0 ?268 269 264 265 0 0 1 30 267 806 0
 269 265 270 0 -.01 .032 .01 0 0 -1 16 269 804 0 ?62 271 266 267 0 0 1 30 270 81
1 0 271 267 272 0 +.01 .003 .01 0 0 -1 16 271 809 0 ?273 274 269 270 0 0 1 30 27
2 816 0 274 270 275 0 +.04 .032 0 0 0 -1 16 274 814 0 ?276 277 271 272 0 0 1 30
 275 821 0 277 272 278 0 -.04 .003 .01 0 0 -1 16 277 819 0 ?51 279 274 275 0 0 1
 30 278 826 0 279 275 280 0 +.013 .035 0 0 0 -1 16 279 824 0 ?281 282 277 278 0
 0 1 30 280 831 0 282 278 283 0 -.037 .035 .01 0 0 -1 16 282 829 0 ?57 284 279 2
80 0 0 1 31 283 850 0 284 280 285 0 -.037 .032 0 0 0 -1 -1 0 0 .003 16 284 834 0
 ?89 286 282 283 0 0 1 31 285 851 0 286 283 20 0 +.037 .032 .01 0 0 -1 -1 0 0 .0
03 16 286 838 0 ?54 24 284 285 0 0 1 31 20 852 0 24 285 7 0 -.013 .032 0 0 0 -1
 -1 0 0 .003 16 24 842 0 ?83 10 286 20 0 0 1 17 83 0 287 288 289 81 92 24 0 195
 +15 287 121 0 290 291 292 17 288 0 287 77 83 84 195 193 0 0 -17 289 0 287 83 89
 90 198 196 0 0 -17 92 0 293 294 295 90 83 24 0 281 -17 195 0 296 62 273 81 288
 193 0 295 +15 296 237 0 297 298 0 17 62 0 296 297 195 60 295 269 0 299 +17 273
 0 296 195 297 84 300 271 0 288 +17 295 0 293 92 301 81 62 269 0 0 -15 293 1029
 0 301 18 0 17 301 0 293 295 294 60 23 10 0 0 -17 294 0 293 301 92 58 281 279 0
 0 -17 23 0 27 302 299 58 301 10 0 303 +17 302 0 27 54 23 55 303 304 0 305 +17 2
99 0 27 23 65 60 297 306 0 301 +17 303 0 307 281 57 58 302 304 0 294 -15 307 235
 0 198 308 0 17 281 0 307 198 303 90 294 279 0 289 +17 57 0 307 303 198 55 309 2
82 0 302 +16 304 713 0 ?302 310 306 311 0 0 1 16 310 719 0 ?312 313 304 314 0 0
 1 16 306 707 0 ?299 304 315 316 0 0 1 30 311 19 0 304 316 314 0 +.04 .035 .01 1
 2312964634635745e-31 0 30 316 15 0 306 317 311 0 +.01 0 .01 -495635278850516e-3
1 1 0 30 314 23 0 310 311 318 0 +.04 -807246215303989e-33 .01 0 -1 0 30 318 27 0
 313 314 180 0 +.05 4174005838433645e-34 .01 1 1224646799147354e-31 0 16 313 725
 0 ?319 161 310 318 0 0 1 30 180 31 0 161 318 162 0 +.05 .06 .01 0 1 0 16 161 73
1 0 ?29 151 313 180 0 0 1 17 29 0 27 25 40 26 36 161 0 30 +17 40 0 27 29 319 34
 320 248 0 36 +17 36 0 35 257 33 34 29 161 0 321 -17 30 0 322 38 160 26 25 31 0
 0 -15 322 903 0 30 323 0 17 38 0 322 113 30 105 33 39 0 0 -17 160 0 322 30 113
 11 159 253 0 0 -17 113 0 322 160 38 111 107 236 0 159 -17 159 0 158 142 32 111
 160 253 0 166 +17 166 0 287 107 169 111 142 167 0 0 -17 107 0 287 324 166 105 1
13 236 0 37 +17 169 0 287 166 325 140 139 208 0 0 -17 325 0 287 169 326 137 136
 210 0 0 -17 139 0 168 157 163 137 169 208 0 174 +17 174 0 327 136 175 137 157 1
71 0 325 +15 327 223 0 136 328 0 17 136 0 327 329 174 134 325 210 0 222 +17 175
 0 327 174 329 148 147 176 0 0 -17 329 0 327 175 136 145 222 220 0 330 -17 147 0
 27 144 150 145 175 176 0 329 +17 144 0 27 153 147 129 330 178 0 331 +17 153 0 2
7 122 144 72 332 183 0 333 +17 330 0 334 222 331 145 144 178 0 0 -17 331 0 334 3
30 132 129 219 185 0 332 -15 334 221 0 132 335 0 17 132 0 334 331 222 130 326 21
2 0 219 +17 219 0 336 216 332 130 331 185 0 337 +17 332 0 336 219 74 129 153 183
 0 0 -15 336 219 0 216 338 0 17 74 0 336 332 216 72 339 240 0 153 +17 216 0 336
 74 219 114 337 214 0 339 +17 339 0 340 128 333 114 74 240 0 0 -15 340 882 0 333
 341 0 17 128 0 340 342 339 126 116 238 0 227 -17 333 0 340 339 342 72 122 251 0
 0 -17 342 0 340 333 128 120 227 225 0 0 -17 122 0 27 343 153 120 333 251 0 344
 +17 343 0 27 71 122 117 344 217 0 345 +17 344 0 346 227 119 120 343 217 0 342 -
15 346 241 0 344 347 0 17 227 0 346 188 344 126 342 225 0 290 +17 119 0 346 344
 188 117 348 170 0 343 +16 217 605 0 ?343 315 214 349 0 0 1 16 315 701 0 ?350 30
6 217 317 0 0 1 30 349 7 0 217 351 317 0 +0 0 .01 0 -1 0 31 351 331 0 352 353 34
9 0 +.005 .005 0 0 0 1 1 0 0 .0015 30 317 11 0 315 349 316 0 +0 0 .01 1 0 0 16 3
52 309 0 ?354 190 355 351 0 0 1 31 353 332 0 190 356 351 0 +.005 .005 .01 0 0 1
 1 0 0 .0015 16 190 312 0 ?357 186 352 353 0 0 1 31 356 369 0 358 359 353 0 +.00
5 .015 0 0 0 1 1 0 0 .0015 16 358 347 0 ?360 355 361 356 0 0 1 31 359 370 0 355
 362 356 0 +.005 .015 .01 0 0 1 1 0 0 .0015 16 355 350 0 ?363 352 358 359 0 0 1
 31 362 407 0 364 365 359 0 +.045 .005 0 0 0 1 1 0 0 .0015 16 364 385 0 ?366 361
 367 362 0 0 1 31 365 408 0 361 368 362 0 +.045 .005 .01 0 0 1 1 0 0 .0015 16 36
1 388 0 ?369 358 364 365 0 0 1 31 368 445 0 370 371 365 0 +.045 .015 0 0 0 1 1 0
 0 .0015 16 370 423 0 ?372 367 373 368 0 0 1 31 371 446 0 367 374 368 0 +.045 .0
15 .01 0 0 1 1 0 0 .0015 16 367 426 0 ?375 364 370 371 0 0 1 31 374 483 0 376 37
7 371 0 +.015 .065 0 0 0 1 1 0 0 .00125 16 376 461 0 ?378 373 379 374 0 0 1 31 3
77 484 0 373 380 374 0 +.015 .065 .01 0 0 1 1 0 0 .00125 16 373 464 0 ?381 370 3
76 377 0 0 1 31 380 521 0 382 383 377 0 +.035 .065 0 0 0 1 1 0 0 .00125 16 382 4
99 0 ?384 379 0 380 0 0 1 31 383 522 0 379 0 380 0 +.035 .065 .01 0 0 1 1 0 0 .0
0125 16 379 502 0 ?385 376 382 383 0 0 1 17 385 0 386 385 385 0 387 379 0 0 +15
 386 508 0 385 388 389 17 387 0 390 387 387 0 385 379 0 0 -15 390 494 0 387 16 0
 14 16 496 391 ?291 0 27 5 392 -0 0 291 0 22 81 1 391 1206 393 16 394 0 0 395 39
6 14 291 490 395 ?347 16 397 5 398 +0 0 347 16 22 50 392 3 0 16 399 398 0 +0 0 .
01 0 0 -1 -1 0 0 13 22 90 0 0 0 0 0 0 9 16 51 399 328 0 400 401 392 0 -.005 .005
 .01 0 0 -1 .0015 -1 0 0 50 398 182 0 291 392 402 0 +0 0 0 0 0 -1 -1 0 0 50 402
 243 0 338 398 403 0 +0 .06 .01 0 -1 0 0 0 -1 14 338 220 404 ?400 335 336 5 402
 -0 0 400 335 22 50 403 244 0 335 402 405 0 +.01 .06 .01 1 0 0 0 0 -1 14 335 222
 406 ?338 328 334 5 403 -0 0 338 328 22 50 405 245 0 328 403 407 0 +.01 .07 .01
 0 -1 0 0 0 -1 14 328 224 408 ?335 173 327 5 405 -0 0 335 173 22 50 407 246 0 17
3 405 409 0 +.04 .07 .01 -1 -1387778780781446e-30 0 1387778780781446e-30 -1 0 14
 173 226 410 ?328 165 168 5 407 -0 0 328 165 22 50 409 247 0 165 407 411 0 +.04
 .06 .01 0 -1 0 0 0 -1 14 165 228 412 ?173 413 158 5 409 -0 0 173 413 22 50 411
 248 0 413 409 414 0 +.05 .06 .01 -1 0 0 0 0 1 14 413 230 415 ?165 416 35 5 411
 -0 0 165 416 22 50 414 249 0 416 411 417 0 +.05 4174005838433645e-34 .01 -12246
46799147354e-31 1 0 -1 -1224646799147354e-31 0 14 416 232 418 ?413 419 420 5 414
 -0 0 413 419 22 50 417 250 0 419 414 421 0 +.04 -807246215303989e-33 .01 1 0 0
 0 0 -1 14 419 234 422 ?416 308 423 5 417 -0 0 416 308 22 50 421 251 0 308 417 4
24 0 +.04 .035 .01 -2312964634635745e-31 1 0 -1 -2312964634635745e-31 0 14 308 2
36 425 ?419 298 307 5 421 -0 0 419 298 22 50 424 252 0 298 421 426 0 +.01 0 .01
 -1 -495635278850516e-31 0 495635278850516e-31 -1 0 14 298 238 427 ?308 428 296
 5 424 -0 0 308 428 22 50 426 253 0 428 424 429 0 +0 0 .01 0 1 0 0 0 1 14 428 24
0 430 ?298 347 431 5 426 -0 0 298 347 22 50 429 254 0 347 426 432 0 +0 0 .01 1 0
 0 0 0 -1 14 347 242 433 ?428 291 346 5 429 -0 0 428 291 22 51 432 893 0 341 429
 434 0 +.003 .057 .01 0 0 -1 .003 -1 0 0 14 341 881 435 ?323 388 340 5 432 +0 0
 323 388 22 51 434 914 0 323 432 436 0 +.047 .057 .01 0 0 -1 .003 -1 0 0 14 323
 902 437 ?438 341 322 5 434 +0 0 438 341 22 51 436 935 0 438 434 439 0 +.047 .00
3 .01 0 0 -1 .003 -1 0 0 14 438 923 440 ?441 323 442 5 436 +0 0 441 323 22 51 43
9 956 0 441 436 443 0 +.003 .003 .01 0 0 -1 .003 -1 0 0 14 441 944 444 ?445 438
 446 5 439 +0 0 445 438 22 51 443 977 0 445 439 447 0 +.007 .003 .01 0 0 -1 .003
 -1 0 0 14 445 965 448 ?449 441 450 5 443 +0 0 449 441 22 51 447 998 0 449 443 1
9 0 +.043 .003 .01 0 0 -1 .003 -1 0 0 14 449 986 451 ?452 445 453 5 447 +0 0 452
 445 22 51 19 1019 0 452 447 6 0 +.037 .032 .01 0 0 1 .003 1 0 0 14 452 1007 454
 ?18 449 455 5 19 -0 0 18 449 22 81 1 454 1226 393 452 456 0 451 457 458 14 18 1
028 457 ?0 452 293 5 6 -0 0 0 452 22 15 455 1008 0 305 452 0 17 305 0 455 309 45
9 55 54 286 0 0 -17 309 0 455 98 305 87 57 282 0 0 -17 459 0 455 305 98 52 276 2
74 0 0 -17 54 0 27 312 302 52 305 286 0 460 +17 312 0 27 48 54 49 460 310 0 461
 +17 460 0 423 276 51 52 312 310 0 459 -15 423 233 0 201 419 0 17 276 0 423 201
 460 96 459 274 0 462 +17 51 0 423 460 201 49 463 277 0 312 +17 201 0 423 51 276
 93 462 199 0 463 +17 463 0 453 104 461 93 51 277 0 0 -15 453 987 0 461 449 0 17
 104 0 453 464 463 102 95 228 0 261 -17 461 0 453 463 464 49 48 242 0 0 -17 464
 0 453 461 104 46 261 259 0 0 -17 48 0 27 319 312 46 461 242 0 465 +17 319 0 27
 40 48 41 465 313 0 320 +17 465 0 420 261 45 46 319 313 0 464 -15 420 231 0 204
 416 0 17 261 0 420 204 465 102 464 259 0 466 +17 45 0 420 465 204 41 467 262 0
 319 +17 204 0 420 45 261 99 466 202 0 467 +17 467 0 442 110 320 99 45 262 0 0 -
15 442 924 0 320 438 0 17 110 0 442 321 467 108 101 234 0 257 -17 320 0 442 467
 321 41 40 248 0 0 -17 321 0 442 320 110 34 257 255 0 0 -17 257 0 35 37 36 108 3
21 255 0 324 +15 35 229 0 37 413 0 17 37 0 35 33 257 105 324 205 0 38 +17 324 0
 287 101 107 108 37 205 0 0 -17 101 0 287 466 324 99 110 234 0 204 +17 466 0 287
 95 101 102 204 202 0 0 -17 95 0 287 462 466 93 104 228 0 201 +17 462 0 287 89 9
5 96 201 199 0 0 -17 89 0 287 289 462 87 98 284 0 198 +17 98 0 455 459 309 96 89
 284 0 276 -17 198 0 307 57 281 87 289 196 0 309 +81 1 457 1227 393 18 468 0 454
 469 470 80 1 393 471 472 9000 1 1 1 1 1 1 1 1 0 FFFFTFTFFFFFFF1 81 1 468 1146 4
73 18 0 457 456 0 474 81 1 469 1228 393 388 475 0 457 476 477 82 1 470 568459414
 14 388 505 469 ?341 478 386 5 479 +0 0 341 478 22 81 1 475 1138 473 388 0 469 4
80 481 482 81 1 476 1229 393 478 480 0 469 483 484 82 1 477 536936597 14 478 467
 476 ?388 485 486 5 487 +0 0 388 485 22 81 1 480 1137 473 478 0 476 488 475 489
 81 1 483 1230 393 485 488 0 476 490 491 82 1 484 532873365 14 485 429 483 ?478
 492 493 5 494 +0 0 478 492 22 81 1 488 1136 473 485 0 483 495 480 496 81 1 490
 1231 393 492 495 0 483 497 498 82 1 491 528810133 14 492 391 490 ?485 499 500 5
 501 +0 0 485 499 22 81 1 495 1135 473 492 0 490 502 488 503 81 1 497 1232 393 4
99 502 0 490 504 505 82 1 498 524746901 14 499 353 497 ?492 400 506 5 401 +0 0 4
92 400 22 81 1 502 1134 473 499 0 497 507 495 508 81 1 504 1233 393 400 507 0 49
7 0 509 82 1 505 520683669 14 400 315 504 ?499 338 510 5 399 +0 0 499 338 22 81
 1 507 1133 473 400 0 504 511 502 512 82 1 509 516620437 80 1 473 0 513 8001 0 0
 0 0 3 5 0 0 0 FFFFTFTFFFFFFF2 81 1 511 1132 473 338 0 404 514 507 515 83 3 512
 1 1 1 81 1 404 1208 393 338 511 0 395 406 516 81 1 514 1131 473 335 0 406 517 5
11 518 83 3 515 1 1 1 81 1 406 1209 393 335 514 0 404 408 519 81 1 517 1130 473
 328 0 408 520 514 521 83 3 518 1 1 1 81 1 408 1210 393 328 517 0 406 410 522 81
 1 520 1129 473 173 0 410 523 517 524 83 3 521 1 1 1 81 1 410 1211 393 173 520 0
 408 412 525 81 1 523 1128 473 165 0 412 526 520 527 83 3 524 1 1 1 81 1 412 121
2 393 165 523 0 410 415 528 81 1 526 1127 473 413 0 415 529 523 530 83 3 527 1 1
 1 81 1 415 1213 393 413 526 0 412 418 531 81 1 529 1126 473 416 0 418 532 526 5
33 83 3 530 1 1 1 81 1 418 1214 393 416 529 0 415 422 534 81 1 532 1125 473 419
 0 422 535 529 536 83 3 533 1 1 1 81 1 422 1215 393 419 532 0 418 425 537 81 1 5
35 1124 473 308 0 425 538 532 539 83 3 536 1 1 1 81 1 425 1216 393 308 535 0 422
 427 540 81 1 538 1123 473 298 0 427 541 535 542 83 3 539 1 1 1 81 1 427 1217 39
3 298 538 0 425 430 543 81 1 541 1122 473 428 0 430 544 538 545 83 3 542 1 1 1 8
1 1 430 1218 393 428 541 0 427 433 546 81 1 544 1121 473 347 0 433 547 541 548 8
3 3 545 1 1 1 81 1 433 1219 393 347 544 0 430 435 549 81 1 547 1120 473 291 0 39
5 394 544 550 83 3 548 1 1 1 81 1 395 1207 393 291 547 0 391 404 551 81 1 394 11
19 473 16 0 391 0 547 552 83 3 550 1 1 1 83 3 552 1 1 1 82 1 551 545194134 81 1
 435 1220 393 341 481 0 433 437 553 82 1 549 509673622 81 1 481 1139 473 341 0 4
35 475 554 555 81 1 437 1221 393 323 554 0 435 440 556 82 1 553 554696854 81 1 5
54 1140 473 323 0 437 481 557 558 81 1 440 1222 393 438 557 0 437 444 559 82 1 5
56 556662934 81 1 557 1141 473 438 0 440 554 560 561 81 1 444 1223 393 441 560 0
 440 448 562 82 1 559 558629014 81 1 560 1142 473 441 0 444 557 563 564 81 1 448
 1224 393 445 563 0 444 451 565 82 1 562 560595094 81 1 563 1143 473 445 0 448 5
60 566 567 81 1 451 1225 393 449 566 0 448 454 568 82 1 565 562561174 81 1 566 1
144 473 449 0 451 563 456 569 82 1 568 564527254 81 1 456 1145 473 452 0 454 566
 468 570 83 3 569 1 1 1 83 3 570 1 1 1 83 3 567 1 1 1 83 3 564 1 1 1 83 3 561 1
 1 1 83 3 558 1 1 1 83 3 555 1 1 1 82 1 546 509411478 82 1 543 509149334 82 1 54
0 508887190 82 1 537 508625046 82 1 534 508362902 82 1 531 508100758 82 1 528 50
7838614 82 1 525 507576469 82 1 522 507314325 82 1 519 507052181 82 1 516 506790
038 79 15 513 SDL/TYSA_COLOUR15 510 318 0 357 400 571 17 357 0 510 357 357 0 572
 190 0 0 +15 571 319 0 573 400 0 17 573 0 571 573 573 0 354 352 0 0 -17 354 0 57
4 354 354 0 573 352 0 0 +15 574 297 0 354 291 287 17 572 0 154 572 572 0 357 190
 0 0 -15 154 304 0 572 16 575 15 575 342 0 576 16 577 17 576 0 575 576 576 0 363
 355 0 0 -15 577 380 0 578 16 579 17 578 0 577 578 578 0 369 361 0 0 -15 579 418
 0 580 16 581 17 580 0 579 580 580 0 375 367 0 0 -15 581 456 0 582 16 390 17 582
 0 581 582 582 0 381 373 0 0 -17 381 0 486 381 381 0 582 373 0 0 +15 486 470 0 3
81 478 583 15 583 471 0 584 478 0 17 584 0 583 584 584 0 378 376 0 0 -17 378 0 3
97 378 378 0 584 376 0 0 +15 397 449 0 378 291 585 15 585 373 0 366 291 574 17 3
66 0 585 366 366 0 586 364 0 0 +17 586 0 587 586 586 0 366 364 0 0 -15 587 395 0
 586 492 0 17 375 0 493 375 375 0 580 367 0 0 +15 493 432 0 375 485 588 15 588 4
33 0 589 485 0 17 589 0 588 589 589 0 372 370 0 0 -17 372 0 590 372 372 0 589 37
0 0 0 +15 590 411 0 372 291 591 15 591 487 0 384 291 0 17 384 0 591 384 384 0 59
2 382 0 0 +17 592 0 389 592 592 0 384 382 0 0 -15 389 509 0 592 388 0 17 369 0 5
00 369 369 0 578 361 0 0 +15 500 394 0 369 492 587 17 363 0 506 363 363 0 576 35
5 0 0 +15 506 356 0 363 499 593 15 593 357 0 594 499 0 17 594 0 593 594 594 0 36
0 358 0 0 -17 360 0 292 360 360 0 594 358 0 0 +15 292 335 0 360 291 590 83 3 508
 1 1 1 51 401 366 0 499 501 399 0 -.005 .015 .01 0 0 -1 .0015 -1 0 0 51 501 404
 0 492 494 401 0 -.045 .005 .01 0 0 -1 .0015 -1 0 0 51 494 442 0 485 487 501 0 -
.045 .015 .01 0 0 -1 .0015 -1 0 0 51 487 480 0 478 479 494 0 -.015 .065 .01 0 0
 -1 .00125 -1 0 0 51 479 518 0 388 0 487 0 -.035 .065 .01 0 0 -1 .00125 -1 0 0 8
3 3 503 1 1 1 83 3 496 1 1 1 83 3 489 1 1 1 83 3 482 1 1 1 83 3 474 1 1 1 79 14
 472 SWEntUnchanged82 1 458 566493334 15 450 966 0 595 445 0 17 595 0 450 596 30
0 66 65 244 0 0 -17 596 0 450 86 595 75 68 264 0 0 -17 300 0 450 595 86 63 273 2
71 0 0 -17 65 0 27 299 350 63 595 244 0 297 +17 350 0 27 65 71 66 597 315 0 595
 +17 297 0 296 273 62 63 299 306 0 300 -17 71 0 27 350 343 69 345 246 0 597 +17
 597 0 431 268 68 69 350 315 0 598 -15 431 239 0 597 428 0 17 268 0 431 192 597
 78 598 266 0 599 +17 68 0 431 597 192 66 596 264 0 350 +17 598 0 446 345 80 69
 268 266 0 0 -15 446 945 0 345 441 0 17 345 0 446 348 598 117 71 246 0 0 -17 80
 0 446 598 348 78 125 232 0 268 -17 348 0 446 80 345 123 119 170 0 0 -17 125 0 2
87 290 599 123 80 232 0 188 +17 290 0 287 116 125 126 188 186 0 0 -17 599 0 287
 125 77 78 192 189 0 0 -17 188 0 346 119 227 123 290 186 0 348 +17 77 0 287 599
 288 75 86 230 0 192 +17 192 0 431 68 268 75 599 189 0 596 +17 86 0 450 300 596
 84 77 230 0 273 -17 116 0 287 337 290 114 128 238 0 216 +17 337 0 287 326 116 1
30 216 214 0 0 -17 326 0 287 325 337 134 132 212 0 0 -82 1 396 545718422 17 222
 0 334 132 330 134 329 220 0 326 +19 17 268 0 1 0 9 5 S74 20 15 10 0 0 600 601 5
04 602 603 604 605 468 13 2 0 0 0 0 0 0 0 0 0 0 81 2 600 295 606 1 0 601 0 0 0 6
07 81 2 601 568 608 1 600 602 0 0 0 609 81 1 602 1081 610 1 601 603 0 0 611 81 2
 603 1112 612 1 602 604 0 0 0 613 81 2 604 1115 614 1 603 605 0 0 615 0 81 2 605
 1116 616 1 604 13 0 0 0 0 81 2 13 1204 617 1 605 2 0 0 618 0 80 2 617 619 620 8
004 0 0 0 0 3 5 0 0 0 FFTFFFFFFFFFFF2 3 83 1 618 1190 79 16 620 SDL/TYSA_DENSITY
80 2 616 621 622 9000 0 0 0 0 3 5 0 0 0 FFTFFFFFFFFFFF9 1 79 16 622 BODY_RECIPE_
200180 2 614 623 624 9000 0 0 0 0 3 5 0 0 0 FFTFTTTFFTFFFF3 3 84 6 615 ?????179
 21 624 SWIMPLICITBODYNAME_ID80 2 612 625 626 9000 0 0 0 0 3 5 0 0 0 FFTFFFFFFFF
FFF9 1 82 1 613 1 79 24 626 BODY_IN_LIGHTWEIGHT_PERM80 1 610 627 628 9000 1 1 1
 1 1 1 1 1 0 FFTFFFFFFFFFFF1 82 1 611 728359 79 10 628 BODY_MATCH80 2 608 629 63
0 9000 0 0 0 0 3 5 0 0 0 FFTFFFFFFFFFFF9 1 82 1 609 72 79 30 630 LAST_BODY_MODIF
YING_FEATURE_ID80 2 606 631 632 9000 0 0 0 0 3 5 0 0 0 FFTFFFFFFFFFFT9 1 82 1 60
7 144 79 19 632 ENT_TIME_STAMP_200180 2 12 633 634 9000 0 0 0 0 3 5 0 0 0 FFTFFF
FFFFFFFF9 1 82 1 14 101 79 12 634 ATOM_ID_20011 0 
