**ABCDEFGHIJKLMNOPQRSTUVWXYZabcdefghijklmnopqrstuvwxyz**************************
**PARASOLID !"#$%&'()*+,-./:;<=>?@[\]^_`{|}~0123456789**************************
**PART1;
MC=AMD64;
MC_MODEL=Intel64 Family 6 Model 158 Stepping 9, GenuineIntel;
MC_ID=unknown;
OS=Windows_NT;
OS_RELEASE=unknown;
FRU=Parasolid Version 34.1, build 225,  5-24-2022;
APPL=SOLIDWORKS 2023-2022300;
SITE=;
USER=unknown;
FORMAT=text;
GUISE=transmit;
KEY=PC obj4;
FILE=PC obj4.x_t;
DATE=Wed Feb 14 12:08:58 2024;
**PART2;
SCH=SCH_3401225_34101;
USFLD_SIZE=0;
**PART3;
**END_OF_HEADER*****************************************************************
T51 : TRANSMIT FILE created by modeller version 340122517 SCH_2100000_200000 12
 1 1141 2 3 0 0 0 0 1e3 1e-8 0 4 0 1 0 1 1 5 6 7 8 9 10 11 0 0 0 0 81 2 2 1115 1
2 1 13 0 0 0 0 14 70 3 0 4 T1 0 0 10 20 1 15 15 13 5 267 0 1 0 16 0 0 17 0 51 6
 958 0 18 19 0 0 +.047 .033 .01 0 0 -1 .003 -1 0 0 31 7 771 0 10 20 0 0 -.037 .0
07 .01 0 0 1 1 0 0 .003 29 8 681 0 11 21 0 .003 .036 .01 19 9 89 0 1 17 0 22 V16
 10 764 0 ?23 0 24 7 0 0 1 18 11 679 0 25 0 26 8 ?1 17 25 0 27 28 29 11 30 31 0
 32 +18 26 676 0 33 11 34 21 ?1 17 33 0 35 36 37 26 38 39 0 40 +18 34 673 0 41 2
6 42 43 ?1 29 21 678 0 26 43 8 .047 .036 .01 29 43 675 0 34 44 21 .05 .033 .01 2
9 44 672 0 42 45 43 .05 .003 .01 18 42 670 0 46 34 47 44 ?1 29 45 669 0 47 48 44
 .007 0 .01 18 47 667 0 49 42 50 45 ?1 29 48 666 0 50 51 45 .003 0 .01 18 50 664
 0 52 47 53 48 ?1 29 51 663 0 53 54 48 0 .003 .01 18 53 661 0 55 50 56 51 ?1 29
 54 660 0 56 57 51 0 .033 .01 18 56 658 0 58 53 59 54 ?1 29 57 627 0 59 60 54 .0
07 0 0 18 59 625 0 61 56 62 57 ?1 29 60 624 0 62 63 57 .003 0 0 18 62 622 0 64 5
9 65 60 ?1 29 63 621 0 65 66 60 .05 .033 0 18 65 619 0 67 62 68 63 ?1 29 66 618
 0 68 69 63 .05 .003 0 18 68 616 0 70 65 71 66 ?1 29 69 615 0 71 72 66 .047 .036
 0 18 71 613 0 73 68 74 69 ?1 29 72 612 0 74 75 69 .003 .036 0 18 74 610 0 76 71
 77 72 ?1 29 75 609 0 77 78 72 0 .003 0 18 77 607 0 79 74 80 75 ?1 29 78 606 0 8
0 81 75 0 .033 0 18 80 604 0 82 77 83 78 ?1 29 81 593 0 83 84 78 .047 0 .01 18 8
3 591 0 85 80 86 81 ?1 29 84 590 0 86 87 81 .043 0 .01 18 86 588 0 88 83 89 84 ?
1 29 87 587 0 89 90 84 .047 0 0 18 89 585 0 91 86 92 87 ?1 29 90 584 0 92 93 87
 .043 0 0 18 92 582 0 94 89 95 90 ?1 29 93 571 0 95 96 90 .04 .003 .01 18 95 569
 0 97 92 98 93 ?1 29 96 568 0 98 99 93 .04 .007 .01 18 98 566 0 23 95 100 96 ?1
 29 99 565 0 100 101 96 .04 .003 0 18 100 563 0 102 98 103 99 ?1 29 101 562 0 10
3 104 99 .04 .007 0 18 103 560 0 105 100 106 101 ?1 29 104 549 0 106 107 101 .01
 .007 .01 18 106 547 0 108 103 109 104 ?1 29 107 546 0 109 110 104 .01 .003 .01
 18 109 544 0 111 106 112 107 ?1 29 110 543 0 112 113 107 .01 .007 0 18 112 541
 0 114 109 115 110 ?1 29 113 540 0 115 116 110 .01 .003 0 18 115 538 0 117 112 1
18 113 ?1 29 116 527 0 118 119 113 .037 .01 .01 18 118 525 0 120 115 121 116 ?1
 29 119 524 0 121 122 116 .013 .01 .01 18 121 522 0 123 118 124 119 ?1 29 122 52
1 0 124 125 119 .037 .01 0 18 124 519 0 126 121 127 122 ?1 29 125 518 0 127 128
 122 .013 .01 0 18 127 516 0 129 124 130 125 ?1 29 128 196 0 131 132 125 .01 .03
6 0 18 131 171 0 133 134 135 128 ?1 29 132 197 0 135 136 128 .01 .046 0 18 135 1
72 0 137 131 138 132 ?1 29 136 198 0 138 139 132 .04 .046 0 18 138 173 0 140 135
 141 136 ?1 29 139 199 0 141 142 136 .04 .036 0 18 141 174 0 143 138 0 139 ?1 29
 142 85 0 130 144 139 .01 .036 .01 18 130 83 0 145 127 146 142 ?1 29 144 82 0 14
6 147 142 .01 .046 .01 18 146 80 0 148 130 149 144 ?1 29 147 79 0 149 150 144 .0
4 .046 .01 18 149 77 0 151 146 134 147 ?1 29 150 76 0 134 0 147 .04 .036 .01 18
 134 74 0 36 149 131 150 ?1 17 36 0 35 151 33 134 40 152 0 153 +15 35 4 0 154 16
 155 17 151 0 35 148 36 149 156 157 0 158 +17 40 0 159 160 153 26 36 152 0 161 -
16 152 677 0 ?36 157 162 163 0 0 1 17 153 0 159 40 143 134 164 165 0 156 -15 159
 227 0 40 166 0 17 143 0 159 153 160 141 167 168 0 164 +17 164 0 169 140 156 141
 153 165 0 170 +16 165 211 0 ?164 171 172 173 0 0 1 17 156 0 169 164 158 134 151
 157 0 0 -15 169 225 0 140 174 0 17 158 0 169 156 140 149 175 172 0 176 -16 157
 37 0 ?151 177 152 178 0 0 1 16 177 41 0 ?148 179 157 180 0 0 1 30 178 39 0 157
 163 180 0 +.04 .036 .01 0 1 0 30 163 35 0 152 181 178 0 +.05 .036 .01 -1 693889
390390723e-30 0 30 180 43 0 177 178 182 0 +.04 .046 .01 -1 -2312964634635745e-31
 0 30 182 47 0 179 180 183 0 +.01 .046 .01 1734723475976805e-31 -1 0 16 179 45 0
 ?145 184 177 182 0 0 1 30 183 51 0 184 182 185 0 +.01 .036 .01 -1 0 0 16 184 49
 0 ?32 186 179 183 0 0 1 30 185 194 0 187 183 188 0 +0 0 0 0 -1 0 16 187 605 0 ?
189 190 191 185 0 0 1 30 188 193 0 190 185 192 0 +0 0 0 1 0 0 16 190 623 0 ?193
 194 187 188 0 0 1 30 192 192 0 194 188 195 0 +.01 0 0 0 1 0 16 194 539 0 ?196 1
97 190 192 0 0 1 30 195 191 0 197 192 198 0 +.01 .01 0 1 0 0 16 197 517 0 ?199 2
00 194 195 0 0 1 30 198 190 0 200 195 201 0 +.04 .01 0 0 -1 0 16 200 561 0 ?202
 203 197 198 0 0 1 30 201 189 0 203 198 204 0 +.04 0 0 1 0 0 16 203 583 0 ?205 2
06 200 201 0 0 1 30 204 188 0 206 201 207 0 +.05 0 0 0 1 0 16 206 617 0 ?208 168
 203 204 0 0 1 30 207 187 0 168 204 209 0 +.05 .036 0 -1 693889390390723e-30 0 1
6 168 614 0 ?143 210 206 207 0 0 1 30 209 186 0 210 207 211 0 +.04 .036 0 0 1 0
 16 210 134 0 ?140 212 168 209 0 0 1 30 211 185 0 212 209 213 0 +.04 .046 0 -1 -
2312964634635745e-31 0 16 212 130 0 ?137 214 210 211 0 0 1 30 213 184 0 214 211
 215 0 +.01 .046 0 1734723475976805e-31 -1 0 16 214 126 0 ?133 216 212 213 0 0 1
 30 215 183 0 216 213 217 0 +.01 .036 0 -1 0 0 16 216 122 0 ?29 218 214 215 0 0
 1 30 217 256 0 186 215 219 0 +.01 .036 .01 0 0 -1 16 186 208 0 ?220 221 184 217
 0 0 1 30 219 257 0 221 217 222 0 +.01 .046 .01 0 0 -1 16 221 209 0 ?223 172 186
 219 0 0 1 30 222 258 0 172 219 173 0 +.04 .046 .01 0 0 -1 16 172 210 0 ?175 165
 221 222 0 0 1 30 173 259 0 165 222 224 0 +.04 .036 .01 0 0 -1 30 224 530 0 171
 173 225 0 -.037 .01 .01 0 0 -1 16 171 528 0 ?120 226 165 224 0 0 1 30 225 535 0
 226 224 227 0 +.013 .01 0 0 0 -1 16 226 533 0 ?228 229 171 225 0 0 1 30 227 552
 0 229 225 230 0 +.01 .003 .01 0 0 -1 16 229 550 0 ?231 232 226 227 0 0 1 30 230
 557 0 232 227 233 0 -.01 .007 .01 0 0 -1 16 232 555 0 ?108 234 229 230 0 0 1 30
 233 574 0 234 230 235 0 -.04 .003 .01 0 0 -1 16 234 572 0 ?97 236 232 233 0 0 1
 30 235 579 0 236 233 237 0 +.04 .007 0 0 0 -1 16 236 577 0 ?238 239 234 235 0 0
 1 30 237 596 0 239 235 240 0 -.047 0 .01 0 0 -1 16 239 594 0 ?85 241 236 237 0
 0 1 30 240 601 0 241 237 242 0 +.043 0 .01 0 0 -1 16 241 599 0 ?243 244 239 240
 0 0 1 31 242 630 0 244 240 245 0 -.047 .033 0 0 0 1 1 0 0 .003 16 244 628 0 ?67
 246 241 242 0 0 1 31 245 635 0 246 242 247 0 -.003 .033 0 0 0 1 1 0 0 .003 16 2
46 633 0 ?76 248 244 245 0 0 1 31 247 640 0 248 245 249 0 -.003 .003 0 0 0 1 1 0
 0 .003 16 248 638 0 ?79 250 246 247 0 0 1 31 249 645 0 250 247 251 0 -.007 .003
 0 0 0 1 1 0 0 .003 16 250 643 0 ?61 252 248 249 0 0 1 31 251 650 0 252 249 253
 0 -.047 .003 0 0 0 1 1 0 0 .003 16 252 648 0 ?91 254 250 251 0 0 1 31 253 655 0
 254 251 255 0 -.043 .003 0 0 0 1 1 0 0 .003 16 254 653 0 ?102 39 252 253 0 0 1
 31 255 684 0 39 253 256 0 +.047 .033 .01 0 0 1 1 0 0 .003 16 39 682 0 ?33 257 2
54 255 0 0 1 31 256 689 0 257 255 258 0 +.003 .033 .01 0 0 1 1 0 0 .003 16 257 6
87 0 ?58 259 39 256 0 0 1 31 258 694 0 259 256 260 0 +.003 .003 .01 0 0 1 1 0 0
 .003 16 259 692 0 ?52 261 257 258 0 0 1 31 260 699 0 261 258 262 0 +.007 .003 .
01 0 0 1 1 0 0 .003 16 261 697 0 ?111 263 259 260 0 0 1 31 262 704 0 263 260 264
 0 +.047 .003 .01 0 0 1 1 0 0 .003 16 263 702 0 ?46 265 261 262 0 0 1 31 264 709
 0 265 262 266 0 +.043 .003 .01 0 0 1 1 0 0 .003 16 265 707 0 ?88 267 263 264 0
 0 1 30 266 714 0 267 264 268 0 -.05 .033 .01 0 0 -1 16 267 712 0 ?41 269 265 26
6 0 0 1 30 268 719 0 269 266 270 0 +.05 .003 .01 0 0 -1 16 269 717 0 ?271 272 26
7 268 0 0 1 30 270 724 0 272 268 273 0 +.003 0 .01 0 0 -1 16 272 722 0 ?274 275
 269 270 0 0 1 30 273 729 0 275 270 276 0 -.007 0 .01 0 0 -1 16 275 727 0 ?49 27
7 272 273 0 0 1 30 276 734 0 277 273 278 0 +0 .033 .01 0 0 -1 16 277 732 0 ?279
 280 275 276 0 0 1 30 278 739 0 280 276 281 0 -0 .003 .01 0 0 -1 16 280 737 0 ?5
5 31 277 278 0 0 1 30 281 744 0 31 278 282 0 -.003 .036 .01 0 0 -1 16 31 742 0 ?
25 283 280 281 0 0 1 30 282 749 0 283 281 284 0 +.047 .036 .01 0 0 -1 16 283 747
 0 ?160 285 31 282 0 0 1 31 284 768 0 285 282 286 0 +.013 .007 0 0 0 1 1 0 0 .00
3 16 285 752 0 ?114 287 283 284 0 0 1 31 286 769 0 287 284 20 0 -.013 .007 .01 0
 0 1 1 0 0 .003 16 287 756 0 ?123 24 285 286 0 0 1 31 20 770 0 24 286 7 0 +.037
 .007 0 0 0 1 1 0 0 .003 16 24 760 0 ?126 10 287 20 0 0 1 17 126 0 288 289 290 1
24 105 24 0 199 +15 288 121 0 291 292 293 17 289 0 288 114 126 127 199 197 0 0 -
17 290 0 288 126 102 103 202 200 0 0 -17 105 0 294 295 296 103 126 24 0 238 -17
 199 0 297 120 228 124 289 197 0 296 +15 297 235 0 298 299 0 17 120 0 297 298 19
9 118 296 171 0 300 +17 228 0 297 199 298 127 301 226 0 289 +17 296 0 294 105 30
2 124 120 171 0 0 -15 294 821 0 302 303 0 17 302 0 294 296 295 118 23 10 0 0 -17
 295 0 294 302 105 98 238 236 0 0 -17 23 0 35 154 300 98 302 10 0 304 +17 154 0
 35 88 23 95 304 305 0 306 +17 300 0 35 23 123 118 298 307 0 302 +17 304 0 308 2
38 97 98 154 305 0 295 -15 308 233 0 304 309 0 17 238 0 308 202 304 103 295 236
 0 290 +17 97 0 308 304 202 95 310 234 0 154 +16 305 567 0 ?154 311 307 312 0 0
 1 16 311 589 0 ?313 162 305 314 0 0 1 16 307 523 0 ?300 305 315 316 0 0 1 30 31
2 23 0 305 316 314 0 +.04 .01 .01 0 -1 0 30 316 19 0 307 317 312 0 +.01 .01 .01
 1 0 0 30 314 27 0 311 312 181 0 +.04 0 .01 1 0 0 30 181 31 0 162 314 163 0 +.05
 0 .01 0 1 0 16 162 671 0 ?37 152 311 181 0 0 1 17 37 0 35 33 46 34 318 162 0 38
 +17 46 0 35 37 313 42 319 263 0 318 +17 318 0 320 271 41 42 37 162 0 321 -17 38
 0 322 323 161 34 33 39 0 0 -15 322 947 0 38 18 0 17 323 0 322 73 38 65 41 267 0
 0 -17 161 0 322 38 73 26 160 283 0 0 -17 73 0 322 161 323 71 67 244 0 160 -17 1
60 0 159 143 40 71 161 283 0 167 +17 167 0 288 67 170 71 143 168 0 0 -17 67 0 28
8 324 167 65 73 244 0 208 +17 170 0 288 167 325 141 140 210 0 0 -17 325 0 288 17
0 326 138 137 212 0 0 -17 140 0 169 158 164 138 170 210 0 175 +17 175 0 327 137
 176 138 158 172 0 325 +15 327 223 0 137 328 0 17 137 0 327 329 175 135 325 212
 0 223 +17 176 0 327 175 329 149 148 177 0 0 -17 329 0 327 176 137 146 223 221 0
 330 -17 148 0 35 145 151 146 176 177 0 329 +17 145 0 35 32 148 130 330 179 0 33
1 +17 32 0 35 58 145 11 28 184 0 332 +17 330 0 333 223 331 146 145 179 0 0 -17 3
31 0 333 330 133 130 220 186 0 28 -15 333 221 0 133 334 0 17 133 0 333 331 223 1
31 326 214 0 220 +17 220 0 27 29 28 131 331 186 0 335 +17 28 0 27 220 25 130 32
 184 0 0 -15 27 219 0 29 336 0 17 29 0 27 25 220 74 335 216 0 30 +14 336 220 337
 ?338 334 27 5 339 -0 0 338 334 22 81 1 337 1116 340 336 341 0 0 342 343 14 338
 315 342 ?344 336 345 5 346 +0 0 344 336 22 14 334 222 347 ?336 328 333 5 348 -0
 0 336 328 22 50 339 243 0 336 349 348 0 +.01 .036 .01 0 -1 0 0 0 -1 13 22 90 0
 0 0 0 0 0 9 16 14 16 420 350 ?292 0 351 5 352 +0 0 292 0 22 81 1 350 1119 340 1
6 353 0 347 354 355 14 292 414 354 ?356 16 288 5 349 -0 0 356 16 22 15 351 379 0
 357 16 358 50 352 3 0 16 346 349 0 +0 0 .01 0 0 1 1 0 0 51 346 328 0 338 359 35
2 0 -.005 .005 .01 0 0 -1 .0015 -1 0 0 50 349 182 0 292 352 339 0 +0 0 0 0 0 1 1
 0 0 51 359 366 0 344 360 346 0 -.045 .005 .01 0 0 -1 .0015 -1 0 0 14 344 353 36
1 ?362 338 363 5 359 +0 0 362 338 22 51 360 404 0 362 364 359 0 -.015 .041 .01 0
 0 -1 .00125 -1 0 0 14 362 391 365 ?366 344 367 5 360 +0 0 366 344 22 51 364 442
 0 366 0 360 0 -.035 .041 .01 0 0 -1 .00125 -1 0 0 14 366 429 368 ?369 362 370 5
 364 +0 0 369 362 22 81 1 368 1123 340 366 371 0 365 372 373 14 369 799 372 ?303
 366 374 5 375 -0 0 303 366 22 15 370 432 0 376 366 377 17 376 0 370 376 376 0 3
78 379 0 0 +15 377 433 0 380 366 0 17 380 0 377 380 380 0 381 382 0 0 -17 381 0
 383 381 381 0 380 382 0 0 +16 382 423 0 ?381 379 0 384 0 0 1 16 379 426 0 ?376
 385 382 386 0 0 1 31 384 445 0 382 386 387 0 +.035 .041 0 0 0 1 1 0 0 .00125 31
 386 446 0 379 0 384 0 +.035 .041 .01 0 0 1 1 0 0 .00125 31 387 408 0 388 384 38
9 0 +.015 .041 .01 0 0 1 1 0 0 .00125 16 388 388 0 ?390 391 385 387 0 0 1 31 389
 407 0 385 387 392 0 +.015 .041 0 0 0 1 1 0 0 .00125 16 385 385 0 ?393 388 379 3
89 0 0 1 31 392 370 0 394 389 395 0 +.045 .005 .01 0 0 1 1 0 0 .0015 16 394 350
 0 ?396 397 391 392 0 0 1 31 395 369 0 391 392 398 0 +.045 .005 0 0 0 1 1 0 0 .0
015 16 391 347 0 ?399 394 388 395 0 0 1 31 398 332 0 191 395 400 0 +.005 .005 .0
1 0 0 1 1 0 0 .0015 16 191 312 0 ?401 187 397 398 0 0 1 31 400 331 0 397 398 402
 0 +.005 .005 0 0 0 1 1 0 0 .0015 16 397 309 0 ?403 191 394 400 0 0 1 30 402 7 0
 218 400 404 0 +0 0 .01 0 -1 0 16 218 659 0 ?405 406 216 402 0 0 1 30 404 11 0 4
06 402 317 0 +0 0 .01 1 0 0 16 406 665 0 ?407 315 218 404 0 0 1 30 317 15 0 315
 404 316 0 +.01 0 .01 0 1 0 16 315 545 0 ?408 307 406 317 0 0 1 17 408 0 35 123
 111 106 409 315 0 410 +17 123 0 35 300 408 121 410 287 0 298 +17 111 0 35 408 4
07 109 411 261 0 409 +17 409 0 412 231 108 109 408 315 0 413 -17 410 0 374 414 3
01 106 123 287 0 0 -15 374 800 0 410 369 0 17 414 0 374 129 410 112 108 232 0 0
 -17 301 0 374 410 129 121 228 226 0 0 -17 129 0 374 301 414 127 114 285 0 228 -
17 114 0 288 415 289 112 129 285 0 196 +17 415 0 288 61 114 115 196 194 0 0 -17
 196 0 412 108 231 112 415 194 0 414 +15 412 237 0 196 416 0 17 108 0 412 409 19
6 106 414 232 0 408 +17 231 0 412 196 409 115 413 229 0 415 +17 413 0 417 411 11
7 109 231 229 0 0 -15 417 884 0 411 418 0 17 411 0 417 419 413 47 111 261 0 0 -1
7 117 0 417 413 419 115 61 250 0 231 -17 419 0 417 117 411 59 49 275 0 0 -17 61
 0 288 420 415 59 117 250 0 193 +17 420 0 288 79 61 62 193 190 0 0 -17 193 0 421
 49 274 59 420 190 0 419 +15 421 239 0 193 422 0 17 49 0 421 423 193 47 419 275
 0 407 +17 274 0 421 193 423 62 424 272 0 420 +17 423 0 421 274 49 50 407 406 0
 424 -17 424 0 425 426 64 50 274 272 0 0 -15 425 905 0 426 427 0 17 426 0 425 42
8 424 53 52 259 0 0 -17 64 0 425 424 428 62 79 248 0 274 -17 428 0 425 64 426 77
 55 280 0 0 -17 79 0 288 429 420 77 64 248 0 189 +17 429 0 288 76 79 80 189 187
 0 0 -17 189 0 430 55 279 77 429 187 0 428 +15 430 241 0 189 356 0 17 55 0 430 4
31 189 53 428 280 0 405 +17 279 0 430 189 431 80 432 277 0 429 +17 431 0 430 279
 55 56 405 218 0 432 -17 432 0 433 332 82 56 279 277 0 0 -15 433 926 0 332 434 0
 17 332 0 433 30 432 11 58 257 0 0 -17 82 0 433 432 30 80 76 246 0 279 -17 30 0
 433 82 332 74 25 31 0 0 -17 76 0 288 335 429 74 82 246 0 29 +17 335 0 288 326 7
6 131 29 216 0 0 -17 326 0 288 325 335 135 133 214 0 0 -17 58 0 35 405 32 56 332
 257 0 431 +17 405 0 35 52 58 53 431 218 0 426 +17 52 0 35 407 405 50 426 259 0
 423 +17 407 0 35 111 52 47 423 406 0 411 +14 434 925 435 ?18 427 433 5 19 +0 0
 18 427 22 81 1 435 1125 340 434 436 0 372 437 438 14 18 946 437 ?0 434 322 5 6
 +0 0 0 434 22 14 427 904 439 ?434 418 425 5 440 +0 0 434 418 22 51 19 937 0 434
 440 6 0 +.003 .033 .01 0 0 -1 .003 -1 0 0 51 440 916 0 427 441 19 0 +.003 .003
 .01 0 0 -1 .003 -1 0 0 51 441 895 0 418 442 440 0 +.007 .003 .01 0 0 -1 .003 -1
 0 0 14 418 883 443 ?427 444 417 5 441 +0 0 427 444 22 51 442 874 0 444 445 441
 0 +.047 .003 .01 0 0 -1 .003 -1 0 0 14 444 862 446 ?418 447 448 5 442 +0 0 418
 447 22 51 445 853 0 447 449 442 0 +.043 .003 .01 0 0 -1 .003 -1 0 0 14 447 841
 450 ?444 303 451 5 445 +0 0 444 303 22 51 449 832 0 303 375 445 0 +.037 .007 .0
1 0 0 1 .003 1 0 0 14 303 820 452 ?447 369 294 5 449 -0 0 447 369 22 51 375 811
 0 369 453 449 0 +.013 .007 .01 0 0 1 .003 1 0 0 50 453 254 0 356 454 375 0 +0 0
 .01 1 0 0 0 0 -1 14 356 242 455 ?422 292 430 5 453 -0 0 422 292 22 50 454 253 0
 422 456 453 0 +0 0 .01 0 1 0 0 0 1 14 422 240 457 ?416 356 421 5 454 -0 0 416 3
56 22 50 456 252 0 416 458 454 0 +.01 0 .01 -1 0 0 0 0 1 14 416 238 459 ?299 422
 412 5 456 -0 0 299 422 22 50 458 251 0 299 460 456 0 +.01 .01 .01 0 1 0 0 0 1 1
4 299 236 461 ?309 416 297 5 458 -0 0 309 416 22 50 460 250 0 309 462 458 0 +.04
 .01 .01 1 0 0 0 0 -1 14 309 234 463 ?464 299 308 5 460 -0 0 464 299 22 50 462 2
49 0 464 465 460 0 +.04 0 .01 0 1 0 0 0 1 14 464 232 466 ?467 309 468 5 462 -0 0
 467 309 22 50 465 248 0 467 469 462 0 +.05 0 .01 -1 0 0 0 0 1 14 467 230 470 ?1
66 464 320 5 465 -0 0 166 464 22 50 469 247 0 166 471 465 0 +.05 .036 .01 -69388
9390390723e-30 -1 0 1 -693889390390723e-30 0 14 166 228 472 ?174 467 159 5 469 -
0 0 174 467 22 50 471 246 0 174 473 469 0 +.04 .036 .01 -1 0 0 0 0 1 14 174 226
 474 ?328 166 169 5 471 -0 0 328 166 22 50 473 245 0 328 348 471 0 +.04 .046 .01
 2312964634635745e-31 -1 0 1 2312964634635745e-31 0 14 328 224 475 ?334 174 327
 5 473 -0 0 334 174 22 50 348 244 0 334 339 473 0 +.01 .046 .01 1 17347234759768
05e-31 0 -1734723475976805e-31 1 0 81 1 475 1141 340 328 476 0 474 0 477 80 1 34
0 478 479 9000 1 1 1 1 1 1 1 1 0 FFFFTFTFFFFFFF1 81 1 476 1046 480 328 0 475 481
 482 483 81 1 474 1140 340 174 481 0 472 475 484 82 1 477 944439452 81 1 481 104
5 480 174 0 474 485 476 486 81 1 472 1139 340 166 485 0 470 474 487 82 1 484 944
701596 81 1 485 1044 480 166 0 472 488 481 489 81 1 470 1138 340 467 488 0 466 4
72 490 82 1 487 944963741 81 1 488 1043 480 467 0 470 491 485 492 81 1 466 1137
 340 464 491 0 463 470 493 82 1 490 945225885 81 1 491 1042 480 464 0 466 494 48
8 495 81 1 463 1136 340 309 494 0 461 466 496 82 1 493 945488029 81 1 494 1041 4
80 309 0 463 497 491 498 81 1 461 1135 340 299 497 0 459 463 499 82 1 496 945750
173 81 1 497 1040 480 299 0 461 500 494 501 81 1 459 1134 340 416 500 0 457 461
 502 82 1 499 946012317 81 1 500 1039 480 416 0 459 503 497 504 81 1 457 1133 34
0 422 503 0 455 459 505 82 1 502 946274461 81 1 503 1038 480 422 0 457 506 500 5
07 81 1 455 1132 340 356 506 0 452 457 508 82 1 505 946536605 81 1 506 1037 480
 356 0 455 509 503 510 81 1 452 1131 340 303 511 0 450 455 512 82 1 508 94679874
9 81 1 511 1054 480 303 0 452 513 514 515 81 1 450 1130 340 447 514 0 446 452 51
6 82 1 512 982646941 81 1 514 1055 480 447 0 450 511 517 518 81 1 446 1129 340 4
44 517 0 443 450 519 82 1 516 984613021 81 1 517 1056 480 444 0 446 514 520 521
 81 1 443 1128 340 418 520 0 439 446 522 82 1 519 986579101 81 1 520 1057 480 41
8 0 443 517 523 524 81 1 439 1127 340 427 523 0 437 443 525 82 1 522 988545181 8
1 1 523 1058 480 427 0 439 520 436 526 81 1 437 1126 340 18 527 0 435 439 528 82
 1 525 990511261 81 1 527 1060 480 18 0 437 436 0 529 82 1 528 994443421 80 1 48
0 0 530 8001 0 0 0 0 3 5 0 0 0 FFFFTFTFFFFFFF2 81 1 436 1059 480 434 0 435 523 5
27 531 83 3 529 1 1 1 83 3 531 1 1 1 79 15 530 SDL/TYSA_COLOUR83 3 526 1 1 1 83
 3 524 1 1 1 83 3 521 1 1 1 83 3 518 1 1 1 81 1 513 1053 480 369 0 372 371 511 5
32 83 3 515 1 1 1 81 1 372 1124 340 369 513 0 368 435 533 81 1 371 1052 480 366
 0 368 534 513 535 83 3 532 1 1 1 81 1 534 1051 480 362 0 365 536 371 537 83 3 5
35 1 1 1 81 1 365 1122 340 362 534 0 361 368 538 81 1 536 1050 480 344 0 361 539
 534 540 83 3 537 1 1 1 81 1 361 1121 340 344 536 0 354 365 541 81 1 539 1049 48
0 338 0 342 341 536 542 83 3 540 1 1 1 81 1 342 1117 340 338 539 0 337 347 543 8
1 1 341 1048 480 336 0 337 482 539 544 83 3 542 1 1 1 81 1 482 1047 480 334 0 34
7 476 341 545 83 3 544 1 1 1 81 1 347 1118 340 334 482 0 342 350 546 83 3 545 1
 1 1 82 1 546 944177308 82 1 543 953745564 81 1 354 1120 340 292 509 0 350 361 5
47 82 1 541 957808796 81 1 509 1036 480 292 0 354 353 506 548 82 1 547 971571357
 81 1 353 1035 480 16 0 350 0 509 549 83 3 548 1 1 1 83 3 549 1 1 1 82 1 538 961
872028 82 1 533 980680861 83 3 510 1 1 1 83 3 507 1 1 1 83 3 504 1 1 1 83 3 501
 1 1 1 83 3 498 1 1 1 83 3 495 1 1 1 83 3 492 1 1 1 83 3 489 1 1 1 83 3 486 1 1
 1 83 3 483 1 1 1 79 14 479 SWEntUnchanged15 320 229 0 318 467 0 15 468 231 0 55
0 464 0 17 550 0 468 243 85 86 313 311 0 551 -17 243 0 468 205 550 92 551 241 0
 291 +17 85 0 468 550 205 83 552 239 0 313 +17 313 0 35 46 88 83 550 311 0 319 +
17 551 0 451 306 94 86 243 241 0 0 -15 451 842 0 306 447 0 17 306 0 451 310 551
 95 88 265 0 0 -17 94 0 451 551 310 92 102 254 0 243 -17 310 0 451 94 306 100 97
 234 0 0 -17 102 0 288 290 291 100 94 254 0 202 +17 291 0 288 102 91 92 205 203
 0 0 -17 202 0 308 97 238 100 290 200 0 310 +17 91 0 288 291 324 89 70 252 0 205
 +17 205 0 468 85 243 89 291 203 0 552 +17 552 0 448 70 319 89 85 239 0 0 -15 44
8 863 0 319 444 0 17 70 0 448 321 552 68 91 252 0 271 -17 319 0 448 552 321 83 4
6 263 0 0 -17 321 0 448 319 70 42 271 269 0 0 -17 271 0 320 208 318 68 321 269 0
 324 +17 208 0 320 41 271 65 324 206 0 323 +17 324 0 288 91 67 68 208 206 0 0 -1
7 41 0 320 318 208 34 323 267 0 37 +17 88 0 35 313 154 86 306 265 0 550 +82 1 43
8 992477341 17 298 0 297 228 120 121 300 307 0 301 -17 403 0 293 403 403 0 553 3
97 0 0 +15 293 298 0 403 292 554 17 553 0 555 553 553 0 403 397 0 0 -15 555 319
 0 553 338 0 15 554 336 0 399 292 556 17 399 0 554 399 399 0 557 391 0 0 +15 556
 374 0 393 292 383 17 393 0 556 393 393 0 558 385 0 0 +15 383 412 0 381 292 0 17
 558 0 559 558 558 0 393 385 0 0 -15 559 395 0 558 362 0 17 557 0 560 557 557 0
 399 391 0 0 -15 560 357 0 557 344 0 17 401 0 345 401 401 0 561 191 0 0 +15 345
 318 0 401 338 555 17 561 0 358 561 561 0 401 191 0 0 -15 358 303 0 561 16 35 17
 396 0 363 396 396 0 562 394 0 0 +15 363 356 0 396 344 560 17 562 0 155 562 562
 0 396 394 0 0 -15 155 341 0 562 16 563 15 563 417 0 378 16 0 17 378 0 563 378 3
78 0 376 379 0 0 -17 390 0 367 390 390 0 357 388 0 0 +15 367 394 0 390 362 559 1
7 357 0 351 357 357 0 390 388 0 0 -82 1 373 965935260 82 1 355 972095645 82 1 34
3 943915165 17 223 0 333 133 330 135 329 221 0 326 +19 17 268 0 1 0 9 5 S74 20 1
5 10 0 0 564 565 475 566 567 568 569 527 13 2 0 0 0 0 0 0 0 0 0 0 81 2 564 295 5
70 1 0 565 0 0 0 571 81 2 565 488 572 1 564 566 0 0 0 573 81 1 566 999 574 1 565
 567 0 0 575 81 2 567 1028 576 1 566 568 0 0 0 577 81 2 568 1031 578 1 567 569 0
 0 579 0 81 2 569 1032 580 1 568 13 0 0 0 0 81 2 13 1114 581 1 569 2 0 0 582 0 8
0 2 581 583 584 8004 0 0 0 0 3 5 0 0 0 FFTFFFFFFFFFFF2 3 83 1 582 1190 79 16 584
 SDL/TYSA_DENSITY80 2 580 585 586 9000 0 0 0 0 3 5 0 0 0 FFTFFFFFFFFFFF9 1 79 16
 586 BODY_RECIPE_200180 2 578 587 588 9000 0 0 0 0 3 5 0 0 0 FFTFTTTFFTFFFF3 3 8
4 6 579 ?????179 21 588 SWIMPLICITBODYNAME_ID80 2 576 589 590 9000 0 0 0 0 3 5 0
 0 0 FFTFFFFFFFFFFF9 1 82 1 577 1 79 24 590 BODY_IN_LIGHTWEIGHT_PERM80 1 574 591
 592 9000 1 1 1 1 1 1 1 1 0 FFTFFFFFFFFFFF1 82 1 575 735029 79 10 592 BODY_MATCH
80 2 572 593 594 9000 0 0 0 0 3 5 0 0 0 FFTFFFFFFFFFFF9 1 82 1 573 55 79 30 594
 LAST_BODY_MODIFYING_FEATURE_ID80 2 570 595 596 9000 0 0 0 0 3 5 0 0 0 FFTFFFFFF
FFFFT9 1 82 1 571 152 79 19 596 ENT_TIME_STAMP_200180 2 12 597 598 9000 0 0 0 0
 3 5 0 0 0 FFTFFFFFFFFFFF9 1 82 1 14 101 79 12 598 ATOM_ID_20011 0 
