**ABCDEFGHIJKLMNOPQRSTUVWXYZabcdefghijklmnopqrstuvwxyz**************************
**PARASOLID !"#$%&'()*+,-./:;<=>?@[\]^_`{|}~0123456789**************************
**PART1;
MC=AMD64;
MC_MODEL=Intel64 Family 6 Model 158 Stepping 9, GenuineIntel;
MC_ID=unknown;
OS=Windows_NT;
OS_RELEASE=unknown;
FRU=Parasolid Version 34.1, build 225,  5-24-2022;
APPL=SOLIDWORKS 2023-2022300;
SITE=;
USER=unknown;
FORMAT=text;
GUISE=transmit;
KEY=AMT sub shaft;
FILE=AMT sub shaft.x_t;
DATE=Wed Feb 14 11:59:24 2024;
**PART2;
SCH=SCH_3401225_34101;
USFLD_SIZE=0;
**PART3;
**END_OF_HEADER*****************************************************************
T51 : TRANSMIT FILE created by modeller version 340122517 SCH_2100000_200000 12
 1 1979 2 3 0 0 0 0 1e3 1e-8 0 4 0 1 0 1 1 5 6 7 8 9 10 11 0 0 0 0 81 2 2 1925 1
2 1 13 0 0 0 0 14 70 3 0 4 T1 0 0 10 20 1 15 15 13 5 687 0 1 0 16 0 0 17 0 51 6
 654 0 18 19 0 0 -0 0 .005 0 0 -1 .00623 -1 0 0 31 7 962 0 20 21 0 0 -0 0 0 0 0
 -1 -1 0 0 .006 29 8 943 0 11 22 0 .00264575131106459 .003 0 19 9 229 0 1 17 0 2
3 V16 10 1038 0 ?24 0 25 7 25 20 1 18 11 941 0 26 0 27 8 ?1 17 26 0 28 29 29 11
 30 31 0 32 +18 27 926 0 33 11 34 22 ?1 17 33 0 35 36 37 27 38 39 0 40 +18 34 22
6 0 41 27 42 43 ?1 29 22 928 0 27 44 8 -.00591607978309962 -.001 0 29 44 495 0 4
5 46 22 .001 .00614921946266353 0 18 45 430 0 47 48 49 44 ?1 29 46 498 0 49 50 4
4 .003641047999867135 .00505526156224023 0 18 49 433 0 51 45 52 46 ?1 29 50 499
 0 52 53 46 .00505526156224023 .003641047999867135 0 18 52 434 0 54 49 55 50 ?1
 29 53 502 0 55 56 50 .00614921946266354 .001 0 18 55 437 0 57 52 58 53 ?1 29 56
 503 0 58 59 53 .00614921946266353 -.001 0 18 58 438 0 60 55 61 56 ?1 29 59 506
 0 61 62 56 .00505526156224023 -.003641047999867135 0 18 61 441 0 63 58 64 59 ?1
 29 62 507 0 64 65 59 .003641047999867135 -.00505526156224023 0 18 64 442 0 66 6
1 67 62 ?1 29 65 510 0 67 68 62 .001 -.00614921946266353 0 18 67 445 0 69 64 70
 65 ?1 29 68 511 0 70 71 65 -.001 -.00614921946266353 0 18 70 446 0 72 67 73 68
 ?1 29 71 514 0 73 74 68 -.003641047999867135 -.00505526156224023 0 18 73 449 0
 75 70 76 71 ?1 29 74 515 0 76 77 71 -.00505526156224023 -.003641047999867135 0
 18 76 450 0 78 73 79 74 ?1 29 77 518 0 79 80 74 -.00614921946266354 -.001 0 18
 79 453 0 81 76 82 77 ?1 29 80 519 0 82 83 77 -.00614921946266353 .001 0 18 82 4
54 0 84 79 85 80 ?1 29 83 522 0 85 86 80 -.00505526156224023 .003641047999867135
 0 18 85 457 0 87 82 88 83 ?1 29 86 523 0 88 89 83 -.003641047999867135 .0050552
6156224023 0 18 88 458 0 90 85 91 86 ?1 29 89 526 0 91 43 86 -.001 .006149219462
66353 0 18 91 461 0 92 88 93 89 ?1 29 43 228 0 34 94 89 .001 .00614921946266353
 .005 29 94 225 0 42 95 43 .001 .00513350757280049 .005 18 42 223 0 96 34 97 94
 ?1 29 95 222 0 97 98 94 .002922831234813175 .00433704479718627 .005 18 97 220 0
 99 42 100 95 ?1 29 98 219 0 100 101 95 .003641047999867135 .00505526156224023 .
005 18 100 217 0 102 97 103 98 ?1 29 101 216 0 103 104 98 .00505526156224023 .00
3641047999867135 .005 18 103 214 0 105 100 106 101 ?1 29 104 213 0 106 107 101 .
00433704479718627 .002922831234813175 .005 18 106 211 0 108 103 109 104 ?1 29 10
7 210 0 109 110 104 .00513350757280049 .001 .005 18 109 208 0 111 106 112 107 ?1
 29 110 207 0 112 113 107 .00614921946266354 .001 .005 18 112 205 0 114 109 115
 110 ?1 29 113 204 0 115 116 110 .00614921946266353 -.001 .005 18 115 202 0 117
 112 118 113 ?1 29 116 201 0 118 119 113 .00513350757280049 -.001 .005 18 118 19
9 0 120 115 121 116 ?1 29 119 198 0 121 122 116 .00433704479718627 -.00292283123
4813175 .005 18 121 196 0 123 118 124 119 ?1 29 122 195 0 124 125 119 .005055261
56224023 -.003641047999867135 .005 18 124 193 0 126 121 127 122 ?1 29 125 192 0
 127 128 122 .003641047999867135 -.00505526156224023 .005 18 127 190 0 129 124 1
30 125 ?1 29 128 189 0 130 131 125 .002922831234813175 -.00433704479718627 .005
 18 130 187 0 132 127 133 128 ?1 29 131 186 0 133 134 128 .001 -.005133507572800
49 .005 18 133 184 0 135 130 136 131 ?1 29 134 183 0 136 137 131 .001 -.00614921
946266353 .005 18 136 181 0 138 133 139 134 ?1 29 137 180 0 139 140 134 -.001 -.
00614921946266353 .005 18 139 178 0 141 136 142 137 ?1 29 140 177 0 142 143 137
 -.001 -.00513350757280049 .005 18 142 175 0 144 139 145 140 ?1 29 143 174 0 145
 146 140 -.002922831234813175 -.00433704479718627 .005 18 145 172 0 147 142 148
 143 ?1 29 146 171 0 148 149 143 -.003641047999867135 -.00505526156224023 .005 1
8 148 169 0 150 145 151 146 ?1 29 149 168 0 151 152 146 -.00505526156224023 -.00
3641047999867135 .005 18 151 166 0 153 148 154 149 ?1 29 152 165 0 154 155 149 -
.00433704479718627 -.002922831234813175 .005 18 154 163 0 156 151 157 152 ?1 29
 155 162 0 157 158 152 -.00513350757280049 -.001 .005 18 157 160 0 159 154 160 1
55 ?1 29 158 159 0 160 161 155 -.00614921946266354 -.001 .005 18 160 157 0 162 1
57 163 158 ?1 29 161 156 0 163 164 158 -.00614921946266353 .001 .005 18 163 154
 0 165 160 166 161 ?1 29 164 153 0 166 167 161 -.00513350757280049 .001 .005 18
 166 151 0 168 163 169 164 ?1 29 167 150 0 169 170 164 -.00433704479718627 .0029
22831234813175 .005 18 169 148 0 171 166 172 167 ?1 29 170 147 0 172 173 167 -.0
0505526156224023 .003641047999867135 .005 18 172 145 0 174 169 175 170 ?1 29 173
 144 0 175 176 170 -.003641047999867135 .00505526156224023 .005 18 175 142 0 177
 172 178 173 ?1 29 176 141 0 178 179 173 -.002922831234813175 .00433704479718627
 .005 18 178 139 0 180 175 181 176 ?1 29 179 138 0 181 182 176 -.001 .0051335075
7280049 .005 18 181 136 0 183 178 48 179 ?1 29 182 135 0 48 184 179 -.001 .00614
921946266353 .005 18 48 133 0 185 181 45 182 ?1 29 184 1259 0 93 186 182 -.001 .
00513350757280049 0 18 93 1147 0 187 91 188 184 ?1 29 186 1260 0 188 189 184 -.0
02922831234813175 .00433704479718627 0 18 188 1148 0 190 93 191 186 ?1 29 189 12
61 0 191 192 186 -.00433704479718627 .002922831234813175 0 18 191 1150 0 193 188
 194 189 ?1 29 192 1262 0 194 195 189 -.00513350757280049 .001 0 18 194 1151 0 1
96 191 197 192 ?1 29 195 1263 0 197 198 192 -.00513350757280049 -.001 0 18 197 1
153 0 199 194 200 195 ?1 29 198 1264 0 200 201 195 -.00433704479718627 -.0029228
31234813175 0 18 200 1154 0 202 197 203 198 ?1 29 201 1265 0 203 204 198 -.00292
2831234813175 -.00433704479718627 0 18 203 1156 0 205 200 206 201 ?1 29 204 1266
 0 206 207 201 -.001 -.00513350757280049 0 18 206 1157 0 208 203 209 204 ?1 29 2
07 1267 0 209 210 204 .001 -.00513350757280049 0 18 209 1159 0 211 206 212 207 ?
1 29 210 1268 0 212 213 207 .00292283123481318 -.00433704479718627 0 18 212 1160
 0 214 209 215 210 ?1 29 213 1269 0 215 216 210 .00433704479718627 -.00292283123
4813175 0 18 215 1162 0 217 212 218 213 ?1 29 216 1270 0 218 219 213 .0051335075
7280049 -.001 0 18 218 1163 0 220 215 221 216 ?1 29 219 1271 0 221 222 216 .0051
3350757280049 .001 0 18 221 1165 0 223 218 224 219 ?1 29 222 1272 0 224 225 219
 .00433704479718627 .002922831234813175 0 18 224 1166 0 226 221 227 222 ?1 29 22
5 1273 0 227 228 222 .002922831234813175 .00433704479718627 0 18 227 1168 0 229
 224 230 225 ?1 29 228 1274 0 230 231 225 .001 .00513350757280049 0 18 230 1169
 0 232 227 233 228 ?1 29 231 1276 0 233 234 228 -.00489040691385693 -.0034761933
51483835 0 18 233 1155 0 38 230 235 231 ?1 29 234 1277 0 235 236 231 -.003476193
35148383 -.00489040691385693 0 18 235 1142 0 237 233 238 234 ?1 29 236 1278 0 23
8 239 234 -.001 -.00591607978309962 0 18 238 1158 0 240 235 241 236 ?1 29 239 12
79 0 241 242 236 .001 -.00591607978309962 0 18 241 1143 0 243 238 244 239 ?1 29
 242 1280 0 244 245 239 .00347619335148383 -.00489040691385693 0 18 244 1161 0 2
46 241 247 242 ?1 29 245 1281 0 247 248 242 .00489040691385693 -.003476193351483
83 0 18 247 1144 0 249 244 250 245 ?1 29 248 1282 0 250 251 245 .005916079783099
62 -.001 0 18 250 1164 0 252 247 253 248 ?1 29 251 1283 0 253 254 248 .005916079
78309962 .001 0 18 253 1145 0 255 250 256 251 ?1 29 254 1284 0 256 257 251 .0048
9040691385693 .00347619335148383 0 18 256 1167 0 258 253 259 254 ?1 29 257 1285
 0 259 260 254 .00347619335148383 .00489040691385693 0 18 259 1146 0 261 256 262
 257 ?1 29 260 1286 0 262 263 257 .001 .00591607978309962 0 18 262 1170 0 264 25
9 265 260 ?1 29 263 1287 0 265 266 260 -.001 .00591607978309962 0 18 265 1139 0
 267 262 268 263 ?1 29 266 1288 0 268 269 263 -.003476193351483835 .004890406913
85693 0 18 268 1149 0 270 265 271 266 ?1 29 269 1289 0 271 272 266 -.00489040691
385693 .00347619335148383 0 18 271 1140 0 273 268 274 269 ?1 29 272 1290 0 274 2
75 269 -.00591607978309962 .001 0 18 274 1152 0 36 271 276 272 ?1 29 275 1291 0
 276 277 272 -.00264575131106459 .003 -.0053 18 276 1173 0 278 274 279 275 ?1 29
 277 1293 0 280 281 275 -.00264575131106459 .003 0 18 280 1172 0 29 279 0 277 ?1
 29 281 1294 0 279 0 277 .00264575131106459 .003 -.0053 18 279 1174 0 282 276 28
0 281 ?1 17 282 0 283 284 278 279 285 286 0 287 +15 283 1219 0 30 288 0 17 284 0
 283 30 282 11 287 289 0 0 +17 278 0 283 282 30 276 290 291 0 292 -17 285 0 293
 294 294 276 282 286 0 0 -16 286 1135 0 ?282 289 295 296 0 0 1 17 287 0 297 292
 32 279 284 289 0 294 -15 297 1215 0 32 298 0 17 292 0 297 290 287 276 294 295 0
 285 +17 32 0 297 287 290 11 29 299 0 284 -16 289 1138 0 ?284 291 286 300 0 0 1
 17 294 0 293 285 285 279 292 295 0 0 -15 293 1202 0 285 301 0 16 295 1131 0 ?29
2 286 31 302 0 0 1 16 31 1080 0 ?26 295 299 303 0 0 1 31 302 1258 0 295 0 296 0
 +0 0 -.0053 0 0 -1 -1 0 0 .004 30 296 1257 0 286 302 304 0 +.00264575131106459
 .003 -.0053 1 0 0 31 304 1256 0 299 296 303 0 +0 0 0 0 0 -1 -1 0 0 .004 16 299
 1077 0 ?29 31 0 304 0 0 1 30 303 1255 0 31 304 300 0 +.00264575131106459 .003 0
 1 0 0 30 300 1254 0 289 303 305 0 +.00264575131106459 .003 -.0053 0 0 1 30 305
 1253 0 291 300 306 0 +-.00264575131106459 .003 -.0053 0 0 1 16 291 1134 0 ?290
 39 289 305 0 0 1 31 306 1252 0 307 305 308 0 +0 0 -.0053 0 0 -1 -1 0 0 .006 16
 307 1074 0 ?309 310 311 306 0 0 1 31 308 1251 0 311 306 312 0 +0 0 0 0 0 -1 -1
 0 0 .006 16 311 1083 0 ?313 307 314 308 39 314 1 31 312 7 0 315 308 316 0 +0 0
 .005 0 0 1 -1 0 0 .00623 16 315 5 0 ?317 318 319 312 0 0 1 30 316 11 0 318 312
 320 0 +-.001 .00614921946266353 .005 0 -1 0 16 318 9 0 ?183 321 315 316 0 0 1 3
1 320 15 0 321 316 322 0 +0 0 .005 0 0 1 1 0 0 .00523 16 321 13 0 ?180 323 318 3
20 0 0 1 30 322 19 0 323 320 324 0 +-.003641047999867135 .00505526156224023 .005
 -.707106781186548 .707106781186547 0 16 323 17 0 ?177 325 321 322 0 0 1 31 324
 23 0 325 322 326 0 +0 0 .005 0 0 1 -1 0 0 .00623 16 325 21 0 ?174 327 323 324 0
 0 1 30 326 27 0 327 324 328 0 +-.00505526156224023 .003641047999867135 .005 .70
7106781186548 -.707106781186547 0 16 327 25 0 ?171 329 325 326 0 0 1 31 328 31 0
 329 326 330 0 +0 0 .005 0 0 1 1 0 0 .00523 16 329 29 0 ?168 331 327 328 0 0 1 3
0 330 35 0 331 328 332 0 +-.00614921946266353 .001 .005 -1 -2134861634103145e-31
 0 16 331 33 0 ?165 333 329 330 0 0 1 31 332 39 0 333 330 334 0 +0 0 .005 0 0 1
 -1 0 0 .00623 16 333 37 0 ?162 335 331 332 0 0 1 30 334 43 0 335 332 336 0 +-.0
0614921946266353 -.001 .005 1 2134861634103145e-31 0 16 335 41 0 ?159 337 333 33
4 0 0 1 31 336 47 0 337 334 338 0 +0 0 .005 0 0 1 1 0 0 .00523 16 337 45 0 ?156
 339 335 336 0 0 1 30 338 51 0 339 336 340 0 +-.00505526156224023 -.003641047999
867135 .005 -.707106781186548 -.707106781186547 0 16 339 49 0 ?153 341 337 338 0
 0 1 31 340 55 0 341 338 342 0 +0 0 .005 0 0 1 -1 0 0 .00623 16 341 53 0 ?150 34
3 339 340 0 0 1 30 342 59 0 343 340 344 0 +-.003641047999867135 -.00505526156224
023 .005 .707106781186548 .707106781186547 0 16 343 57 0 ?147 345 341 342 0 0 1
 31 344 63 0 345 342 346 0 +0 0 .005 0 0 1 1 0 0 .00523 16 345 61 0 ?144 347 343
 344 0 0 1 30 346 67 0 347 344 348 0 +-.001 -.00614921946266353 .005 21348616341
03145e-31 -1 0 16 347 65 0 ?141 349 345 346 0 0 1 31 348 71 0 349 346 350 0 +0 0
 .005 0 0 1 -1 0 0 .00623 16 349 69 0 ?138 351 347 348 0 0 1 30 350 75 0 351 348
 352 0 +.001 -.00614921946266353 .005 -2134861634103145e-31 1 0 16 351 73 0 ?135
 353 349 350 0 0 1 31 352 79 0 353 350 354 0 +0 0 .005 0 0 1 1 0 0 .00523 16 353
 77 0 ?132 355 351 352 0 0 1 30 354 83 0 355 352 356 0 +.003641047999867135 -.00
505526156224023 .005 .707106781186547 -.707106781186548 0 16 355 81 0 ?129 357 3
53 354 0 0 1 31 356 87 0 357 354 358 0 +0 0 .005 0 0 1 -1 0 0 .00623 16 357 85 0
 ?126 359 355 356 0 0 1 30 358 91 0 359 356 360 0 +.00505526156224023 -.00364104
7999867135 .005 -.707106781186547 .707106781186548 0 16 359 89 0 ?123 361 357 35
8 0 0 1 31 360 95 0 361 358 362 0 +0 0 .005 0 0 1 1 0 0 .00523 16 361 93 0 ?120
 363 359 360 0 0 1 30 362 99 0 363 360 364 0 +.00614921946266353 -.001 .005 1 0
 0 16 363 97 0 ?117 365 361 362 0 0 1 31 364 103 0 365 362 366 0 +0 0 .005 0 0 1
 -1 0 0 .00623 16 365 101 0 ?114 367 363 364 0 0 1 30 366 107 0 367 364 368 0 +.
00614921946266353 .001 .005 -1 0 0 16 367 105 0 ?111 369 365 366 0 0 1 31 368 11
1 0 369 366 370 0 +0 0 .005 0 0 1 1 0 0 .00523 16 369 109 0 ?108 371 367 368 0 0
 1 30 370 115 0 371 368 372 0 +.00505526156224023 .003641047999867135 .005 .7071
06781186547 .707106781186548 0 16 371 113 0 ?105 373 369 370 0 0 1 31 372 119 0
 373 370 374 0 +0 0 .005 0 0 1 -1 0 0 .00623 16 373 117 0 ?102 375 371 372 0 0 1
 30 374 123 0 375 372 376 0 +.003641047999867135 .00505526156224023 .005 -.70710
6781186548 -.707106781186548 0 16 375 121 0 ?99 377 373 374 0 0 1 31 376 127 0 3
77 374 378 0 +0 0 .005 0 0 1 1 0 0 .00523 16 377 125 0 ?96 379 375 376 0 0 1 30
 378 131 0 379 376 380 0 +.001 .00614921946266353 .005 0 1 0 16 379 129 0 ?41 38
1 377 378 0 0 1 31 380 494 0 310 378 382 0 +0 0 0 0 0 1 -1 0 0 .00623 16 310 426
 0 ?383 384 307 380 0 0 1 30 382 493 0 385 380 386 0 +-.001 .00614921946266353 0
 0 -1 0 16 385 422 0 ?387 388 384 382 384 384 1 31 386 492 0 388 382 389 0 +0 0
 0 0 0 1 1 0 0 .00523 16 388 418 0 ?390 391 385 386 0 0 1 30 389 491 0 392 386 3
93 0 +-.003641047999867135 .00505526156224023 0 -.707106781186548 .7071067811865
47 0 16 392 414 0 ?394 395 391 389 391 391 1 31 393 490 0 395 389 396 0 +0 0 0 0
 0 1 -1 0 0 .00623 16 395 410 0 ?87 397 392 393 0 0 1 30 396 489 0 398 393 399 0
 +-.00505526156224023 .003641047999867135 0 .707106781186548 -.707106781186547 0
 16 398 406 0 ?400 401 397 396 397 397 1 31 399 488 0 401 396 402 0 +0 0 0 0 0 1
 1 0 0 .00523 16 401 402 0 ?403 404 398 399 0 0 1 30 402 487 0 405 399 406 0 +-.
00614921946266353 .001 0 -1 -2134861634103145e-31 0 16 405 398 0 ?407 408 404 40
2 404 404 1 31 406 486 0 408 402 409 0 +0 0 0 0 0 1 -1 0 0 .00623 16 408 394 0 ?
81 410 405 406 0 0 1 30 409 485 0 411 406 412 0 +-.00614921946266353 -.001 0 1 2
134861634103145e-31 0 16 411 390 0 ?413 414 410 409 410 410 1 31 412 484 0 414 4
09 415 0 +0 0 0 0 0 1 1 0 0 .00523 16 414 386 0 ?416 417 411 412 0 0 1 30 415 48
3 0 418 412 419 0 +-.00505526156224023 -.003641047999867135 0 -.707106781186548
 -.707106781186547 0 16 418 382 0 ?420 421 417 415 417 417 1 31 419 482 0 421 41
5 422 0 +0 0 0 0 0 1 -1 0 0 .00623 16 421 378 0 ?75 423 418 419 0 0 1 30 422 481
 0 424 419 425 0 +-.003641047999867135 -.00505526156224023 0 .707106781186548 .7
07106781186547 0 16 424 374 0 ?426 427 423 422 423 423 1 31 425 480 0 427 422 42
8 0 +0 0 0 0 0 1 1 0 0 .00523 16 427 370 0 ?429 430 424 425 0 0 1 30 428 479 0 4
31 425 432 0 +-.001 -.00614921946266353 0 2134861634103145e-31 -1 0 16 431 366 0
 ?433 434 430 428 430 430 1 31 432 478 0 434 428 435 0 +0 0 0 0 0 1 -1 0 0 .0062
3 16 434 362 0 ?69 436 431 432 0 0 1 30 435 477 0 437 432 438 0 +.001 -.00614921
946266353 0 -2134861634103145e-31 1 0 16 437 358 0 ?439 440 436 435 436 436 1 31
 438 476 0 440 435 441 0 +0 0 0 0 0 1 1 0 0 .00523 16 440 354 0 ?442 443 437 438
 0 0 1 30 441 475 0 444 438 445 0 +.003641047999867135 -.00505526156224023 0 .70
7106781186547 -.707106781186548 0 16 444 350 0 ?446 447 443 441 443 443 1 31 445
 474 0 447 441 448 0 +0 0 0 0 0 1 -1 0 0 .00623 16 447 346 0 ?63 449 444 445 0 0
 1 30 448 473 0 450 445 451 0 +.00505526156224023 -.003641047999867135 0 -.70710
6781186547 .707106781186548 0 16 450 342 0 ?452 453 449 448 449 449 1 31 451 472
 0 453 448 454 0 +0 0 0 0 0 1 1 0 0 .00523 16 453 338 0 ?455 456 450 451 0 0 1 3
0 454 471 0 457 451 458 0 +.00614921946266353 -.001 0 1 0 0 16 457 334 0 ?459 46
0 456 454 456 456 1 31 458 470 0 460 454 461 0 +0 0 0 0 0 1 -1 0 0 .00623 16 460
 330 0 ?57 462 457 458 0 0 1 30 461 469 0 463 458 464 0 +.00614921946266353 .001
 0 -1 0 0 16 463 326 0 ?465 466 462 461 462 462 1 31 464 468 0 466 461 467 0 +0
 0 0 0 0 1 1 0 0 .00523 16 466 322 0 ?468 469 463 464 0 0 1 30 467 467 0 470 464
 471 0 +.00505526156224023 .003641047999867135 0 .707106781186547 .7071067811865
48 0 16 470 318 0 ?472 473 469 467 469 469 1 31 471 466 0 473 467 474 0 +0 0 0 0
 0 1 -1 0 0 .00623 16 473 314 0 ?51 475 470 471 0 0 1 30 474 465 0 476 471 477 0
 +.003641047999867135 .00505526156224023 0 -.707106781186548 -.707106781186548 0
 16 476 310 0 ?478 479 475 474 475 475 1 31 477 464 0 479 474 480 0 +0 0 0 0 0 1
 1 0 0 .00523 16 479 306 0 ?481 482 476 477 0 0 1 30 480 463 0 319 477 483 0 +.0
01 .00614921946266353 0 0 1 0 16 319 302 0 ?484 315 482 480 482 482 1 30 483 655
 0 381 480 485 0 +.001 .00614921946266353 .005 0 0 -1 16 381 527 0 ?486 487 379
 483 0 0 1 30 485 656 0 487 483 488 0 +.001 .00513350757280049 .005 0 0 -1 16 48
7 528 0 ?489 490 381 485 0 0 1 30 488 657 0 490 485 491 0 +.002922831234813175 .
00433704479718627 .005 0 0 -1 16 490 529 0 ?492 493 487 488 0 0 1 30 491 658 0 4
93 488 494 0 +.003641047999867135 .00505526156224023 .005 0 0 -1 16 493 530 0 ?4
95 496 490 491 0 0 1 30 494 659 0 496 491 497 0 +.00505526156224023 .00364104799
9867135 .005 0 0 -1 16 496 531 0 ?498 499 493 494 0 0 1 30 497 660 0 499 494 500
 0 +.00433704479718627 .002922831234813175 .005 0 0 -1 16 499 532 0 ?501 502 496
 497 0 0 1 30 500 661 0 502 497 503 0 +.00513350757280049 .001 .005 0 0 -1 16 50
2 533 0 ?504 505 499 500 0 0 1 30 503 662 0 505 500 506 0 +.00614921946266354 .0
01 .005 0 0 -1 16 505 534 0 ?507 508 502 503 0 0 1 30 506 663 0 508 503 509 0 +.
00614921946266353 -.001 .005 0 0 -1 16 508 535 0 ?510 511 505 506 0 0 1 30 509 6
64 0 511 506 512 0 +.00513350757280049 -.001 .005 0 0 -1 16 511 536 0 ?513 514 5
08 509 0 0 1 30 512 665 0 514 509 515 0 +.00433704479718627 -.002922831234813175
 .005 0 0 -1 16 514 537 0 ?516 517 511 512 0 0 1 30 515 666 0 517 512 518 0 +.00
505526156224023 -.003641047999867135 .005 0 0 -1 16 517 538 0 ?519 520 514 515 0
 0 1 30 518 667 0 520 515 521 0 +.003641047999867135 -.00505526156224023 .005 0
 0 -1 16 520 539 0 ?522 523 517 518 0 0 1 30 521 668 0 523 518 524 0 +.002922831
234813175 -.00433704479718627 .005 0 0 -1 16 523 540 0 ?525 526 520 521 0 0 1 30
 524 669 0 526 521 527 0 +.001 -.00513350757280049 .005 0 0 -1 16 526 541 0 ?528
 529 523 524 0 0 1 30 527 670 0 529 524 530 0 +.001 -.00614921946266353 .005 0 0
 -1 16 529 542 0 ?531 532 526 527 0 0 1 30 530 671 0 532 527 533 0 +-.001 -.0061
4921946266353 .005 0 0 -1 16 532 543 0 ?534 535 529 530 0 0 1 30 533 672 0 535 5
30 536 0 +-.001 -.00513350757280049 .005 0 0 -1 16 535 544 0 ?537 538 532 533 0
 0 1 30 536 673 0 538 533 539 0 +-.002922831234813175 -.00433704479718627 .005 0
 0 -1 16 538 545 0 ?540 541 535 536 0 0 1 30 539 674 0 541 536 542 0 +-.00364104
7999867135 -.00505526156224023 .005 0 0 -1 16 541 546 0 ?543 544 538 539 0 0 1 3
0 542 675 0 544 539 545 0 +-.00505526156224023 -.003641047999867135 .005 0 0 -1
 16 544 547 0 ?546 547 541 542 0 0 1 30 545 676 0 547 542 548 0 +-.0043370447971
8627 -.002922831234813175 .005 0 0 -1 16 547 548 0 ?549 550 544 545 0 0 1 30 548
 677 0 550 545 551 0 +-.00513350757280049 -.001 .005 0 0 -1 16 550 549 0 ?552 55
3 547 548 0 0 1 30 551 678 0 553 548 554 0 +-.00614921946266354 -.001 .005 0 0 -
1 16 553 550 0 ?555 556 550 551 0 0 1 30 554 679 0 556 551 557 0 +-.006149219462
66353 .001 .005 0 0 -1 16 556 551 0 ?558 559 553 554 0 0 1 30 557 680 0 559 554
 560 0 +-.00513350757280049 .001 .005 0 0 -1 16 559 552 0 ?561 562 556 557 0 0 1
 30 560 681 0 562 557 563 0 +-.00433704479718627 .002922831234813175 .005 0 0 -1
 16 562 553 0 ?564 565 559 560 0 0 1 30 563 682 0 565 560 566 0 +-.0050552615622
4023 .003641047999867135 .005 0 0 -1 16 565 554 0 ?567 568 562 563 0 0 1 30 566
 683 0 568 563 569 0 +-.003641047999867135 .00505526156224023 .005 0 0 -1 16 568
 555 0 ?570 571 565 566 0 0 1 30 569 684 0 571 566 572 0 +-.002922831234813175 .
00433704479718627 .005 0 0 -1 16 571 556 0 ?573 574 568 569 0 0 1 30 572 685 0 5
74 569 21 0 +-.001 .00513350757280049 .005 0 0 -1 16 574 557 0 ?575 576 571 572
 0 0 1 30 21 686 0 576 572 7 0 +-.001 .00614921946266353 .005 0 0 -1 16 576 558
 0 ?577 20 574 21 0 0 1 17 577 0 578 387 185 91 579 576 0 383 +16 20 960 0 ?580
 581 576 7 10 581 1 17 580 0 582 583 584 27 36 20 0 413 +16 581 972 0 ?585 586 2
0 7 20 586 1 17 585 0 587 588 589 271 590 581 0 400 +16 586 983 0 ?591 592 581 7
 581 592 1 17 591 0 593 92 594 265 595 586 0 387 +16 592 994 0 ?596 597 586 7 58
6 597 1 17 596 0 598 599 600 259 601 592 0 478 +16 597 1005 0 ?602 603 592 7 592
 603 1 17 602 0 604 605 606 253 607 597 0 465 +16 603 1016 0 ?608 25 597 7 597 2
5 1 17 608 0 609 610 611 247 612 603 0 452 +16 25 1027 0 ?613 10 603 7 603 10 1
 17 613 0 614 615 616 241 617 25 0 439 +15 614 1017 0 616 618 0 17 615 0 614 619
 613 67 439 437 0 0 -17 616 0 614 613 619 238 72 430 0 433 -17 617 0 35 620 621
 238 613 25 0 616 -17 439 0 622 623 531 241 615 437 0 0 +15 622 587 0 439 624 0
 17 623 0 622 625 439 209 243 436 0 528 +17 531 0 622 439 626 67 627 529 0 615 +
17 626 0 622 531 625 136 135 351 0 0 -17 627 0 628 629 69 136 531 529 0 626 -15
 628 589 0 69 630 0 17 629 0 628 534 627 139 138 349 0 0 -17 69 0 628 627 534 67
 619 434 0 531 +17 534 0 628 69 629 70 631 532 0 619 +17 619 0 614 616 615 70 69
 434 0 0 -17 631 0 632 633 72 139 534 532 0 629 -15 632 591 0 433 634 0 17 633 0
 632 537 631 142 141 347 0 0 -17 72 0 632 631 433 70 616 430 0 534 +17 433 0 632
 72 537 238 208 431 0 0 +16 430 918 0 ?72 431 427 428 431 431 1 17 537 0 632 433
 633 206 635 535 0 0 +17 208 0 636 205 240 206 433 431 0 429 -15 636 1186 0 205
 637 0 17 205 0 636 237 208 203 429 427 0 638 -17 240 0 636 208 237 238 620 639
 0 617 -17 429 0 640 635 540 206 205 427 0 537 +15 640 593 0 429 641 0 17 635 0
 640 642 429 142 537 535 0 633 -17 540 0 640 429 642 203 643 538 0 0 +17 642 0 6
40 540 635 145 144 345 0 0 -17 643 0 644 645 638 145 540 538 0 642 -15 644 595 0
 426 646 0 17 645 0 644 543 643 148 147 343 0 0 -17 638 0 644 643 426 203 237 42
3 0 540 +17 426 0 644 638 543 235 647 424 0 0 +17 237 0 636 240 205 235 638 423
 0 620 -16 423 921 0 ?638 424 421 422 424 424 1 17 620 0 35 37 617 235 240 639 0
 24 +15 35 1211 0 313 648 0 17 37 0 35 33 620 233 24 10 0 649 -16 639 1119 0 ?62
0 650 39 308 650 39 1 17 24 0 651 647 649 235 37 10 0 426 +15 651 1028 0 649 16
 0 17 647 0 651 652 24 73 426 424 0 0 -17 649 0 651 24 652 233 78 417 0 420 -17
 652 0 651 649 647 76 75 421 0 0 -17 78 0 653 654 420 76 649 417 0 546 +16 417 9
24 0 ?78 418 414 415 418 418 1 17 420 0 653 78 549 233 202 418 0 0 +15 653 599 0
 420 655 0 17 549 0 653 420 656 200 657 547 0 0 +17 202 0 658 199 38 200 420 418
 0 416 -15 658 1183 0 199 659 0 17 199 0 658 40 202 197 416 414 0 660 -17 38 0 6
58 202 40 233 33 39 0 37 -17 416 0 661 657 552 200 199 414 0 549 +15 661 601 0 4
16 662 0 17 657 0 661 663 416 154 549 547 0 656 -17 552 0 661 416 663 197 664 55
0 0 0 +17 663 0 661 552 657 157 156 337 0 0 -17 664 0 665 666 660 157 552 550 0
 663 -15 665 603 0 413 667 0 17 666 0 665 555 664 160 159 335 0 0 -17 660 0 665
 664 413 197 40 410 0 552 +17 413 0 665 660 555 27 583 411 0 0 +17 40 0 658 38 1
99 27 660 410 0 580 -16 410 927 0 ?660 411 408 409 411 411 1 17 555 0 665 413 66
6 79 668 553 0 583 +17 583 0 582 669 580 79 413 411 0 0 -15 582 301 0 584 670 0
 17 669 0 582 584 583 82 81 408 0 0 -17 584 0 582 580 669 274 84 404 0 407 -17 8
1 0 671 668 558 79 669 408 0 555 +15 671 605 0 81 672 0 17 668 0 671 673 81 160
 555 553 0 666 -17 558 0 671 81 673 82 674 556 0 669 +17 673 0 671 558 668 163 1
62 333 0 0 -17 674 0 675 676 84 163 558 556 0 673 -15 675 607 0 407 677 0 17 676
 0 675 561 674 166 165 331 0 0 -17 84 0 675 674 407 82 584 404 0 558 +17 407 0 6
75 84 561 274 196 405 0 0 +16 404 930 0 ?84 405 401 402 405 405 1 17 561 0 675 4
07 676 194 678 559 0 0 +17 196 0 679 193 680 194 407 405 0 403 -15 679 1180 0 19
3 681 0 17 193 0 679 273 196 191 403 401 0 682 -17 680 0 679 196 273 274 313 311
 0 584 -17 403 0 683 678 564 194 193 401 0 561 +15 683 609 0 403 684 0 17 678 0
 683 685 403 166 561 559 0 676 -17 564 0 683 403 685 191 686 562 0 0 +17 685 0 6
83 564 678 169 168 329 0 0 -17 686 0 687 688 682 169 564 562 0 685 -15 687 611 0
 400 689 0 17 688 0 687 567 686 172 171 327 0 0 -17 682 0 687 686 400 191 273 39
7 0 564 +17 400 0 687 682 567 271 588 398 0 0 +17 273 0 679 680 193 271 682 397
 0 313 -16 397 933 0 ?682 398 395 396 398 398 1 17 313 0 35 590 36 271 680 311 0
 585 +17 590 0 35 690 313 268 585 581 0 589 -17 36 0 35 313 33 274 580 20 0 680
 -17 690 0 35 595 590 265 270 314 0 591 +17 589 0 587 585 691 268 90 391 0 394 -
15 587 961 0 589 692 0 17 691 0 587 589 588 88 87 395 0 0 -17 90 0 693 694 394 8
8 589 391 0 570 +16 391 936 0 ?90 392 388 389 392 392 1 17 394 0 693 90 573 268
 190 392 0 0 +15 693 615 0 394 695 0 17 573 0 693 394 696 188 697 571 0 0 +17 19
0 0 698 187 270 188 394 392 0 390 -15 698 1177 0 187 699 0 17 187 0 698 267 190
 93 390 388 0 700 -17 270 0 698 190 267 268 690 314 0 590 -17 390 0 701 697 575
 188 187 388 0 573 +15 701 617 0 390 702 0 17 697 0 701 703 390 178 573 571 0 69
6 -17 575 0 701 390 703 93 704 574 0 0 +17 703 0 701 575 697 181 180 321 0 0 -17
 704 0 578 185 700 181 575 574 0 703 -15 578 619 0 387 705 0 17 185 0 578 577 70
4 48 183 318 0 317 -17 700 0 578 704 387 93 267 384 0 575 +17 387 0 578 700 577
 265 92 385 0 0 +17 267 0 698 270 187 265 700 384 0 690 -16 384 939 0 ?700 385 3
10 382 385 385 1 17 92 0 593 706 591 91 387 385 0 577 -15 593 973 0 594 707 0 17
 706 0 593 594 92 45 383 310 0 0 -17 594 0 593 591 706 262 47 482 0 484 -17 383
 0 708 579 486 91 706 310 0 0 +15 708 621 0 383 18 0 17 579 0 708 709 383 48 577
 576 0 0 -17 486 0 708 383 709 45 710 381 0 706 +17 709 0 708 486 579 34 317 315
 0 0 -17 710 0 711 712 47 34 486 381 0 709 -15 711 559 0 484 713 0 17 712 0 711
 489 710 42 41 379 0 0 -17 47 0 711 710 484 45 594 482 0 486 +17 484 0 711 47 48
9 262 232 319 0 0 +16 482 894 0 ?47 319 479 480 319 319 1 17 489 0 711 484 712 2
30 714 487 0 0 +17 232 0 715 229 264 230 484 319 0 481 -15 715 1198 0 229 716 0
 17 229 0 715 261 232 227 481 479 0 717 -17 264 0 715 232 261 262 718 719 0 595
 -17 481 0 720 714 492 230 229 479 0 489 +15 720 561 0 481 721 0 17 714 0 720 72
2 481 42 489 487 0 712 -17 492 0 720 481 722 227 723 490 0 0 +17 722 0 720 492 7
14 97 96 377 0 0 -17 723 0 724 725 717 97 492 490 0 722 -15 724 563 0 478 726 0
 17 725 0 724 495 723 100 99 375 0 0 -17 717 0 724 723 478 227 261 475 0 492 +17
 478 0 724 717 495 259 599 476 0 0 +17 261 0 715 264 229 259 717 475 0 718 -16 4
75 897 0 ?717 476 473 474 476 476 1 17 718 0 35 601 595 259 264 719 0 596 +17 60
1 0 35 727 718 256 596 592 0 600 -17 595 0 35 718 690 262 591 586 0 594 -16 719
 1095 0 ?718 314 728 308 314 728 1 16 314 1089 0 ?690 311 719 308 311 719 1 16 7
28 1101 0 ?727 719 729 308 719 729 1 17 727 0 35 607 601 253 258 728 0 602 +16 7
29 1107 0 ?730 728 650 308 728 650 1 17 730 0 35 612 607 247 252 729 0 608 +16 6
50 1113 0 ?621 729 639 308 729 639 1 17 621 0 35 617 612 241 246 650 0 613 +17 6
12 0 35 621 730 244 608 603 0 611 -17 246 0 731 214 243 244 621 650 0 612 -15 73
1 1189 0 211 732 0 17 214 0 731 211 246 212 446 444 0 442 -17 243 0 731 246 211
 241 623 436 0 621 -17 211 0 731 243 214 209 442 440 0 623 -16 436 915 0 ?623 43
7 434 435 437 437 1 17 442 0 733 734 528 212 211 440 0 525 +15 733 585 0 442 735
 0 17 734 0 733 736 442 130 525 523 0 737 -17 528 0 733 442 736 209 625 526 0 0
 +17 525 0 738 446 737 212 734 523 0 0 +15 738 583 0 446 739 0 17 446 0 738 66 5
25 244 214 444 0 0 +17 737 0 738 525 740 130 129 355 0 0 -17 740 0 738 737 66 12
7 522 520 0 741 -17 129 0 742 126 132 127 737 355 0 740 +15 742 4 0 317 743 0 17
 126 0 742 123 129 124 741 357 0 744 +17 132 0 742 129 135 130 736 353 0 734 +17
 135 0 742 132 138 133 626 351 0 625 +17 736 0 733 528 734 133 132 353 0 0 -17 1
38 0 742 135 141 136 629 349 0 627 +17 625 0 622 626 623 133 528 526 0 736 -17 1
41 0 742 138 144 139 633 347 0 631 +17 144 0 742 141 147 142 642 345 0 635 +17 1
47 0 742 144 150 145 645 343 0 643 +17 150 0 742 147 153 148 745 341 0 746 +17 1
53 0 742 150 156 151 656 339 0 654 +17 745 0 747 546 746 151 150 341 0 0 -17 746
 0 747 745 75 148 543 541 0 645 -15 747 597 0 75 748 0 17 75 0 747 746 546 73 65
2 421 0 543 +17 543 0 644 426 645 73 746 541 0 647 +17 546 0 747 75 745 76 654 5
44 0 652 +17 654 0 653 656 78 151 546 544 0 745 -17 656 0 653 549 654 154 153 33
9 0 0 -14 748 598 749 ?646 655 747 5 750 -0 0 646 655 23 81 1 749 1926 751 748 7
52 0 0 753 754 14 646 596 753 ?641 748 644 5 755 -0 0 641 748 23 14 655 600 756
 ?748 662 653 5 757 -0 0 748 662 23 51 750 642 0 748 755 757 0 -0 0 .005 0 0 -1
 .00623 -1 0 0 13 23 230 0 0 0 0 0 0 9 16 14 16 1040 758 ?618 0 651 5 759 +618 7
60 618 0 23 81 1 758 1929 751 16 761 0 756 762 763 14 618 1029 762 ?764 16 614 5
 759 +764 16 764 16 23 50 759 462 0 760 765 766 0 +0 0 0 0 0 -1 -1 0 0 14 760 30
0 767 ?0 288 28 5 759 +16 670 0 288 23 81 1 767 1931 751 760 768 0 762 769 770 1
4 288 1216 769 ?760 298 283 5 771 +0 0 760 298 23 15 28 949 0 29 760 0 14 670 96
3 772 ?18 692 582 5 759 +760 692 18 692 23 81 1 772 1933 751 670 773 0 769 774 7
75 14 18 622 774 ?705 670 708 5 6 -0 0 705 670 23 14 692 974 776 ?670 707 587 5
 759 +670 707 670 707 23 81 1 776 1935 751 692 777 0 774 778 779 14 707 985 778
 ?692 780 593 5 759 +692 780 692 780 23 81 1 778 1936 751 707 781 0 776 782 783
 14 780 996 782 ?707 784 598 5 759 +707 784 707 784 23 81 1 782 1937 751 780 785
 0 778 786 787 14 784 1007 786 ?780 764 604 5 759 +780 764 780 764 23 15 598 984
 0 600 780 0 17 600 0 598 596 788 256 54 469 0 472 -17 788 0 598 600 599 52 51 4
73 0 0 -17 54 0 789 790 472 52 600 469 0 498 +16 469 900 0 ?54 470 466 467 470 4
70 1 17 472 0 789 54 501 256 226 470 0 0 +15 789 567 0 472 791 0 17 501 0 789 47
2 792 224 793 499 0 0 +17 226 0 794 223 258 224 472 470 0 468 -15 794 1195 0 223
 795 0 17 223 0 794 255 226 221 468 466 0 796 -17 258 0 794 226 255 256 727 728
 0 601 -17 468 0 797 793 504 224 223 466 0 501 +15 797 569 0 468 798 0 17 793 0
 797 799 468 106 501 499 0 792 -17 504 0 797 468 799 221 800 502 0 0 +17 799 0 7
97 504 793 109 108 369 0 0 -17 800 0 801 802 796 109 504 502 0 799 -15 801 571 0
 465 803 0 17 802 0 801 507 800 112 111 367 0 0 -17 796 0 801 800 465 221 255 46
2 0 504 +17 465 0 801 796 507 253 605 463 0 0 +17 255 0 794 258 223 253 796 462
 0 727 -16 462 903 0 ?796 463 460 461 463 463 1 17 507 0 801 465 802 55 804 505
 0 605 +17 605 0 604 805 602 55 465 463 0 0 -15 604 995 0 606 784 0 17 805 0 604
 606 605 58 57 460 0 0 -17 606 0 604 602 805 250 60 456 0 459 -17 57 0 806 804 5
10 55 805 460 0 507 +15 806 573 0 57 807 0 17 804 0 806 808 57 112 507 505 0 802
 -17 510 0 806 57 808 58 809 508 0 805 +17 808 0 806 510 804 115 114 365 0 0 -17
 809 0 810 811 60 115 510 508 0 808 -15 810 575 0 459 812 0 17 811 0 810 513 809
 118 117 363 0 0 -17 60 0 810 809 459 58 606 456 0 510 +17 459 0 810 60 513 250
 220 457 0 0 +16 456 906 0 ?60 457 453 454 457 457 1 17 513 0 810 459 811 218 81
3 511 0 0 +17 220 0 814 217 252 218 459 457 0 455 -15 814 1192 0 217 815 0 17 21
7 0 814 249 220 215 455 453 0 816 -17 252 0 814 220 249 250 730 729 0 607 -17 45
5 0 817 813 516 218 217 453 0 513 +15 817 577 0 455 818 0 17 813 0 817 819 455 1
18 513 511 0 811 -17 516 0 817 455 819 215 820 514 0 0 +17 819 0 817 516 813 121
 120 361 0 0 -17 820 0 821 822 816 121 516 514 0 819 -15 821 579 0 452 823 0 17
 822 0 821 519 820 124 123 359 0 0 -17 816 0 821 820 452 215 249 449 0 516 +17 4
52 0 821 816 519 247 610 450 0 0 +17 249 0 814 252 217 247 816 449 0 730 -16 449
 909 0 ?816 450 447 448 450 450 1 17 519 0 821 452 822 61 744 517 0 610 +17 610
 0 609 824 608 61 452 450 0 0 -15 609 1006 0 611 764 0 17 824 0 609 611 610 64 6
3 447 0 0 -17 611 0 609 608 824 244 66 443 0 446 -17 63 0 825 744 522 61 824 447
 0 519 +15 825 581 0 63 826 0 17 744 0 825 741 63 124 519 517 0 822 -17 522 0 82
5 63 741 64 740 520 0 824 +17 741 0 825 522 744 127 126 357 0 0 -14 826 582 827
 ?823 739 825 5 828 -0 0 823 739 23 81 1 827 1939 751 826 829 0 786 830 831 14 8
23 580 830 ?818 826 821 5 832 -0 0 818 826 23 14 739 584 833 ?826 735 738 5 834
 -0 0 826 735 23 51 828 634 0 826 832 834 0 -0 0 .005 0 0 -1 .00623 -1 0 0 50 83
2 633 0 823 835 828 0 +.00505526156224023 -.003641047999867135 .005 -.7071067811
86548 -.707106781186547 0 .707106781186547 -.707106781186548 0 50 834 635 0 739
 828 836 0 +.003641047999867135 -.00505526156224023 .005 .707106781186548 .70710
6781186547 0 -.707106781186547 .707106781186548 0 51 836 636 0 735 834 837 0 -0
 0 .005 0 0 -1 .00523 -1 0 0 14 735 586 838 ?739 624 733 5 836 -0 0 739 624 23 5
0 837 637 0 624 836 839 0 +.001 -.00614921946266353 .005 -1 -2134861634103145e-3
1 0 2134861634103145e-31 -1 0 14 624 588 840 ?735 630 622 5 837 -0 0 735 630 23
 51 839 638 0 630 837 841 0 -0 0 .005 0 0 -1 .00623 -1 0 0 14 630 590 842 ?624 6
34 628 5 839 -0 0 624 634 23 50 841 639 0 634 839 843 0 +-.001 -.006149219462663
53 .005 1 2134861634103145e-31 0 -2134861634103145e-31 1 0 14 634 592 844 ?630 6
41 632 5 841 -0 0 630 641 23 51 843 640 0 641 841 755 0 -0 0 .005 0 0 -1 .00523
 -1 0 0 14 641 594 845 ?634 646 640 5 843 -0 0 634 646 23 50 755 641 0 646 843 7
50 0 +-.003641047999867135 -.00505526156224023 .005 -.707106781186547 .707106781
186548 0 -.707106781186548 -.707106781186547 0 81 1 845 1946 751 641 846 0 844 8
47 848 80 1 751 849 850 9000 1 1 1 1 1 1 1 1 0 FFFFTFTFFFFFFF1 81 1 846 1714 851
 641 0 845 852 853 854 81 1 844 1945 751 634 853 0 842 845 855 81 1 847 1947 751
 818 856 0 845 857 858 82 1 848 881328263 14 818 578 847 ?812 823 817 5 835 -0 0
 812 823 23 81 1 856 1722 851 818 0 847 859 860 861 81 1 857 1948 751 812 860 0
 847 862 863 82 1 858 879231111 14 812 576 857 ?807 818 810 5 864 -0 0 807 818 2
3 81 1 860 1723 851 812 0 857 856 865 866 81 1 862 1949 751 803 867 0 857 868 86
9 82 1 863 878968967 14 803 572 862 ?798 807 801 5 870 -0 0 798 807 23 81 1 867
 1725 851 803 0 862 865 871 872 81 1 868 1950 751 798 871 0 862 873 874 82 1 869
 878444679 14 798 570 868 ?791 803 797 5 875 -0 0 791 803 23 81 1 871 1726 851 7
98 0 868 867 876 877 81 1 873 1951 751 791 876 0 868 878 879 82 1 874 878182535
 14 791 568 873 ?880 798 789 5 881 -0 0 880 798 23 81 1 876 1727 851 791 0 873 8
71 882 883 81 1 878 1952 751 726 884 0 873 885 886 82 1 879 877920391 14 726 564
 878 ?721 880 724 5 887 -0 0 721 880 23 81 1 884 1729 851 726 0 878 882 888 889
 81 1 885 1953 751 721 888 0 878 890 891 82 1 886 877396103 14 721 562 885 ?713
 726 720 5 892 -0 0 713 726 23 81 1 888 1730 851 721 0 885 884 893 894 81 1 890
 1954 751 713 893 0 885 895 896 82 1 891 877133959 14 713 560 890 ?743 721 711 5
 766 -0 0 743 721 23 81 1 893 1731 851 713 0 890 888 897 898 81 1 895 1955 751 6
99 899 0 890 900 901 82 1 896 876871815 14 699 1175 895 ?681 743 698 5 902 -681
 716 681 743 23 81 1 899 1733 851 699 0 895 897 903 904 81 1 900 1956 751 681 90
3 0 895 905 906 82 1 901 1184891015 14 681 1178 900 ?659 699 679 5 902 -659 699
 659 699 23 81 1 903 1734 851 681 0 900 899 907 908 81 1 905 1957 751 659 907 0
 900 909 910 82 1 906 1183645831 14 659 1181 905 ?637 681 658 5 902 -637 681 637
 681 23 81 1 907 1735 851 659 0 905 903 911 912 81 1 909 1958 751 637 911 0 905
 913 914 82 1 910 1182400647 14 637 1184 909 ?732 659 636 5 902 -732 659 732 659
 23 81 1 911 1736 851 637 0 909 907 915 916 81 1 913 1959 751 732 915 0 909 917
 918 82 1 914 1181155463 14 732 1187 913 ?815 637 731 5 902 -815 637 815 637 23
 81 1 915 1737 851 732 0 913 911 919 920 81 1 917 1960 751 301 921 0 913 922 923
 82 1 918 1179910279 14 301 1199 917 ?648 716 924 5 925 +0 0 648 716 23 81 1 921
 1741 851 301 0 917 926 927 928 81 1 922 1961 751 648 927 0 917 929 930 82 1 923
 1152712839 14 648 1207 922 ?298 301 931 5 932 -0 0 298 301 23 81 1 927 1742 851
 648 0 922 921 933 934 81 1 929 1962 751 298 933 0 922 935 936 82 1 930 11424236
87 14 298 1212 929 ?288 648 297 5 937 +0 0 288 648 23 81 1 933 1743 851 298 0 92
9 927 938 939 81 1 935 1963 751 743 897 0 929 940 941 82 1 936 1149239431 14 743
 1 935 ?699 713 742 5 765 -0 0 699 713 23 81 1 897 1732 851 743 0 935 893 899 94
2 81 1 940 1964 751 880 882 0 935 943 944 82 1 941 831783042 14 880 566 940 ?726
 791 945 5 946 -0 0 726 791 23 81 1 882 1728 851 880 0 940 876 884 947 81 1 943
 1965 751 807 865 0 940 948 949 82 1 944 877658242 14 807 574 943 ?803 812 806 5
 950 -0 0 803 812 23 81 1 865 1724 851 807 0 943 860 867 951 81 1 948 1966 751 9
52 953 0 943 954 955 82 1 949 878706818 14 952 614 948 ?689 695 956 5 957 -0 0 6
89 695 23 81 1 953 1704 851 952 0 948 958 959 960 81 1 954 1967 751 689 959 0 94
8 961 962 82 1 955 883949698 14 689 612 954 ?684 952 687 5 963 -0 0 684 952 23 8
1 1 959 1705 851 689 0 954 953 964 965 81 1 961 1968 751 695 958 0 954 966 967 8
2 1 962 883687559 14 695 616 961 ?952 702 693 5 968 -0 0 952 702 23 81 1 958 170
3 851 695 0 961 969 953 970 81 1 966 1969 751 702 969 0 961 971 972 82 1 967 884
211847 14 702 618 966 ?695 705 701 5 973 -0 0 695 705 23 81 1 969 1702 851 702 0
 966 974 958 975 81 1 971 1970 751 705 974 0 966 976 977 82 1 972 884473991 14 7
05 620 971 ?702 18 578 5 19 -0 0 702 18 23 81 1 974 1701 851 705 0 971 978 969 9
79 81 1 976 1971 751 684 964 0 971 980 981 82 1 977 884736135 14 684 610 976 ?67
7 689 683 5 982 -0 0 677 689 23 81 1 964 1706 851 684 0 976 959 983 984 81 1 980
 1972 751 677 983 0 976 985 986 82 1 981 883425415 14 677 608 980 ?672 684 675 5
 987 -0 0 672 684 23 81 1 983 1707 851 677 0 980 964 988 989 81 1 985 1973 751 6
67 990 0 980 991 992 82 1 986 883163271 14 667 604 985 ?662 672 665 5 993 -0 0 6
62 672 23 81 1 990 1709 851 667 0 985 988 994 995 81 1 991 1974 751 662 994 0 98
5 996 997 82 1 992 882638983 14 662 602 991 ?655 667 661 5 998 -0 0 655 667 23 8
1 1 994 1710 851 662 0 991 990 999 1000 81 1 996 1975 751 672 988 0 991 1001 100
2 82 1 997 882376839 14 672 606 996 ?667 677 671 5 1003 -0 0 667 677 23 81 1 988
 1708 851 672 0 996 983 990 1004 81 1 1001 1976 751 764 1005 0 996 1006 1007 82
 1 1002 882901122 14 764 1018 1001 ?784 618 609 5 759 +784 618 784 618 23 81 1 1
005 1694 851 764 0 1001 1008 1009 1010 81 1 1006 1977 751 716 926 0 1001 1011 10
12 82 1 1007 1165754503 14 716 1196 1006 ?301 795 715 5 902 -699 795 301 795 23
 81 1 926 1740 851 716 0 1006 1013 921 1014 81 1 1011 1978 751 795 1013 0 1006 1
015 1016 82 1 1012 1176174727 14 795 1193 1011 ?716 815 794 5 902 -716 815 716 8
15 23 81 1 1013 1739 851 795 0 1011 919 926 1017 81 1 1015 1979 751 815 919 0 10
11 0 1018 82 1 1016 1177419911 14 815 1190 1015 ?795 732 814 5 902 -795 732 795
 732 23 81 1 919 1738 851 815 0 1015 915 1013 1019 82 1 1018 1178665095 80 1 851
 0 1020 8001 0 0 0 0 3 5 0 0 0 FFFFTFTFFFFFFF2 83 3 1019 .792156862745098 .81960
7843137255 .933333333333333 79 15 1020 SDL/TYSA_COLOUR50 902 1223 0 699 925 932
 0 +0 0 0 0 0 -1 -1 0 0 50 925 1224 0 301 937 902 0 +0 0 -.0053 0 0 -1 -1 0 0 51
 932 1222 0 648 902 765 0 -0 0 -.0053 0 0 1 .006 1 0 0 50 765 3 0 743 932 759 0
 +0 0 .005 0 0 -1 -1 0 0 51 937 1225 0 298 771 925 0 -0 0 -.0053 0 0 1 .004 1 0
 0 50 771 1226 0 288 0 937 0 +.00264575131106459 .003 -.0053 0 -1 0 0 0 -1 83 3
 1017 .792156862745098 .819607843137255 .933333333333333 83 3 1014 .792156862745
098 .819607843137255 .933333333333333 81 1 1008 1693 851 618 0 762 761 1005 1021
 81 1 1009 1695 851 784 0 786 1005 785 1022 83 3 1010 .792156862745098 .81960784
3137255 .933333333333333 81 1 786 1938 751 784 1009 0 782 827 1023 81 1 785 1696
 851 780 0 782 1009 781 1024 83 3 1022 .792156862745098 .819607843137255 .933333
333333333 81 1 781 1697 851 707 0 778 785 777 1025 83 3 1024 .792156862745098 .8
19607843137255 .933333333333333 81 1 777 1698 851 692 0 776 781 773 1026 83 3 10
25 .792156862745098 .819607843137255 .933333333333333 81 1 773 1699 851 670 0 77
2 777 978 1027 83 3 1026 .792156862745098 .819607843137255 .933333333333333 81 1
 978 1700 851 18 0 774 773 974 1028 83 3 1027 .792156862745098 .819607843137255
 .933333333333333 81 1 774 1934 751 18 978 0 772 776 1029 83 3 1028 .79215686274
5098 .819607843137255 .933333333333333 82 1 1029 884998274 82 1 1023 1164902535
 81 1 762 1930 751 618 1008 0 758 767 1030 81 1 761 1692 851 16 0 758 0 1008 103
1 83 3 1021 .792156862745098 .819607843137255 .933333333333333 83 3 1031 .792156
862745098 .819607843137255 .933333333333333 82 1 1030 1166606471 83 3 1004 .7921
56862745098 .819607843137255 .933333333333333 51 1003 646 0 672 993 987 0 -0 0 .
005 0 0 -1 .00623 -1 0 0 50 993 645 0 667 998 1003 0 +-.00614921946266353 -.001
 .005 -2134861634103145e-31 1 0 -1 -2134861634103145e-31 0 50 987 647 0 677 1003
 982 0 +-.00614921946266353 .001 .005 2134861634103145e-31 -1 0 1 21348616341031
45e-31 0 51 982 648 0 684 987 963 0 -0 0 .005 0 0 -1 .00523 -1 0 0 50 963 649 0
 689 982 957 0 +-.00505526156224023 .003641047999867135 .005 .707106781186547 .7
07106781186548 0 -.707106781186548 .707106781186547 0 51 957 650 0 952 963 968 0
 -0 0 .005 0 0 -1 .00623 -1 0 0 50 968 651 0 695 957 973 0 +-.003641047999867135
 .00505526156224023 .005 -.707106781186547 -.707106781186548 0 .707106781186548
 -.707106781186547 0 51 973 652 0 702 968 19 0 -0 0 .005 0 0 -1 .00523 -1 0 0 50
 19 653 0 705 973 6 0 +-.001 .00614921946266353 .005 1 0 0 0 0 -1 51 998 644 0 6
62 757 993 0 -0 0 .005 0 0 -1 .00523 -1 0 0 50 757 643 0 655 750 998 0 +-.005055
26156224023 -.003641047999867135 .005 .707106781186547 -.707106781186548 0 .7071
06781186548 .707106781186547 0 81 1 999 1711 851 655 0 756 994 752 1032 83 3 100
0 .792156862745098 .819607843137255 .933333333333333 81 1 756 1928 751 655 999 0
 753 758 1033 81 1 752 1712 851 748 0 749 999 852 1034 83 3 1032 .79215686274509
8 .819607843137255 .933333333333333 81 1 852 1713 851 646 0 753 752 846 1035 83
 3 1034 .792156862745098 .819607843137255 .933333333333333 81 1 753 1927 751 646
 852 0 749 756 1036 83 3 1035 .792156862745098 .819607843137255 .933333333333333
 82 1 1036 881590407 82 1 1033 882114695 83 3 995 .792156862745098 .819607843137
255 .933333333333333 83 3 989 .792156862745098 .819607843137255 .933333333333333
 83 3 984 .792156862745098 .819607843137255 .933333333333333 83 3 979 .792156862
745098 .819607843137255 .933333333333333 83 3 975 .792156862745098 .819607843137
255 .933333333333333 83 3 970 .792156862745098 .819607843137255 .933333333333333
 83 3 965 .792156862745098 .819607843137255 .933333333333333 83 3 960 .792156862
745098 .819607843137255 .933333333333333 15 956 613 0 87 952 0 17 87 0 956 1037
 570 85 691 395 0 567 +17 1037 0 956 1038 87 172 567 565 0 688 -17 570 0 956 87
 1038 88 694 568 0 691 +17 567 0 687 400 688 85 1037 565 0 588 +17 588 0 587 691
 585 85 400 398 0 0 -17 1038 0 956 570 1037 175 174 325 0 0 -17 694 0 693 696 90
 175 570 568 0 1038 -17 696 0 693 573 694 178 177 323 0 0 -17 177 0 742 174 180
 175 696 323 0 694 +17 174 0 742 171 177 172 1038 325 0 1037 +17 180 0 742 177 1
83 178 703 321 0 697 +17 183 0 742 180 317 181 185 318 0 704 +17 317 0 742 183 4
1 48 709 315 0 579 +17 41 0 742 317 96 34 712 379 0 710 +17 96 0 742 41 99 42 72
2 377 0 714 +17 99 0 742 96 102 97 725 375 0 723 +17 102 0 742 99 105 100 1039 3
73 0 1040 +17 105 0 742 102 108 103 792 371 0 790 +17 1039 0 945 498 1040 103 10
2 373 0 0 -17 1040 0 945 1039 51 100 495 493 0 725 -15 945 565 0 51 880 0 17 51
 0 945 1040 498 49 788 473 0 495 +17 495 0 724 478 725 49 1040 493 0 599 +17 599
 0 598 788 596 49 478 476 0 0 -17 498 0 945 51 1039 52 790 496 0 788 +17 790 0 7
89 792 54 103 498 496 0 1039 -17 792 0 789 501 790 106 105 371 0 0 -17 108 0 742
 105 111 106 799 369 0 793 +17 111 0 742 108 114 109 802 367 0 800 +17 114 0 742
 111 117 112 808 365 0 804 +17 117 0 742 114 120 115 811 363 0 809 +17 120 0 742
 117 123 118 819 361 0 813 +17 123 0 742 120 126 121 822 359 0 820 +17 171 0 742
 168 174 169 688 327 0 686 +17 168 0 742 165 171 166 685 329 0 678 +17 165 0 742
 162 168 163 676 331 0 674 +17 162 0 742 159 165 160 673 333 0 668 +17 159 0 742
 156 162 157 666 335 0 664 +17 156 0 742 153 159 154 663 337 0 657 +83 3 951 .79
2156862745098 .819607843137255 .933333333333333 51 950 630 0 807 870 864 0 -0 0
 .005 0 0 -1 .00623 -1 0 0 50 870 629 0 803 875 950 0 +.00614921946266353 .001 .
005 0 -1 0 0 0 -1 50 864 631 0 812 950 835 0 +.00614921946266353 -.001 .005 0 1
 0 0 0 1 51 835 632 0 818 864 832 0 -0 0 .005 0 0 -1 .00523 -1 0 0 51 875 628 0
 798 881 870 0 -0 0 .005 0 0 -1 .00523 -1 0 0 50 881 627 0 791 946 875 0 +.00505
526156224023 .003641047999867135 .005 -.707106781186548 .707106781186547 0 -.707
106781186547 -.707106781186548 0 51 946 626 0 880 887 881 0 -0 0 .005 0 0 -1 .00
623 -1 0 0 50 887 625 0 726 892 946 0 +.003641047999867135 .00505526156224023 .0
05 .707106781186548 -.707106781186548 0 .707106781186548 .707106781186548 0 51 8
92 624 0 721 766 887 0 -0 0 .005 0 0 -1 .00523 -1 0 0 50 766 623 0 713 759 892 0
 +.001 .00614921946266353 .005 -1 0 0 0 0 1 83 3 947 .792156862745098 .819607843
137255 .933333333333333 83 3 942 .792156862745098 .819607843137255 .933333333333
333 81 1 938 1744 851 288 0 769 933 768 1041 83 3 939 .792156862745098 .81960784
3137255 .933333333333333 81 1 769 1932 751 288 938 0 767 772 1042 81 1 768 1745
 851 760 0 767 938 0 1043 83 3 1041 .792156862745098 .819607843137255 .933333333
333333 83 3 1043 .792156862745098 .819607843137255 .933333333333333 82 1 1042 11
48977287 83 3 934 .792156862745098 .819607843137255 .933333333333333 15 931 1210
 0 1044 648 35 17 1044 0 931 1044 1044 0 309 307 0 0 -17 309 0 924 309 309 0 104
4 307 0 0 +15 924 1201 0 309 301 293 83 3 928 .792156862745098 .819607843137255
 .933333333333333 83 3 920 .792156862745098 .819607843137255 .933333333333333 83
 3 916 .792156862745098 .819607843137255 .933333333333333 83 3 912 .792156862745
098 .819607843137255 .933333333333333 83 3 908 .792156862745098 .819607843137255
 .933333333333333 83 3 904 .792156862745098 .819607843137255 .933333333333333 83
 3 898 .792156862745098 .819607843137255 .933333333333333 83 3 894 .792156862745
098 .819607843137255 .933333333333333 83 3 889 .792156862745098 .819607843137255
 .933333333333333 83 3 883 .792156862745098 .819607843137255 .933333333333333 83
 3 877 .792156862745098 .819607843137255 .933333333333333 83 3 872 .792156862745
098 .819607843137255 .933333333333333 83 3 866 .792156862745098 .819607843137255
 .933333333333333 81 1 859 1721 851 823 0 830 829 856 1045 83 3 861 .79215686274
5098 .819607843137255 .933333333333333 81 1 830 1940 751 823 859 0 827 833 1046
 81 1 829 1720 851 826 0 827 1047 859 1048 83 3 1045 .792156862745098 .819607843
137255 .933333333333333 81 1 1047 1719 851 739 0 833 1049 829 1050 83 3 1048 .79
2156862745098 .819607843137255 .933333333333333 81 1 833 1941 751 739 1047 0 830
 838 1051 81 1 1049 1718 851 735 0 838 1052 1047 1053 83 3 1050 .792156862745098
 .819607843137255 .933333333333333 81 1 838 1942 751 735 1049 0 833 840 1054 81
 1 1052 1717 851 624 0 840 1055 1049 1056 83 3 1053 .792156862745098 .8196078431
37255 .933333333333333 81 1 840 1943 751 624 1052 0 838 842 1057 81 1 1055 1716
 851 630 0 842 853 1052 1058 83 3 1056 .792156862745098 .819607843137255 .933333
333333333 81 1 842 1944 751 630 1055 0 840 844 1059 81 1 853 1715 851 634 0 844
 846 1055 1060 83 3 1058 .792156862745098 .819607843137255 .933333333333333 83 3
 1060 .792156862745098 .819607843137255 .933333333333333 82 1 1059 880803970 82
 1 1057 880541831 82 1 1054 880279687 82 1 1051 880017543 82 1 1046 879493255 82
 1 855 881066119 83 3 854 .792156862745098 .819607843137255 .933333333333333 79
 14 850 SWEntUnchanged82 1 831 879755394 17 66 0 738 740 446 64 611 443 0 522 +1
6 443 912 0 ?66 444 440 441 444 444 1 17 607 0 35 730 727 250 602 597 0 606 -82
 1 787 1164050567 82 1 783 1163198599 82 1 779 1162346631 82 1 775 1161494663 17
 29 0 28 26 26 280 32 299 0 30 +17 30 0 283 278 284 280 26 31 0 290 -17 290 0 29
7 32 292 280 278 291 0 0 +82 1 770 870449287 82 1 763 1167458439 82 1 754 881852
546 16 39 1125 0 ?33 639 291 308 639 311 1 19 17 688 0 1 0 9 5 S74 20 15 10 0 0
 1015 1061 1062 1063 1064 1065 1066 13 768 2 0 0 0 0 0 0 0 0 0 0 81 2 1061 1319
 1067 1 0 1062 0 0 0 1068 81 2 1062 1333 1069 1 1061 1063 0 0 0 1070 81 1 1063 1
379 1071 1 1062 1064 0 0 1072 81 2 1064 1436 1073 1 1063 1065 0 0 0 1074 81 2 10
65 1497 1075 1 1064 1066 0 0 1076 0 81 2 1066 1498 1077 1 1065 13 0 0 0 0 81 2 1
3 1501 1078 1 1066 2 0 0 1079 0 80 2 1078 1080 1081 8004 0 0 0 0 3 5 0 0 0 FFTFF
FFFFFFFFF2 3 83 1 1079 1 79 16 1081 SDL/TYSA_DENSITY80 2 1077 1082 1083 9000 0 0
 0 0 3 5 0 0 0 FFTFFFFFFFFFFF9 1 79 16 1083 BODY_RECIPE_200180 2 1075 1084 1085
 9000 0 0 0 0 3 5 0 0 0 FFTFTTTFFTFFFF3 3 84 11 1076 ??? - ????379 21 1085 SWIMP
LICITBODYNAME_ID80 2 1073 1086 1087 9000 0 0 0 0 3 5 0 0 0 FFTFFFFFFFFFFF9 1 82
 1 1074 1 79 24 1087 BODY_IN_LIGHTWEIGHT_PERM80 1 1071 1088 1089 9000 1 1 1 1 1
 1 1 1 0 FFTFFFFFFFFFFF1 82 1 1072 668050 79 10 1089 BODY_MATCH80 2 1069 1090 10
91 9000 0 0 0 0 3 5 0 0 0 FFTFFFFFFFFFFF9 1 82 1 1070 80 79 30 1091 LAST_BODY_MO
DIFYING_FEATURE_ID80 2 1067 1092 1093 9000 0 0 0 0 3 5 0 0 0 FFTFFFFFFFFFFT9 1 8
2 1 1068 121 79 19 1093 ENT_TIME_STAMP_200180 2 12 1094 1095 9000 0 0 0 0 3 5 0
 0 0 FFTFFFFFFFFFFF9 1 82 1 14 103 79 12 1095 ATOM_ID_20011 0 
