**ABCDEFGHIJKLMNOPQRSTUVWXYZabcdefghijklmnopqrstuvwxyz**************************
**PARASOLID !"#$%&'()*+,-./:;<=>?@[\]^_`{|}~0123456789**************************
**PART1;
MC=AMD64;
MC_MODEL=Intel64 Family 6 Model 158 Stepping 9, GenuineIntel;
MC_ID=unknown;
OS=Windows_NT;
OS_RELEASE=unknown;
FRU=Parasolid Version 34.1, build 225,  5-24-2022;
APPL=SOLIDWORKS 2023-2022300;
SITE=;
USER=unknown;
FORMAT=text;
GUISE=transmit;
KEY=motar_sp7;
FILE=motar_sp7.x_t;
DATE=Wed Feb 14 12:00:10 2024;
**PART2;
SCH=SCH_3401225_34101;
USFLD_SIZE=0;
**PART3;
**END_OF_HEADER*****************************************************************
T51 : TRANSMIT FILE created by modeller version 340122517 SCH_2100000_200000 12
 1 1402 2 3 0 0 0 0 1e3 1e-8 0 4 0 1 0 1 1 5 6 7 8 9 10 11 0 0 0 0 81 2 2 1380 1
2 1 13 0 0 0 0 14 70 3 0 4 T1 0 0 10 20 1 15 15 13 5 31 0 1 0 16 0 0 17 0 54 6 1
205 0 18 19 0 0 +0 0 .014 0 0 -1 .03675 .001 -1 0 0 31 7 1187 0 10 20 0 0 -0 0 .
014 0 0 -1 -1 0 0 .03775 29 8 369 0 11 21 0 .03770570929335925 -.020670739867858
7 .03 19 9 9 0 1 17 0 22 V16 10 1184 0 ?23 0 24 7 0 0 1 18 11 367 0 25 0 26 8 ?1
 17 25 0 27 28 29 11 30 31 0 32 -18 26 361 0 33 11 34 21 ?1 17 33 0 35 36 37 26
 38 39 0 40 -18 34 355 0 41 26 42 43 ?1 29 21 363 0 26 43 8 -.0367542404872648 -
.0223187321818311 .03 29 43 357 0 34 44 21 -.000951468806094408 .042989472049689
45 .03 29 44 632 0 42 45 43 .000951468806094389 .0429894720496894 .03 18 42 464
 0 46 34 47 44 ?1 29 45 633 0 47 48 44 -.000951468806094219 .04298947204968945 .
025 18 47 463 0 49 42 50 45 ?1 29 48 634 0 50 51 45 .000951468806094219 .0429894
7204968945 .025 18 50 461 0 52 47 53 48 ?1 29 51 636 0 53 54 48 .036754240487264
8 -.02231873218183105 .03 18 53 515 0 28 50 55 51 ?1 29 54 637 0 55 56 51 .03770
570929335915 -.02067073986785885 .025 18 55 514 0 57 53 58 54 ?1 29 56 638 0 58
 59 54 .0367542404872649 -.02231873218183095 .025 18 58 512 0 60 55 61 56 ?1 29
 59 640 0 61 62 56 -.0377057092933592 -.0206707398678587 .03 18 61 566 0 36 58 6
3 59 ?1 29 62 641 0 63 64 59 -.03675424048726495 -.02231873218183095 .025 18 63
 565 0 65 61 66 62 ?1 29 64 642 0 66 0 62 -.03770570929335915 -.0206707398678589
 .025 18 66 563 0 67 63 0 64 ?1 17 67 0 35 37 36 66 68 69 0 70 -15 35 584 0 37 7
1 0 17 37 0 35 33 67 63 70 72 0 38 -17 36 0 35 67 33 61 40 73 0 68 +17 68 0 74 7
5 76 61 67 69 0 77 +16 69 554 0 ?68 31 39 78 0 0 1 17 70 0 79 65 65 66 37 72 0 7
6 +15 79 570 0 65 80 0 17 65 0 79 70 70 63 76 81 0 37 +16 72 551 0 ?70 82 83 84
 0 0 1 17 76 0 74 68 38 66 65 81 0 0 -15 74 271 0 85 86 0 17 38 0 74 76 87 63 33
 39 0 0 +16 81 559 0 ?65 88 89 90 0 0 1 16 88 443 0 ?91 92 81 93 0 0 1 16 89 545
 0 ?94 81 95 96 0 0 1 31 90 613 0 81 97 98 0 +0 0 .025 0 0 1 1 0 0 .043 31 97 61
6 0 95 99 90 0 +0 0 .025 0 0 1 1 0 0 .043 31 98 610 0 92 90 100 0 +0 0 .025 0 0
 1 1 0 0 .043 16 92 457 0 ?49 101 88 98 0 0 1 31 100 311 0 101 98 102 0 +0 0 .03
 0 0 1 1 0 0 .025 16 101 247 0 ?103 104 92 100 0 0 1 31 102 303 0 104 100 105 0
 +0 0 .03 0 0 1 1 0 0 .043 16 104 368 0 ?106 107 101 102 107 108 1 31 105 187 0
 109 102 110 0 +.03485752250232355 -.020125 0 0 0 1 1 0 0 .0015 16 109 165 0 ?11
1 112 108 105 0 0 1 31 110 149 0 112 105 113 0 +-.03485752250232355 -.020125 0 0
 0 1 1 0 0 .0015 16 112 127 0 ?114 115 109 110 0 0 1 31 113 111 0 115 110 116 0
 +0 .04025 0 0 0 1 1 0 0 .0015 16 115 89 0 ?117 118 112 113 0 0 1 31 116 73 0 11
8 113 119 0 +0 0 0 0 0 1 1 0 0 .03775 16 118 51 0 ?120 121 115 116 0 0 1 31 119
 25 0 121 116 122 0 +0 0 0 0 0 1 1 0 0 .043 16 121 20 0 ?123 73 118 119 0 0 1 31
 122 372 0 73 119 124 0 +-.03485752250232355 -.020125 .03 0 0 1 1 0 0 .0029 16 7
3 370 0 ?36 125 121 122 0 0 1 31 124 377 0 125 122 126 0 +.03485752250232355 -.0
20125 .03 0 0 1 1 0 0 .0029 16 125 375 0 ?28 127 73 124 0 0 1 31 126 382 0 127 1
24 128 0 +0 .04025 .03 0 0 1 1 0 0 .0029 16 127 380 0 ?46 24 125 126 0 0 1 31 12
8 388 0 129 126 96 0 +.03485752250232355 -.020125 .025 0 0 1 1 0 0 .0015 16 129
 494 0 ?130 95 131 128 0 0 1 31 96 395 0 89 128 93 0 +-.03485752250232355 -.0201
25 .025 0 0 1 1 0 0 .0015 31 93 402 0 88 96 132 0 +0 .04025 .025 0 0 1 1 0 0 .00
15 31 132 996 0 133 93 20 0 --.02771281292109835 -.016 .015 0 0 -1 -1 0 0 .00412
499999999948 16 133 1049 0 ?134 135 0 132 0 0 1 31 20 1181 0 24 132 7 0 +0 0 .01
5 0 0 -1 -1 0 0 .03675 16 24 1178 0 ?136 10 127 20 0 0 1 17 136 0 137 136 136 0
 138 24 0 0 +15 137 1179 0 136 139 140 17 138 0 141 138 138 0 136 24 0 0 -15 141
 1200 0 138 18 0 14 18 1198 142 ?0 139 143 5 6 -0 0 0 139 22 81 1 142 1381 144 1
8 145 0 0 146 147 14 139 1053 146 ?18 148 137 5 149 +0 0 18 148 22 15 143 1199 0
 150 18 141 13 22 10 0 0 0 0 0 0 9 16 14 16 1027 151 ?152 0 153 5 154 +0 0 152 0
 22 81 1 151 1383 144 16 155 0 146 156 157 14 152 1022 156 ?158 16 159 5 160 -0
 0 158 16 22 15 153 291 0 103 16 161 51 154 301 0 16 162 163 0 -0 0 .03 0 0 -1 .
025 -1 0 0 51 162 601 0 71 164 154 0 +-.03485752250232355 -.020125 .025 0 0 1 .0
029 1 0 0 50 163 297 0 165 154 166 0 +0 0 .03 0 0 1 1 0 0 14 165 254 167 ?80 168
 169 5 163 +0 0 80 168 22 51 166 184 0 170 163 171 0 -.03485752250232355 -.02012
5 .01 0 0 -1 .0015 -1 0 0 14 170 389 172 ?173 174 175 5 166 +0 0 173 174 22 51 1
71 146 0 174 166 176 0 --.03485752250232355 -.020125 .01 0 0 -1 .0015 -1 0 0 14
 174 396 177 ?170 178 179 5 171 +0 0 170 178 22 51 176 108 0 178 171 180 0 -0 .0
4025 .01 0 0 -1 .0015 -1 0 0 14 178 403 181 ?174 182 183 5 176 +0 0 174 182 22 5
1 180 70 0 168 176 184 0 -0 0 .01 0 0 -1 .03775 -1 0 0 14 168 57 185 ?165 86 186
 5 180 +0 0 165 86 22 50 184 24 0 173 180 19 0 +0 0 0 0 0 1 1 0 0 14 173 156 187
 ?86 170 188 5 184 -0 0 86 170 22 51 19 30 0 86 184 6 0 -0 0 .01 0 0 -1 .043 -1
 0 0 14 86 27 189 ?168 173 190 5 19 -0 0 168 173 22 81 1 189 1391 144 86 191 0 1
87 192 193 15 190 28 0 123 86 74 17 123 0 190 123 123 0 194 121 0 0 +17 194 0 18
8 194 194 0 123 121 0 0 -15 188 19 0 194 173 195 15 195 40 0 120 173 196 17 120
 0 195 120 120 0 197 118 0 0 +15 196 78 0 117 173 198 17 117 0 196 117 117 0 199
 115 0 0 +15 198 116 0 114 173 200 17 114 0 198 114 114 0 201 112 0 0 +15 200 15
4 0 111 173 0 17 111 0 200 111 111 0 202 109 0 0 +17 202 0 175 202 202 0 111 109
 0 0 -15 175 175 0 202 170 203 15 203 386 0 130 170 0 17 130 0 203 130 130 0 204
 129 0 0 +17 204 0 205 204 204 0 130 129 0 0 -15 205 518 0 204 206 207 14 206 51
6 192 ?208 71 205 5 209 +0 0 208 71 22 15 207 519 0 57 206 0 17 57 0 207 210 210
 55 211 95 0 29 +17 210 0 207 57 57 58 29 82 0 211 +17 211 0 74 212 30 58 57 95
 0 0 -16 95 508 0 ?57 89 129 97 0 0 1 17 29 0 27 25 60 55 210 82 0 30 -15 27 533
 0 29 208 0 17 60 0 27 29 28 58 212 213 0 210 -16 82 500 0 ?210 214 72 215 0 0 1
 17 30 0 74 211 216 55 25 31 0 0 +17 216 0 74 30 217 11 106 104 0 0 -16 31 504 0
 ?30 213 69 218 0 0 1 16 213 503 0 ?212 219 31 220 0 0 1 30 218 622 0 31 78 220
 0 -.0377057092933592 -.0206707398678587 .0275 0 0 1 30 78 623 0 69 221 218 0 +-
.0377057092933592 -.0206707398678587 .0275 0 0 1 30 220 621 0 213 218 222 0 +.03
67542404872648 -.02231873218183105 .0275 0 0 1 30 222 620 0 219 220 99 0 --.0009
51468806094389 .0429894720496894 .0275 0 0 1 16 219 453 0 ?223 131 213 222 0 0 1
 30 99 619 0 131 222 97 0 +.000951468806094389 .0429894720496894 .0275 0 0 1 16
 131 452 0 ?217 129 219 99 0 0 1 17 217 0 74 216 85 42 52 131 0 106 +17 85 0 74
 217 223 50 49 92 0 0 -17 52 0 224 225 46 50 217 131 0 226 -17 106 0 227 228 32
 42 216 104 0 0 +15 227 381 0 228 165 229 17 228 0 227 77 106 34 46 127 0 75 -17
 32 0 227 106 230 11 28 125 0 216 -17 230 0 227 32 40 53 87 107 0 0 +17 28 0 27
 60 25 53 32 125 0 212 +17 212 0 74 87 211 53 60 213 0 230 +17 87 0 74 38 212 26
 230 107 0 0 -16 107 362 0 ?230 108 104 102 108 104 1 16 108 356 0 ?77 109 107 1
02 104 107 1 17 77 0 227 40 228 61 75 108 0 0 +17 40 0 227 230 77 26 36 73 0 87
 -17 75 0 74 223 68 34 77 108 0 0 -17 223 0 74 85 75 47 41 219 0 0 +17 41 0 224
 46 225 34 223 219 0 228 -15 224 482 0 225 148 0 17 46 0 224 52 41 42 228 127 0
 217 +17 225 0 224 41 52 47 226 214 0 223 -17 226 0 231 49 49 50 225 214 0 85 +1
6 214 449 0 ?226 39 82 232 0 0 1 16 39 555 0 ?38 69 214 221 0 0 1 31 232 630 0 2
14 233 215 0 +0 .04025 .025 0 0 1 1 0 0 .0029 31 233 939 0 83 234 232 0 +-.02771
28129211021 .016 .03 0 0 1 1 0 0 .004125 31 215 628 0 82 232 84 0 +.034857522502
32355 -.020125 .025 0 0 1 1 0 0 .0029 31 84 626 0 72 215 221 0 +-.03485752250232
355 -.020125 .025 0 0 1 1 0 0 .0029 30 221 624 0 39 84 78 0 --.0367542404872648
 -.02231873218183105 .0275 0 0 1 16 83 884 0 ?235 72 236 233 0 0 1 31 234 941 0
 237 238 233 0 +-.02771281292109835 -.016 .03 0 0 1 1 0 0 .00412499999999948 16
 237 764 0 ?239 240 241 234 0 0 1 31 238 943 0 240 242 234 0 +553619799844328e-2
9 -.0319999999999969 .03 0 0 1 1 0 0 .004125000000002075 16 240 788 0 ?243 244 2
37 238 0 0 1 31 242 945 0 244 245 238 0 +.0277128129211057 -.01599999999999365 .
03 0 0 1 1 0 0 .004125000000005475 16 244 812 0 ?246 247 240 242 0 0 1 31 245 94
7 0 247 248 242 0 +.027712812921102 .01600000000000635 .03 0 0 1 1 0 0 .00412500
0000006235 16 247 836 0 ?249 236 244 245 0 0 1 31 248 949 0 236 250 245 0 +-1899
48579573515e-29 .03200000000000315 .03 0 0 1 1 0 0 .00412500000000352 16 236 860
 0 ?251 83 247 248 0 0 1 31 250 1122 0 241 252 248 0 +0 0 .015 0 0 -1 -1 0 0 .02
5 16 241 1030 0 ?253 237 254 250 0 0 1 31 252 1123 0 254 255 250 0 --.0277128129
211021 .016 .015 0 0 -1 -1 0 0 .004125 16 254 1031 0 ?256 241 257 252 0 0 1 31 2
55 1124 0 257 258 252 0 --189948579573515e-29 .03200000000000315 .015 0 0 -1 -1
 0 0 .00412500000000352 16 257 1032 0 ?259 254 260 255 0 0 1 31 258 1125 0 260 2
61 255 0 -.027712812921102 .01600000000000635 .015 0 0 -1 -1 0 0 .00412500000000
6235 16 260 1033 0 ?262 257 263 258 0 0 1 31 261 1126 0 263 264 258 0 -.02771281
29211057 -.01599999999999365 .015 0 0 -1 -1 0 0 .004125000000005475 16 263 1034
 0 ?265 260 135 261 0 0 1 31 264 1127 0 135 0 261 0 -553619799844328e-29 -.03199
99999999969 .015 0 0 -1 -1 0 0 .004125000000002075 16 135 1035 0 ?266 263 133 26
4 0 0 1 17 266 0 267 266 266 0 268 135 0 0 +15 267 1058 0 266 139 269 17 268 0 2
70 268 268 0 266 135 0 0 -15 270 1001 0 268 271 0 14 271 1002 272 ?182 273 274 5
 275 -0 0 182 273 22 81 1 272 1393 144 271 276 0 192 277 278 14 182 997 277 ?178
 271 279 5 280 -0 0 178 271 22 14 273 1007 281 ?271 282 283 5 284 -0 0 271 282 2
2 15 274 794 0 243 271 270 51 275 921 0 271 284 280 0 +553619799844328e-29 -.031
9999999999969 0 0 0 1 .004125000000002075 1 0 0 51 284 924 0 273 285 275 0 +.027
7128129211057 -.01599999999999365 0 0 0 1 .004125000000005475 1 0 0 51 280 918 0
 182 275 160 0 +-.02771281292109835 -.016 0 0 0 1 .00412499999999948 1 0 0 51 16
0 915 0 152 280 286 0 +-.0277128129211021 .016 0 0 0 1 .004125 1 0 0 50 286 609
 0 287 160 288 0 +0 .04025 .025 0 0 1 1 0 0 14 287 465 289 ?148 208 290 5 286 +0
 0 148 208 22 51 288 607 0 148 286 209 0 +0 .04025 .025 0 0 1 .0029 1 0 0 14 148
 479 291 ?139 287 224 5 288 -0 0 139 287 22 50 209 606 0 206 288 292 0 +.0348575
2250232355 -.020125 .025 0 0 1 1 0 0 51 292 604 0 208 209 164 0 +.03485752250232
355 -.020125 .025 0 0 1 .0029 1 0 0 14 208 530 293 ?287 206 27 5 292 -0 0 287 20
6 22 50 164 603 0 80 292 162 0 +-.03485752250232355 -.020125 .025 0 0 1 1 0 0 14
 80 567 294 ?71 165 295 5 164 +0 0 71 165 22 81 1 294 1399 144 80 296 0 293 297
 298 14 71 581 297 ?206 80 35 5 162 -0 0 206 80 22 15 295 569 0 299 80 79 17 299
 0 295 299 299 0 94 89 0 0 -17 94 0 300 94 94 0 299 89 0 0 +15 300 393 0 94 174
 0 81 1 297 1400 144 71 301 0 294 302 303 80 1 144 304 305 9000 1 1 1 1 1 1 1 1
 0 FFFFTFTFFFFFFF1 81 1 301 1323 306 71 0 297 296 307 308 81 1 302 1401 144 282
 309 0 297 310 311 82 1 303 515899658 14 282 1012 302 ?273 158 312 5 285 -0 0 27
3 158 22 81 1 309 1311 306 282 0 302 313 314 315 81 1 310 1402 144 158 313 0 302
 0 316 82 1 311 615383310 14 158 1017 310 ?282 152 317 5 318 -0 0 282 152 22 81
 1 313 1310 306 158 0 310 319 309 320 82 1 316 615842062 80 1 306 0 321 8001 0 0
 0 0 3 5 0 0 0 FFFFTFTFFFFFFF2 81 1 319 1309 306 152 0 156 155 313 322 83 3 320
 1 1 1 81 1 156 1384 144 152 319 0 151 167 323 81 1 155 1308 306 16 0 151 0 319
 324 83 3 322 1 1 1 83 3 324 1 1 1 81 1 167 1385 144 165 325 0 156 172 326 82 1
 323 616300814 81 1 325 1321 306 165 0 167 327 296 328 81 1 172 1386 144 170 329
 0 167 177 330 82 1 326 481820940 81 1 329 1317 306 170 0 172 331 332 333 81 1 1
77 1387 144 174 331 0 172 181 334 82 1 330 520421642 81 1 331 1316 306 174 0 177
 335 329 336 81 1 181 1388 144 178 335 0 177 185 337 82 1 334 522912010 81 1 335
 1315 306 178 0 181 338 331 339 81 1 185 1389 144 168 327 0 181 187 340 82 1 337
 525402378 81 1 327 1320 306 168 0 185 191 325 341 81 1 187 1390 144 173 332 0 1
85 189 342 82 1 340 -2140077781 81 1 332 1318 306 173 0 187 329 191 343 82 1 342
 1309802656 81 1 191 1319 306 86 0 189 332 327 344 83 3 343 1 1 1 83 3 344 1 1 1
 83 3 341 1 1 1 81 1 338 1314 306 182 0 277 276 335 345 83 3 339 1 1 1 81 1 277
 1394 144 182 338 0 272 281 346 81 1 276 1313 306 271 0 272 314 338 347 83 3 345
 1 1 1 81 1 314 1312 306 273 0 281 309 276 348 83 3 347 1 1 1 81 1 281 1395 144
 273 314 0 277 289 349 83 3 348 1 1 1 81 1 289 1396 144 287 350 0 281 291 351 82
 1 349 614924558 81 1 350 1326 306 287 0 289 352 353 354 81 1 291 1397 144 148 3
53 0 289 293 355 82 1 351 527368458 81 1 353 1327 306 148 0 291 350 356 357 81 1
 293 1398 144 208 352 0 291 294 358 82 1 355 519831818 81 1 352 1325 306 208 0 2
93 307 350 359 82 1 358 517865738 81 1 307 1324 306 206 0 192 301 352 360 83 3 3
59 1 1 1 81 1 192 1392 144 206 307 0 189 272 361 83 3 360 1 1 1 82 1 361 5223877
22 81 1 356 1328 306 139 0 146 353 145 362 83 3 357 1 1 1 81 1 146 1382 144 139
 356 0 142 151 363 81 1 145 1329 306 18 0 142 356 0 364 83 3 362 1 1 1 83 3 364
 1 1 1 82 1 363 -2137063125 83 3 354 1 1 1 82 1 346 606732558 83 3 336 1 1 1 83
 3 333 1 1 1 81 1 296 1322 306 80 0 294 325 301 365 83 3 328 1 1 1 83 3 365 1 1
 1 79 15 321 SDL/TYSA_COLOUR15 317 866 0 251 158 366 51 318 930 0 158 149 285 0
 +-189948579573515e-29 .03200000000000315 0 0 0 1 .00412500000000352 1 0 0 50 14
9 1121 0 139 0 318 0 +0 0 .015 0 0 -1 -1 0 0 51 285 927 0 282 318 284 0 +.027712
812921102 .01600000000000635 0 0 0 1 .004125000000006235 1 0 0 17 251 0 317 251
 251 0 367 236 0 0 +15 366 1016 0 368 158 0 17 368 0 366 368 368 0 259 257 0 0 -
17 259 0 369 259 259 0 368 257 0 0 +15 369 1061 0 259 139 370 15 370 1062 0 256
 139 0 17 256 0 370 256 256 0 371 254 0 0 +17 371 0 372 371 371 0 256 254 0 0 -1
5 372 1021 0 371 152 0 17 367 0 373 367 367 0 251 236 0 0 -15 373 701 0 367 165
 374 15 374 695 0 375 165 227 17 375 0 374 375 375 0 235 83 0 0 -17 235 0 159 23
5 235 0 375 83 0 0 +15 159 890 0 235 152 372 83 3 315 1 1 1 15 312 842 0 249 282
 376 17 249 0 312 249 249 0 377 247 0 0 +15 376 1011 0 378 282 0 17 378 0 376 37
8 378 0 262 260 0 0 -17 262 0 379 262 262 0 378 260 0 0 +15 379 1060 0 262 139 3
69 17 377 0 380 377 377 0 249 247 0 0 -15 380 707 0 377 165 373 83 3 308 1 1 1 7
9 14 305 SWEntUnchanged82 1 298 524878090 15 290 467 0 381 287 231 17 381 0 290
 381 381 0 91 88 0 0 -15 231 468 0 49 287 0 17 49 0 231 226 226 47 85 92 0 225 +
17 91 0 382 91 91 0 381 88 0 0 +15 382 400 0 91 178 0 17 243 0 274 243 243 0 383
 240 0 0 +17 383 0 384 383 383 0 243 240 0 0 -15 384 719 0 383 165 385 15 385 71
3 0 386 165 380 17 386 0 385 386 386 0 246 244 0 0 -17 246 0 283 246 246 0 386 2
44 0 0 +15 283 818 0 246 273 387 15 387 1006 0 388 273 0 17 388 0 387 388 388 0
 265 263 0 0 -17 265 0 269 265 265 0 388 263 0 0 +15 269 1059 0 265 139 379 15 2
79 770 0 239 182 389 17 239 0 279 239 239 0 390 237 0 0 +15 389 995 0 391 182 0
 17 391 0 389 391 391 0 134 133 0 0 -17 134 0 392 134 134 0 391 133 0 0 +15 392
 1057 0 134 139 267 17 390 0 169 390 390 0 239 237 0 0 -15 169 725 0 390 165 384
 82 1 278 614465806 17 253 0 161 253 253 0 393 241 0 0 +15 161 1025 0 253 16 0 1
7 393 0 140 393 393 0 253 241 0 0 -15 140 1055 0 393 139 392 15 229 260 0 394 16
5 0 17 394 0 229 394 394 0 103 101 0 0 -17 103 0 153 103 103 0 394 101 0 0 +17 2
01 0 179 201 201 0 114 112 0 0 -15 179 137 0 201 174 300 17 199 0 183 199 199 0
 117 115 0 0 -15 183 99 0 199 178 382 17 197 0 395 197 197 0 120 118 0 0 -15 395
 61 0 197 168 0 82 1 193 1287848202 15 186 1185 0 23 168 395 17 23 0 186 23 23 0
 150 10 0 0 +17 150 0 143 150 150 0 23 10 0 0 -82 1 157 616759566 82 1 147 -9658
03733 19 17 32 0 1 0 9 5 S74 20 15 10 0 0 310 396 397 398 399 400 401 13 145 2 0
 0 0 0 0 0 0 0 0 0 81 2 396 330 402 1 0 397 0 0 0 403 81 2 397 339 404 1 396 398
 0 0 0 405 81 1 398 1211 406 1 397 399 0 0 407 81 2 399 1235 408 1 398 400 0 0 0
 409 81 2 400 1238 410 1 399 401 0 0 411 0 81 2 401 1239 412 1 400 13 0 0 0 0 81
 2 13 1242 413 1 401 2 0 0 414 0 80 2 413 415 416 8004 0 0 0 0 3 5 0 0 0 FFTFFFF
FFFFFFF2 3 83 1 414 1 79 16 416 SDL/TYSA_DENSITY80 2 412 417 418 9000 0 0 0 0 3
 5 0 0 0 FFTFFFFFFFFFFF9 1 79 16 418 BODY_RECIPE_200180 2 410 419 420 9000 0 0 0
 0 3 5 0 0 0 FFTFTTTFFTFFFF3 3 84 6 411 ?????179 21 420 SWIMPLICITBODYNAME_ID80
 2 408 421 422 9000 0 0 0 0 3 5 0 0 0 FFTFFFFFFFFFFF9 1 82 1 409 1 79 24 422 BOD
Y_IN_LIGHTWEIGHT_PERM80 1 406 423 424 9000 1 1 1 1 1 1 1 1 0 FFTFFFFFFFFFFF1 82
 1 407 32774 79 10 424 BODY_MATCH80 2 404 425 426 9000 0 0 0 0 3 5 0 0 0 FFTFFFF
FFFFFFF9 1 82 1 405 111 79 30 426 LAST_BODY_MODIFYING_FEATURE_ID80 2 402 427 428
 9000 0 0 0 0 3 5 0 0 0 FFTFFFFFFFFFFT9 1 82 1 403 257 79 19 428 ENT_TIME_STAMP_
200180 2 12 429 430 9000 0 0 0 0 3 5 0 0 0 FFTFFFFFFFFFFF9 1 82 1 14 105 79 12 4
30 ATOM_ID_20011 0 
