**ABCDEFGHIJKLMNOPQRSTUVWXYZabcdefghijklmnopqrstuvwxyz**************************
**PARASOLID !"#$%&'()*+,-./:;<=>?@[\]^_`{|}~0123456789**************************
**PART1;
MC=AMD64;
MC_MODEL=Intel64 Family 6 Model 158 Stepping 9, GenuineIntel;
MC_ID=unknown;
OS=Windows_NT;
OS_RELEASE=unknown;
FRU=Parasolid Version 34.1, build 225,  5-24-2022;
APPL=SOLIDWORKS 2023-2022300;
SITE=;
USER=unknown;
FORMAT=text;
GUISE=transmit;
KEY=CUI_receiver-board;
FILE=CUI_receiver-board.x_t;
DATE=Wed Feb 14 12:15:27 2024;
**PART2;
SCH=SCH_3401225_34101;
USFLD_SIZE=0;
**PART3;
**END_OF_HEADER*****************************************************************
T51 : TRANSMIT FILE created by modeller version 340122517 SCH_2100000_200000 12
 1 6882 2 3 0 0 0 0 1e3 1e-8 0 4 0 1 0 1 1 5 6 7 8 9 10 11 0 0 0 0 81 2 2 6832 1
2 1 13 0 0 0 0 14 70 3 0 4 T1 0 0 11 20 1 15 15 13 5 565 0 1 0 16 0 0 17 0 51 6
 564 0 18 19 0 0 +.0722071972957009 .0203682152774727 -4e-4 63108872417681e-43 -
1183291357831518e-45 1 .013173799074783 1 96812669221875e-44 63108872417681e-43
 31 7 1140 0 10 20 0 0 -.0722834094335653 .02035102730963705 0 63108872417681e-4
3 -1183291357831518e-45 1 1 96812669221875e-44 63108872417681e-43 .0093000000000
0099 29 8 148 0 11 21 0 .0634602832848885 .0302191277910527 -4e-4 19 9 149 0 1 1
7 0 22 V16 10 1137 0 ?23 0 24 7 0 0 1 18 11 147 0 25 0 26 8 ?1 17 25 0 27 28 29
 11 30 31 0 32 -18 26 145 0 33 11 34 21 ?1 17 33 0 35 36 37 26 38 39 0 40 -18 34
 143 0 41 26 42 43 ?1 29 21 146 0 26 43 8 .06379276777156 .0311095236118337 -4e-
4 29 43 144 0 34 44 21 .0636403007551669 .0316857313674037 -4e-4 29 44 142 0 42
 45 43 .0637927677715599 .0322967182420347 -4e-4 18 42 141 0 46 34 47 44 ?1 29 4
5 140 0 47 48 44 .066155782464729 .0336619919452707 -4e-4 18 47 139 0 49 42 50 4
5 ?1 29 48 138 0 50 51 45 .0667257557676749 .0336026321530127 -4e-4 18 50 137 0
 52 47 53 48 ?1 29 51 136 0 53 54 48 .067141361376014 .0331871140628157 -4e-4 18
 53 135 0 55 50 56 51 ?1 29 54 134 0 56 57 51 .0681269404671569 .032925931310994
7 -4e-4 18 56 133 0 58 53 59 54 ?1 29 57 132 0 59 60 54 .0764398783999769 .03292
59313109947 -4e-4 18 59 131 0 61 56 62 57 ?1 29 60 130 0 62 63 57 .0774254574911
2 .0331871140628157 -4e-4 18 62 129 0 64 59 65 60 ?1 29 63 128 0 65 66 60 .07784
10630994589 .0336026321530127 -4e-4 18 65 127 0 67 62 68 63 ?1 29 66 126 0 68 69
 63 .078411036402405 .0336619919452707 -4e-4 18 68 125 0 70 65 71 66 ?1 29 69 12
4 0 71 72 66 .0807740510955739 .0322967182420347 -4e-4 18 71 123 0 73 68 74 69 ?
1 29 72 122 0 74 75 69 .0809265181119669 .0316857313674037 -4e-4 18 74 121 0 76
 71 77 72 ?1 29 75 120 0 77 78 72 .0807740510955743 .0311095236118336 -4e-4 18 7
7 119 0 79 74 80 75 ?1 29 78 118 0 80 81 75 .0810802834506995 .0302594836741283
 -4e-4 18 80 117 0 82 77 83 78 ?1 29 81 116 0 83 84 78 .0855334094335789 .020351
02730965905 -4e-4 18 83 115 0 85 80 86 81 ?1 29 84 114 0 86 87 81 .0855334094335
788 .01248042273425706 -4e-4 18 86 113 0 88 83 89 84 ?1 29 87 112 0 89 90 84 .08
49489566561659 .0112824446900927 -4e-4 18 89 111 0 91 86 92 87 ?1 29 90 110 0 92
 93 87 .0801002135278039 .0074964016769287 -4e-4 18 92 109 0 94 89 95 90 ?1 29 9
3 108 0 95 96 90 .0792751515070619 .0072010273096537 -4e-4 18 95 107 0 97 92 98
 93 ?1 29 96 106 0 98 99 93 .0654094094335669 .0072010273096537 -4e-4 18 98 105
 0 100 95 101 96 ?1 29 99 104 0 101 102 96 .0641660247077719 .0078552135947327 -
4e-4 18 101 103 0 103 98 104 99 ?1 29 102 102 0 104 105 99 .062713227740303 .007
4976864237307 -4e-4 18 104 101 0 106 101 107 102 ?1 29 105 100 0 107 108 102 .06
12703050513069 .0073537594139437 -4e-4 18 107 99 0 109 104 110 105 ?1 29 108 98
 0 110 111 105 .05979093414745 .0086806535167947 -4e-4 18 110 97 0 112 107 113 1
08 ?1 29 111 96 0 113 114 108 .059488177093067 .0091391888642427 -4e-4 18 113 95
 0 115 110 116 111 ?1 29 114 94 0 116 117 111 .059033409433567 .0123510273096537
 -4e-4 18 116 93 0 118 113 119 114 ?1 29 117 92 0 119 120 114 .0590334094335667
 .0203510273096541 -4e-4 18 119 91 0 121 116 122 117 ?1 29 120 391 0 122 123 117
 .0634602832848885 .0302191277910527 0 18 122 332 0 30 119 124 120 ?1 29 123 392
 0 124 125 120 .0637927677715599 .0311095236118337 0 18 124 333 0 38 122 126 123
 ?1 29 125 393 0 126 127 123 .0636403007551669 .0316857313674037 0 18 126 334 0
 128 124 129 125 ?1 29 127 394 0 129 130 125 .0637927677715599 .0322967182420347
 0 18 129 335 0 131 126 132 127 ?1 29 130 395 0 132 133 127 .066155782464729 .03
36619919452707 -3469446951953615e-33 18 132 336 0 134 129 135 130 ?1 29 133 396
 0 135 136 130 .0667257557676749 .0336026321530127 0 18 135 337 0 137 132 138 13
3 ?1 29 136 397 0 138 139 133 .0671413613760139 .0331871140628157 -3469446951953
615e-33 18 138 338 0 140 135 141 136 ?1 29 139 398 0 141 142 136 .06812694046715
69 .0329259313109947 0 18 141 339 0 143 138 144 139 ?1 29 142 399 0 144 145 139
 .0764398783999769 .0329259313109947 0 18 144 340 0 146 141 147 142 ?1 29 145 40
0 0 147 148 142 .0774254574911199 .0331871140628157 0 18 147 341 0 149 144 150 1
45 ?1 29 148 401 0 150 151 145 .0778410630994589 .0336026321530127 0 18 150 342
 0 152 147 153 148 ?1 29 151 402 0 153 154 148 .078411036402405 .033661991945270
7 0 18 153 343 0 155 150 156 151 ?1 29 154 403 0 156 157 151 .0807740510955739 .
0322967182420347 0 18 156 344 0 158 153 159 154 ?1 29 157 404 0 159 160 154 .080
9265181119669 .0316857313674037 0 18 159 345 0 161 156 162 157 ?1 29 160 405 0 1
62 163 157 .0807740510955743 .0311095236118336 -3469446951953615e-33 18 162 346
 0 164 159 165 160 ?1 29 163 406 0 165 166 160 .0810802834506995 .03025948367412
83 0 18 165 347 0 167 162 168 163 ?1 29 166 407 0 168 169 163 .0855334094335788
 .02035102730965905 0 18 168 348 0 170 165 171 166 ?1 29 169 408 0 171 172 166 .
0855334094335788 .01248042273425706 0 18 171 349 0 173 168 174 169 ?1 29 172 409
 0 174 175 169 .0849489566561659 .0112824446900927 0 18 174 350 0 176 171 177 17
2 ?1 29 175 410 0 177 178 172 .0801002135278039 .0074964016769287 0 18 177 351 0
 179 174 180 175 ?1 29 178 411 0 180 181 175 .0792751515070619 .0072010273096537
 -3469446951953615e-33 18 180 352 0 182 177 183 178 ?1 29 181 412 0 183 184 178
 .0654094094335669 .0072010273096537 0 18 183 353 0 185 180 186 181 ?1 29 184 41
3 0 186 187 181 .0641660247077719 .0078552135947327 0 18 186 354 0 188 183 189 1
84 ?1 29 187 414 0 189 190 184 .062713227740303 .0074976864237307 -3469446951953
615e-33 18 189 355 0 191 186 192 187 ?1 29 190 415 0 192 193 187 .06127030505130
69 .0073537594139437 0 18 192 356 0 194 189 195 190 ?1 29 193 416 0 195 196 190
 .05979093414745 .0086806535167947 0 18 195 357 0 197 192 198 193 ?1 29 196 417
 0 198 199 193 .0594881770930669 .0091391888642427 0 18 198 358 0 200 195 201 19
6 ?1 29 199 418 0 201 202 196 .0590334094335669 .0123510273096537 -3469446951953
615e-33 18 201 359 0 203 198 204 199 ?1 29 202 419 0 204 0 199 .0590334094335667
 .0203510273096541 0 18 204 360 0 205 201 0 202 ?1 17 205 0 27 29 28 204 121 206
 0 207 +15 27 505 0 29 18 0 17 29 0 27 25 205 122 208 209 0 210 -17 28 0 27 205
 25 119 32 211 0 0 +17 121 0 212 213 207 119 205 206 0 214 -16 206 448 0 ?205 21
5 216 217 0 0 1 17 207 0 212 121 203 204 218 219 0 208 -15 212 503 0 207 220 0 1
7 203 0 212 207 213 201 118 215 0 221 +17 218 0 222 223 208 201 207 219 0 0 +16
 219 324 0 ?218 224 209 225 0 0 1 17 208 0 222 218 210 204 29 209 0 0 +15 222 21
5 0 208 226 227 17 210 0 222 208 228 122 37 229 0 0 +16 209 328 0 ?208 219 230 2
31 0 0 1 16 230 641 0 ?232 209 233 234 0 0 1 31 231 390 0 209 234 225 0 +.072207
1972957009 .0203682152774727 -3469446951953615e-33 63108872417681e-43 -118329135
7831518e-45 1 1 96812669221875e-44 63108872417681e-43 .013173799074783 31 234 66
3 0 230 235 231 0 +.0840134094335669 .0124810273096537 -4e-4 63108872417681e-43
 -1183291357831518e-45 1 1 96812669221875e-44 63108872417681e-43 8e-4 30 225 389
 0 219 231 236 0 +.0590334094335667 .0203510273096541 0 312250225675809e-28 -1 1
183291357831518e-45 30 236 388 0 224 225 237 0 +.0590334094335669 .0123510273096
537 -3469446951953615e-33 .1401927545589122 -.990124230371717 1577721810442025e-
45 16 224 320 0 ?223 238 219 236 0 0 1 31 237 387 0 238 236 239 0 +.060393736980
2222 .00940788438634208 0 63108872417681e-43 -1183291357831518e-45 1 1 968126692
21875e-44 63108872417681e-43 .000944582443633637 16 238 316 0 ?240 241 224 237 0
 0 1 30 239 386 0 241 237 242 0 +.05979093414745 .0086806535167947 0 .7444289700
11715 -.667701661378266 315544362088405e-44 16 241 312 0 ?243 244 238 239 0 0 1
 31 242 385 0 244 239 245 0 +.0619234094335668 .00811102730965464 0 631088724176
81e-43 -1183291357831518e-45 1 1 96812669221875e-44 63108872417681e-43 .00100000
0000000756 16 244 308 0 ?246 247 241 242 0 0 1 31 245 384 0 247 242 248 0 +.0636
597167178939 .0067821213316453 0 -63108872417681e-43 1183291357831518e-45 -1 1 9
6812669221875e-44 63108872417681e-43 .001186538994602526 16 247 304 0 ?249 250 2
44 245 0 0 1 30 248 383 0 250 245 251 0 +.0641660247077719 .0078552135947327 0 .
884984723678035 -.465620058477416 63108872417681e-43 16 250 300 0 ?252 253 247 2
48 0 0 1 30 251 382 0 253 248 254 0 +.0654094094335669 .0072010273096537 0 1 -12
5108592586119e-30 63108872417681e-43 16 253 296 0 ?255 256 250 251 0 0 1 31 254
 381 0 256 251 257 0 +.0792751515070618 .00850102730965252 0 63108872417681e-43
 -1183291357831518e-45 1 1 96812669221875e-44 63108872417681e-43 .00129999999999
882 16 256 292 0 ?258 259 253 254 0 0 1 30 257 380 0 259 254 260 0 +.08010021352
78039 .0074964016769287 0 .78818503281787 .615438343005936 946633086265214e-44 1
6 259 288 0 ?261 262 256 257 0 0 1 31 260 379 0 262 257 263 0 +.0840134094335696
 .01248042273426562 0 63108872417681e-43 -1183291357831518e-45 1 1 9681266922187
5e-44 63108872417681e-43 .001520000000009265 16 262 284 0 ?264 265 259 260 0 0 1
 30 263 378 0 265 260 266 0 +.0855334094335788 .01248042273425706 0 968126692218
757e-45 1 -1183291357831518e-45 16 265 280 0 ?267 268 262 263 0 0 1 31 266 377 0
 268 263 269 0 +.0722834094335653 .02035102730963705 0 63108872417681e-43 -11832
91357831518e-45 1 1 96812669221875e-44 63108872417681e-43 .0132500000000135 16 2
68 276 0 ?270 271 265 266 0 0 1 31 269 376 0 271 266 272 0 +.081790227998757 .03
09954268207038 0 -63108872417681e-43 1183291357831518e-45 -1 1 96812669221875e-4
4 63108872417681e-43 .001022562260357754 16 271 272 0 ?273 274 268 269 0 0 1 30
 272 375 0 274 269 275 0 +.0807740510955743 .0311095236118336 -3469446951953615e
-33 .2558007345042975 .966729530027433 -1577721810442025e-45 16 274 268 0 ?276 2
77 271 272 0 0 1 31 275 374 0 277 272 278 0 +.0802953420863765 .0318527432212191
 0 63108872417681e-43 -1183291357831518e-45 1 1 96812669221875e-44 6310887241768
1e-43 .000652898257460563 16 277 264 0 ?279 280 274 275 0 0 1 30 278 373 0 280 2
75 281 0 +.0807740510955739 .0322967182420347 0 -.865868831054828 .5002710939158
35 -315544362088405e-44 16 280 260 0 ?282 283 277 278 0 0 1 31 281 372 0 283 278
 284 0 +.0781669553009797 .0332395365594939 0 63108872417681e-43 -11832913578315
18e-45 1 1 96812669221875e-44 63108872417681e-43 .000487897670669581 16 283 256
 0 ?285 286 280 281 0 0 1 30 284 371 0 286 281 287 0 +.0774254574911199 .0331871
140628157 0 -.707181236304595 -.70703231822789 -63108872417681e-43 16 286 252 0
 ?288 289 283 284 0 0 1 31 287 370 0 289 284 290 0 +.0767078520372656 .033904870
66170475 0 -63108872417681e-43 1183291357831518e-45 -1 1 96812669221875e-44 6310
8872417681e-43 .001014954246579776 16 289 248 0 ?291 292 286 287 0 0 1 31 290 36
9 0 292 287 293 0 +.072283409433567 .02046730991902875 0 63108872417681e-43 -118
3291357831518e-45 1 1 96812669221875e-44 63108872417681e-43 .01313367736991742 1
6 292 244 0 ?294 295 289 290 0 0 1 31 293 368 0 295 290 296 0 +.0678589668298684
 .03390487066170475 0 -63108872417681e-43 1183291357831518e-45 -1 1 968126692218
75e-44 63108872417681e-43 .001014954246579776 16 295 240 0 ?297 298 292 293 0 0
 1 30 296 367 0 298 293 299 0 +.0671413613760139 .0331871140628157 -346944695195
3615e-33 -.707181236304595 .70703231822789 -315544362088405e-44 16 298 236 0 ?30
0 301 295 296 0 0 1 31 299 366 0 301 296 302 0 +.0663998635661543 .0332395365594
939 -3469446951953615e-33 63108872417681e-43 -1183291357831518e-45 1 1 968126692
21875e-44 63108872417681e-43 .000487897670669581 16 301 232 0 ?303 304 298 299 0
 0 1 30 302 365 0 304 299 305 0 +.0637927677715599 .0322967182420347 0 -.8658688
31054827 -.500271093915837 -63108872417681e-43 16 304 228 0 ?306 307 301 302 0 0
 1 31 305 364 0 307 302 308 0 +.0642714767807575 .0318527432212191 0 63108872417
681e-43 -1183291357831518e-45 1 1 96812669221875e-44 63108872417681e-43 .0006528
98257460572 16 307 224 0 ?309 310 304 305 0 0 1 30 308 363 0 310 305 311 0 +.063
6403007551669 .0316857313674037 0 .255800734504966 -.966729530027256 31554436208
8405e-44 16 310 220 0 ?228 229 307 308 0 0 1 31 311 362 0 229 308 312 0 +.062721
0654282462 .03100243537077945 0 -63108872417681e-43 1183291357831518e-45 -1 1 96
812669221875e-44 63108872417681e-43 .00107703936977078 16 229 216 0 ?210 211 310
 311 0 0 1 31 312 5 0 211 311 313 0 +.0722071972957009 .0203682152774727 -4e-4 6
3108872417681e-43 -1183291357831518e-45 1 1 96812669221875e-44 63108872417681e-4
3 .013173799074783 16 211 4 0 ?28 314 229 312 0 0 1 30 313 8 0 314 312 315 0 +.0
590334094335667 .0203510273096541 -4e-4 312250225675809e-28 -1 1183291357831518e
-45 16 314 7 0 ?213 316 211 313 0 0 1 30 315 11 0 316 313 317 0 +.05903340943356
7 .0123510273096537 -4e-4 .1401927545589122 -.990124230371717 1577721810442025e-
45 16 316 10 0 ?318 319 314 315 0 0 1 31 317 14 0 319 315 320 0 +.06039373698022
22 .00940788438634208 -4e-4 63108872417681e-43 -1183291357831518e-45 1 1 9681266
9221875e-44 63108872417681e-43 .000944582443633637 16 319 13 0 ?321 322 316 317
 0 0 1 30 320 17 0 322 317 323 0 +.05979093414745 .0086806535167947 -4e-4 .74442
8970011715 -.667701661378266 315544362088405e-44 16 322 16 0 ?324 325 319 320 0
 0 1 31 323 20 0 325 320 326 0 +.0619234094335668 .00811102730965464 -4e-4 63108
872417681e-43 -1183291357831518e-45 1 1 96812669221875e-44 63108872417681e-43 .0
01000000000000756 16 325 19 0 ?327 328 322 323 0 0 1 31 326 23 0 328 323 329 0 +
.0636597167178939 .0067821213316453 -4e-4 -63108872417681e-43 1183291357831518e-
45 -1 1 96812669221875e-44 63108872417681e-43 .001186538994602526 16 328 22 0 ?3
30 331 325 326 0 0 1 30 329 26 0 331 326 332 0 +.0641660247077719 .0078552135947
327 -4e-4 .884984723678035 -.465620058477416 63108872417681e-43 16 331 25 0 ?333
 334 328 329 0 0 1 30 332 29 0 334 329 335 0 +.0654094094335669 .007201027309653
7 -4e-4 1 -125108592586119e-30 63108872417681e-43 16 334 28 0 ?336 337 331 332 0
 0 1 31 335 32 0 337 332 338 0 +.0792751515070618 .00850102730965252 -4e-4 63108
872417681e-43 -1183291357831518e-45 1 1 96812669221875e-44 63108872417681e-43 .0
0129999999999882 16 337 31 0 ?339 340 334 335 0 0 1 30 338 35 0 340 335 341 0 +.
0801002135278039 .0074964016769287 -4e-4 .78818503281787 .615438343005936 946633
086265214e-44 16 340 34 0 ?342 343 337 338 0 0 1 31 341 38 0 343 338 344 0 +.084
0134094335696 .01248042273426562 -4e-4 63108872417681e-43 -1183291357831518e-45
 1 1 96812669221875e-44 63108872417681e-43 .001520000000009265 16 343 37 0 ?345
 346 340 341 0 0 1 30 344 41 0 346 341 347 0 +.0855334094335788 .012480422734257
06 -4e-4 968126692218757e-45 1 -1183291357831518e-45 16 346 40 0 ?348 349 343 34
4 0 0 1 31 347 44 0 349 344 350 0 +.0722834094335654 .02035102730963705 -4e-4 63
108872417681e-43 -1183291357831518e-45 1 1 96812669221875e-44 63108872417681e-43
 .0132500000000135 16 349 43 0 ?351 352 346 347 0 0 1 31 350 47 0 352 347 353 0
 +.081790227998757 .0309954268207038 -4e-4 -63108872417681e-43 1183291357831518e
-45 -1 1 96812669221875e-44 63108872417681e-43 .001022562260357754 16 352 46 0 ?
354 355 349 350 0 0 1 30 353 50 0 355 350 356 0 +.0807740510955743 .031109523611
8336 -4e-4 .2558007345042975 .966729530027433 -1577721810442025e-45 16 355 49 0
 ?357 358 352 353 0 0 1 31 356 53 0 358 353 359 0 +.0802953420863765 .0318527432
212191 -4e-4 63108872417681e-43 -1183291357831518e-45 1 1 96812669221875e-44 631
08872417681e-43 .000652898257460563 16 358 52 0 ?360 361 355 356 0 0 1 30 359 56
 0 361 356 362 0 +.0807740510955739 .0322967182420347 -4e-4 -.865868831054828 .5
00271093915835 -315544362088405e-44 16 361 55 0 ?363 364 358 359 0 0 1 31 362 59
 0 364 359 365 0 +.0781669553009797 .0332395365594939 -4e-4 63108872417681e-43 -
1183291357831518e-45 1 1 96812669221875e-44 63108872417681e-43 .0004878976706695
81 16 364 58 0 ?366 367 361 362 0 0 1 30 365 62 0 367 362 368 0 +.07742545749112
 .0331871140628157 -4e-4 -.707181236304595 -.70703231822789 -63108872417681e-43
 16 367 61 0 ?369 370 364 365 0 0 1 31 368 65 0 370 365 371 0 +.0767078520372656
 .03390487066170475 -4e-4 -63108872417681e-43 1183291357831518e-45 -1 1 96812669
221875e-44 63108872417681e-43 .001014954246579776 16 370 64 0 ?372 373 367 368 0
 0 1 31 371 68 0 373 368 374 0 +.072283409433567 .02046730991902875 -4e-4 631088
72417681e-43 -1183291357831518e-45 1 1 96812669221875e-44 63108872417681e-43 .01
313367736991742 16 373 67 0 ?375 376 370 371 0 0 1 31 374 71 0 376 371 377 0 +.0
678589668298684 .03390487066170475 -4e-4 -63108872417681e-43 1183291357831518e-4
5 -1 1 96812669221875e-44 63108872417681e-43 .001014954246579776 16 376 70 0 ?37
8 379 373 374 0 0 1 30 377 74 0 379 374 380 0 +.067141361376014 .033187114062815
7 -4e-4 -.707181236304595 .70703231822789 -315544362088405e-44 16 379 73 0 ?381
 382 376 377 0 0 1 31 380 77 0 382 377 383 0 +.0663998635661543 .033239536559493
9 -4e-4 63108872417681e-43 -1183291357831518e-45 1 1 96812669221875e-44 63108872
417681e-43 .000487897670669581 16 382 76 0 ?384 385 379 380 0 0 1 30 383 80 0 38
5 380 386 0 +.0637927677715599 .0322967182420347 -4e-4 -.865868831054827 -.50027
1093915837 -63108872417681e-43 16 385 79 0 ?387 388 382 383 0 0 1 31 386 83 0 38
8 383 389 0 +.0642714767807575 .0318527432212191 -4e-4 63108872417681e-43 -11832
91357831518e-45 1 1 96812669221875e-44 63108872417681e-43 .000652898257460572 16
 388 82 0 ?390 391 385 386 0 0 1 30 389 86 0 391 386 392 0 +.0636403007551669 .0
316857313674037 -4e-4 .255800734504966 -.966729530027256 315544362088405e-44 16
 391 85 0 ?40 216 388 389 0 0 1 31 392 89 0 216 389 393 0 +.0627210654282463 .03
100243537077945 -4e-4 -63108872417681e-43 1183291357831518e-45 -1 1 968126692218
75e-44 63108872417681e-43 .00107703936977078 16 216 88 0 ?36 206 391 392 0 0 1 3
0 393 507 0 31 392 394 0 +.0634602832848885 .0302191277910527 -4e-4 631088724176
81e-43 -1183291357831518e-45 1 16 31 420 0 ?30 395 39 393 0 0 1 30 394 508 0 39
 393 396 0 +.06379276777156 .0311095236118337 -4e-4 63108872417681e-43 -11832913
57831518e-45 1 16 39 421 0 ?38 31 397 394 0 0 1 30 396 509 0 397 394 398 0 +.063
6403007551669 .0316857313674037 -4e-4 63108872417681e-43 -1183291357831518e-45 1
 16 397 422 0 ?128 39 399 396 0 0 1 30 398 510 0 399 396 400 0 +.063792767771559
9 .0322967182420347 -4e-4 63108872417681e-43 -1183291357831518e-45 1 16 399 423
 0 ?131 397 401 398 0 0 1 30 400 511 0 401 398 402 0 +.066155782464729 .03366199
19452707 -4e-4 63108872417681e-43 -1183291357831518e-45 1 16 401 424 0 ?134 399
 403 400 0 0 1 30 402 512 0 403 400 404 0 +.0667257557676749 .0336026321530127 -
4e-4 63108872417681e-43 -1183291357831518e-45 1 16 403 425 0 ?137 401 405 402 0
 0 1 30 404 513 0 405 402 406 0 +.067141361376014 .0331871140628157 -4e-4 631088
72417681e-43 -1183291357831518e-45 1 16 405 426 0 ?140 403 407 404 0 0 1 30 406
 514 0 407 404 408 0 +.0681269404671569 .0329259313109947 -4e-4 63108872417681e-
43 -1183291357831518e-45 1 16 407 427 0 ?143 405 409 406 0 0 1 30 408 515 0 409
 406 410 0 +.0764398783999769 .0329259313109947 -4e-4 63108872417681e-43 -118329
1357831518e-45 1 16 409 428 0 ?146 407 411 408 0 0 1 30 410 516 0 411 408 412 0
 +.07742545749112 .0331871140628157 -4e-4 63108872417681e-43 -1183291357831518e-
45 1 16 411 429 0 ?149 409 413 410 0 0 1 30 412 517 0 413 410 414 0 +.0778410630
994589 .0336026321530127 -4e-4 63108872417681e-43 -1183291357831518e-45 1 16 413
 430 0 ?152 411 415 412 0 0 1 30 414 518 0 415 412 416 0 +.078411036402405 .0336
619919452707 -4e-4 63108872417681e-43 -1183291357831518e-45 1 16 415 431 0 ?155
 413 417 414 0 0 1 30 416 519 0 417 414 418 0 +.0807740510955739 .03229671824203
47 -4e-4 63108872417681e-43 -1183291357831518e-45 1 16 417 432 0 ?158 415 419 41
6 0 0 1 30 418 520 0 419 416 420 0 +.0809265181119669 .0316857313674037 -4e-4 63
108872417681e-43 -1183291357831518e-45 1 16 419 433 0 ?161 417 421 418 0 0 1 30
 420 521 0 421 418 422 0 +.0807740510955743 .0311095236118336 -4e-4 631088724176
81e-43 -1183291357831518e-45 1 16 421 434 0 ?164 419 423 420 0 0 1 30 422 522 0
 423 420 424 0 +.0810802834506995 .0302594836741283 -4e-4 63108872417681e-43 -11
83291357831518e-45 1 16 423 435 0 ?167 421 425 422 0 0 1 30 424 523 0 425 422 42
6 0 +.0855334094335789 .02035102730965905 -4e-4 63108872417681e-43 -118329135783
1518e-45 1 16 425 436 0 ?170 423 427 424 0 0 1 30 426 524 0 427 424 428 0 +.0855
334094335788 .01248042273425706 -4e-4 63108872417681e-43 -1183291357831518e-45 1
 16 427 437 0 ?173 425 429 426 0 0 1 30 428 525 0 429 426 430 0 +.08494895665616
59 .0112824446900927 -4e-4 63108872417681e-43 -1183291357831518e-45 1 16 429 438
 0 ?176 427 431 428 0 0 1 30 430 526 0 431 428 432 0 +.0801002135278039 .0074964
016769287 -4e-4 63108872417681e-43 -1183291357831518e-45 1 16 431 439 0 ?179 429
 433 430 0 0 1 30 432 527 0 433 430 434 0 +.0792751515070619 .0072010273096537 -
4e-4 63108872417681e-43 -1183291357831518e-45 1 16 433 440 0 ?182 431 435 432 0
 0 1 30 434 528 0 435 432 436 0 +.0654094094335669 .0072010273096537 -4e-4 63108
872417681e-43 -1183291357831518e-45 1 16 435 441 0 ?185 433 437 434 0 0 1 30 436
 529 0 437 434 438 0 +.0641660247077719 .0078552135947327 -4e-4 63108872417681e-
43 -1183291357831518e-45 1 16 437 442 0 ?188 435 439 436 0 0 1 30 438 530 0 439
 436 440 0 +.062713227740303 .0074976864237307 -4e-4 63108872417681e-43 -1183291
357831518e-45 1 16 439 443 0 ?191 437 441 438 0 0 1 30 440 531 0 441 438 442 0 +
.0612703050513069 .0073537594139437 -4e-4 63108872417681e-43 -1183291357831518e-
45 1 16 441 444 0 ?194 439 443 440 0 0 1 30 442 532 0 443 440 444 0 +.0597909341
4745 .0086806535167947 -4e-4 63108872417681e-43 -1183291357831518e-45 1 16 443 4
45 0 ?197 441 445 442 0 0 1 30 444 533 0 445 442 446 0 +.059488177093067 .009139
1888642427 -4e-4 63108872417681e-43 -1183291357831518e-45 1 16 445 446 0 ?200 44
3 215 444 0 0 1 30 446 534 0 215 444 217 0 +.059033409433567 .0123510273096537 -
4e-4 63108872417681e-43 -1183291357831518e-45 1 16 215 447 0 ?203 445 206 446 0
 0 1 30 217 535 0 206 446 447 0 +.0590334094335667 .0203510273096541 -4e-4 63108
872417681e-43 -1183291357831518e-45 1 31 447 1022 0 395 217 20 0 -.0722834094335
653 .02035102730963705 0 63108872417681e-43 -1183291357831518e-45 1 1 9681266922
1875e-44 63108872417681e-43 .0119 16 395 1019 0 ?448 24 31 447 0 0 1 31 20 1081
 0 24 447 7 0 -.0722834094335653 .02035102730963705 0 63108872417681e-43 -118329
1357831518e-45 1 1 96812669221875e-44 63108872417681e-43 .01 16 24 1078 0 ?449 1
0 395 20 0 0 1 17 449 0 450 449 449 0 451 24 0 0 +15 450 1102 0 449 452 0 17 451
 0 453 451 451 0 449 24 0 0 -15 453 1080 0 451 16 454 14 16 1135 455 ?456 0 453
 5 457 +456 458 456 0 22 15 454 1132 0 459 16 0 17 459 0 454 459 459 0 460 461 0
 0 -17 460 0 462 460 460 0 459 461 0 0 +16 461 1148 0 ?460 463 0 464 0 0 1 16 46
3 1145 0 ?465 466 461 467 0 0 1 31 464 1183 0 461 0 467 0 +.0722834094335653 .02
035102730963705 0 63108872417681e-43 -1183291357831518e-45 1 1 96812669221875e-4
4 63108872417681e-43 .00979999999997522 31 467 1182 0 463 464 468 0 +.0722834094
335653 .02035102730963705 999999999999612e-20 63108872417681e-43 -11832913578315
18e-45 1 1 96812669221875e-44 63108872417681e-43 .00930000000000099 31 468 1181
 0 466 467 469 0 +.0722834094335653 .02035102730963705 999999999999612e-20 63108
872417681e-43 -1183291357831518e-45 1 1 96812669221875e-44 63108872417681e-43 .0
0979999999997522 16 466 1151 0 ?470 471 463 468 0 0 1 31 469 1124 0 471 468 472
 0 +.0722071972957009 .0203682152774727 -3469446951953615e-33 63108872417681e-43
 -1183291357831518e-45 1 1 96812669221875e-44 63108872417681e-43 .0111 16 471 10
89 0 ?473 474 466 469 0 0 1 31 472 1123 0 474 469 475 0 +.0722834094335653 .0203
5102730963705 999999999999612e-20 63108872417681e-43 -1183291357831518e-45 1 1 9
6812669221875e-44 63108872417681e-43 .01 16 474 1086 0 ?476 477 471 472 0 0 1 31
 475 1122 0 477 472 478 0 +.0722071972957009 .0203682152774727 999999999999265e-
20 63108872417681e-43 -1183291357831518e-45 1 1 96812669221875e-44 6310887241768
1e-43 .0111 16 477 1092 0 ?479 480 474 475 0 0 1 31 478 1065 0 480 475 481 0 +.0
722834094335653 .02035102730963705 0 63108872417681e-43 -1183291357831518e-45 1
 1 96812669221875e-44 63108872417681e-43 .0129 16 480 1030 0 ?482 483 477 478 0
 0 1 31 481 1064 0 483 478 484 0 +.0722834094335653 .02035102730963705 999999999
999612e-20 63108872417681e-43 -1183291357831518e-45 1 1 96812669221875e-44 63108
872417681e-43 .0119 16 483 1027 0 ?485 486 480 481 0 0 1 31 484 1063 0 486 481 4
87 0 +.0722834094335653 .02035102730963705 999999999999612e-20 63108872417681e-4
3 -1183291357831518e-45 1 1 96812669221875e-44 63108872417681e-43 .0129 16 486 1
033 0 ?488 489 483 484 0 0 1 31 487 892 0 489 484 490 0 +.0722834094335653 .0203
5102730963705 0 63108872417681e-43 -1183291357831518e-45 1 1 96812669221875e-44
 63108872417681e-43 .00899999999997371 16 489 872 0 ?491 492 486 487 0 0 1 31 49
0 891 0 492 487 493 0 +.0722834094335654 .02035102730963705 -4e-4 63108872417681
e-43 -1183291357831518e-45 1 1 96812669221875e-44 63108872417681e-43 .0089999999
9997371 16 492 869 0 ?494 495 489 490 0 0 1 31 493 854 0 495 490 496 0 +.0619234
094335668 .00811102730965464 0 63108872417681e-43 -1183291357831518e-45 1 1 9681
2669221875e-44 63108872417681e-43 .000330000000000138 16 495 834 0 ?497 498 492
 493 0 0 1 31 496 853 0 498 493 499 0 +.0619234094335668 .00811102730965464 -4e-
4 63108872417681e-43 -1183291357831518e-45 1 1 96812669221875e-44 63108872417681
e-43 .000330000000000138 16 498 831 0 ?500 501 495 496 0 0 1 31 499 816 0 501 49
6 502 0 +.0604444881981509 .0094315398011177 -3469446951953615e-33 6310887241768
1e-43 -1183291357831518e-45 1 1 96812669221875e-44 63108872417681e-43 33e-5 16 5
01 796 0 ?503 504 498 499 0 0 1 31 502 815 0 504 499 505 0 +.060444488198151 .00
94315398011177 -4e-4 63108872417681e-43 -1183291357831518e-45 1 1 96812669221875
e-44 63108872417681e-43 33e-5 16 504 793 0 ?506 507 501 502 0 0 1 31 505 778 0 5
07 502 508 0 +.060553409433567 .0124810273096537 0 63108872417681e-43 -118329135
7831518e-45 1 1 96812669221875e-44 63108872417681e-43 8e-4 16 507 758 0 ?509 510
 504 505 0 0 1 31 508 777 0 510 505 511 0 +.060553409433567 .0124810273096537 -4
e-4 63108872417681e-43 -1183291357831518e-45 1 1 96812669221875e-44 631088724176
81e-43 8e-4 16 510 755 0 ?512 513 507 508 0 0 1 31 511 740 0 513 508 514 0 +.061
6334094335669 .0108310273096537 0 63108872417681e-43 -1183291357831518e-45 1 1 9
6812669221875e-44 63108872417681e-43 8e-4 16 513 720 0 ?515 516 510 511 0 0 1 31
 514 739 0 516 511 517 0 +.061633409433567 .0108310273096537 -4e-4 6310887241768
1e-43 -1183291357831518e-45 1 1 96812669221875e-44 63108872417681e-43 8e-4 16 51
6 717 0 ?518 519 513 514 0 0 1 31 517 702 0 519 514 520 0 +.0634734094335669 .00
92810273096537 0 63108872417681e-43 -1183291357831518e-45 1 1 96812669221875e-44
 63108872417681e-43 8e-4 16 519 682 0 ?521 522 516 517 0 0 1 31 520 701 0 522 51
7 235 0 +.0634734094335669 .0092810273096537 -4e-4 63108872417681e-43 -118329135
7831518e-45 1 1 96812669221875e-44 63108872417681e-43 8e-4 16 522 679 0 ?523 233
 519 520 0 0 1 31 235 664 0 233 520 234 0 +.0840134094335669 .0124810273096537 0
 63108872417681e-43 -1183291357831518e-45 1 1 96812669221875e-44 63108872417681e
-43 8e-4 16 233 644 0 ?524 230 522 235 0 0 1 17 524 0 525 524 524 0 526 233 0 0
 +15 525 651 0 524 527 0 17 526 0 227 526 526 0 524 233 0 0 -15 227 630 0 526 22
6 528 14 226 1017 529 ?18 456 222 5 457 +458 456 18 456 22 15 528 668 0 530 226
 531 17 530 0 528 530 530 0 521 519 0 0 -15 531 706 0 532 226 533 17 532 0 531 5
32 532 0 515 513 0 0 -15 533 744 0 534 226 535 17 534 0 533 534 534 0 509 507 0
 0 -15 535 782 0 536 226 537 17 536 0 535 536 536 0 503 501 0 0 -15 537 820 0 53
8 226 539 17 538 0 537 538 538 0 497 495 0 0 -15 539 1014 0 540 226 0 17 540 0 5
39 540 540 0 482 480 0 0 -17 482 0 541 482 482 0 540 480 0 0 +15 541 1048 0 482
 542 0 14 542 1044 543 ?544 545 546 5 547 -0 0 544 545 22 81 1 543 6835 548 542
 549 0 529 550 551 14 544 1049 550 ?452 542 552 5 553 +0 0 452 542 22 14 545 103
9 554 ?542 555 556 5 557 +0 0 542 555 22 15 546 1047 0 558 542 541 51 547 1060 0
 542 553 557 0 -.0722834094335653 .02035102730963705 999999999999612e-20 -631088
72417681e-43 1183291357831518e-45 -1 .0129 -1 -96812669221875e-44 -6310887241768
1e-43 13 22 150 0 0 0 0 0 0 9 16 50 553 1061 0 544 559 547 0 +.0722834094335653
 -.00817039404660025 999999999999265e-20 63108872417681e-43 -1183291357831518e-4
5 1 1 96812669221875e-44 63108872417681e-43 51 557 1059 0 545 547 560 0 -.072283
4094335653 .02035102730963705 999999999999612e-20 -63108872417681e-43 1183291357
831518e-45 -1 .0119 -1 -96812669221875e-44 -63108872417681e-43 51 560 888 0 555
 557 561 0 +.0722834094335654 .02035102730963705 -4e-4 63108872417681e-43 -11832
91357831518e-45 1 .00899999999997371 1 96812669221875e-44 63108872417681e-43 14
 555 875 562 ?545 563 564 5 560 -0 0 545 563 22 51 561 850 0 563 560 565 0 +.061
9234094335668 .00811102730965464 -4e-4 63108872417681e-43 -1183291357831518e-45
 1 .000330000000000138 1 96812669221875e-44 63108872417681e-43 14 563 837 566 ?5
55 567 568 5 561 -0 0 555 567 22 51 565 812 0 567 561 569 0 +.060444488198151 .0
094315398011177 -4e-4 63108872417681e-43 -1183291357831518e-45 1 33e-5 1 9681266
9221875e-44 63108872417681e-43 14 567 799 570 ?563 571 572 5 565 -0 0 563 571 22
 51 569 774 0 571 565 573 0 +.060553409433567 .0124810273096537 -4e-4 6310887241
7681e-43 -1183291357831518e-45 1 8e-4 1 96812669221875e-44 63108872417681e-43 14
 571 761 574 ?567 575 576 5 569 -0 0 567 575 22 51 573 736 0 575 569 577 0 +.061
633409433567 .0108310273096537 -4e-4 63108872417681e-43 -1183291357831518e-45 1
 8e-4 1 96812669221875e-44 63108872417681e-43 14 575 723 578 ?571 579 580 5 573
 -0 0 571 579 22 51 577 698 0 579 573 581 0 +.0634734094335669 .0092810273096537
 -4e-4 63108872417681e-43 -1183291357831518e-45 1 8e-4 1 96812669221875e-44 6310
8872417681e-43 14 579 685 582 ?575 527 583 5 577 -0 0 575 527 22 51 581 660 0 52
7 577 457 0 +.0840134094335669 .0124810273096537 -4e-4 63108872417681e-43 -11832
91357831518e-45 1 8e-4 1 96812669221875e-44 63108872417681e-43 14 527 647 584 ?5
79 458 585 5 581 -0 0 579 458 22 50 457 361 0 458 581 586 0 +.0722071972957009 .
0203682152774727 -3469446951953615e-33 63108872417681e-43 -1183291357831518e-45
 1 1 96812669221875e-44 63108872417681e-43 14 458 214 587 ?527 588 589 5 457 +16
 226 527 588 22 50 586 2 0 588 457 590 0 +.0722071972957009 .0203682152774727 -4
e-4 63108872417681e-43 -1183291357831518e-45 1 1 96812669221875e-44 631088724176
81e-43 14 588 1 591 ?458 220 592 5 586 -0 0 458 220 22 51 590 536 0 593 586 594
 0 -.0627210654282463 .03100243537077945 -4e-4 63108872417681e-43 -1183291357831
518e-45 1 .00107703936977078 1 96812669221875e-44 63108872417681e-43 14 593 450
 595 ?596 18 35 5 590 +0 0 596 18 22 50 594 537 0 596 590 597 0 +.06364030075516
69 .0316857313674037 -4e-4 -.966729530027256 -.255800734504966 -946633086265214e
-44 .255800734504966 -.966729530027256 315544362088405e-44 14 596 452 598 ?599 5
93 600 5 594 +0 0 599 593 22 51 597 538 0 599 594 601 0 +.0642714767807575 .0318
527432212191 -4e-4 63108872417681e-43 -1183291357831518e-45 1 .00065289825746057
2 1 96812669221875e-44 63108872417681e-43 14 599 454 602 ?603 596 604 5 597 +0 0
 603 596 22 50 601 539 0 603 597 605 0 +.0637927677715599 .0322967182420347 -4e-
4 -.500271093915837 .865868831054827 -473316543132607e-44 -.865868831054827 -.50
0271093915837 -63108872417681e-43 14 603 456 606 ?607 599 608 5 601 +0 0 607 599
 22 51 605 540 0 607 601 609 0 +.0663998635661543 .0332395365594939 -4e-4 631088
72417681e-43 -1183291357831518e-45 1 .000487897670669581 1 96812669221875e-44 63
108872417681e-43 14 607 458 610 ?611 603 612 5 605 +0 0 611 603 22 50 609 541 0
 611 605 613 0 +.067141361376014 .0331871140628157 -4e-4 .70703231822789 .707181
236304595 315544362088405e-44 -.707181236304595 .70703231822789 -315544362088405
e-44 14 611 460 614 ?615 607 616 5 609 +0 0 615 607 22 51 613 542 0 615 609 617
 0 -.0678589668298684 .03390487066170475 -4e-4 63108872417681e-43 -1183291357831
518e-45 1 .001014954246579776 1 96812669221875e-44 63108872417681e-43 14 615 462
 618 ?619 611 620 5 613 +0 0 619 611 22 51 617 543 0 619 613 621 0 +.07228340943
3567 .02046730991902875 -4e-4 63108872417681e-43 -1183291357831518e-45 1 .013133
67736991742 1 96812669221875e-44 63108872417681e-43 14 619 464 622 ?623 615 624
 5 617 +0 0 623 615 22 51 621 544 0 623 617 625 0 -.0767078520372656 .0339048706
6170475 -4e-4 63108872417681e-43 -1183291357831518e-45 1 .001014954246579776 1 9
6812669221875e-44 63108872417681e-43 14 623 466 626 ?627 619 628 5 621 +0 0 627
 619 22 50 625 545 0 627 621 629 0 +.07742545749112 .0331871140628157 -4e-4 -.70
703231822789 .707181236304595 -946633086265214e-44 -.707181236304595 -.707032318
22789 -63108872417681e-43 14 627 468 630 ?631 623 632 5 625 +0 0 631 623 22 51 6
29 546 0 631 625 633 0 +.0781669553009797 .0332395365594939 -4e-4 63108872417681
e-43 -1183291357831518e-45 1 .000487897670669581 1 96812669221875e-44 6310887241
7681e-43 14 631 470 634 ?635 627 636 5 629 +0 0 635 627 22 50 633 547 0 635 629
 637 0 +.0807740510955739 .0322967182420347 -4e-4 .500271093915835 .865868831054
828 0 -.865868831054828 .500271093915835 -315544362088405e-44 14 635 472 638 ?63
9 631 640 5 633 +0 0 639 631 22 51 637 548 0 639 633 641 0 +.0802953420863765 .0
318527432212191 -4e-4 63108872417681e-43 -1183291357831518e-45 1 .00065289825746
0563 1 96812669221875e-44 63108872417681e-43 14 639 474 642 ?643 635 644 5 637 +
0 0 643 635 22 50 641 549 0 643 637 645 0 +.0807740510955743 .0311095236118336 -
4e-4 .966729530027433 -.2558007345042975 315544362088405e-44 .2558007345042975 .
966729530027433 -1577721810442025e-45 14 643 476 646 ?647 639 648 5 641 +0 0 647
 639 22 51 645 550 0 647 641 649 0 -.081790227998757 .0309954268207038 -4e-4 631
08872417681e-43 -1183291357831518e-45 1 .001022562260357754 1 96812669221875e-44
 63108872417681e-43 14 647 478 650 ?651 643 652 5 645 +0 0 651 643 22 51 649 551
 0 651 645 653 0 +.0722834094335654 .02035102730963705 -4e-4 63108872417681e-43
 -1183291357831518e-45 1 .0132500000000135 1 96812669221875e-44 63108872417681e-
43 14 651 480 654 ?655 647 656 5 649 +0 0 655 647 22 50 653 552 0 655 649 657 0
 +.0855334094335788 .01248042273425706 -4e-4 1 96812669221875e-44 63108872417681
e-43 -63108872417681e-43 1183291357831518e-45 -1 14 655 482 658 ?659 651 660 5 6
53 +0 0 659 651 22 51 657 553 0 659 653 661 0 +.0840134094335696 .01248042273426
562 -4e-4 63108872417681e-43 -1183291357831518e-45 1 .001520000000009265 1 96812
669221875e-44 63108872417681e-43 14 659 484 662 ?663 655 664 5 657 +0 0 663 655
 22 50 661 554 0 663 657 665 0 +.0801002135278039 .0074964016769287 -4e-4 .61543
8343005936 -.78818503281787 63108872417681e-43 .788185032817871 .615438343005937
 946633086265214e-44 14 663 486 666 ?667 659 668 5 661 +0 0 667 659 22 51 665 55
5 0 667 661 669 0 +.0792751515070618 .00850102730965252 -4e-4 63108872417681e-43
 -1183291357831518e-45 1 .00129999999999882 1 96812669221875e-44 63108872417681e
-43 14 667 488 670 ?671 663 672 5 665 +0 0 671 663 22 50 669 556 0 671 665 673 0
 +.0654094094335669 .0072010273096537 -4e-4 -125108592586121e-30 -1 118329135783
1518e-45 1 -125108592586119e-30 63108872417681e-43 14 671 490 674 ?675 667 676 5
 669 +0 0 675 667 22 50 673 557 0 675 669 677 0 +.0641660247077719 .007855213594
7327 -4e-4 -.465620058477416 -.884984723678035 -1577721810442025e-45 .8849847236
78035 -.465620058477416 63108872417681e-43 14 675 492 678 ?679 671 680 5 673 +0
 0 679 671 22 51 677 558 0 679 673 681 0 -.0636597167178939 .0067821213316453 -4
e-4 63108872417681e-43 -1183291357831518e-45 1 .001186538994602526 1 96812669221
875e-44 63108872417681e-43 14 679 494 682 ?683 675 684 5 677 +0 0 683 675 22 51
 681 559 0 683 677 685 0 +.0619234094335668 .00811102730965464 -4e-4 63108872417
681e-43 -1183291357831518e-45 1 .001000000000000756 1 96812669221875e-44 6310887
2417681e-43 14 683 496 686 ?687 679 688 5 681 +0 0 687 679 22 50 685 560 0 687 6
81 689 0 +.05979093414745 .0086806535167947 -4e-4 -.667701661378266 -.7444289700
11715 0 .744428970011715 -.667701661378266 315544362088405e-44 14 687 498 690 ?6
91 683 692 5 685 +0 0 691 683 22 51 689 561 0 691 685 693 0 +.0603937369802222 .
00940788438634208 -4e-4 63108872417681e-43 -1183291357831518e-45 1 .000944582443
633637 1 96812669221875e-44 63108872417681e-43 14 691 500 694 ?695 687 696 5 689
 +0 0 695 687 22 50 693 562 0 695 689 19 0 +.059033409433567 .0123510273096537 -
4e-4 -.990124230371717 -.1401927545589122 -63108872417681e-43 .1401927545589122
 -.990124230371717 1577721810442025e-45 14 695 502 697 ?220 691 698 5 693 +0 0 2
20 691 22 50 19 563 0 220 693 6 0 +.0590334094335667 .0203510273096541 -4e-4 -1
 -312250225675809e-28 -63108872417681e-43 312250225675809e-28 -1 118329135783151
8e-45 14 220 504 699 ?588 695 212 5 19 +0 0 588 695 22 81 1 699 6874 548 220 700
 0 697 701 702 80 1 548 703 704 9000 1 1 1 1 1 1 1 1 0 FFFFTFTFFFFFFF1 81 1 700
 6576 705 220 0 699 706 707 708 81 1 697 6873 548 695 706 0 694 699 709 81 1 701
 6875 548 452 710 0 699 711 712 82 1 702 999999 14 452 1098 701 ?713 544 714 5 5
59 +0 0 713 544 22 81 1 710 6589 705 452 0 701 715 716 717 81 1 711 6876 548 713
 716 0 701 718 719 82 1 712 999999 14 713 1103 711 ?720 452 721 5 722 -0 0 720 4
52 22 81 1 716 6590 705 713 0 711 710 723 724 81 1 718 6877 548 720 723 0 711 72
5 726 82 1 719 999999 14 720 1108 718 ?727 713 728 5 729 +0 0 727 713 22 81 1 72
3 6591 705 720 0 718 716 730 731 81 1 725 6878 548 727 730 0 718 732 733 82 1 72
6 999999 14 727 1157 725 ?734 720 735 5 736 +0 0 734 720 22 81 1 730 6592 705 72
7 0 725 723 737 738 81 1 732 6879 548 734 737 0 725 739 740 82 1 733 999999 14 7
34 1162 732 ?741 727 742 5 743 -0 0 741 727 22 81 1 737 6593 705 734 0 732 730 7
44 745 81 1 739 6880 548 741 744 0 732 746 747 82 1 740 999999 14 741 1167 739 ?
0 734 748 5 749 +0 0 0 734 22 81 1 744 6594 705 741 0 739 737 0 750 81 1 746 688
1 548 18 751 0 739 752 753 82 1 747 999999 14 18 506 746 ?593 226 27 5 6 +0 0 59
3 226 22 81 1 751 6548 705 18 0 746 754 755 756 81 1 752 6882 548 456 757 0 746
 0 758 82 1 753 999999 14 456 1076 752 ?226 16 759 5 457 +226 16 226 16 22 81 1
 757 6546 705 456 0 752 760 754 761 82 1 758 999999 80 1 705 0 762 8001 0 0 0 0
 3 5 0 0 0 FFFFTFTFFFFFFF2 81 1 760 6545 705 16 0 455 0 757 763 81 1 754 6547 70
5 226 0 529 757 751 764 83 3 761 0 .749019607843137 0 81 1 529 6834 548 226 754
 0 455 543 765 83 3 764 0 .749019607843137 0 81 1 455 6833 548 16 760 0 0 529 76
6 82 1 765 999999 82 1 766 999999 83 3 763 0 .749019607843137 0 79 15 762 SDL/TY
SA_COLOUR15 759 1021 0 767 456 768 17 767 0 759 767 767 0 448 395 0 0 -15 768 10
73 0 769 456 0 17 769 0 768 769 769 0 473 471 0 0 -17 473 0 770 473 473 0 769 47
1 0 0 +15 770 1107 0 473 713 0 17 448 0 771 448 448 0 767 395 0 0 +15 771 1043 0
 448 545 0 81 1 755 6549 705 593 0 595 751 772 773 83 3 756 0 .749019607843137 0
 81 1 595 6847 548 593 755 0 591 598 774 81 1 772 6550 705 596 0 598 755 775 776
 83 3 773 0 .749019607843137 0 81 1 598 6848 548 596 772 0 595 602 777 81 1 775
 6551 705 599 0 602 772 778 779 83 3 776 0 .749019607843137 0 81 1 602 6849 548
 599 775 0 598 606 780 81 1 778 6552 705 603 0 606 775 781 782 83 3 779 0 .74901
9607843137 0 81 1 606 6850 548 603 778 0 602 610 783 81 1 781 6553 705 607 0 610
 778 784 785 83 3 782 0 .749019607843137 0 81 1 610 6851 548 607 781 0 606 614 7
86 81 1 784 6554 705 611 0 614 781 787 788 83 3 785 0 .749019607843137 0 81 1 61
4 6852 548 611 784 0 610 618 789 81 1 787 6555 705 615 0 618 784 790 791 83 3 78
8 0 .749019607843137 0 81 1 618 6853 548 615 787 0 614 622 792 81 1 790 6556 705
 619 0 622 787 793 794 83 3 791 0 .749019607843137 0 81 1 622 6854 548 619 790 0
 618 626 795 81 1 793 6557 705 623 0 626 790 796 797 83 3 794 0 .749019607843137
 0 81 1 626 6855 548 623 793 0 622 630 798 81 1 796 6558 705 627 0 630 793 799 8
00 83 3 797 0 .749019607843137 0 81 1 630 6856 548 627 796 0 626 634 801 81 1 79
9 6559 705 631 0 634 796 802 803 83 3 800 0 .749019607843137 0 81 1 634 6857 548
 631 799 0 630 638 804 81 1 802 6560 705 635 0 638 799 805 806 83 3 803 0 .74901
9607843137 0 81 1 638 6858 548 635 802 0 634 642 807 81 1 805 6561 705 639 0 642
 802 808 809 83 3 806 0 .749019607843137 0 81 1 642 6859 548 639 805 0 638 646 8
10 81 1 808 6562 705 643 0 646 805 811 812 83 3 809 0 .749019607843137 0 81 1 64
6 6860 548 643 808 0 642 650 813 81 1 811 6563 705 647 0 650 808 814 815 83 3 81
2 0 .749019607843137 0 81 1 650 6861 548 647 811 0 646 654 816 81 1 814 6564 705
 651 0 654 811 817 818 83 3 815 0 .749019607843137 0 81 1 654 6862 548 651 814 0
 650 658 819 81 1 817 6565 705 655 0 658 814 820 821 83 3 818 0 .749019607843137
 0 81 1 658 6863 548 655 817 0 654 662 822 81 1 820 6566 705 659 0 662 817 823 8
24 83 3 821 0 .749019607843137 0 81 1 662 6864 548 659 820 0 658 666 825 81 1 82
3 6567 705 663 0 666 820 826 827 83 3 824 0 .749019607843137 0 81 1 666 6865 548
 663 823 0 662 670 828 81 1 826 6568 705 667 0 670 823 829 830 83 3 827 0 .74901
9607843137 0 81 1 670 6866 548 667 826 0 666 674 831 81 1 829 6569 705 671 0 674
 826 832 833 83 3 830 0 .749019607843137 0 81 1 674 6867 548 671 829 0 670 678 8
34 81 1 832 6570 705 675 0 678 829 835 836 83 3 833 0 .749019607843137 0 81 1 67
8 6868 548 675 832 0 674 682 837 81 1 835 6571 705 679 0 682 832 838 839 83 3 83
6 0 .749019607843137 0 81 1 682 6869 548 679 835 0 678 686 840 81 1 838 6572 705
 683 0 686 835 841 842 83 3 839 0 .749019607843137 0 81 1 686 6870 548 683 838 0
 682 690 843 81 1 841 6573 705 687 0 690 838 844 845 83 3 842 0 .749019607843137
 0 81 1 690 6871 548 687 841 0 686 694 846 81 1 844 6574 705 691 0 694 841 706 8
47 83 3 845 0 .749019607843137 0 81 1 694 6872 548 691 844 0 690 697 848 81 1 70
6 6575 705 695 0 697 844 700 849 83 3 847 0 .749019607843137 0 83 3 849 0 .74901
9607843137 0 82 1 848 999999 82 1 846 999999 82 1 843 999999 82 1 840 999999 82
 1 837 999999 82 1 834 999999 82 1 831 999999 82 1 828 999999 82 1 825 999999 82
 1 822 999999 82 1 819 999999 82 1 816 999999 82 1 813 999999 82 1 810 999999 82
 1 807 999999 82 1 804 999999 82 1 801 999999 82 1 798 999999 82 1 795 999999 82
 1 792 999999 82 1 789 999999 82 1 786 999999 82 1 783 999999 82 1 780 999999 82
 1 777 999999 81 1 591 6846 548 588 707 0 587 595 850 82 1 774 999999 81 1 707 6
577 705 588 0 591 700 851 852 81 1 587 6845 548 458 851 0 584 591 853 82 1 850 9
99999 81 1 851 6578 705 458 0 587 707 854 855 81 1 584 6844 548 527 854 0 582 58
7 856 82 1 853 999999 81 1 854 6579 705 527 0 584 851 857 858 81 1 582 6843 548
 579 857 0 578 584 859 82 1 856 999999 81 1 857 6580 705 579 0 582 854 860 861 8
1 1 578 6842 548 575 860 0 574 582 862 82 1 859 999999 81 1 860 6581 705 575 0 5
78 857 863 864 81 1 574 6841 548 571 863 0 570 578 865 82 1 862 999999 81 1 863
 6582 705 571 0 574 860 866 867 81 1 570 6840 548 567 866 0 566 574 868 82 1 865
 999999 81 1 866 6583 705 567 0 570 863 869 870 81 1 566 6839 548 563 869 0 562
 570 871 82 1 868 999999 81 1 869 6584 705 563 0 566 866 872 873 81 1 562 6838 5
48 555 872 0 554 566 874 82 1 871 999999 81 1 872 6585 705 555 0 562 869 875 876
 81 1 554 6837 548 545 875 0 550 562 877 82 1 874 999999 81 1 875 6586 705 545 0
 554 872 549 878 81 1 550 6836 548 544 715 0 543 554 879 82 1 877 999999 81 1 71
5 6588 705 544 0 550 549 710 880 82 1 879 999999 81 1 549 6587 705 542 0 543 875
 715 881 83 3 880 1 1 1 83 3 881 .749019607843137 .749019607843137 .749019607843
137 83 3 878 .749019607843137 .749019607843137 .749019607843137 83 3 876 0 .7490
19607843137 0 83 3 873 0 .749019607843137 0 83 3 870 0 .749019607843137 0 83 3 8
67 0 .749019607843137 0 83 3 864 0 .749019607843137 0 83 3 861 0 .74901960784313
7 0 83 3 858 0 .749019607843137 0 83 3 855 0 .749019607843137 0 83 3 852 0 .7490
19607843137 0 83 3 750 1 1 1 15 748 1169 0 882 741 883 50 749 1179 0 741 0 743 0
 +.0722834094335653 -.00817039404660025 999999999999265e-20 63108872417681e-43 -
1183291357831518e-45 1 1 96812669221875e-44 63108872417681e-43 51 743 1178 0 734
 749 736 0 -.0722834094335653 .02035102730963705 999999999999612e-20 -6310887241
7681e-43 1183291357831518e-45 -1 .00979999999997522 -1 -96812669221875e-44 -6310
8872417681e-43 51 736 1177 0 727 743 729 0 -.0722834094335653 .02035102730963705
 999999999999612e-20 -63108872417681e-43 1183291357831518e-45 -1 .00930000000000
099 -1 -96812669221875e-44 -63108872417681e-43 50 729 1120 0 720 736 722 0 +.072
2834094335653 -.00817039404660025 999999999999265e-20 63108872417681e-43 -118329
1357831518e-45 1 1 96812669221875e-44 63108872417681e-43 51 722 1119 0 713 729 5
59 0 -.0722071972957009 .0203682152774727 999999999999265e-20 -63108872417681e-4
3 1183291357831518e-45 -1 .0111 -1 -96812669221875e-44 -63108872417681e-43 51 55
9 1118 0 452 722 553 0 -.0722834094335653 .02035102730963705 999999999999612e-20
 -63108872417681e-43 1183291357831518e-45 -1 .01 -1 -96812669221875e-44 -6310887
2417681e-43 17 882 0 748 882 882 0 465 463 0 0 -15 883 1170 0 470 741 0 17 470 0
 883 470 470 0 884 466 0 0 +17 884 0 742 884 884 0 470 466 0 0 -15 742 1165 0 88
4 734 462 15 462 1166 0 460 734 0 17 465 0 735 465 465 0 882 463 0 0 +15 735 116
0 0 465 727 885 15 885 1161 0 23 727 0 17 23 0 885 23 23 0 886 10 0 0 +17 886 0
 589 886 886 0 23 10 0 0 -15 589 1139 0 886 458 887 15 887 858 0 888 458 0 17 88
8 0 887 888 888 0 491 489 0 0 -17 491 0 889 491 491 0 888 489 0 0 +15 889 879 0
 491 555 0 83 3 745 .749019607843137 .749019607843137 .749019607843137 83 3 738
 .749019607843137 .749019607843137 .749019607843137 83 3 731 1 1 1 15 728 1110 0
 890 720 891 17 890 0 728 890 890 0 476 474 0 0 -15 891 1111 0 479 720 0 17 479
 0 891 479 479 0 892 477 0 0 +17 892 0 721 892 892 0 479 477 0 0 -15 721 1106 0
 892 713 770 17 476 0 714 476 476 0 890 474 0 0 +15 714 1101 0 476 452 450 83 3
 724 .749019607843137 .749019607843137 .749019607843137 83 3 717 .74901960784313
7 .749019607843137 .749019607843137 82 1 709 999999 83 3 708 0 .749019607843137
 0 79 14 704 SWEntUnchanged15 698 501 0 221 695 0 17 221 0 698 118 200 201 223 2
24 0 218 -17 118 0 698 318 221 116 203 215 0 893 -17 200 0 698 221 318 198 115 4
45 0 894 +17 223 0 222 240 218 198 221 224 0 0 +17 240 0 222 243 223 195 894 238
 0 0 +17 243 0 222 246 240 192 895 241 0 0 +17 894 0 696 115 197 198 240 238 0 2
23 -15 696 499 0 894 691 0 17 115 0 696 321 894 113 200 445 0 896 -17 197 0 696
 894 321 195 112 443 0 895 +17 321 0 696 197 115 110 896 319 0 0 +17 112 0 692 3
24 895 110 197 443 0 897 -17 895 0 692 112 194 195 243 241 0 240 -15 692 497 0 8
95 687 0 17 194 0 692 895 324 192 109 441 0 898 +17 324 0 692 194 112 107 897 32
2 0 0 +17 109 0 688 327 898 107 194 441 0 899 -17 898 0 688 109 191 192 246 244
 0 243 -15 688 495 0 898 683 0 17 191 0 688 898 327 189 106 439 0 900 +17 246 0
 222 249 243 189 898 244 0 0 +17 249 0 222 252 246 186 900 247 0 0 +17 252 0 222
 255 249 183 901 250 0 0 +17 900 0 684 106 188 189 249 247 0 246 -15 684 493 0 9
00 679 0 17 106 0 684 330 900 104 191 439 0 902 -17 188 0 684 900 330 186 103 43
7 0 901 +17 330 0 684 188 106 101 902 328 0 0 +17 103 0 680 333 901 101 188 437
 0 903 -17 901 0 680 103 185 186 252 250 0 249 -15 680 491 0 901 675 0 17 185 0
 680 901 333 183 100 435 0 904 +17 333 0 680 185 103 98 903 331 0 0 +17 100 0 67
6 336 904 98 185 435 0 905 -17 904 0 676 100 182 183 255 253 0 252 -15 676 489 0
 904 671 0 17 182 0 676 904 336 180 97 433 0 906 +17 255 0 222 258 252 180 904 2
53 0 0 +17 258 0 222 261 255 177 906 256 0 0 +17 261 0 222 264 258 174 907 259 0
 0 +17 906 0 672 97 179 180 258 256 0 255 -15 672 487 0 906 667 0 17 97 0 672 33
9 906 95 182 433 0 908 -17 179 0 672 906 339 177 94 431 0 907 +17 339 0 672 179
 97 92 908 337 0 0 +17 94 0 668 342 907 92 179 431 0 909 -17 907 0 668 94 176 17
7 261 259 0 258 -15 668 485 0 907 663 0 17 176 0 668 907 342 174 91 429 0 910 +1
7 342 0 668 176 94 89 909 340 0 0 +17 91 0 664 345 910 89 176 429 0 911 -17 910
 0 664 91 173 174 264 262 0 261 -15 664 483 0 910 659 0 17 173 0 664 910 345 171
 88 427 0 912 +17 264 0 222 267 261 171 910 262 0 0 +17 267 0 222 270 264 168 91
2 265 0 0 +17 270 0 222 273 267 165 913 268 0 0 +17 912 0 660 88 170 171 267 265
 0 264 -15 660 481 0 912 655 0 17 88 0 660 348 912 86 173 427 0 914 -17 170 0 66
0 912 348 168 85 425 0 913 +17 348 0 660 170 88 83 914 346 0 0 +17 85 0 656 351
 913 83 170 425 0 915 -17 913 0 656 85 167 168 270 268 0 267 -15 656 479 0 913 6
51 0 17 167 0 656 913 351 165 82 423 0 916 +17 351 0 656 167 85 80 915 349 0 0 +
17 82 0 652 354 916 80 167 423 0 917 -17 916 0 652 82 164 165 273 271 0 270 -15
 652 477 0 916 647 0 17 164 0 652 916 354 162 79 421 0 918 +17 273 0 222 276 270
 162 916 271 0 0 +17 276 0 222 279 273 159 918 274 0 0 +17 279 0 222 282 276 156
 919 277 0 0 +17 918 0 648 79 161 162 276 274 0 273 -15 648 475 0 918 643 0 17 7
9 0 648 357 918 77 164 421 0 920 -17 161 0 648 918 357 159 76 419 0 919 +17 357
 0 648 161 79 74 920 355 0 0 +17 76 0 644 360 919 74 161 419 0 921 -17 919 0 644
 76 158 159 279 277 0 276 -15 644 473 0 919 639 0 17 158 0 644 919 360 156 73 41
7 0 922 +17 360 0 644 158 76 71 921 358 0 0 +17 73 0 640 363 922 71 158 417 0 92
3 -17 922 0 640 73 155 156 282 280 0 279 -15 640 471 0 922 635 0 17 155 0 640 92
2 363 153 70 415 0 924 +17 282 0 222 285 279 153 922 280 0 0 +17 285 0 222 288 2
82 150 924 283 0 0 +17 288 0 222 291 285 147 925 286 0 0 +17 924 0 636 70 152 15
3 285 283 0 282 -15 636 469 0 924 631 0 17 70 0 636 366 924 68 155 415 0 926 -17
 152 0 636 924 366 150 67 413 0 925 +17 366 0 636 152 70 65 926 364 0 0 +17 67 0
 632 369 925 65 152 413 0 927 -17 925 0 632 67 149 150 288 286 0 285 -15 632 467
 0 925 627 0 17 149 0 632 925 369 147 64 411 0 928 +17 369 0 632 149 67 62 927 3
67 0 0 +17 64 0 628 372 928 62 149 411 0 929 -17 928 0 628 64 146 147 291 289 0
 288 -15 628 465 0 928 623 0 17 146 0 628 928 372 144 61 409 0 930 +17 291 0 222
 294 288 144 928 289 0 0 +17 294 0 222 297 291 141 930 292 0 0 +17 297 0 222 300
 294 138 931 295 0 0 +17 930 0 624 61 143 144 294 292 0 291 -15 624 463 0 930 61
9 0 17 61 0 624 375 930 59 146 409 0 932 -17 143 0 624 930 375 141 58 407 0 931
 +17 375 0 624 143 61 56 932 373 0 0 +17 58 0 620 378 931 56 143 407 0 933 -17 9
31 0 620 58 140 141 297 295 0 294 -15 620 461 0 931 615 0 17 140 0 620 931 378 1
38 55 405 0 934 +17 378 0 620 140 58 53 933 376 0 0 +17 55 0 616 381 934 53 140
 405 0 935 -17 934 0 616 55 137 138 300 298 0 297 -15 616 459 0 934 611 0 17 137
 0 616 934 381 135 52 403 0 936 +17 300 0 222 303 297 135 934 298 0 0 +17 303 0
 222 306 300 132 936 301 0 0 +17 306 0 222 309 303 129 937 304 0 0 +17 936 0 612
 52 134 135 303 301 0 300 -15 612 457 0 936 607 0 17 52 0 612 384 936 50 137 403
 0 938 -17 134 0 612 936 384 132 49 401 0 937 +17 384 0 612 134 52 47 938 382 0
 0 +17 49 0 608 387 937 47 134 401 0 939 -17 937 0 608 49 131 132 306 304 0 303
 -15 608 455 0 937 603 0 17 131 0 608 937 387 129 46 399 0 940 +17 387 0 608 131
 49 42 939 385 0 0 +17 46 0 604 390 940 42 131 399 0 941 -17 940 0 604 46 128 12
9 309 307 0 306 -15 604 453 0 940 599 0 17 128 0 604 940 390 126 41 397 0 942 +1
7 309 0 222 228 306 126 940 307 0 0 +17 228 0 222 210 309 124 942 310 0 37 +17 9
42 0 600 41 38 126 228 310 0 309 -17 37 0 35 33 30 124 210 229 0 0 -15 35 449 0
 37 593 0 17 30 0 35 37 36 122 25 31 0 29 +17 36 0 35 30 33 11 943 216 0 0 +17 9
43 0 944 945 32 26 36 216 0 0 -15 944 3 0 32 588 0 17 945 0 944 941 943 34 40 39
1 0 390 -17 32 0 944 943 214 11 28 211 0 36 -17 214 0 944 32 893 119 213 314 0 2
8 -17 893 0 944 214 896 116 318 316 0 213 -17 213 0 212 203 121 116 214 314 0 0
 +17 896 0 944 893 897 113 321 319 0 318 -17 318 0 698 200 118 113 893 316 0 0 +
17 897 0 944 896 899 110 324 322 0 321 -17 899 0 944 897 902 107 327 325 0 324 -
17 902 0 944 899 903 104 330 328 0 327 -17 327 0 688 191 109 104 899 325 0 0 +17
 903 0 944 902 905 101 333 331 0 330 -17 905 0 944 903 908 98 336 334 0 333 -17
 908 0 944 905 909 95 339 337 0 336 -17 336 0 676 182 100 95 905 334 0 0 +17 909
 0 944 908 911 92 342 340 0 339 -17 911 0 944 909 914 89 345 343 0 342 -17 914 0
 944 911 915 86 348 346 0 345 -17 345 0 664 173 91 86 911 343 0 0 +17 915 0 944
 914 917 83 351 349 0 348 -17 917 0 944 915 920 80 354 352 0 351 -17 920 0 944 9
17 921 77 357 355 0 354 -17 354 0 652 164 82 77 917 352 0 0 +17 921 0 944 920 92
3 74 360 358 0 357 -17 923 0 944 921 926 71 363 361 0 360 -17 926 0 944 923 927
 68 366 364 0 363 -17 363 0 640 155 73 68 923 361 0 0 +17 927 0 944 926 929 65 3
69 367 0 366 -17 929 0 944 927 932 62 372 370 0 369 -17 932 0 944 929 933 59 375
 373 0 372 -17 372 0 628 146 64 59 929 370 0 0 +17 933 0 944 932 935 56 378 376
 0 375 -17 935 0 944 933 938 53 381 379 0 378 -17 938 0 944 935 939 50 384 382 0
 381 -17 381 0 616 137 55 50 935 379 0 0 +17 939 0 944 938 941 47 387 385 0 384
 -17 941 0 944 939 945 42 390 388 0 387 -17 390 0 604 128 46 34 941 388 0 0 +17
 40 0 600 38 41 26 945 391 0 943 +15 600 451 0 942 596 0 17 38 0 600 942 40 124
 33 39 0 228 +17 41 0 600 40 942 34 128 397 0 945 -15 592 863 0 494 588 946 17 4
94 0 592 494 494 0 947 492 0 0 +15 946 825 0 500 588 948 17 500 0 946 500 500 0
 949 498 0 0 +15 948 787 0 506 588 950 17 506 0 948 506 506 0 951 504 0 0 +15 95
0 749 0 512 588 952 17 512 0 950 512 512 0 953 510 0 0 +15 952 711 0 518 588 954
 17 518 0 952 518 518 0 955 516 0 0 +15 954 673 0 523 588 956 17 523 0 954 523 5
23 0 957 522 0 0 +15 956 635 0 232 588 944 17 232 0 956 232 232 0 958 230 0 0 +1
7 958 0 585 958 958 0 232 230 0 0 -15 585 650 0 958 527 525 17 957 0 583 957 957
 0 523 522 0 0 -15 583 688 0 957 579 959 15 959 689 0 521 579 0 17 521 0 959 521
 521 0 530 519 0 0 +17 955 0 580 955 955 0 518 516 0 0 -15 580 726 0 955 575 960
 15 960 727 0 515 575 0 17 515 0 960 515 515 0 532 513 0 0 +17 953 0 576 953 953
 0 512 510 0 0 -15 576 764 0 953 571 961 15 961 765 0 509 571 0 17 509 0 961 509
 509 0 534 507 0 0 +17 951 0 572 951 951 0 506 504 0 0 -15 572 802 0 951 567 962
 15 962 803 0 503 567 0 17 503 0 962 503 503 0 536 501 0 0 +17 949 0 568 949 949
 0 500 498 0 0 -15 568 840 0 949 563 963 15 963 841 0 497 563 0 17 497 0 963 497
 497 0 538 495 0 0 +17 947 0 564 947 947 0 494 492 0 0 -15 564 878 0 947 555 889
 17 558 0 546 558 558 0 488 486 0 0 -17 488 0 964 488 488 0 558 486 0 0 +15 964
 1052 0 488 544 0 15 556 1042 0 485 545 771 17 485 0 556 485 485 0 965 483 0 0 +
17 965 0 552 965 965 0 485 483 0 0 -15 552 1051 0 965 544 964 82 1 551 999999 19
 17 566 0 1 0 9 5 S74 20 15 11 0 0 752 966 744 967 968 969 970 971 972 13 2 0 0
 0 0 0 0 0 0 0 81 2 966 3931 973 1 0 967 0 0 974 0 81 1 967 6595 975 1 966 968 0
 0 976 81 2 968 6597 977 1 967 969 0 0 0 978 81 2 969 6598 979 1 968 970 0 0 0 9
80 81 1 970 6713 981 1 969 971 0 0 982 81 2 971 6715 983 1 970 972 0 0 0 984 81
 2 972 6726 985 1 971 13 0 0 986 0 81 2 13 6728 987 1 972 2 0 0 0 0 80 2 987 988
 989 9000 0 0 0 0 3 5 0 0 0 FFTFFFFFFFFFFF9 1 79 16 989 BODY_RECIPE_200180 2 985
 990 991 9000 0 0 0 0 3 5 0 0 0 FFTFTTTFFTFFFF3 3 84 9 986 Imported179 21 991 SW
IMPLICITBODYNAME_ID80 2 983 992 993 9000 0 0 0 0 3 5 0 0 0 FFTFFFFFFFFFFF9 1 82
 1 984 1 79 24 993 BODY_IN_LIGHTWEIGHT_PERM80 1 981 994 995 9000 1 1 1 1 1 1 1 1
 0 FFTFFFFFFFFFFF1 82 1 982 256 79 10 995 BODY_MATCH80 2 979 996 997 9000 0 0 0
 0 3 5 0 0 0 FFTFFFFFFFFFFT9 1 82 1 980 103 79 19 997 ENT_TIME_STAMP_200180 2 97
7 998 999 9000 0 0 0 0 3 5 0 0 0 FFTFFFFFFFFFFF9 1 82 1 978 17 79 30 999 LAST_BO
DY_MODIFYING_FEATURE_ID80 1 975 1000 1001 8017 0 0 0 0 0 0 0 0 0 TTTTTTTTTTTTTF3
 84 14 976 Receiver-board79 13 1001 SDL/TYSA_NAME80 2 973 1002 1003 8004 0 0 0 0
 3 5 0 0 0 FFTFFFFFFFFFFF2 3 83 1 974 1e3 79 16 1003 SDL/TYSA_DENSITY80 2 12 100
4 1005 9000 0 0 0 0 3 5 0 0 0 FFTFFFFFFFFFFF9 1 82 1 14 101 79 12 1005 ATOM_ID_2
0011 0 
