**ABCDEFGHIJKLMNOPQRSTUVWXYZabcdefghijklmnopqrstuvwxyz**************************
**PARASOLID !"#$%&'()*+,-./:;<=>?@[\]^_`{|}~0123456789**************************
**PART1;
MC=AMD64;
MC_MODEL=Intel64 Family 6 Model 158 Stepping 9, GenuineIntel;
MC_ID=unknown;
OS=Windows_NT;
OS_RELEASE=unknown;
FRU=Parasolid Version 34.1, build 225,  5-24-2022;
APPL=SOLIDWORKS 2023-2022300;
SITE=;
USER=unknown;
FORMAT=text;
GUISE=transmit;
KEY=CUI_rotor-board-rev f;
FILE=CUI_rotor-board-rev f.x_t;
DATE=Wed Feb 14 12:15:44 2024;
**PART2;
SCH=SCH_3401225_34101;
USFLD_SIZE=0;
**PART3;
**END_OF_HEADER*****************************************************************
T51 : TRANSMIT FILE created by modeller version 340122517 SCH_2100000_200000 12
 1 1034 2 3 0 0 0 0 1e3 1e-8 0 4 0 1 0 1 1 5 6 7 0 8 9 0 0 0 0 0 81 2 2 1025 10
 1 11 0 0 0 0 12 70 3 0 4 T1 0 0 11 20 1 13 13 13 5 29 0 1 0 14 0 0 15 0 51 6 28
 0 16 17 0 0 -0 0 3e-4 0 0 -1 .013 -1 0 0 31 7 5 0 9 18 0 0 +0 0 3e-4 0 0 1 1 0
 0 .013 19 8 7 0 1 15 0 19 V16 9 4 0 ?20 0 21 7 0 0 1 17 20 0 22 20 20 0 23 9 0
 0 +16 21 18 0 ?24 9 25 18 0 0 1 17 24 0 26 24 24 0 27 21 0 0 +16 25 52 0 ?28 21
 29 30 0 0 1 31 18 23 0 21 30 7 0 +0 0 0 0 0 1 1 0 0 .013 31 30 71 0 25 31 18 0
 +0 0 3e-4 0 0 1 1 0 0 .0067 31 31 72 0 29 32 30 0 +0 0 0 0 0 1 1 0 0 .0067 16 2
9 49 0 ?33 25 34 31 0 0 1 31 32 128 0 34 35 31 0 +-.002363980006968355 .00727558
234965793 0 0 0 1 1 0 0 525e-6 16 34 106 0 ?36 29 37 32 0 0 1 31 35 129 0 37 38
 32 0 +-.002363980006968355 .00727558234965793 3e-4 0 0 1 1 0 0 525e-6 16 37 109
 0 ?39 34 40 35 0 0 1 31 38 166 0 40 41 35 0 +.00618898000696836 .00449655718003
741 0 0 0 1 1 0 0 525e-6 16 40 144 0 ?42 37 43 38 0 0 1 31 41 167 0 43 44 38 0 +
.00618898000696836 .00449655718003741 3e-4 0 0 1 1 0 0 525e-6 16 43 147 0 ?45 40
 46 41 0 0 1 31 44 204 0 46 47 41 0 +-.00765 -267098477124868e-31 0 0 0 1 1 0 0
 525e-6 16 46 182 0 ?48 43 49 44 0 0 1 31 47 205 0 49 50 44 0 +-.00765 -26709847
7124868e-31 3e-4 0 0 1 1 0 0 525e-6 16 49 185 0 ?51 46 52 47 0 0 1 31 50 242 0 5
2 53 47 0 +.00618898000696833 -.004496557180037455 0 0 0 1 1 0 0 525e-6 16 52 22
0 0 ?54 49 55 50 0 0 1 31 53 243 0 55 56 50 0 +.00618898000696833 -.004496557180
037455 3e-4 0 0 1 1 0 0 525e-6 16 55 223 0 ?57 52 58 53 0 0 1 31 56 280 0 58 59
 53 0 +-.002363980006968405 -.00727558234965791 0 0 0 1 1 0 0 525e-6 16 58 258 0
 ?60 55 61 56 0 0 1 31 59 281 0 61 0 56 0 +-.002363980006968405 -.00727558234965
791 3e-4 0 0 1 1 0 0 525e-6 16 61 261 0 ?62 58 0 59 0 0 1 17 62 0 63 62 62 0 64
 61 0 0 +15 63 268 0 62 65 0 17 64 0 66 64 64 0 62 61 0 0 -15 66 253 0 64 14 67
 14 14 46 68 ?69 0 66 5 17 +0 0 69 0 19 15 67 215 0 70 14 71 17 70 0 67 70 70 0
 57 55 0 0 -15 71 177 0 72 14 73 17 72 0 71 72 72 0 51 49 0 0 -15 73 139 0 74 14
 75 17 74 0 73 74 74 0 45 43 0 0 -15 75 101 0 76 14 22 17 76 0 75 76 76 0 39 37
 0 0 -15 22 3 0 20 14 77 15 77 43 0 78 14 0 17 78 0 77 78 78 0 28 25 0 0 -17 28
 0 79 28 28 0 78 25 0 0 +15 79 58 0 28 80 81 14 80 55 82 ?83 16 79 5 84 +0 0 83
 16 19 15 81 59 0 85 80 0 17 85 0 81 85 85 0 33 29 0 0 -17 33 0 86 33 33 0 85 29
 0 0 +15 86 38 0 33 69 0 14 69 40 87 ?16 14 88 5 89 -0 0 16 14 19 81 1 87 1028 9
0 69 91 0 82 92 93 14 16 25 92 ?80 69 94 5 6 -0 0 80 69 19 15 88 246 0 60 69 95
 50 89 22 0 69 84 17 0 +0 0 0 0 0 1 1 0 0 13 19 8 0 0 0 0 0 0 8 14 51 84 68 0 80
 96 89 0 -0 0 3e-4 0 0 -1 .0067 -1 0 0 50 17 2 0 14 89 6 0 +0 0 3e-4 0 0 1 1 0 0
 51 96 125 0 83 97 84 0 +-.002363980006968355 .00727558234965793 0 0 0 1 525e-6
 1 0 0 14 83 112 98 ?99 80 100 5 96 -0 0 99 80 19 51 97 163 0 99 101 96 0 +.0061
8898000696836 .00449655718003741 0 0 0 1 525e-6 1 0 0 14 99 150 102 ?103 83 104
 5 97 -0 0 103 83 19 51 101 201 0 103 105 97 0 +-.00765 -267098477124868e-31 0 0
 0 1 525e-6 1 0 0 14 103 188 106 ?107 99 108 5 101 -0 0 107 99 19 51 105 239 0 1
07 109 101 0 +.00618898000696833 -.004496557180037455 0 0 0 1 525e-6 1 0 0 14 10
7 226 110 ?65 103 111 5 105 -0 0 65 103 19 51 109 277 0 65 0 105 0 +-.0023639800
06968405 -.00727558234965791 0 0 0 1 525e-6 1 0 0 14 65 264 112 ?0 107 113 5 109
 -0 0 0 107 19 81 1 112 1034 90 65 114 0 110 0 115 15 113 267 0 116 65 63 17 116
 0 113 116 116 0 60 58 0 0 -17 60 0 88 60 60 0 116 58 0 0 +80 1 90 117 118 9000
 1 1 1 1 1 1 1 1 0 FFFFTFTFFFFFFF1 81 1 114 961 119 65 0 112 120 0 121 81 1 110
 1033 90 107 120 0 106 112 122 82 1 115 1679622469 81 1 120 960 119 107 0 110 12
3 114 124 81 1 106 1032 90 103 123 0 102 110 125 82 1 122 1675690309 81 1 123 95
9 119 103 0 106 126 120 127 81 1 102 1031 90 99 126 0 98 106 128 82 1 125 167175
8149 81 1 126 958 119 99 0 102 129 123 130 81 1 98 1030 90 83 129 0 92 102 131 8
2 1 128 1667825989 81 1 129 957 119 83 0 98 132 126 133 81 1 92 1029 90 16 134 0
 87 98 135 82 1 131 1663828293 81 1 134 955 119 16 0 92 91 132 136 82 1 135 7831
5839 80 1 119 0 137 8001 0 0 0 0 3 5 0 0 0 FFFFTFTFFFFFFF2 81 1 91 954 119 69 0
 87 138 134 139 81 1 132 956 119 80 0 82 134 129 140 83 3 136 0 1 0 81 1 82 1027
 90 80 132 0 68 87 141 83 3 140 0 1 0 81 1 68 1026 90 14 138 0 0 82 142 82 1 141
 82444607 81 1 138 953 119 14 0 68 0 91 143 82 1 142 84672837 83 3 143 0 1 0 83
 3 139 0 1 0 79 15 137 SDL/TYSA_COLOUR83 3 133 0 1 0 83 3 130 0 1 0 83 3 127 0 1
 0 83 3 124 0 1 0 83 3 121 0 1 0 79 14 118 SWEntUnchanged15 111 229 0 144 107 14
5 17 144 0 111 144 144 0 54 52 0 0 -15 145 230 0 57 107 0 17 57 0 145 57 57 0 70
 55 0 0 +17 54 0 95 54 54 0 144 52 0 0 +15 95 208 0 54 69 146 15 146 170 0 48 69
 147 17 48 0 146 48 48 0 148 46 0 0 +15 147 132 0 42 69 149 17 42 0 147 42 42 0
 150 40 0 0 +15 149 94 0 36 69 151 17 36 0 149 36 36 0 152 34 0 0 +15 151 17 0 2
7 69 86 17 27 0 151 27 27 0 24 21 0 0 -17 152 0 100 152 152 0 36 34 0 0 -15 100
 115 0 152 83 153 15 153 116 0 39 83 0 17 39 0 153 39 39 0 76 37 0 0 +17 150 0 1
04 150 150 0 42 40 0 0 -15 104 153 0 150 99 154 15 154 154 0 45 99 0 17 45 0 154
 45 45 0 74 43 0 0 +17 148 0 108 148 148 0 48 46 0 0 -15 108 191 0 148 103 155 1
5 155 192 0 51 103 0 17 51 0 155 51 51 0 72 49 0 0 +15 94 24 0 23 16 26 17 23 0
 94 23 23 0 20 9 0 0 -15 26 26 0 24 16 0 82 1 93 84148549 19 15 30 0 1 0 8 5 S74
 20 13 11 0 0 112 156 114 157 158 159 160 161 162 11 2 0 0 0 0 0 0 0 0 0 81 2 15
6 594 163 1 0 157 0 0 164 0 81 1 157 962 165 1 156 158 0 0 166 81 2 158 964 167
 1 157 159 0 0 0 168 81 2 159 965 169 1 158 160 0 0 0 170 81 1 160 988 171 1 159
 161 0 0 172 81 2 161 990 173 1 160 162 0 0 0 174 81 2 162 1001 175 1 161 11 0 0
 176 0 81 2 11 1003 177 1 162 2 0 0 0 0 80 2 177 178 179 9000 0 0 0 0 3 5 0 0 0
 FFTFFFFFFFFFFF9 1 79 16 179 BODY_RECIPE_200180 2 175 180 181 9000 0 0 0 0 3 5 0
 0 0 FFTFTTTFFTFFFF3 3 84 9 176 Imported179 21 181 SWIMPLICITBODYNAME_ID80 2 173
 182 183 9000 0 0 0 0 3 5 0 0 0 FFTFFFFFFFFFFF9 1 82 1 174 1 79 24 183 BODY_IN_L
IGHTWEIGHT_PERM80 1 171 184 185 9000 1 1 1 1 1 1 1 1 0 FFTFFFFFFFFFFF1 82 1 172
 253 79 10 185 BODY_MATCH80 2 169 186 187 9000 0 0 0 0 3 5 0 0 0 FFTFFFFFFFFFFT9
 1 82 1 170 103 79 19 187 ENT_TIME_STAMP_200180 2 167 188 189 9000 0 0 0 0 3 5 0
 0 0 FFTFFFFFFFFFFF9 1 82 1 168 17 79 30 189 LAST_BODY_MODIFYING_FEATURE_ID80 1
 165 190 191 8017 0 0 0 0 0 0 0 0 0 TTTTTTTTTTTTTF3 84 17 166 Rotor-board-REV F7
9 13 191 SDL/TYSA_NAME80 2 163 192 193 8004 0 0 0 0 3 5 0 0 0 FFTFFFFFFFFFFF2 3
 83 1 164 1e3 79 16 193 SDL/TYSA_DENSITY80 2 10 194 195 9000 0 0 0 0 3 5 0 0 0 F
FTFFFFFFFFFFF9 1 82 1 12 101 79 12 195 ATOM_ID_20011 0 
