**ABCDEFGHIJKLMNOPQRSTUVWXYZabcdefghijklmnopqrstuvwxyz**************************
**PARASOLID !"#$%&'()*+,-./:;<=>?@[\]^_`{|}~0123456789**************************
**PART1;
MC=AMD64;
MC_MODEL=Intel64 Family 6 Model 158 Stepping 9, GenuineIntel;
MC_ID=unknown;
OS=Windows_NT;
OS_RELEASE=unknown;
FRU=Parasolid Version 34.1, build 225,  5-24-2022;
APPL=SOLIDWORKS 2023-2022300;
SITE=;
USER=unknown;
FORMAT=text;
GUISE=transmit;
KEY=CUI_amt-hub-bottom-rev-b;
FILE=CUI_amt-hub-bottom-rev-b.x_t;
DATE=Wed Feb 14 12:12:42 2024;
**PART2;
SCH=SCH_3401225_34101;
USFLD_SIZE=0;
**PART3;
**END_OF_HEADER*****************************************************************
T51 : TRANSMIT FILE created by modeller version 340122517 SCH_2100000_200000 12
 1 3925 2 3 0 0 0 0 1e3 1e-8 0 4 0 1 0 1 1 5 6 7 8 9 10 11 0 0 0 0 81 2 2 3898 1
2 1 13 0 0 0 0 14 70 3 0 4 T1 0 0 11 20 1 15 15 13 5 29 0 1 0 16 0 0 17 0 51 6 2
8 0 18 19 0 0 -0 0 .0017 0 0 -1 .00865 -1 0 0 31 7 411 0 20 21 0 0 +-.0078 0 0 0
 0 1 1 0 0 8e-4 29 8 946 0 11 22 0 -.00849282032302753 .0004000000000000315 .001
05 19 9 7 0 1 17 0 23 V16 10 261 0 ?24 0 25 26 0 0 1 18 11 945 0 27 0 28 8 ?1 17
 27 0 29 30 31 11 32 33 0 34 -18 28 730 0 35 11 36 22 ?1 17 35 0 37 38 39 28 40
 41 0 42 -18 36 515 0 43 28 44 45 ?1 29 22 731 0 28 45 8 -.00830696210608598 -.0
01811733315717615 .00105 29 45 516 0 36 46 22 -.00809990687000394 .0025844739767
4893 .00105 29 46 706 0 44 47 45 -.00809990687000394 .00258447397674893 0 18 44
 623 0 48 36 49 46 ?1 29 47 707 0 49 50 46 -.00824279258040739 .0026227600874614
8 0 18 49 612 0 51 44 52 47 ?1 29 50 708 0 52 53 47 -.00824279258040739 .0026227
6008746148 .00105 18 52 618 0 54 49 55 50 ?1 29 53 710 0 55 56 50 -.008449847816
48941 .001850019426430225 0 18 55 614 0 57 52 58 53 ?1 29 56 711 0 58 59 53 -.00
8306962106086 .001811733315717685 0 18 58 613 0 60 55 61 56 ?1 29 59 712 0 61 62
 56 -.008306962106086 .001811733315717685 .00105 18 61 625 0 63 58 64 59 ?1 29 6
2 713 0 64 65 59 -.00844984781648941 .001850019426430225 .00105 18 64 616 0 66 6
1 67 62 ?1 29 65 921 0 67 68 62 -.00830696210608598 -.001811733315717615 0 18 67
 838 0 69 64 70 65 ?1 29 68 922 0 70 71 65 -.00844984781648942 -.001850019426430
165 0 18 70 827 0 72 67 73 68 ?1 29 71 923 0 73 74 68 -.00844984781648942 -.0018
50019426430165 .00105 18 73 833 0 39 70 75 71 ?1 29 74 925 0 75 76 71 -.00824279
258040741 -.00262276008746142 0 18 75 829 0 77 73 78 74 ?1 29 76 926 0 78 79 74
 -.008099906870004 -.00258447397674888 0 18 78 828 0 80 75 81 76 ?1 29 79 927 0
 81 82 76 -.008099906870004 -.00258447397674888 .00105 18 81 840 0 83 78 84 79 ?
1 29 82 928 0 84 85 79 -.00824279258040741 -.00262276008746142 .00105 18 84 831
 0 86 81 87 82 ?1 29 85 1136 0 87 88 82 -.00849282032302753 .0004000000000000315
 0 18 87 1053 0 89 84 90 85 ?1 29 88 1137 0 90 91 85 -.00864074649552919 .000400
000000000032 0 18 90 1042 0 92 87 93 88 ?1 29 91 1138 0 93 94 88 -.0086407464955
2919 .000400000000000032 .00105 18 93 1048 0 31 90 95 91 ?1 29 94 1140 0 95 96 9
1 -.00864074649552919 -.000399999999999968 0 18 95 1044 0 97 93 98 94 ?1 29 96 1
141 0 98 99 94 -.00849282032302757 -.0003999999999999685 0 18 98 1043 0 100 95 1
01 96 ?1 29 99 1142 0 101 102 96 -.00849282032302757 -.000399999999999969 .00105
 18 101 1055 0 103 98 104 99 ?1 29 102 1143 0 104 0 99 -.0086407464955292 -.0003
99999999999968 .00105 18 104 1046 0 105 101 0 102 ?1 17 105 0 106 103 97 104 107
 108 0 109 -15 106 1081 0 103 110 0 17 103 0 106 100 105 101 109 111 0 112 +17 9
7 0 106 105 100 95 113 114 0 107 +17 107 0 115 72 116 95 105 108 0 117 +16 108 1
022 0 ?107 118 119 120 0 0 1 17 109 0 29 31 30 104 103 111 0 116 -15 29 959 0 30
 121 0 17 31 0 29 27 109 93 116 122 0 32 +17 30 0 29 109 27 101 123 124 0 0 +16
 111 1014 0 ?103 119 33 125 0 0 1 17 116 0 115 107 126 104 31 122 0 0 -15 115 98
0 0 127 18 128 17 126 0 115 116 127 93 92 129 0 0 +16 122 1017 0 ?31 130 129 131
 0 0 1 16 130 786 0 ?77 132 122 133 0 0 1 16 129 1020 0 ?126 122 118 134 0 0 1 3
1 131 1118 0 122 134 135 0 +0 0 .00105 0 0 -1 -1 0 0 .00865 30 134 1120 0 129 13
6 131 0 --.00864074649552919 .000400000000000032 .0017 0 0 -1 30 135 919 0 41 13
1 133 0 +-.00748063241765584 -.0015903189430209 .00105 -.965925826289069 -.25881
9045102518 0 16 41 800 0 ?40 137 132 135 0 0 1 30 133 916 0 130 135 138 0 +-.007
27357718157383 -.002363059604052155 0 -.965925826289069 -.258819045102518 0 30 1
38 914 0 132 133 139 0 +-.00748063241765584 -.0015903189430209 0 .96592582628906
9 .258819045102518 0 16 132 783 0 ?69 41 130 138 0 0 1 30 139 909 0 137 138 140
 0 +-.00727357718157383 -.002363059604052155 .00105 .965925826289069 .2588190451
02518 0 16 137 799 0 ?83 141 41 139 0 0 1 30 140 908 0 141 139 142 0 --.00809990
6870004 -.00258447397674888 .00105 0 0 -1 16 141 808 0 ?143 144 137 140 0 0 1 30
 142 907 0 144 140 145 0 +-.00824279258040741 -.00262276008746142 .0017 0 0 -1 1
6 144 807 0 ?146 147 141 142 0 0 1 30 145 906 0 147 142 148 0 +-.008306962106085
98 -.001811733315717615 .00105 0 0 -1 16 147 806 0 ?149 150 144 145 0 0 1 30 148
 905 0 150 145 151 0 --.00844984781648942 -.001850019426430165 .0017 0 0 -1 16 1
50 805 0 ?152 153 147 148 0 0 1 31 151 903 0 153 148 154 0 +0 0 .00105 0 0 -1 -1
 0 0 .00865 16 153 802 0 ?39 155 150 151 0 0 1 30 154 705 0 156 151 157 0 +-.007
48063241765583 .001590318943020955 .00105 .965925826289067 -.258819045102525 0 1
6 156 585 0 ?63 158 159 154 0 0 1 30 157 703 0 158 154 160 0 +-.0072735771815738
1 .00236305960405221 .00105 -.965925826289067 .2588190451025255 0 16 158 586 0 ?
161 162 156 157 0 0 1 30 160 702 0 155 157 163 0 +-.00727357718157381 .002363059
60405221 0 .965925826289067 -.2588190451025255 0 16 155 572 0 ?48 159 153 160 0
 0 1 30 163 700 0 159 160 164 0 +-.00748063241765583 .001590318943020955 0 -.965
925826289067 .258819045102525 0 16 159 568 0 ?57 156 155 163 0 0 1 30 164 693 0
 162 163 165 0 --.008306962106086 .001811733315717685 .00105 0 0 -1 16 162 594 0
 ?166 167 158 164 0 0 1 30 165 692 0 167 164 168 0 +-.00844984781648941 .0018500
19426430225 .0017 0 0 -1 16 167 593 0 ?169 170 162 165 0 0 1 30 168 691 0 170 16
5 171 0 +-.00809990687000394 .00258447397674893 .00105 0 0 -1 16 170 592 0 ?172
 173 167 168 0 0 1 30 171 690 0 173 168 174 0 --.00824279258040739 .002622760087
46148 .0017 0 0 -1 16 173 591 0 ?175 176 170 171 0 0 1 31 174 688 0 176 171 177
 0 +0 0 .00105 0 0 -1 -1 0 0 .00865 16 176 588 0 ?54 178 173 174 0 0 1 31 177 50
6 0 178 174 179 0 +0 0 .00285 0 0 -1 -1 0 0 .0065 16 178 477 0 ?180 181 176 177
 0 0 1 31 179 505 0 181 177 182 0 +0 0 0 0 0 1 1 0 0 .0065 16 181 480 0 ?183 124
 178 179 0 0 1 31 182 443 0 124 179 184 0 +-.0078 0 .00105 0 0 -1 -1 0 0 8e-4 16
 124 415 0 ?30 20 181 182 0 0 1 31 184 406 0 185 182 186 0 +-.00753422144505473
 -.002018788551799665 .00105 0 0 -1 -1 0 0 8e-4 16 185 378 0 ?38 187 20 184 0 0
 1 31 186 369 0 188 184 189 0 +-.00753422144505473 .002018788551799665 .00105 0
 0 -1 -1 0 0 8e-4 16 188 341 0 ?190 191 187 186 0 0 1 31 189 94 0 192 186 193 0
 +0 0 .00285 0 0 -1 -1 0 0 .00725 16 192 66 0 ?194 195 191 189 0 0 1 31 193 93 0
 196 189 197 0 +0 0 .0017 0 0 1 1 0 0 .00725 16 196 58 0 ?198 199 200 193 0 0 1
 31 197 23 0 201 193 202 0 +0 0 0 0 0 1 1 0 0 .00865 16 201 547 0 ?127 200 203 1
97 203 195 1 31 202 5 0 200 197 204 0 +0 0 .0017 0 0 1 1 0 0 .00865 16 200 4 0 ?
205 196 201 202 0 0 1 31 204 111 0 199 202 206 0 -.00765 0 0 0 0 1 1 0 0 5e-4 16
 199 108 0 ?207 208 196 204 0 0 1 31 206 145 0 208 204 209 0 --.0061889800069683
7 .004496557180037385 0 0 0 1 1 0 0 5e-4 16 208 142 0 ?210 211 199 206 0 0 1 31
 209 179 0 211 206 212 0 --.00618898000696831 -.004496557180037475 0 0 0 1 1 0 0
 5e-4 16 211 176 0 ?213 214 208 209 0 0 1 31 212 234 0 214 209 215 0 +-.00618898
000696831 -.004496557180037475 -35e-5 0 0 -1 -1 0 0 4e-4 16 214 231 0 ?216 217 2
11 212 0 0 1 31 215 240 0 217 212 218 0 --.00618898000696831 -.00449655718003747
5 -25e-5 0 0 -1 -1 0 0 5e-4 16 217 237 0 ?219 220 214 215 0 0 1 31 218 246 0 220
 215 221 0 +-.00618898000696837 .004496557180037385 -35e-5 0 0 -1 -1 0 0 4e-4 16
 220 243 0 ?222 223 217 218 0 0 1 31 221 252 0 223 218 224 0 --.0061889800069683
7 .004496557180037385 -25e-5 0 0 -1 -1 0 0 5e-4 16 223 249 0 ?225 25 220 221 0 0
 1 31 224 258 0 25 221 26 0 +.00765 0 -35e-5 0 0 -1 -1 0 0 4e-4 16 25 255 0 ?226
 10 223 224 0 0 1 31 26 264 0 10 224 227 0 -.00765 0 -25e-5 0 0 -1 -1 0 0 5e-4 3
1 227 337 0 191 26 21 0 +-.00753422144505473 .002018788551799665 0 0 0 1 1 0 0 8
e-4 16 191 537 0 ?228 192 188 227 0 0 1 31 21 374 0 187 227 7 0 +-.0075342214450
5473 -.002018788551799665 0 0 0 1 1 0 0 8e-4 16 187 751 0 ?229 188 185 21 0 0 1
 17 229 0 230 231 232 67 233 187 0 0 +15 230 17 0 234 16 235 17 231 0 230 117 22
9 70 69 132 0 0 -17 232 0 230 229 236 78 77 130 0 233 -17 233 0 237 143 149 78 2
29 187 0 0 -15 237 389 0 238 239 0 17 143 0 237 238 233 81 80 141 0 38 +17 149 0
 237 233 238 67 42 147 0 229 +17 238 0 237 149 143 28 38 185 0 0 -17 42 0 240 40
 69 28 149 147 0 238 -15 240 858 0 69 241 0 17 40 0 240 242 42 73 35 41 0 152 +1
7 69 0 240 42 242 67 231 132 0 149 +17 242 0 240 69 40 70 152 150 0 231 -17 152
 0 115 243 72 73 242 150 0 0 +17 243 0 115 146 152 84 39 153 0 0 -17 72 0 115 15
2 107 70 117 203 0 242 +17 117 0 230 113 231 95 72 203 0 0 -16 203 977 0 ?72 201
 195 197 195 201 1 16 195 762 0 ?51 203 192 197 201 203 1 17 51 0 115 175 146 49
 236 195 0 244 +17 175 0 115 245 51 52 244 173 0 0 +17 146 0 115 51 243 75 86 14
4 0 236 +17 236 0 230 232 246 75 51 195 0 0 -17 244 0 247 48 161 49 175 173 0 24
6 -15 247 643 0 48 248 0 17 48 0 247 249 244 44 246 155 0 172 +17 161 0 247 244
 249 52 43 158 0 175 +17 246 0 230 236 228 49 48 155 0 0 -17 228 0 230 246 250 4
4 251 191 0 0 +17 250 0 230 228 252 58 57 159 0 251 -17 251 0 253 166 172 58 228
 191 0 0 -15 253 352 0 254 255 0 17 166 0 253 254 251 61 60 162 0 190 +17 172 0
 253 251 254 44 249 170 0 228 +17 254 0 253 172 166 36 190 188 0 0 -17 249 0 247
 161 48 36 172 170 0 254 -17 190 0 256 257 43 61 254 188 0 0 +15 256 727 0 190 2
58 0 17 257 0 256 54 190 64 63 156 0 245 -17 43 0 256 190 54 36 161 158 0 249 -1
7 54 0 256 43 257 52 245 176 0 161 +17 245 0 115 169 175 64 54 176 0 0 -17 169 0
 115 127 245 55 66 167 0 252 +17 127 0 115 126 169 90 252 201 0 0 +17 66 0 259 6
3 57 64 169 167 0 257 -17 252 0 230 250 260 55 127 201 0 0 -17 260 0 230 252 234
 90 89 261 0 127 -17 234 0 230 260 113 87 262 20 0 0 +17 89 0 263 34 92 87 260 2
61 0 264 +16 261 998 0 ?89 33 114 265 0 0 1 16 33 1015 0 ?32 111 261 266 0 0 1 1
6 114 1001 0 ?97 261 0 267 0 0 1 30 265 1129 0 261 267 125 0 +-.0076373408794301
3 .0004000000000000285 0 1 -352055002515135e-29 0 30 267 1131 0 114 266 265 0 +-
.00763734087943013 -.000399999999999972 0 -1 4008547058340645e-30 0 30 125 1124
 0 111 265 268 0 +-.00763734087943013 -.000399999999999972 .00105 1 -40085470583
40645e-30 0 30 268 1123 0 119 125 120 0 --.00849282032302757 -.00039999999999996
9 .00105 0 0 -1 16 119 1023 0 ?112 108 111 268 0 0 1 30 120 1122 0 108 268 136 0
 +-.0086407464955292 -.000399999999999968 .0017 0 0 -1 30 136 1121 0 118 120 134
 0 +-.00849282032302753 .0004000000000000315 .00105 0 0 -1 16 118 1021 0 ?264 12
9 108 136 0 0 1 17 264 0 269 262 123 87 34 118 0 234 +15 269 426 0 123 270 0 17
 262 0 269 112 264 98 234 20 0 0 -17 123 0 269 264 112 11 30 124 0 0 -17 34 0 26
3 32 89 11 264 118 0 123 -15 263 1073 0 89 271 0 17 32 0 263 92 34 93 27 33 0 12
6 +17 92 0 263 89 32 90 126 129 0 260 -14 271 1070 272 ?110 273 263 5 274 -0 0 1
10 273 23 81 1 272 3899 275 271 276 0 0 277 278 14 110 1078 277 ?0 271 106 5 279
 -0 0 0 271 23 14 273 863 280 ?271 241 281 5 282 -0 0 271 241 23 50 274 1113 0 2
71 0 279 0 +-.00763734087943013 .0004000000000000285 .003124337347309585 3520550
02515135e-29 1 0 -1 352055002515135e-29 0 13 23 8 0 0 0 0 0 0 9 16 14 16 180 283
 ?18 0 284 5 285 -0 0 18 0 23 81 1 283 3902 275 16 286 0 280 287 288 14 18 25 28
7 ?289 16 115 5 6 -0 0 289 16 23 15 284 472 0 183 16 290 50 285 22 0 16 291 19 0
 +0 0 0 0 0 1 1 0 0 51 291 90 0 292 293 285 0 +0 0 .00285 0 0 -1 .00725 -1 0 0 5
0 19 2 0 289 285 6 0 +0 0 .0017 0 0 1 1 0 0 14 289 1 294 ?292 18 295 5 19 +0 0 2
92 18 23 81 1 294 3904 275 289 296 0 287 297 298 14 292 77 297 ?299 289 300 5 29
1 +0 0 299 289 23 15 295 60 0 301 289 302 17 301 0 295 301 301 0 198 196 0 0 -15
 302 3 0 205 289 0 17 205 0 302 205 205 0 303 200 0 0 +17 303 0 128 303 303 0 20
5 200 0 0 -15 128 24 0 303 18 0 17 198 0 300 198 198 0 301 196 0 0 +15 300 80 0
 198 292 304 15 304 81 0 194 292 0 17 194 0 304 194 194 0 305 192 0 0 +17 305 0
 306 305 305 0 194 192 0 0 -15 306 84 0 305 299 0 14 299 82 307 ?308 292 309 5 2
93 -0 0 308 292 23 81 1 307 3906 275 299 310 0 297 311 312 14 308 122 311 ?313 2
99 314 5 315 -0 0 313 299 23 15 309 466 0 180 299 306 50 293 91 0 299 315 291 0
 +0 0 .00285 0 0 -1 -1 0 0 51 315 135 0 308 316 293 0 -.00765 0 -35e-5 0 0 1 5e-
4 1 0 0 50 316 136 0 313 317 315 0 +.00765 0 -35e-5 0 0 -1 -1 0 0 14 313 127 318
 ?319 308 320 5 316 +0 0 319 308 23 51 317 169 0 319 321 316 0 --.00618898000696
837 .004496557180037385 -35e-5 0 0 1 5e-4 1 0 0 14 319 156 322 ?323 313 324 5 31
7 -0 0 323 313 23 50 321 170 0 323 325 317 0 +-.00618898000696837 .0044965571800
37385 -35e-5 0 0 -1 -1 0 0 14 323 161 326 ?327 319 328 5 321 +0 0 327 319 23 51
 325 203 0 327 329 321 0 --.00618898000696831 -.004496557180037475 -35e-5 0 0 1
 5e-4 1 0 0 14 327 190 330 ?331 323 332 5 325 -0 0 331 323 23 50 329 204 0 331 3
33 325 0 +-.00618898000696831 -.004496557180037475 -35e-5 0 0 -1 -1 0 0 14 331 1
95 334 ?335 327 336 5 329 +0 0 335 327 23 52 333 282 0 335 337 329 0 +-.00618898
000696831 -.004496557180037475 -35e-5 0 0 1 4e-4 .707106781186542 .7071067811865
53 1 0 0 14 335 275 338 ?339 331 340 5 333 +0 0 339 331 23 52 337 295 0 339 341
 333 0 +-.00618898000696837 .004496557180037385 -35e-5 0 0 1 4e-4 .7071067811865
41 .707106781186554 1 0 0 14 339 288 342 ?343 335 344 5 337 +0 0 343 335 23 52 3
41 308 0 343 345 337 0 +.00765 0 -35e-5 0 0 1 4e-4 .707106781186541 .70710678118
6554 1 0 0 14 343 301 346 ?255 339 347 5 341 +0 0 255 339 23 51 345 366 0 255 34
8 341 0 +-.00753422144505473 .002018788551799665 .00105 0 0 -1 8e-4 -1 0 0 14 25
5 348 349 ?258 343 253 5 345 -0 0 258 343 23 50 348 367 0 258 350 345 0 +-.00753
422144505473 .002018788551799665 .00105 0 0 -1 -1 0 0 14 258 358 351 ?239 255 25
6 5 348 +0 0 239 255 23 51 350 403 0 239 352 348 0 +-.00753422144505473 -.002018
788551799665 .00105 0 0 -1 8e-4 -1 0 0 14 239 385 353 ?354 258 237 5 350 -0 0 35
4 258 23 50 352 404 0 354 355 350 0 +-.00753422144505473 -.002018788551799665 .0
0105 0 0 -1 -1 0 0 14 354 395 356 ?270 239 37 5 352 +0 0 270 239 23 51 355 440 0
 270 357 352 0 +-.0078 0 .00105 0 0 -1 8e-4 -1 0 0 14 270 422 358 ?121 354 269 5
 355 -0 0 121 354 23 50 357 441 0 121 359 355 0 +-.0078 0 .00105 0 0 -1 -1 0 0 1
4 121 432 360 ?361 270 29 5 357 +0 0 361 270 23 51 359 502 0 361 362 357 0 +0 0
 .00285 0 0 -1 .0065 -1 0 0 14 361 484 363 ?248 121 364 5 359 -0 0 248 121 23 50
 362 680 0 248 365 359 0 +-.00727357718157381 .00236305960405221 .00312433734730
9585 .2588190451025255 .965925826289067 0 -.965925826289067 .2588190451025255 0
 14 248 640 366 ?367 361 247 5 362 -0 0 367 361 23 50 365 682 0 367 282 362 0 +-
.00748063241765583 .001590318943020955 .003124337347309585 -.258819045102525 -.9
65925826289067 0 .965925826289067 -.258819045102525 0 14 367 648 368 ?241 248 25
9 5 365 -0 0 241 248 23 50 282 896 0 273 369 365 0 +-.00727357718157383 -.002363
059604052155 .003124337347309585 .258819045102518 -.965925826289069 0 .965925826
289069 .258819045102518 0 50 369 898 0 241 279 282 0 +-.00748063241765584 -.0015
903189430209 .003124337347309585 -.258819045102518 .965925826289069 0 -.96592582
6289069 -.258819045102518 0 14 241 855 370 ?273 367 240 5 369 -0 0 273 367 23 50
 279 1111 0 110 274 369 0 +-.00763734087943013 -.000399999999999972 .00312433734
7309585 -4008547058340645e-30 -1 0 1 -4008547058340645e-30 0 81 1 370 3925 275 2
41 371 0 368 0 372 80 1 275 373 374 9000 1 1 1 1 1 1 1 1 0 FFFFTFTFFFFFFF1 81 1
 371 3759 375 241 0 370 376 377 378 81 1 368 3924 275 367 376 0 366 370 379 82 1
 372 333123280 81 1 376 3758 375 367 0 368 380 371 381 81 1 366 3923 275 248 380
 0 363 368 382 82 1 379 317722320 81 1 380 3757 375 248 0 366 383 376 384 81 1 3
63 3922 275 361 383 0 360 366 385 82 1 382 320343760 81 1 383 3756 375 361 0 363
 386 380 387 81 1 360 3921 275 121 386 0 358 363 388 82 1 385 191434447 81 1 386
 3755 375 121 0 360 389 383 390 81 1 358 3920 275 270 389 0 356 360 391 82 1 388
 147721936 81 1 389 3754 375 270 0 358 392 386 393 81 1 356 3919 275 354 392 0 3
53 358 394 82 1 391 174722768 81 1 392 3753 375 354 0 356 395 389 396 81 1 353 3
918 275 239 395 0 351 356 397 82 1 394 143789776 81 1 395 3752 375 239 0 353 398
 392 399 81 1 351 3917 275 258 398 0 349 353 400 82 1 397 173674192 81 1 398 375
1 375 258 0 351 401 395 402 81 1 349 3916 275 255 401 0 346 351 403 82 1 400 139
792080 81 1 401 3750 375 255 0 349 404 398 405 81 1 346 3915 275 343 404 0 342 3
49 406 82 1 403 172625616 81 1 404 3749 375 343 0 346 407 401 408 81 1 342 3914
 275 339 407 0 338 346 409 82 1 406 -469037378 81 1 407 3748 375 339 0 342 410 4
04 411 81 1 338 3913 275 335 410 0 334 342 412 82 1 409 -470282562 81 1 410 3747
 375 335 0 338 413 407 414 81 1 334 3912 275 331 413 0 330 338 415 82 1 412 -471
527746 81 1 413 3746 375 331 0 334 416 410 417 81 1 330 3911 275 327 416 0 326 3
34 418 82 1 415 -810676546 81 1 416 3745 375 327 0 330 419 413 420 81 1 326 3910
 275 323 419 0 322 330 421 82 1 418 -808710466 81 1 419 3744 375 323 0 326 422 4
16 423 81 1 322 3909 275 319 422 0 318 326 424 82 1 421 -814739778 81 1 422 3743
 375 319 0 322 425 419 426 81 1 318 3908 275 313 425 0 311 322 427 82 1 424 -812
773698 81 1 425 3742 375 313 0 318 428 422 429 81 1 311 3907 275 308 428 0 307 3
18 430 82 1 427 -818868546 81 1 428 3741 375 308 0 311 310 425 431 82 1 430 -816
902466 80 1 375 0 432 8001 0 0 0 0 3 5 0 0 0 FFFFTFTFFFFFFF2 81 1 310 3740 375 2
99 0 307 433 428 434 83 3 431 .0941176470588235 .0941176470588235 .0941176470588
235 81 1 433 3739 375 292 0 297 296 310 435 83 3 434 .0941176470588235 .09411764
70588235 .0941176470588235 81 1 297 3905 275 292 433 0 294 307 436 81 1 296 3738
 375 289 0 294 437 433 438 83 3 435 .0941176470588235 .0941176470588235 .0941176
470588235 81 1 437 3737 375 18 0 287 286 296 439 83 3 438 .0941176470588235 .094
1176470588235 .0941176470588235 81 1 287 3903 275 18 437 0 283 294 440 81 1 286
 3736 375 16 0 283 0 437 441 83 3 439 .0941176470588235 .0941176470588235 .09411
76470588235 83 3 441 .0941176470588235 .0941176470588235 .0941176470588235 82 1
 440 381488848 82 1 436 -1936191916 79 15 432 SDL/TYSA_COLOUR83 3 429 .094117647
0588235 .0941176470588235 .0941176470588235 83 3 426 .0941176470588235 .09411764
70588235 .0941176470588235 83 3 423 .0941176470588235 .0941176470588235 .0941176
470588235 83 3 420 .0941176470588235 .0941176470588235 .0941176470588235 83 3 41
7 .0941176470588235 .0941176470588235 .0941176470588235 83 3 414 .09411764705882
35 .0941176470588235 .0941176470588235 83 3 411 .0941176470588235 .0941176470588
235 .0941176470588235 83 3 408 .0941176470588235 .0941176470588235 .094117647058
8235 83 3 405 .0941176470588235 .0941176470588235 .0941176470588235 83 3 402 .09
41176470588235 .0941176470588235 .0941176470588235 83 3 399 .0941176470588235 .0
941176470588235 .0941176470588235 83 3 396 .0941176470588235 .0941176470588235 .
0941176470588235 83 3 393 .0941176470588235 .0941176470588235 .0941176470588235
 83 3 390 .0941176470588235 .0941176470588235 .0941176470588235 83 3 387 .094117
6470588235 .0941176470588235 .0941176470588235 83 3 384 .0941176470588235 .09411
76470588235 .0941176470588235 83 3 381 .0941176470588235 .0941176470588235 .0941
176470588235 81 1 377 3760 375 273 0 280 371 276 442 83 3 378 .0941176470588235
 .0941176470588235 .0941176470588235 81 1 280 3901 275 273 377 0 277 283 443 81
 1 276 3761 375 271 0 272 377 444 445 83 3 442 .0941176470588235 .09411764705882
35 .0941176470588235 81 1 444 3762 375 110 0 277 276 0 446 83 3 445 .09411764705
88235 .0941176470588235 .0941176470588235 81 1 277 3900 275 110 444 0 272 280 44
7 83 3 446 .0941176470588235 .0941176470588235 .0941176470588235 82 1 447 343477
968 82 1 443 330501840 79 14 374 SWEntUnchanged15 259 651 0 63 367 0 17 63 0 259
 60 66 61 257 156 0 166 +17 60 0 259 57 63 58 166 162 0 250 -17 57 0 259 66 60 5
5 250 159 0 169 +15 364 487 0 448 361 449 17 448 0 364 448 448 0 180 178 0 0 -15
 449 488 0 450 361 0 17 450 0 449 450 450 0 183 181 0 0 -17 183 0 284 183 183 0
 450 181 0 0 +17 180 0 309 180 180 0 448 178 0 0 +15 37 744 0 38 354 0 17 38 0 3
7 451 35 81 238 185 0 0 +17 451 0 37 39 38 84 83 137 0 243 -17 39 0 37 35 451 73
 243 153 0 40 +17 83 0 281 80 86 81 451 137 0 143 +15 281 866 0 83 273 0 17 80 0
 281 77 83 78 143 141 0 232 -17 86 0 281 83 77 84 146 144 0 451 -17 77 0 281 86
 80 75 232 130 0 146 +15 347 302 0 452 343 453 17 452 0 347 452 452 0 24 10 0 0
 -15 453 303 0 454 343 0 17 454 0 453 454 454 0 226 25 0 0 -17 226 0 320 226 226
 0 454 25 0 0 +15 320 256 0 226 313 0 17 24 0 314 24 24 0 452 10 0 0 +15 314 262
 0 24 308 455 15 455 126 0 207 308 0 17 207 0 455 207 207 0 456 199 0 0 +17 456
 0 235 456 456 0 207 199 0 0 -15 235 110 0 456 16 457 15 457 178 0 458 16 0 17 4
58 0 457 458 458 0 213 211 0 0 -17 213 0 459 213 213 0 458 211 0 0 +15 459 194 0
 213 327 0 15 344 289 0 460 339 461 17 460 0 344 460 460 0 225 223 0 0 -15 461 2
90 0 462 339 0 17 462 0 461 462 462 0 222 220 0 0 -17 222 0 328 222 222 0 462 22
0 0 0 +15 328 244 0 222 323 0 17 225 0 324 225 225 0 460 223 0 0 +15 324 250 0 2
25 319 463 15 463 160 0 210 319 0 17 210 0 463 210 210 0 464 208 0 0 +17 464 0 2
90 464 464 0 210 208 0 0 -15 290 144 0 464 16 230 15 340 276 0 465 335 466 17 46
5 0 340 465 465 0 219 217 0 0 -15 466 277 0 467 335 0 17 467 0 466 467 467 0 216
 214 0 0 -17 216 0 336 216 216 0 467 214 0 0 +15 336 232 0 216 331 0 17 219 0 33
2 219 219 0 465 217 0 0 +15 332 238 0 219 327 459 82 1 312 382799567 82 1 298 -1
949299116 82 1 288 381357776 82 1 278 346099408 17 112 0 269 123 262 101 100 119
 0 30 +17 100 0 106 97 103 98 112 119 0 113 -17 113 0 230 234 117 98 97 114 0 26
2 -16 20 966 0 ?234 185 124 7 0 0 1 30 266 1134 0 33 0 267 0 +-.0076373408794301
3 .0004000000000000285 .00105 -1 352055002515135e-29 0 19 17 30 0 1 0 9 5 S74 20
 15 11 0 0 370 468 444 469 470 471 472 473 474 13 2 0 0 0 0 0 0 0 0 0 81 2 468 1
224 475 1 0 469 0 0 476 0 81 1 469 3763 477 1 468 470 0 0 478 81 2 470 3765 479
 1 469 471 0 0 0 480 81 2 471 3766 481 1 470 472 0 0 0 482 81 1 472 3825 483 1 4
71 473 0 0 484 81 2 473 3827 485 1 472 474 0 0 0 486 81 2 474 3838 487 1 473 13
 0 0 488 0 81 2 13 3840 489 1 474 2 0 0 0 0 80 2 489 490 491 9000 0 0 0 0 3 5 0
 0 0 FFTFFFFFFFFFFF9 1 79 16 491 BODY_RECIPE_200180 2 487 492 493 9000 0 0 0 0 3
 5 0 0 0 FFTFTTTFFTFFFF3 3 84 9 488 Imported179 21 493 SWIMPLICITBODYNAME_ID80 2
 485 494 495 9000 0 0 0 0 3 5 0 0 0 FFTFFFFFFFFFFF9 1 82 1 486 1 79 24 495 BODY_
IN_LIGHTWEIGHT_PERM80 1 483 496 497 9000 1 1 1 1 1 1 1 1 0 FFTFFFFFFFFFFF1 82 1
 484 262 79 10 497 BODY_MATCH80 2 481 498 499 9000 0 0 0 0 3 5 0 0 0 FFTFFFFFFFF
FFT9 1 82 1 482 103 79 19 499 ENT_TIME_STAMP_200180 2 479 500 501 9000 0 0 0 0 3
 5 0 0 0 FFTFFFFFFFFFFF9 1 82 1 480 17 79 30 501 LAST_BODY_MODIFYING_FEATURE_ID8
0 1 477 502 503 8017 0 0 0 0 0 0 0 0 0 TTTTTTTTTTTTTF3 84 20 478 AMT-Hub-Bottom-
REV-B79 13 503 SDL/TYSA_NAME80 2 475 504 505 8004 0 0 0 0 3 5 0 0 0 FFTFFFFFFFFF
FF2 3 83 1 476 1e3 79 16 505 SDL/TYSA_DENSITY80 2 12 506 507 9000 0 0 0 0 3 5 0
 0 0 FFTFFFFFFFFFFF9 1 82 1 14 101 79 12 507 ATOM_ID_20011 0 
