**ABCDEFGHIJKLMNOPQRSTUVWXYZabcdefghijklmnopqrstuvwxyz**************************
**PARASOLID !"#$%&'()*+,-./:;<=>?@[\]^_`{|}~0123456789**************************
**PART1;
MC=AMD64;
MC_MODEL=Intel64 Family 6 Model 158 Stepping 9, GenuineIntel;
MC_ID=unknown;
OS=Windows_NT;
OS_RELEASE=unknown;
FRU=Parasolid Version 34.1, build 225,  5-24-2022;
APPL=SOLIDWORKS 2023-2022300;
SITE=;
USER=unknown;
FORMAT=text;
GUISE=transmit;
KEY=altýgen ayýrýcý;
FILE=altýgen ayýrýcý.x_t;
DATE=Wed Feb 14 12:22:35 2024;
**PART2;
SCH=SCH_3401225_34101;
USFLD_SIZE=0;
**PART3;
**END_OF_HEADER*****************************************************************
T51 : TRANSMIT FILE created by modeller version 340122517 SCH_2100000_200000 12
 1 525 2 3 0 0 0 0 1e3 1e-8 0 4 0 1 0 1 1 5 6 7 8 9 10 11 0 0 0 0 81 2 2 516 12
 1 13 0 0 0 0 14 70 3 0 4 T1 0 0 10 20 1 15 15 13 5 134 0 1 0 16 0 0 17 0 50 6 1
27 0 16 18 0 0 +.00275 .00158771324027147 .01 -.5 -.866025403784439 0 .866025403
784439 -.5 0 31 7 281 0 19 20 0 0 +0 0 95e-5 0 0 -1 -1 0 0 .001747415074672775 2
9 8 287 0 11 21 0 .00275 .00158771324027147 95e-5 19 9 40 0 1 17 0 22 V16 10 109
 0 ?23 0 24 20 0 0 1 18 11 285 0 25 0 26 8 ?1 17 25 0 27 28 29 11 30 31 0 32 +18
 26 37 0 33 11 34 21 ?1 17 33 0 35 36 37 26 38 39 0 40 +18 34 34 0 37 26 41 42 ?
1 29 21 39 0 26 42 8 .00275 .00158771324027147 .01 29 42 36 0 34 43 21 .00275 -.
00158771324027147 .01 29 43 33 0 41 44 42 -732822335870967e-33 -.003175426480542
94 .01 18 41 31 0 45 34 46 43 ?1 29 44 30 0 46 47 43 -.00275 -.00158771324027147
 .01 18 46 28 0 48 41 49 44 ?1 29 47 27 0 49 50 44 -.00275 .00158771324027147 .0
1 18 49 25 0 51 46 52 47 ?1 29 50 24 0 52 53 47 -86207630393409e-32 .00317542648
0542945 .01 18 52 22 0 54 49 55 50 ?1 29 53 413 0 55 56 50 -86207630393409e-32 .
003175426480542945 95e-5 18 55 354 0 29 52 57 53 ?1 29 56 414 0 57 58 53 -.00275
 .00158771324027147 95e-5 18 57 355 0 59 55 60 56 ?1 29 58 415 0 60 61 56 -.0027
5 -.00158771324027147 95e-5 18 60 356 0 62 57 63 58 ?1 29 61 416 0 63 64 58 -732
822335870967e-33 -.00317542648054294 95e-5 18 63 357 0 65 60 66 61 ?1 29 64 417
 0 66 0 61 .00275 -.00158771324027147 95e-5 18 66 358 0 28 63 0 64 ?1 17 28 0 27
 65 25 66 32 67 0 68 +15 27 369 0 25 69 0 17 65 0 27 62 28 63 68 70 0 71 +17 32
 0 72 40 73 11 28 67 0 74 -16 67 347 0 ?28 70 19 75 0 0 1 17 68 0 76 77 78 66 65
 70 0 73 -15 76 300 0 68 79 0 17 77 0 76 80 68 34 73 81 0 38 -17 78 0 76 68 80 6
3 82 83 0 0 +16 70 348 0 ?65 84 67 85 0 0 1 17 73 0 72 32 38 66 77 81 0 0 +15 72
 292 0 32 86 0 17 38 0 72 73 40 34 33 39 0 0 -16 81 105 0 ?73 83 87 88 0 0 1 16
 83 106 0 ?78 89 81 90 0 0 1 16 87 104 0 ?74 81 39 91 0 0 1 30 88 129 0 81 91 90
 0 +.00275 -.00158771324027147 .01 0 0 -1 30 91 128 0 87 92 88 0 +.00275 .001587
71324027147 .01 0 0 -1 30 90 130 0 83 88 93 0 +-732822335870967e-33 -.0031754264
8054294 .01 0 0 -1 30 93 131 0 89 90 94 0 +-.00275 -.00158771324027147 .01 0 0 -
1 16 89 107 0 ?95 24 83 93 0 0 1 30 94 132 0 24 93 20 0 +-.00275 .00158771324027
147 .01 0 0 -1 16 24 108 0 ?96 10 89 94 0 0 1 30 20 133 0 10 94 7 0 +-8620763039
3409e-32 .003175426480542945 .01 0 0 -1 17 96 0 97 98 99 57 100 24 0 0 +15 97 31
6 0 98 101 0 17 98 0 97 102 96 60 59 103 0 95 -17 99 0 97 96 102 49 48 104 0 0 -
17 100 0 105 54 106 49 96 24 0 99 -15 105 324 0 106 107 0 17 54 0 105 23 100 52
 51 108 0 36 -17 106 0 105 100 23 57 29 109 0 96 -17 23 0 105 106 54 55 110 10 0
 0 +17 29 0 27 25 59 55 106 109 0 30 +16 109 345 0 ?29 31 103 111 0 0 1 16 31 34
6 0 ?25 112 109 113 0 0 1 16 103 350 0 ?59 109 84 114 0 0 1 30 111 399 0 109 114
 113 0 +-86207630393409e-32 .003175426480542945 95e-5 .866025403784439 .5 0 30 1
14 400 0 103 115 111 0 +-.00275 .00158771324027147 95e-5 -1365740544306508e-31 1
 0 30 113 398 0 31 111 116 0 +.00275 .00158771324027147 95e-5 .866025403784439 -
.5 0 31 116 187 0 112 113 117 0 +0 0 .01 0 0 1 1 0 0 .001747415074672775 16 112
 167 0 ?118 119 31 116 0 0 1 30 117 5 0 119 116 120 0 +.00275 .00158771324027147
 .01 -.866025403784439 .5 0 16 119 4 0 ?36 108 112 117 0 0 1 30 120 8 0 108 117
 121 0 +-86207630393409e-32 .003175426480542945 .01 -.866025403784439 -.5 0 16 1
08 7 0 ?51 104 119 120 0 0 1 30 121 11 0 104 120 122 0 +-.00275 .001587713240271
47 .01 1365740544306508e-31 -1 0 16 104 10 0 ?48 123 108 121 0 0 1 30 122 14 0 1
23 121 124 0 +-.00275 -.00158771324027147 .01 .866025403784439 -.5 0 16 123 13 0
 ?45 125 104 122 0 0 1 30 124 17 0 125 122 92 0 +-732822335870967e-33 -.00317542
648054294 .01 .866025403784439 .5 0 16 125 16 0 ?37 39 123 124 0 0 1 30 92 20 0
 39 124 91 0 +.00275 -.00158771324027147 .01 -1365740544306508e-31 1 0 16 39 19
 0 ?33 87 125 92 0 0 1 17 37 0 35 33 45 34 80 125 0 77 +15 35 3 0 36 126 127 17
 45 0 35 37 48 41 128 123 0 82 +17 80 0 76 78 77 41 37 125 0 0 -17 48 0 35 45 51
 46 99 104 0 102 +17 128 0 129 95 82 46 45 123 0 0 -17 82 0 129 128 71 41 78 83
 0 80 -15 129 308 0 71 130 0 17 71 0 129 82 95 63 62 84 0 78 -17 95 0 129 71 128
 60 102 89 0 0 +17 62 0 27 59 65 60 71 84 0 98 +16 84 349 0 ?62 103 70 115 0 0 1
 30 115 401 0 84 85 114 0 +-.00275 -.00158771324027147 95e-5 -.866025403784439 .
5 0 30 85 402 0 70 75 115 0 +-732822335870967e-33 -.00317542648054294 95e-5 -.86
6025403784439 -.5 0 30 75 403 0 67 0 85 0 +.00275 -.00158771324027147 95e-5 1365
740544306508e-31 -1 0 17 59 0 27 29 62 57 98 103 0 106 +17 102 0 97 99 98 46 95
 89 0 128 -14 130 309 131 ?79 101 129 5 132 -0 0 79 101 22 81 1 131 517 133 130
 134 0 0 135 136 14 79 301 135 ?86 130 76 5 137 -0 0 86 130 22 14 101 317 138 ?1
30 107 97 5 139 -0 0 130 107 22 50 132 124 0 130 137 139 0 +-.00275 -.0015877132
4027147 .01 .5 .866025403784439 0 -.866025403784439 .5 0 13 22 41 0 0 0 0 0 0 9
 16 14 16 330 140 ?107 0 141 5 6 -0 0 107 0 22 81 1 140 520 133 16 142 0 138 143
 144 14 107 325 143 ?101 16 105 5 18 -0 0 101 16 22 15 141 329 0 30 16 0 17 30 0
 141 110 74 55 25 31 0 23 -17 110 0 141 145 30 52 23 10 0 0 -17 74 0 141 30 145
 11 40 87 0 0 +17 145 0 141 74 110 26 36 119 0 0 -17 40 0 72 38 32 26 74 87 0 14
5 -17 36 0 35 51 33 52 145 119 0 110 +17 51 0 35 48 36 49 54 108 0 100 +81 1 143
 521 133 107 146 0 140 147 148 50 18 126 0 107 139 6 0 +-86207630393409e-32 .003
175426480542945 .01 .5 -.866025403784439 0 .866025403784439 .5 0 50 139 125 0 10
1 132 18 0 +-.00275 .00158771324027147 .01 1 1365740544306508e-31 0 -13657405443
06508e-31 1 0 80 1 133 149 150 9000 1 1 1 1 1 1 1 1 0 FFFFTFTFFFFFFF1 81 1 146 4
88 151 107 0 143 142 152 153 81 1 147 522 133 86 154 0 143 155 156 82 1 148 -935
133063 14 86 293 147 ?157 79 72 5 158 -0 0 157 79 22 81 1 154 492 151 86 0 147 1
59 160 161 81 1 155 523 133 157 160 0 147 162 163 82 1 156 -938278791 14 157 282
 155 ?126 86 164 5 165 +0 0 126 86 22 81 1 160 493 151 157 0 155 154 166 167 81
 1 162 524 133 69 168 0 155 169 170 82 1 163 -945618823 14 69 366 162 ?0 126 171
 5 172 +0 0 0 126 22 81 1 168 495 151 69 0 162 166 0 173 81 1 169 525 133 126 16
6 0 162 0 174 82 1 170 -939327367 14 126 161 169 ?69 157 35 5 175 +0 0 69 157 22
 81 1 166 494 151 126 0 169 160 168 176 82 1 174 -751632267 80 1 151 0 177 8001
 0 0 0 0 3 5 0 0 0 FFFFTFTFFFFFFF2 83 3 176 .827450980392157 .666666666666667 .1
294117647058822 79 15 177 SDL/TYSA_COLOUR50 175 2 0 126 165 158 0 +-866040379474
825e-33 .003175426480542945 .01 0 0 1 1 0 0 51 165 183 0 157 172 175 0 -0 0 .01
 0 0 -1 .001747415074672775 -1 0 0 50 158 122 0 86 175 137 0 +.00275 -.001587713
24027147 .01 -1 -1365740544306508e-31 0 1365740544306508e-31 -1 0 50 137 123 0 7
9 158 132 0 +-732822335870967e-33 -.00317542648054294 .01 -.5 .866025403784439 0
 -.866025403784439 -.5 0 50 172 397 0 69 0 165 0 +0 0 95e-5 0 0 -1 -1 0 0 83 3 1
73 .827450980392157 .666666666666667 .1294117647058822 15 171 368 0 178 69 27 17
 178 0 171 178 178 0 179 19 0 0 -17 179 0 180 179 179 0 178 19 0 0 +16 19 334 0
 ?179 67 0 7 0 0 1 15 180 279 0 179 157 0 83 3 167 .827450980392157 .66666666666
6667 .1294117647058822 15 164 173 0 118 157 180 17 118 0 164 118 118 0 181 112 0
 0 +17 181 0 127 181 181 0 118 112 0 0 -15 127 158 0 181 126 0 81 1 159 491 151
 79 0 135 134 154 182 83 3 161 .827450980392157 .666666666666667 .12941176470588
22 81 1 135 518 133 79 159 0 131 138 183 81 1 134 490 151 130 0 131 152 159 184
 83 3 182 .827450980392157 .666666666666667 .1294117647058822 81 1 152 489 151 1
01 0 138 146 134 185 83 3 184 .827450980392157 .666666666666667 .129411764705882
2 81 1 138 519 133 101 152 0 135 140 186 83 3 185 .827450980392157 .666666666666
667 .1294117647058822 82 1 186 -935919495 82 1 183 -937492359 81 1 142 487 151 1
6 0 140 0 146 187 83 3 153 .827450980392157 .666666666666667 .1294117647058822 8
3 3 187 .827450980392157 .666666666666667 .1294117647058822 79 14 150 SWEntUncha
nged82 1 144 -934674311 82 1 136 -936705927 19 17 135 0 1 0 9 5 S74 20 15 10 0 0
 188 189 169 190 191 192 193 168 13 2 0 0 0 0 0 0 0 0 0 0 81 2 188 150 194 1 0 1
89 0 0 0 195 81 2 189 211 196 1 188 190 0 0 0 197 81 2 190 233 198 1 189 191 0 0
 0 199 81 1 191 441 200 1 190 192 0 0 201 81 2 192 483 202 1 191 193 0 0 203 0 8
1 2 193 484 204 1 192 13 0 0 0 0 81 2 13 515 205 1 193 2 0 0 206 0 80 2 205 207
 208 8004 0 0 0 0 3 5 0 0 0 FFTFFFFFFFFFFF2 3 83 1 206 85e2 79 16 208 SDL/TYSA_D
ENSITY80 2 204 209 210 9000 0 0 0 0 3 5 0 0 0 FFTFFFFFFFFFFF9 1 79 16 210 BODY_R
ECIPE_200180 2 202 211 212 9000 0 0 0 0 3 5 0 0 0 FFTFTTTFFTFFFF3 3 84 11 203 ??
? - ????179 21 212 SWIMPLICITBODYNAME_ID80 1 200 213 214 9000 1 1 1 1 1 1 1 1 0
 FFTFFFFFFFFFFF1 82 1 201 244077 79 10 214 BODY_MATCH80 2 198 215 216 9000 0 0 0
 0 3 5 0 0 0 FFTFFFFFFFFFFF9 1 82 1 199 1 79 24 216 BODY_IN_LIGHTWEIGHT_PERM80 2
 196 217 218 9000 0 0 0 0 3 5 0 0 0 FFTFFFFFFFFFFF9 1 82 1 197 73 79 30 218 LAST
_BODY_MODIFYING_FEATURE_ID80 2 194 219 220 9000 0 0 0 0 3 5 0 0 0 FFTFFFFFFFFFFT
9 1 82 1 195 137 79 19 220 ENT_TIME_STAMP_200180 2 12 221 222 9000 0 0 0 0 3 5 0
 0 0 FFTFFFFFFFFFFF9 1 82 1 14 102 79 12 222 ATOM_ID_20011 0 
