**ABCDEFGHIJKLMNOPQRSTUVWXYZabcdefghijklmnopqrstuvwxyz**************************
**PARASOLID !"#$%&'()*+,-./:;<=>?@[\]^_`{|}~0123456789**************************
**PART1;
MC=AMD64;
MC_MODEL=Intel64 Family 6 Model 158 Stepping 9, GenuineIntel;
MC_ID=unknown;
OS=Windows_NT;
OS_RELEASE=unknown;
FRU=Parasolid Version 34.1, build 225,  5-24-2022;
APPL=SOLIDWORKS 2023-2022300;
SITE=;
USER=unknown;
FORMAT=text;
GUISE=transmit;
KEY=motor_sp6;
FILE=motor_sp6.x_t;
DATE=Wed Feb 14 12:00:59 2024;
**PART2;
SCH=SCH_3401225_34101;
USFLD_SIZE=0;
**PART3;
**END_OF_HEADER*****************************************************************
T51 : TRANSMIT FILE created by modeller version 340122517 SCH_2100000_200000 12
 1 1131 2 3 0 0 0 0 1e3 1e-8 0 4 0 1 0 1 1 5 6 7 8 9 10 11 0 0 0 0 81 2 2 1105 1
2 1 13 0 0 0 0 14 70 3 0 4 T1 0 0 9 20 1 15 15 13 5 267 0 1 0 16 0 0 17 0 51 6 9
26 0 18 19 0 0 +-.009 .0233238075793812 .001 0 0 -1 .004 -1 0 0 31 7 787 0 10 20
 0 0 +-.009 .0233238075793812 .001 0 0 -1 -1 0 0 .004 29 8 722 0 11 21 0 -.005 .
0233238075793812 .001 19 9 89 0 1 17 0 22 V16 10 772 0 ?23 0 24 7 0 0 1 18 11 72
0 0 25 0 26 8 ?1 17 25 0 27 28 29 11 30 31 0 32 +18 26 717 0 33 11 34 21 ?1 17 3
3 0 35 36 37 26 38 24 0 29 +18 34 704 0 39 26 40 41 ?1 29 21 719 0 26 41 8 -.005
 .0233238075793812 0 29 41 706 0 34 42 21 -.0207471682964483 -.00324884713072979
 .001 29 42 703 0 40 43 41 -.00756 .0195919983666802 .001 18 40 701 0 23 34 44 4
2 ?1 29 43 700 0 44 45 42 -.0207471682964483 -.00324884713072979 0 18 44 698 0 4
6 40 47 43 ?1 29 45 697 0 47 48 43 -.00756 .0195919983666802 0 18 47 695 0 38 44
 49 45 ?1 29 48 689 0 49 50 45 -.0226990098767241 -.00733177677076843 .001 18 49
 687 0 51 47 52 48 ?1 29 50 686 0 52 53 48 -.0226990098767241 -.0073317767707684
3 0 18 52 684 0 54 49 55 50 ?1 29 53 678 0 55 56 50 -.0176990098767242 -.0159920
3080861285 .001 18 55 676 0 57 52 58 53 ?1 29 56 675 0 58 59 53 -.01769900987672
42 -.01599203080861285 0 18 58 673 0 60 55 61 56 ?1 29 59 662 0 61 62 56 .013187
16829644826 -.0163431512359505 .001 18 61 660 0 63 58 64 59 ?1 29 62 659 0 64 65
 59 -.01318716829644826 -.0163431512359505 .001 18 64 657 0 66 61 67 62 ?1 29 65
 656 0 67 68 62 .01318716829644826 -.0163431512359505 0 18 67 654 0 69 64 70 65
 ?1 29 68 653 0 70 71 65 -.01318716829644826 -.0163431512359505 0 18 70 651 0 72
 67 73 68 ?1 29 71 645 0 73 74 68 .0176990098767242 -.01599203080861285 .001 18
 73 643 0 75 70 76 71 ?1 29 74 642 0 76 77 71 .0176990098767242 -.01599203080861
285 0 18 76 640 0 78 73 79 74 ?1 29 77 634 0 79 80 74 .0226990098767241 -.007331
77677076843 .001 18 79 632 0 81 76 82 77 ?1 29 80 631 0 82 83 77 .02269900987672
41 -.00733177677076843 0 18 82 629 0 84 79 85 80 ?1 29 83 618 0 85 86 80 .00756
 .0195919983666802 .001 18 85 616 0 87 82 88 83 ?1 29 86 615 0 88 89 83 .0207471
682964483 -.00324884713072979 .001 18 88 613 0 90 85 91 86 ?1 29 89 612 0 91 92
 86 .00756 .0195919983666802 0 18 91 610 0 93 88 94 89 ?1 29 92 609 0 94 95 89 .
0207471682964483 -.00324884713072979 0 18 94 607 0 96 91 97 92 ?1 29 95 601 0 97
 98 92 .005 .0233238075793812 .001 18 97 599 0 99 94 100 95 ?1 29 98 598 0 100 1
01 95 .005 .0233238075793812 0 18 100 596 0 102 97 103 98 ?1 29 101 195 0 104 10
5 98 .005 .03 0 18 104 170 0 106 107 108 101 ?1 29 105 198 0 108 109 101 .028480
7621135331 -.01066987298107794 0 18 108 173 0 110 104 111 105 ?1 29 109 199 0 11
1 112 105 .02348076211353305 -.0193301270189223 0 18 111 174 0 113 108 114 109 ?
1 29 112 202 0 114 115 109 -.02348076211353305 -.0193301270189223 0 18 114 177 0
 116 111 117 112 ?1 29 115 203 0 117 118 112 -.0284807621135331 -.01066987298107
794 0 18 117 178 0 119 114 120 115 ?1 29 118 206 0 120 121 115 -.005 .03 0 18 12
0 181 0 36 117 0 118 ?1 29 121 88 0 103 122 118 .005 .03 .001 18 103 86 0 123 10
0 124 121 ?1 29 122 79 0 124 125 121 .0284807621135331 -.01066987298107794 .001
 18 124 77 0 126 103 127 122 ?1 29 125 76 0 127 128 122 .02348076211353305 -.019
3301270189223 .001 18 127 74 0 129 124 130 125 ?1 29 128 67 0 130 131 125 -.0234
8076211353305 -.0193301270189223 .001 18 130 65 0 132 127 133 128 ?1 29 131 64 0
 133 134 128 -.0284807621135331 -.01066987298107794 .001 18 133 62 0 135 130 107
 131 ?1 29 134 55 0 107 0 131 -.005 .03 .001 18 107 53 0 28 133 104 134 ?1 17 28
 0 27 136 25 107 32 137 0 138 -15 27 239 0 29 139 0 17 136 0 27 29 28 120 140 14
1 0 142 +17 32 0 143 23 138 11 28 137 0 144 +16 137 9 0 ?32 145 146 147 0 0 1 17
 138 0 143 32 123 107 148 146 0 140 +15 143 4 0 138 16 149 17 123 0 143 138 99 1
03 150 151 0 152 +17 148 0 153 154 140 103 138 146 0 0 -16 146 5 0 ?138 137 155
 156 0 0 1 17 140 0 153 148 142 107 136 141 0 0 -15 153 241 0 142 157 0 17 142 0
 153 140 154 120 158 159 0 0 +16 141 218 0 ?136 160 161 162 0 0 1 16 160 602 0 ?
163 164 141 165 0 0 1 16 161 215 0 ?166 141 167 168 0 0 1 30 162 266 0 141 168 1
65 0 +-.005 .03 .001 0 0 -1 30 168 263 0 161 169 162 0 +-.0284807621135331 -.010
66987298107794 .001 0 0 -1 30 165 604 0 160 162 170 0 -.005 .0233238075793812 0
 0 0 1 30 170 621 0 164 165 171 0 +.0207471682964483 -.00324884713072979 .001 0
 0 -1 16 164 619 0 ?172 173 160 170 0 0 1 30 171 626 0 173 170 174 0 -.00756 .01
95919983666802 .001 0 0 -1 16 173 624 0 ?87 175 164 171 0 0 1 30 174 637 0 175 1
71 176 0 +.0226990098767241 -.00733177677076843 .001 0 0 1 16 175 635 0 ?81 177
 173 174 0 0 1 30 176 648 0 177 174 178 0 -.0176990098767242 -.01599203080861285
 0 0 0 1 16 177 646 0 ?179 180 175 176 0 0 1 30 178 665 0 180 176 181 0 +-.01318
716829644826 -.0163431512359505 .001 0 0 -1 16 180 663 0 ?182 183 177 178 0 0 1
 30 181 670 0 183 178 184 0 -.01318716829644826 -.0163431512359505 .001 0 0 -1 1
6 183 668 0 ?63 185 180 181 0 0 1 30 184 681 0 185 181 186 0 +-.0176990098767242
 -.01599203080861285 .001 0 0 1 16 185 679 0 ?57 187 183 184 0 0 1 30 186 692 0
 187 184 188 0 --.0226990098767241 -.00733177677076843 0 0 0 1 16 187 690 0 ?189
 190 185 186 0 0 1 30 188 709 0 190 186 191 0 +-.00756 .0195919983666802 .001 0
 0 -1 16 190 707 0 ?192 193 187 188 0 0 1 30 191 714 0 193 188 194 0 --.02074716
82964483 -.00324884713072979 .001 0 0 -1 16 193 712 0 ?39 31 190 191 0 0 1 30 19
4 725 0 31 191 195 0 +-.005 .0233238075793812 .001 0 0 1 16 31 723 0 ?25 196 193
 194 0 0 1 31 195 776 0 196 194 197 0 -.009 .0233238075793812 0 0 0 -1 -1 0 0 .0
04 16 196 728 0 ?93 198 31 195 0 0 1 31 197 777 0 198 195 199 0 +.009 .023323807
5793812 .001 0 0 -1 -1 0 0 .004 16 198 732 0 ?99 200 196 197 0 0 1 31 199 778 0
 200 197 201 0 -.02469900987672415 -.0038676751556307 0 0 0 -1 -1 0 0 .004 16 20
0 736 0 ?84 202 198 199 0 0 1 31 201 779 0 202 199 203 0 +.02469900987672415 -.0
038676751556307 .001 0 0 -1 -1 0 0 .004 16 202 740 0 ?90 204 200 201 0 0 1 31 20
3 780 0 204 201 205 0 -.0156990098767241 -.0194561324237506 0 0 0 -1 -1 0 0 .004
 16 204 744 0 ?69 206 202 203 0 0 1 31 205 781 0 206 203 207 0 +.015699009876724
1 -.0194561324237506 .001 0 0 -1 -1 0 0 .004 16 206 748 0 ?75 208 204 205 0 0 1
 31 207 782 0 208 205 209 0 --.0156990098767241 -.0194561324237506 0 0 0 -1 -1 0
 0 .004 16 208 752 0 ?60 210 206 207 0 0 1 31 209 783 0 210 207 211 0 +-.0156990
098767241 -.0194561324237506 .001 0 0 -1 -1 0 0 .004 16 210 756 0 ?66 212 208 20
9 0 0 1 31 211 784 0 212 209 213 0 --.02469900987672415 -.003867675155630705 0 0
 0 -1 -1 0 0 .004 16 212 760 0 ?46 214 210 211 0 0 1 31 213 785 0 214 211 20 0 +
-.02469900987672415 -.003867675155630705 .001 0 0 -1 -1 0 0 .004 16 214 764 0 ?5
1 24 212 213 0 0 1 31 20 786 0 24 213 7 0 --.009 .0233238075793812 0 0 0 -1 -1 0
 0 .004 16 24 768 0 ?33 10 214 20 0 0 1 17 51 0 143 135 215 49 216 214 0 217 +17
 135 0 143 132 51 133 217 218 0 219 +17 215 0 143 51 23 34 220 145 0 216 +17 216
 0 221 222 223 34 51 214 0 0 -17 217 0 224 189 219 49 135 218 0 223 -15 224 235
 0 217 225 0 17 189 0 224 119 217 52 223 187 0 226 +17 219 0 224 217 119 133 166
 161 0 227 -16 218 688 0 ?135 228 145 229 0 0 1 17 223 0 221 216 54 49 189 187 0
 0 -15 221 894 0 216 230 0 17 54 0 221 223 222 52 46 212 0 189 -17 222 0 221 54
 216 44 39 193 0 0 -17 46 0 35 37 226 44 54 212 0 231 +15 35 121 0 158 232 233 1
7 37 0 35 33 46 47 231 234 0 0 -17 226 0 35 46 235 52 119 236 0 0 -17 231 0 237
 39 192 44 37 234 0 222 +15 237 237 0 231 238 0 17 39 0 237 220 231 34 222 193 0
 215 +17 192 0 237 231 220 47 239 190 0 37 +16 234 696 0 ?231 236 240 241 0 0 1
 16 236 685 0 ?119 242 234 243 0 0 1 16 240 162 0 ?29 234 159 244 0 0 1 31 241 1
92 0 234 244 243 0 +0 0 0 0 0 1 1 0 0 .021 30 244 193 0 240 245 241 0 +-.005 .02
039607805437115 0 0 -1 0 30 243 191 0 236 241 246 0 +-.0201635217326557 -.005867
91200826338 0 -.866025403784431 -.500000000000013 0 31 246 190 0 242 243 247 0 +
-.0259807621135331 -.015 0 0 0 1 -1 0 0 .005 16 242 150 0 ?116 248 236 246 0 0 1
 30 247 189 0 248 246 249 0 +-.0151635217326557 -.01452816604610776 0 .866025403
784431 .500000000000013 0 16 248 146 0 ?250 251 242 247 0 0 1 31 249 188 0 251 2
47 252 0 +0 0 0 0 0 1 1 0 0 .021 16 251 652 0 ?253 254 248 249 0 0 1 30 252 187
 0 254 249 255 0 +.0151635217326557 -.01452816604610776 0 .866025403784432 -.500
000000000012 0 16 254 641 0 ?113 256 251 252 0 0 1 31 255 186 0 256 252 257 0 +.
0259807621135331 -.015 0 0 0 1 -1 0 0 .005 16 256 134 0 ?110 258 254 255 0 0 1 3
0 257 185 0 258 255 259 0 +.0201635217326557 -.00586791200826338 0 -.86602540378
4432 .500000000000012 0 16 258 130 0 ?260 261 256 257 0 0 1 31 259 184 0 261 257
 262 0 +0 0 0 0 0 1 1 0 0 .021 16 261 608 0 ?263 155 258 259 0 0 1 30 262 183 0
 155 259 264 0 +.005 .02039607805437115 0 0 1 0 16 155 597 0 ?106 146 261 262 0
 0 1 30 264 255 0 265 262 266 0 +.005 .03 .001 0 0 -1 16 265 207 0 ?154 267 151
 264 0 0 1 30 266 258 0 267 264 268 0 +.0284807621135331 -.01066987298107794 .00
1 0 0 -1 16 267 210 0 ?269 270 265 266 0 0 1 30 268 259 0 270 266 169 0 +.023480
76211353305 -.0193301270189223 .001 0 0 -1 16 270 211 0 ?271 167 267 268 0 0 1 3
0 169 262 0 167 268 168 0 +-.02348076211353305 -.0193301270189223 .001 0 0 -1 16
 167 214 0 ?272 161 270 169 0 0 1 17 272 0 273 250 274 114 275 167 0 276 +15 273
 231 0 250 277 0 17 250 0 273 57 272 58 276 248 0 278 +17 274 0 273 272 57 130 2
79 280 0 0 -17 275 0 281 227 116 130 272 167 0 274 -17 276 0 35 235 60 114 250 2
48 0 0 -17 235 0 35 226 276 117 116 242 0 0 -17 60 0 35 276 282 58 72 208 0 250
 +17 282 0 35 60 69 70 253 251 0 0 -17 72 0 283 284 278 70 60 208 0 182 -15 283
 873 0 285 286 0 17 284 0 283 285 72 64 182 180 0 0 -17 278 0 283 72 285 58 57 1
85 0 0 -17 182 0 287 253 288 70 284 180 0 282 +15 287 229 0 253 289 0 17 253 0 2
87 63 182 67 282 251 0 290 +17 288 0 287 182 63 64 291 292 0 284 -17 63 0 287 28
8 253 61 290 183 0 291 +17 291 0 143 75 66 61 288 292 0 293 +16 292 658 0 ?291 2
94 280 295 0 0 1 16 294 644 0 ?129 296 292 297 0 0 1 16 280 25 0 ?279 292 228 29
8 0 0 1 31 295 31 0 292 298 297 0 +0 0 .001 0 0 1 1 0 0 .021 30 298 27 0 280 299
 295 0 +-.0151635217326557 -.01452816604610776 .001 .866025403784431 .5000000000
00013 0 30 297 35 0 294 295 300 0 +.0151635217326557 -.01452816604610776 .001 .8
66025403784432 -.500000000000012 0 31 300 39 0 296 297 301 0 +.0259807621135331
 -.015 .001 0 0 1 -1 0 0 .005 16 296 37 0 ?126 302 294 300 0 0 1 30 301 43 0 302
 300 303 0 +.0201635217326557 -.00586791200826338 .001 -.866025403784432 .500000
000000012 0 16 302 41 0 ?304 305 296 301 0 0 1 31 303 47 0 305 301 306 0 +0 0 .0
01 0 0 1 1 0 0 .021 16 305 614 0 ?307 151 302 303 0 0 1 30 306 51 0 151 303 245
 0 +.005 .02039607805437115 .001 0 1 0 16 151 600 0 ?123 265 305 306 0 0 1 31 24
5 194 0 159 306 244 0 +1022467227442224e-34 .03 0 0 0 1 -1 0 0 .005 16 159 166 0
 ?142 240 308 245 0 0 1 16 308 312 0 ?309 159 310 311 0 0 1 17 309 0 312 309 309
 0 313 308 0 0 +16 310 309 0 ?314 308 315 316 0 0 1 31 311 332 0 308 317 316 0 +
0 .03 .001 0 0 1 1 0 0 .0015 31 317 369 0 318 319 311 0 +.0259807621135331 -.015
 0 0 0 1 1 0 0 .0015 31 316 331 0 310 311 156 0 +0 .03 0 0 0 1 1 0 0 .0015 31 15
6 7 0 146 316 147 0 +1022467227442224e-34 .03 .001 0 0 1 -1 0 0 .005 30 147 11 0
 137 156 320 0 +-.005 .02039607805437115 .001 0 -1 0 31 320 15 0 145 147 229 0 +
0 0 .001 0 0 1 1 0 0 .021 16 145 702 0 ?215 218 137 320 0 0 1 30 229 19 0 218 32
0 299 0 +-.0201635217326557 -.00586791200826338 .001 -.866025403784431 -.5000000
00000013 0 31 299 23 0 228 229 298 0 +-.0259807621135331 -.015 .001 0 0 1 -1 0 0
 .005 16 228 21 0 ?132 280 218 299 0 0 1 17 132 0 143 279 135 130 227 228 0 275
 +17 279 0 143 66 132 55 274 280 0 285 +17 227 0 281 166 275 133 132 228 0 0 -15
 281 233 0 116 321 0 17 166 0 281 116 227 117 219 161 0 235 +17 116 0 281 275 16
6 114 235 242 0 272 +14 321 234 322 ?277 225 281 5 323 -0 0 277 225 22 81 1 322
 1106 324 321 325 0 0 326 327 14 277 232 326 ?289 321 273 5 328 -0 0 289 321 22
 14 225 236 329 ?321 238 224 5 330 -0 0 321 238 22 51 323 250 0 321 328 330 0 --
.0259807621135331 -.015 .001 0 0 -1 .005 -1 0 0 13 22 90 0 0 0 0 0 0 9 16 14 16
 496 331 ?232 0 143 5 332 -0 0 232 0 22 81 1 331 1109 324 16 333 0 329 334 335 1
4 232 490 334 ?157 16 336 5 337 +0 0 157 16 22 50 332 3 0 16 338 337 0 +10224672
27442224e-34 .03 .001 0 0 -1 -1 0 0 51 338 328 0 339 340 332 0 -0 .03 .001 0 0 -
1 .0015 -1 0 0 50 337 182 0 232 332 341 0 +1022467227442224e-34 .03 0 0 0 -1 -1
 0 0 50 341 243 0 342 337 343 0 +.005 .02039607805437115 .001 -1 0 0 0 0 1 14 34
2 220 344 ?339 345 346 5 341 -0 0 339 345 22 51 343 244 0 345 341 347 0 -0 0 .00
1 0 0 -1 .021 -1 0 0 14 345 222 348 ?342 349 350 5 343 -0 0 342 349 22 50 347 24
5 0 349 343 351 0 +.0201635217326557 -.00586791200826338 .001 -.500000000000012
 -.866025403784432 0 .866025403784432 -.500000000000012 0 14 349 224 352 ?345 35
3 354 5 347 -0 0 345 353 22 51 351 246 0 353 347 355 0 -.0259807621135331 -.015
 .001 0 0 -1 .005 -1 0 0 14 353 226 356 ?349 357 358 5 351 -0 0 349 357 22 50 35
5 247 0 357 351 359 0 +.0151635217326557 -.01452816604610776 .001 .5000000000000
12 .866025403784432 0 -.866025403784432 .500000000000012 0 14 357 228 360 ?353 2
89 361 5 355 -0 0 353 289 22 51 359 248 0 289 355 328 0 -0 0 .001 0 0 -1 .021 -1
 0 0 14 289 230 362 ?357 277 287 5 359 -0 0 357 277 22 50 328 249 0 277 359 323
 0 +-.0151635217326557 -.01452816604610776 .001 -.500000000000013 .8660254037844
31 0 -.866025403784431 -.500000000000013 0 81 1 362 1116 324 289 363 0 360 364 3
65 80 1 324 366 367 9000 1 1 1 1 1 1 1 1 0 FFFFTFTFFFFFFF1 81 1 363 1034 368 289
 0 362 369 370 371 81 1 360 1115 324 357 370 0 356 362 372 81 1 364 1117 324 339
 373 0 362 374 375 82 1 365 1121845360 14 339 315 364 ?376 342 312 5 338 +0 0 37
6 342 22 81 1 373 1040 368 339 0 364 377 378 379 81 1 374 1118 324 376 378 0 364
 380 381 82 1 375 1087504495 14 376 353 374 ?382 339 383 5 340 +0 0 382 339 22 8
1 1 378 1041 368 376 0 374 373 384 385 81 1 380 1119 324 382 384 0 374 386 387 8
2 1 381 1091633263 14 382 391 380 ?388 376 389 5 390 +0 0 388 376 22 81 1 384 10
42 368 382 0 380 378 391 392 81 1 386 1120 324 388 391 0 380 393 394 82 1 387 10
95696495 14 388 429 386 ?395 382 396 5 397 +0 0 395 382 22 81 1 391 1043 368 388
 0 386 384 398 399 81 1 393 1121 324 395 398 0 386 400 401 82 1 394 1130299503 1
4 395 467 393 ?402 388 403 5 404 +0 0 402 388 22 81 1 398 1044 368 395 0 393 391
 405 406 81 1 400 1122 324 402 405 0 393 407 408 82 1 401 1134362735 14 402 505
 400 ?409 395 410 5 411 +0 0 409 395 22 81 1 405 1045 368 402 0 400 398 412 413
 81 1 407 1123 324 409 412 0 400 414 415 82 1 408 1138425967 14 409 809 407 ?416
 402 417 5 418 -0 0 416 402 22 81 1 412 1046 368 409 0 407 405 419 420 81 1 414
 1124 324 416 419 0 407 421 422 82 1 415 1155661936 14 416 830 414 ?423 409 424
 5 425 -0 0 423 409 22 81 1 419 1047 368 416 0 414 412 426 427 81 1 421 1125 324
 423 426 0 414 428 429 82 1 422 1157628016 14 423 851 421 ?286 416 430 5 431 -0
 0 286 416 22 81 1 426 1048 368 423 0 421 419 432 433 81 1 428 1126 324 286 432
 0 421 434 435 82 1 429 1159594096 14 286 872 428 ?230 423 283 5 436 -0 0 230 42
3 22 81 1 432 1049 368 286 0 428 426 437 438 81 1 434 1127 324 230 437 0 428 439
 440 82 1 435 1161560176 14 230 893 434 ?18 286 221 5 19 -0 0 18 286 22 81 1 437
 1050 368 230 0 434 432 441 442 81 1 439 1128 324 18 441 0 434 443 444 82 1 440
 1163526256 14 18 914 439 ?0 230 445 5 6 -0 0 0 230 22 81 1 441 1051 368 18 0 43
9 437 0 446 81 1 443 1129 324 238 447 0 439 448 449 82 1 444 1165492336 14 238 2
38 443 ?225 139 237 5 450 -0 0 225 139 22 81 1 447 1030 368 238 0 443 451 452 45
3 81 1 448 1130 324 139 451 0 443 454 455 82 1 449 1122893936 14 139 240 448 ?23
8 157 27 5 456 -0 0 238 157 22 81 1 451 1029 368 139 0 448 457 447 458 81 1 454
 1131 324 157 457 0 448 0 459 82 1 455 1123156080 14 157 242 454 ?139 232 153 5
 460 -0 0 139 232 22 81 1 457 1028 368 157 0 454 461 451 462 82 1 459 1123418223
 80 1 368 0 463 8001 0 0 0 0 3 5 0 0 0 FFFFTFTFFFFFFF2 81 1 461 1027 368 232 0 3
34 333 457 464 83 3 462 .792156862745098 .819607843137255 .933333333333333 81 1
 334 1110 324 232 461 0 331 344 465 81 1 333 1026 368 16 0 331 0 461 466 83 3 46
4 .792156862745098 .819607843137255 .933333333333333 83 3 466 .792156862745098 .
819607843137255 .933333333333333 81 1 344 1111 324 342 377 0 334 348 467 82 1 46
5 1146683504 81 1 377 1039 368 342 0 344 468 373 469 81 1 348 1112 324 345 468 0
 344 352 470 82 1 467 1120534640 81 1 468 1038 368 345 0 348 471 377 472 81 1 35
2 1113 324 349 471 0 348 356 473 82 1 470 1120796784 81 1 471 1037 368 349 0 352
 474 468 475 81 1 356 1114 324 353 474 0 352 360 476 82 1 473 1121058928 81 1 47
4 1036 368 353 0 356 370 471 477 82 1 476 1121321071 81 1 370 1035 368 357 0 360
 363 474 478 83 3 477 .792156862745098 .819607843137255 .933333333333333 83 3 47
8 .792156862745098 .819607843137255 .933333333333333 83 3 475 .792156862745098 .
819607843137255 .933333333333333 83 3 472 .792156862745098 .819607843137255 .933
333333333333 83 3 469 .792156862745098 .819607843137255 .933333333333333 79 15 4
63 SDL/TYSA_COLOUR51 460 254 0 157 456 418 0 -1022467227442224e-34 .03 .001 0 0
 -1 .005 -1 0 0 50 456 253 0 139 450 460 0 +-.005 .02039607805437115 .001 1 0 0
 0 0 -1 51 418 821 0 409 460 425 0 +.009 .0233238075793812 .001 0 0 -1 .004 -1 0
 0 51 425 842 0 416 418 431 0 +.02469900987672415 -.0038676751556307 .001 0 0 -1
 .004 -1 0 0 51 431 863 0 423 425 436 0 +.0156990098767241 -.0194561324237506 .0
01 0 0 -1 .004 -1 0 0 51 436 884 0 286 431 19 0 +-.0156990098767241 -.0194561324
237506 .001 0 0 -1 .004 -1 0 0 51 19 905 0 230 436 6 0 +-.02469900987672415 -.00
3867675155630705 .001 0 0 -1 .004 -1 0 0 51 450 252 0 238 330 456 0 -0 0 .001 0
 0 -1 .021 -1 0 0 50 330 251 0 225 323 450 0 +-.0201635217326557 -.0058679120082
6338 .001 .500000000000013 -.866025403784431 0 .866025403784431 .500000000000013
 0 83 3 458 .792156862745098 .819607843137255 .933333333333333 81 1 452 1031 368
 225 0 329 447 325 479 83 3 453 .792156862745098 .819607843137255 .9333333333333
33 81 1 329 1108 324 225 452 0 326 331 480 81 1 325 1032 368 321 0 322 452 369 4
81 83 3 479 .792156862745098 .819607843137255 .933333333333333 81 1 369 1033 368
 277 0 326 325 363 482 83 3 481 .792156862745098 .819607843137255 .9333333333333
33 81 1 326 1107 324 277 369 0 322 329 483 83 3 482 .792156862745098 .8196078431
37255 .933333333333333 82 1 483 1122107504 82 1 480 1122631792 83 3 446 .7921568
62745098 .819607843137255 .933333333333333 15 445 915 0 144 18 0 17 144 0 445 30
 239 11 23 10 0 0 -17 30 0 445 38 144 26 25 31 0 0 -17 239 0 445 144 38 40 192 1
90 0 0 -17 23 0 143 215 32 40 144 10 0 220 +17 220 0 237 192 39 40 215 145 0 239
 -17 38 0 445 239 30 47 33 24 0 192 -83 3 442 .792156862745098 .819607843137255
 .933333333333333 83 3 438 .792156862745098 .819607843137255 .933333333333333 83
 3 433 .792156862745098 .819607843137255 .933333333333333 15 430 852 0 293 423 0
 17 293 0 430 290 484 61 75 206 0 0 -17 290 0 430 78 293 67 63 183 0 0 -17 484 0
 430 293 78 73 179 177 0 0 -17 75 0 143 129 291 73 293 206 0 485 +17 129 0 143 1
26 75 127 485 294 0 486 +17 485 0 361 179 486 73 129 294 0 484 -15 361 227 0 485
 357 0 17 179 0 361 113 485 76 484 177 0 487 +17 486 0 361 485 113 127 271 270 0
 488 -17 113 0 361 486 179 111 487 254 0 271 +17 271 0 358 110 488 111 486 270 0
 489 +17 488 0 358 271 490 127 126 296 0 0 -15 358 225 0 110 353 0 17 490 0 358
 488 110 124 269 267 0 491 -17 126 0 143 304 129 124 488 296 0 490 +17 304 0 143
 90 126 79 491 302 0 492 +17 90 0 143 307 304 88 492 202 0 493 +17 491 0 354 269
 81 124 304 302 0 0 -17 492 0 424 494 495 79 90 202 0 0 -15 424 831 0 492 416 0
 17 494 0 424 96 492 82 81 175 0 0 -17 495 0 424 492 96 88 172 164 0 0 -17 96 0
 424 495 494 94 84 200 0 172 -17 172 0 350 263 493 94 495 164 0 496 +15 350 221
 0 263 345 0 17 263 0 350 87 172 91 496 261 0 497 +17 493 0 350 172 87 88 307 30
5 0 495 -17 496 0 35 84 93 94 263 261 0 0 -17 84 0 35 498 496 82 96 200 0 260 +1
7 93 0 35 496 499 91 102 196 0 263 +17 499 0 35 93 158 100 106 155 0 0 -17 102 0
 417 500 497 100 93 196 0 163 -15 417 810 0 501 409 0 17 500 0 417 501 102 97 16
3 160 0 0 -17 497 0 417 102 501 91 87 173 0 0 -17 163 0 346 106 150 100 500 160
 0 499 +15 346 219 0 150 342 0 17 106 0 346 152 163 104 499 155 0 154 +17 150 0
 346 163 152 97 123 151 0 500 -17 152 0 346 150 106 103 154 265 0 148 -17 154 0
 153 142 148 104 152 265 0 158 +17 158 0 35 499 36 104 142 159 0 0 -17 36 0 35 1
58 33 120 29 240 0 136 -17 29 0 27 25 136 26 36 240 0 30 +17 501 0 417 497 500 8
5 99 198 0 0 -17 87 0 350 493 263 85 497 173 0 307 +17 307 0 143 99 90 85 493 30
5 0 501 +17 99 0 143 123 307 97 501 198 0 150 +17 498 0 35 489 84 108 260 258 0
 0 -17 260 0 354 81 269 82 498 258 0 494 +15 354 223 0 260 349 0 17 81 0 354 491
 260 79 494 175 0 304 +17 269 0 354 260 491 108 490 267 0 498 +17 489 0 35 487 4
98 111 110 256 0 0 -17 487 0 35 69 489 76 113 254 0 0 -17 110 0 358 490 271 108
 489 256 0 269 +17 69 0 35 282 487 67 78 204 0 253 +17 78 0 430 484 290 76 69 20
4 0 179 -83 3 427 .792156862745098 .819607843137255 .933333333333333 83 3 420 .7
92156862745098 .819607843137255 .933333333333333 83 3 413 .792156862745098 .8196
07843137255 .933333333333333 15 410 508 0 502 402 503 51 411 518 0 402 0 404 0 -
-.0145 0 .001 0 0 -1 .002 -1 0 0 51 404 480 0 395 411 397 0 -.0145 0 .001 0 0 -1
 .002 -1 0 0 51 397 442 0 388 404 390 0 -0 0 .001 0 0 -1 .0075 -1 0 0 51 390 404
 0 382 397 340 0 --.0259807621135331 -.015 .001 0 0 -1 .0015 -1 0 0 51 340 366 0
 376 390 338 0 -.0259807621135331 -.015 .001 0 0 -1 .0015 -1 0 0 17 502 0 410 50
2 502 0 504 505 0 0 +15 503 509 0 506 402 0 17 506 0 503 506 506 0 507 508 0 0 -
17 507 0 509 507 507 0 506 508 0 0 +16 508 499 0 ?507 505 0 510 0 0 1 16 505 502
 0 ?502 511 508 512 0 0 1 31 510 521 0 508 512 513 0 +-.0145 0 0 0 0 1 1 0 0 .00
2 31 512 522 0 505 0 510 0 +-.0145 0 .001 0 0 1 1 0 0 .002 31 513 484 0 514 510
 515 0 +.0145 0 .001 0 0 1 1 0 0 .002 16 514 464 0 ?516 517 511 513 0 0 1 31 515
 483 0 511 513 518 0 +.0145 0 0 0 0 1 1 0 0 .002 16 511 461 0 ?519 514 505 515 0
 0 1 31 518 446 0 520 515 521 0 +0 0 .001 0 0 1 1 0 0 .0075 16 520 426 0 ?522 52
3 517 518 0 0 1 31 521 445 0 517 518 524 0 +0 0 0 0 0 1 1 0 0 .0075 16 517 423 0
 ?525 520 514 521 0 0 1 31 524 408 0 526 521 527 0 +-.0259807621135331 -.015 .00
1 0 0 1 1 0 0 .0015 16 526 388 0 ?528 318 523 524 0 0 1 31 527 407 0 523 524 319
 0 +-.0259807621135331 -.015 0 0 0 1 1 0 0 .0015 16 523 385 0 ?529 526 520 527 0
 0 1 31 319 370 0 315 527 317 0 +.0259807621135331 -.015 .001 0 0 1 1 0 0 .0015
 16 315 350 0 ?530 310 318 319 0 0 1 17 530 0 383 530 530 0 531 315 0 0 +16 318
 347 0 ?532 315 526 317 0 0 1 17 532 0 233 532 532 0 533 318 0 0 +15 233 335 0 5
32 232 534 17 533 0 535 533 533 0 532 318 0 0 -15 535 357 0 533 376 0 15 534 411
 0 525 232 509 17 525 0 534 525 525 0 536 517 0 0 +15 509 487 0 507 232 0 17 536
 0 537 536 536 0 525 517 0 0 -15 537 433 0 536 388 0 15 383 356 0 530 376 535 17
 531 0 538 531 531 0 530 315 0 0 -15 538 342 0 531 16 539 15 539 380 0 540 16 54
1 17 540 0 539 540 540 0 528 526 0 0 -15 541 418 0 542 16 543 17 542 0 541 542 5
42 0 522 520 0 0 -15 543 456 0 544 16 545 17 544 0 543 544 544 0 516 514 0 0 -15
 545 494 0 504 16 0 17 504 0 545 504 504 0 502 505 0 0 -17 516 0 403 516 516 0 5
44 514 0 0 +15 403 470 0 516 395 546 15 546 471 0 547 395 0 17 547 0 546 547 547
 0 519 511 0 0 -17 519 0 336 519 519 0 547 511 0 0 +15 336 449 0 519 232 548 15
 548 373 0 529 232 549 17 529 0 548 529 529 0 550 523 0 0 +15 549 297 0 314 232
 35 17 314 0 549 314 314 0 551 310 0 0 +17 551 0 552 551 551 0 314 310 0 0 -15 5
52 319 0 551 339 0 17 550 0 553 550 550 0 529 523 0 0 -15 553 395 0 550 382 0 17
 522 0 396 522 522 0 542 520 0 0 +15 396 432 0 522 388 537 17 528 0 389 528 528
 0 540 526 0 0 +15 389 394 0 528 382 553 83 3 406 .792156862745098 .819607843137
255 .933333333333333 83 3 399 .792156862745098 .819607843137255 .933333333333333
 83 3 392 .792156862745098 .819607843137255 .933333333333333 83 3 385 .792156862
745098 .819607843137255 .933333333333333 83 3 379 .792156862745098 .819607843137
255 .933333333333333 15 312 318 0 309 339 552 82 1 372 1121583216 83 3 371 .7921
56862745098 .819607843137255 .933333333333333 79 14 367 SWEntUnchanged82 1 335 1
147207792 82 1 327 1122369647 17 66 0 143 291 279 64 285 210 0 288 +17 285 0 283
 278 284 55 66 210 0 0 -17 313 0 149 313 313 0 309 308 0 0 -15 149 304 0 313 16
 538 17 57 0 273 274 250 55 278 185 0 279 +17 119 0 224 219 189 117 226 236 0 16
6 +19 17 268 0 1 0 9 5 S74 20 15 9 0 0 554 555 454 556 557 558 13 441 2 0 0 0 0
 0 0 0 0 0 0 0 81 2 554 295 559 1 0 555 0 0 0 560 81 2 555 568 561 1 554 556 0 0
 0 562 81 1 556 961 563 1 555 557 0 0 564 81 2 557 990 565 1 556 558 0 0 0 566 8
1 2 558 1022 567 1 557 13 0 0 568 0 81 2 13 1023 569 1 558 2 0 0 0 0 80 2 569 57
0 571 9000 0 0 0 0 3 5 0 0 0 FFTFFFFFFFFFFF9 1 79 16 571 BODY_RECIPE_200180 2 56
7 572 573 9000 0 0 0 0 3 5 0 0 0 FFTFTTTFFTFFFF3 3 84 6 568 ?????179 21 573 SWIM
PLICITBODYNAME_ID80 2 565 574 575 9000 0 0 0 0 3 5 0 0 0 FFTFFFFFFFFFFF9 1 82 1
 566 1 79 24 575 BODY_IN_LIGHTWEIGHT_PERM80 1 563 576 577 9000 1 1 1 1 1 1 1 1 0
 FFTFFFFFFFFFFF1 82 1 564 410044 79 10 577 BODY_MATCH80 2 561 578 579 9000 0 0 0
 0 3 5 0 0 0 FFTFFFFFFFFFFF9 1 82 1 562 80 79 30 579 LAST_BODY_MODIFYING_FEATURE
_ID80 2 559 580 581 9000 0 0 0 0 3 5 0 0 0 FFTFFFFFFFFFFT9 1 82 1 560 110 79 19
 581 ENT_TIME_STAMP_200180 2 12 582 583 9000 0 0 0 0 3 5 0 0 0 FFTFFFFFFFFFFF9 1
 82 1 14 101 79 12 583 ATOM_ID_20011 0 
